<?xml version="1.0" encoding="UTF-8" standalone="no"?>
<!DOCTYPE svg PUBLIC "-//W3C//DTD SVG 1.1//EN" "http://www.w3.org/Graphics/SVG/1.1/DTD/svg11.dtd">
<svg xmlns="http://www.w3.org/2000/svg" xmlns:serif="http://www.serif.com/" width="100%" height="100%" viewBox="0 0 128 64" version="1.1" xml:space="preserve" style="fill-rule:evenodd;clip-rule:evenodd;stroke-linejoin:round;stroke-miterlimit:2;" xmlns:rdf="http://www.w3.org/1999/02/22-rdf-syntax-ns" xmlns:cc="http://creativecommons.org/ns" xmlns:dc="http://purl.org/dc/elements/1.1/">
  <g id="Cat---Dog" serif:id="Cat &amp; Dog">
    <g>
      <g>
        <path d="M8,36l-4,0l0,-24l4,0l0,24Zm0,-24l0,-4l4,0l0,4l-4,0Zm4,-4l0,-4l4,0l0,4l-4,0Zm4,-4l0,-4l4,0l0,4l-4,0Zm4,0l4,0l0,4l-4,0l0,-4Zm4,4l16,0l0,4l-16,0l0,-4Zm16,0l0,-4l4,0l0,4l-4,0Zm4,-4l0,-4l4,0l0,4l-4,0Zm4,0l4,0l0,4l-4,0l0,-4Zm4,4l4,0l0,4l-4,0l0,-4Zm4,4l44,0l0,4l-40,0l0,20l-4,0l0,-24Zm44,0l0,-4l4,0l0,4l-4,0Zm4,-4l0,-4l4,0l0,4l-4,0Zm4,-4l0,-4l12,0l0,4l-12,0Zm12,0l4,0l0,8l-4,0l0,-8Zm0,8l0,4l-4,0l0,-4l4,0Zm-4,4l0,4l-4,0l0,-4l4,0Zm-4,4l0,4l-4,0l0,-4l4,0Zm-4,4l0,4l-4,0l0,-4l4,0Zm-4,4l0,4l-4,0l0,8l8,0l0,16l-8,0l0,8l-16,0l0,-8l-16,0l0,8l-16,0l0,-8l-4,0l0,8l-16,0l0,-12l-16,0l0,-8l4,0l0,4l16,0l0,12l8,0l0,-8l12,0l0,8l8,0l0,-8l24,0l0,8l8,0l0,-32l8,0Zm-88,16l-4,0l0,-4l4,0l0,4Zm-4,-4l-4,0l0,-4l4,0l0,4Zm88,4l0,8l4,0l0,-8l-4,0Zm-44,-8l0,4l-4,0l0,-4l4,0Zm-4,4l0,4l-4,0l0,-4l4,0Zm-4,4l0,4l-4,0l0,-4l4,0Zm24,-24l0,12l-4,0l0,-12l4,0Zm-48,8l-8,0l0,-8l4,0l0,4l4,0l0,4Zm56,-8l0,12l-4,0l0,-12l4,0Zm8,0l0,12l-4,0l0,-12l4,0Zm-58,20l0,-2l2,0l0,-2l-2,0l0,-4l4,0l0,8l-4,0Zm0,0l0,2l-2,0l0,-2l2,0Zm4,0l2,0l0,2l-2,0l0,-2Zm14,-12l-8,0l0,-8l4,0l0,4l4,0l0,4Z" />
        <path d="M12,36l-4,0l0,-24l4,0l0,-4l4,0l0,-4l4,0l0,4l4,0l0,4l16,0l0,-4l4,0l0,-4l4,0l0,4l4,0l0,4l4,0l0,24l-4,0l0,4l-4,0l0,4l-4,0l0,4l4,0l0,-4l4,0l0,-4l4,0l0,-4l4,0l0,-20l40,0l0,-4l4,0l0,-4l4,0l0,-4l12,0l0,8l-4,0l0,4l-4,0l0,4l-4,0l0,4l-4,0l0,4l-8,0l0,32l-8,0l0,-8l-24,0l0,8l-8,0l0,-8l-12,0l0,8l-8,0l0,-12l-16,0l0,-4l-4,0l0,-4l-4,0l0,-4Zm4,-16l0,8l8,0l0,-8l-8,0Zm24,0l0,8l8,0l0,-8l-8,0Zm-6,12l-4,0l0,4l2,0l0,2l-2,0l0,2l-2,0l0,2l2,0l0,2l4,0l0,-2l2,0l0,-2l-2,0l0,-8Zm34,-12l0,12l4,0l0,-12l-4,0Zm20,0l-4,0l0,12l4,0l0,-12Zm-8,0l-4,0l0,12l4,0l0,-12Zm24,24l0,8l-4,0l0,-8l4,0Z" style="fill:#fcd009;" />
        <path d="M24,20l0,4l-4,0l0,-4l4,0Zm24,0l0,4l-4,0l0,-4l4,0Z" style="fill:#fff;" />
        <rect x="30" y="40" width="4" height="4" style="fill:#00b48d;" />
      </g>
    </g>
  </g>
  <metadata>
    <rdf:RDF>
      <cc:Work rdf:about="">
        <cc:License rdf:resource="http://creativecommons.org/licenses/by-sa/4.0/" />
        <dc:right>
          <cc:Agent>
            <dc:title>CC-BY-SA 4.0 Jugend Hackt</dc:title>
          </cc:Agent>
        </dc:right>
        <dc:title>
          <cc:Agent>
            <dc:title>Pixelhack</dc:title>
          </cc:Agent>
        </dc:title>
        <dc:contributor>
          <cc:Agent>
            <dc:title>Hanno Sternberg</dc:title>
          </cc:Agent>
        </dc:contributor>
        <dc:creator>
          <cc:Agent>
            <dc:title>Jugend Hackt</dc:title>
          </cc:Agent>
        </dc:creator>
        <dc:date>
          <cc:Agent>
            <dc:title>2013</dc:title>
          </cc:Agent>
        </dc:date>
      </cc:Work>
      <cc:License rdf:about="http://creativecommons.org/licenses/by-sa/4.0/">
        <cc:permits rdf:resource="http://creativecommons.org/ns#DerivativeWorks" />
        <cc:requires rdf:resource="http://creativecommons.org/ns#ShareAlike" />
      </cc:License>
    </rdf:RDF>
  </metadata>
</svg>