<?xml version="1.0" encoding="UTF-8" standalone="no"?>
<!DOCTYPE svg PUBLIC "-//W3C//DTD SVG 1.1//EN" "http://www.w3.org/Graphics/SVG/1.1/DTD/svg11.dtd">
<svg xmlns="http://www.w3.org/2000/svg" xmlns:serif="http://www.serif.com/" width="100%" height="100%" viewBox="0 0 64 64" version="1.1" xml:space="preserve" style="fill-rule:evenodd;clip-rule:evenodd;stroke-linejoin:round;stroke-miterlimit:2;" xmlns:rdf="http://www.w3.org/1999/02/22-rdf-syntax-ns" xmlns:cc="http://creativecommons.org/ns" xmlns:dc="http://purl.org/dc/elements/1.1/">
  <g id="Disk--reflection-" serif:id="Disk (reflection)">
    <g>
      <path d="M2,38l-2,0l0,-12l2,0l0,12Zm0,-12l0,-6l2,0l0,6l-2,0Zm2,-6l0,-4l2,0l0,4l-2,0Zm2,-4l0,-2l2,0l0,2l-2,0Zm2,-2l0,-4l2,0l0,4l-2,0Zm2,-4l0,-2l4,0l0,2l-4,0Zm4,-2l0,-2l2,0l0,2l-2,0Zm2,-2l0,-2l4,0l0,2l-4,0Zm4,-2l0,-2l6,0l0,2l-6,0Zm6,-2l0,-2l12,0l0,2l-12,0Zm12,0l6,0l0,2l-6,0l0,-2Zm6,2l4,0l0,2l-4,0l0,-2Zm4,2l2,0l0,2l-2,0l0,-2Zm2,2l4,0l0,2l-4,0l0,-2Zm4,2l2,0l0,4l-2,0l0,-4Zm2,4l2,0l0,2l-2,0l0,-2Zm2,2l2,0l0,4l-2,0l0,-4Zm2,4l2,0l0,6l-2,0l0,-6Zm2,6l2,0l0,12l-2,0l0,-12Zm0,12l0,6l-2,0l0,-6l2,0Zm-2,6l0,4l-2,0l0,-4l2,0Zm-2,4l0,2l-2,0l0,-2l2,0Zm-2,2l0,4l-2,0l0,-4l2,0Zm-2,4l0,2l-4,0l0,-2l4,0Zm-4,2l0,2l-2,0l0,-2l2,0Zm-2,2l0,2l-4,0l0,-2l4,0Zm-4,2l0,2l-6,0l0,-2l6,0Zm-6,2l0,2l-12,0l0,-2l12,0Zm-12,0l-6,0l0,-2l6,0l0,2Zm-6,-2l-4,0l0,-2l4,0l0,2Zm-4,-2l-2,0l0,-2l2,0l0,2Zm-2,-2l-4,0l0,-2l4,0l0,2Zm-4,-2l-2,0l0,-4l2,0l0,4Zm-2,-4l-2,0l0,-2l2,0l0,2Zm-2,-2l-2,0l0,-4l2,0l0,4Zm-2,-4l-2,0l0,-6l2,0l0,6Zm24,-10l-2,0l0,-4l2,0l0,4Zm0,-4l0,-2l2,0l0,2l-2,0Zm2,-2l0,-2l4,0l0,2l-4,0Zm4,0l2,0l0,2l-2,0l0,-2Zm2,2l2,0l0,4l-2,0l0,-4Zm0,4l0,2l-2,0l0,-2l2,0Zm-2,2l0,2l-4,0l0,-2l4,0Zm-4,0l-2,0l0,-2l2,0l0,2Z" style="fill:#52575b;" />
      <path d="M4,38l-2,0l0,-12l2,0l0,-6l2,0l0,-4l2,0l0,8l-2,0l0,16l2,0l0,4l2,0l0,4l2,0l0,2l2,0l0,2l2,0l0,2l4,0l0,2l4,0l0,2l10,0l0,2l4,0l0,2l-12,0l0,-2l-6,0l0,-2l-4,0l0,-2l-2,0l0,-2l-4,0l0,-4l-2,0l0,-2l-2,0l0,-4l-2,0l0,-6Zm4,-22l0,-2l2,0l0,2l-2,0Zm2,-2l0,-4l4,0l0,2l-2,0l0,2l-2,0Zm4,-4l0,-2l2,0l0,2l-2,0Zm2,-2l0,-2l4,0l0,2l-4,0Zm4,-2l0,-2l6,0l0,2l-6,0Zm6,-2l0,-2l12,0l0,2l6,0l0,2l4,0l0,2l2,0l0,2l4,0l0,4l2,0l0,2l2,0l0,4l2,0l0,6l2,0l0,12l-2,0l0,6l-2,0l0,4l-2,0l0,-8l2,0l0,-16l-2,0l0,-4l-2,0l0,-4l-2,0l0,-2l-2,0l0,-2l-2,0l0,-2l-4,0l0,-2l-4,0l0,-2l-10,0l0,-2l-4,0Zm30,44l0,2l-2,0l0,-2l2,0Zm-2,2l0,4l-4,0l0,-2l2,0l0,-2l2,0Zm-4,4l0,2l-2,0l0,-2l2,0Zm-2,2l0,2l-4,0l0,-2l4,0Zm-4,2l0,2l-6,0l0,-2l6,0Zm-22,-22l-2,0l0,-8l2,0l0,2l2,0l0,4l2,0l0,2l2,0l0,2l2,0l0,2l2,0l0,4l-4,0l0,-2l-4,0l0,-2l-2,0l0,-4Zm-10,2l-2,0l0,-12l2,0l0,-2l4,0l0,14l2,0l0,4l2,0l0,2l2,0l0,2l4,0l0,2l8,0l0,6l-8,0l0,-2l-4,0l0,-2l-4,0l0,-2l-2,0l0,-2l-2,0l0,-4l-2,0l0,-4Zm22,-14l-2,0l0,-4l4,0l0,2l4,0l0,2l2,0l0,4l2,0l0,8l-2,0l0,-2l-2,0l0,-4l-2,0l0,-2l-2,0l0,-2l-2,0l0,-2Zm4,-8l-8,0l0,-6l8,0l0,2l4,0l0,2l4,0l0,2l2,0l0,2l2,0l0,4l2,0l0,4l2,0l0,12l-2,0l0,2l-4,0l0,-14l-2,0l0,-4l-2,0l0,-2l-2,0l0,-2l-4,0l0,-2Z" style="fill:#d1d6da;" />
      <path d="M38,10l-8,0l0,-4l10,0l0,2l4,0l0,2l4,0l0,2l2,0l0,2l2,0l0,2l2,0l0,4l2,0l0,4l2,0l0,16l-2,0l0,2l-4,0l0,-4l2,0l0,-12l-2,0l0,-4l-2,0l0,-4l-2,0l0,-2l-2,0l0,-2l-4,0l0,-2l-4,0l0,-2Zm-2,10l-4,0l0,-4l6,0l0,2l4,0l0,2l2,0l0,2l2,0l0,4l2,0l0,12l-4,0l0,-10l-2,0l0,-4l-2,0l0,-2l-4,0l0,-2Zm-28,20l-2,0l0,-16l2,0l0,-2l4,0l0,4l-2,0l0,12l2,0l0,4l2,0l0,4l2,0l0,2l2,0l0,2l4,0l0,2l4,0l0,2l8,0l0,4l-10,0l0,-2l-4,0l0,-2l-4,0l0,-2l-2,0l0,-2l-2,0l0,-2l-2,0l0,-4l-2,0l0,-4Zm10,-2l-2,0l0,-12l2,0l0,2l2,0l0,8l2,0l0,4l2,0l0,2l4,0l0,2l6,0l0,4l-8,0l0,-2l-4,0l0,-2l-2,0l0,-2l-2,0l0,-4Z" style="fill:#fff;" />
      <path d="M36,28l2,0l0,2l-2,0l0,-2Zm-2,-2l2,0l0,2l-2,0l0,-2Zm0,0l-2,0l0,-2l2,0l0,2Zm4,4l2,0l0,4l-2,0l0,-4Zm-12,4l2,0l0,2l-2,0l0,-2Zm0,0l-2,0l0,-4l2,0l0,4Zm2,2l2,0l0,2l-2,0l0,-2Zm2,2l2,0l0,2l-2,0l0,-2Z" />
    </g>
    <g>
      <path d="M28,4l0,8l-2,0l0,-8l2,0Zm2,14l0,8l-2,0l0,-8l2,0Zm6,20l0,6l-2,0l0,-6l2,0Zm2,14l0,8l-2,0l0,-8l2,0Z" style="fill:#e52320;" />
      <path d="M30,18l-2,0l0,-14l2,0l0,12l2,0l0,10l-2,0l0,-8Zm4,26l2,0l0,16l-2,0l0,-16Zm0,0l-2,0l0,-6l2,0l0,6Z" style="fill:#ff3b8d;" />
      <path d="M22,10l2,0l0,4l-2,0l0,-4Zm0,0l-2,0l0,-4l2,0l0,4Zm20,44l-2,0l0,-4l2,0l0,4Zm0,0l2,0l0,4l-2,0l0,-4Zm-16,-38l0,4l-2,0l0,-4l2,0Zm2,8l0,2l-2,0l0,-2l2,0Zm10,14l0,2l-2,0l0,-2l2,0Zm2,6l0,4l-2,0l0,-4l2,0Z" style="fill:#f3971b;" />
      <path d="M24,6l0,4l-2,0l0,-4l2,0Zm2,6l0,4l-2,0l0,-4l2,0Zm2,8l0,4l-2,0l0,-4l2,0Zm10,20l0,4l-2,0l0,-4l2,0Zm2,8l0,4l-2,0l0,-4l2,0Zm2,6l0,4l-2,0l0,-4l2,0Z" style="fill:#ea680d;" />
      <path d="M26,12l-2,0l0,-6l2,0l0,6Zm0,0l2,0l0,8l-2,0l0,-8Zm12,40l2,0l0,6l-2,0l0,-6Zm0,0l-2,0l0,-8l2,0l0,8Zm-8,-26l0,2l-2,0l0,-2l2,0Zm6,10l0,2l-2,0l0,-2l2,0Z" style="fill:#e6414a;" />
      <path d="M24,20l2,0l0,4l-2,0l0,-4Zm-6,-10l-2,0l0,-2l4,0l0,2l2,0l0,4l2,0l0,6l-2,0l0,-2l-2,0l0,-4l-2,0l0,-4Zm22,34l-2,0l0,-4l2,0l0,2l2,0l0,4l2,0l0,4l2,0l0,4l2,0l0,2l-4,0l0,-2l-2,0l0,-4l-2,0l0,-6Zm-12,-18l0,2l-2,0l0,-2l2,0Zm10,10l0,2l-2,0l0,-2l2,0Z" style="fill:#fcd009;" />
      <path d="M24,24l2,0l0,2l-2,0l0,-2Zm-8,-12l-2,0l0,-2l4,0l0,4l2,0l0,4l-2,0l0,-2l-2,0l0,-4Zm4,6l2,0l0,2l-2,0l0,-2Zm2,2l2,0l0,4l-2,0l0,-4Zm18,20l-2,0l0,-2l2,0l0,2Zm0,0l2,0l0,2l-2,0l0,-2Zm4,6l-2,0l0,-2l2,0l0,2Zm0,0l2,0l0,2l2,0l0,4l2,0l0,2l-4,0l0,-4l-2,0l0,-4Z" style="fill:#fbe50f;" />
      <path d="M20,20l2,0l0,2l-2,0l0,-2Zm-2,-2l2,0l0,2l-2,0l0,-2Zm-4,-4l-2,0l0,-2l4,0l0,4l-2,0l0,-2Zm2,2l2,0l0,2l-2,0l0,-2Zm8,10l-2,0l0,-2l2,0l0,2Zm0,0l2,0l0,2l-2,0l0,-2Zm2,2l2,0l0,2l-2,0l0,-2Zm12,8l-2,0l0,-2l2,0l0,2Zm4,4l2,0l0,4l-2,0l0,-4Zm6,8l2,0l0,2l2,0l0,2l-4,0l0,-4Zm-4,-4l2,0l0,2l-2,0l0,-2Zm2,2l2,0l0,2l-2,0l0,-2Zm-8,-10l2,0l0,2l-2,0l0,-2Zm2,2l2,0l0,2l-2,0l0,-2Z" style="fill:#09aa24;" />
      <path d="M12,16l-2,0l0,-2l4,0l0,2l2,0l0,2l2,0l0,2l2,0l0,2l2,0l0,4l-2,0l0,-2l-2,0l0,-2l-2,0l0,-2l-2,0l0,-2l-2,0l0,-2Zm34,28l-2,0l0,-4l2,0l0,2l2,0l0,2l2,0l0,2l2,0l0,2l2,0l0,2l-4,0l0,-2l-2,0l0,-2l-2,0l0,-2Z" style="fill:#00b48d;" />
      <path d="M18,24l2,0l0,2l-2,0l0,-2Zm-8,-6l-2,0l0,-2l4,0l0,2l2,0l0,2l-4,0l0,-2Zm4,2l2,0l0,2l-2,0l0,-2Zm2,2l2,0l0,2l-2,0l0,-2Zm8,6l-2,0l0,-2l2,0l0,2Zm0,0l2,0l0,2l-2,0l0,-2Zm18,10l4,0l0,2l-4,0l0,-2Zm-2,-2l2,0l0,2l-2,0l0,-2Zm6,4l2,0l0,2l-2,0l0,-2Zm2,2l2,0l0,2l-2,0l0,-2Zm-8,-6l-2,0l0,-2l2,0l0,2Zm10,8l4,0l0,2l2,0l0,2l-4,0l0,-2l-2,0l0,-2Z" style="fill:#16a6de;" />
      <path d="M16,24l2,0l0,2l-2,0l0,-2Zm-4,-2l-4,0l0,-4l2,0l0,2l4,0l0,2l2,0l0,2l-4,0l0,-2Zm6,4l4,0l0,2l-4,0l0,-2Zm4,2l2,0l0,2l-2,0l0,-2Zm20,8l2,0l0,2l-2,0l0,-2Zm0,0l-2,0l0,-2l2,0l0,2Zm6,4l4,0l0,2l4,0l0,4l-2,0l0,-2l-4,0l0,-2l-2,0l0,-2Zm0,0l-2,0l0,-2l2,0l0,2Z" style="fill:#10498c;" />
    </g>
  </g>
  <g id="Disk">
    <path d="M2,102l-2,0l0,-12l2,0l0,12Zm0,-12l0,-6l2,0l0,6l-2,0Zm2,-6l0,-4l2,0l0,4l-2,0Zm2,-4l0,-2l2,0l0,2l-2,0Zm2,-2l0,-4l2,0l0,4l-2,0Zm2,-4l0,-2l4,0l0,2l-4,0Zm4,-2l0,-2l2,0l0,2l-2,0Zm2,-2l0,-2l4,0l0,2l-4,0Zm4,-2l0,-2l6,0l0,2l-6,0Zm6,-2l0,-2l12,0l0,2l-12,0Zm12,0l6,0l0,2l-6,0l0,-2Zm6,2l4,0l0,2l-4,0l0,-2Zm4,2l2,0l0,2l-2,0l0,-2Zm2,2l4,0l0,2l-4,0l0,-2Zm4,2l2,0l0,4l-2,0l0,-4Zm2,4l2,0l0,2l-2,0l0,-2Zm2,2l2,0l0,4l-2,0l0,-4Zm2,4l2,0l0,6l-2,0l0,-6Zm2,6l2,0l0,12l-2,0l0,-12Zm0,12l0,6l-2,0l0,-6l2,0Zm-2,6l0,4l-2,0l0,-4l2,0Zm-2,4l0,2l-2,0l0,-2l2,0Zm-2,2l0,4l-2,0l0,-4l2,0Zm-2,4l0,2l-4,0l0,-2l4,0Zm-4,2l0,2l-2,0l0,-2l2,0Zm-2,2l0,2l-4,0l0,-2l4,0Zm-4,2l0,2l-6,0l0,-2l6,0Zm-6,2l0,2l-12,0l0,-2l12,0Zm-12,0l-6,0l0,-2l6,0l0,2Zm-6,-2l-4,0l0,-2l4,0l0,2Zm-4,-2l-2,0l0,-2l2,0l0,2Zm-2,-2l-4,0l0,-2l4,0l0,2Zm-4,-2l-2,0l0,-4l2,0l0,4Zm-2,-4l-2,0l0,-2l2,0l0,2Zm-2,-2l-2,0l0,-4l2,0l0,4Zm-2,-4l-2,0l0,-6l2,0l0,6Zm20,-10l-2,0l0,-4l2,0l0,4Zm0,-4l0,-2l2,0l0,2l-2,0Zm2,-2l0,-2l2,0l0,2l-2,0Zm2,-2l0,-2l2,0l0,2l-2,0Zm2,-2l0,-2l4,0l0,2l-4,0Zm4,0l2,0l0,2l-2,0l0,-2Zm2,2l2,0l0,2l-2,0l0,-2Zm2,2l2,0l0,2l-2,0l0,-2Zm2,2l2,0l0,4l-2,0l0,-4Zm0,4l0,2l-2,0l0,-2l2,0Zm-2,2l0,2l-2,0l0,-2l2,0Zm-2,2l0,2l-2,0l0,-2l2,0Zm-2,2l0,2l-4,0l0,-2l4,0Zm-4,0l-2,0l0,-2l2,0l0,2Zm-2,-2l-2,0l0,-2l2,0l0,2Zm-2,-2l-2,0l0,-2l2,0l0,2Zm0,-2l0,-4l2,0l0,4l-2,0Zm2,-4l0,-2l2,0l0,2l-2,0Zm2,-2l0,-2l4,0l0,2l-4,0Zm4,0l2,0l0,2l-2,0l0,-2Zm2,2l2,0l0,4l-2,0l0,-4Zm0,4l0,2l-2,0l0,-2l2,0Zm-2,2l0,2l-4,0l0,-2l4,0Zm-4,0l-2,0l0,-2l2,0l0,2Z" style="fill:#52575b;" />
  </g>
  <metadata>
    <rdf:RDF>
      <cc:Work rdf:about="">
        <cc:License rdf:resource="http://creativecommons.org/licenses/by-sa/4.0/" />
        <dc:right>
          <cc:Agent>
            <dc:title>CC-BY-SA 4.0 Jugend Hackt</dc:title>
          </cc:Agent>
        </dc:right>
        <dc:title>
          <cc:Agent>
            <dc:title>Pixelhack</dc:title>
          </cc:Agent>
        </dc:title>
        <dc:contributor>
          <cc:Agent>
            <dc:title>Hanno Sternberg</dc:title>
          </cc:Agent>
        </dc:contributor>
        <dc:creator>
          <cc:Agent>
            <dc:title>Jugend Hackt</dc:title>
          </cc:Agent>
        </dc:creator>
        <dc:date>
          <cc:Agent>
            <dc:title>2013</dc:title>
          </cc:Agent>
        </dc:date>
      </cc:Work>
      <cc:License rdf:about="http://creativecommons.org/licenses/by-sa/4.0/">
        <cc:permits rdf:resource="http://creativecommons.org/ns#DerivativeWorks" />
        <cc:requires rdf:resource="http://creativecommons.org/ns#ShareAlike" />
      </cc:License>
    </rdf:RDF>
  </metadata>
</svg>