<?xml version="1.0" encoding="UTF-8" standalone="no"?>
<!DOCTYPE svg PUBLIC "-//W3C//DTD SVG 1.1//EN" "http://www.w3.org/Graphics/SVG/1.1/DTD/svg11.dtd">
<svg xmlns="http://www.w3.org/2000/svg" xmlns:serif="http://www.serif.com/" width="100%" height="100%" viewBox="0 0 64 64" version="1.1" xml:space="preserve" style="fill-rule:evenodd;clip-rule:evenodd;stroke-linejoin:round;stroke-miterlimit:2;" xmlns:rdf="http://www.w3.org/1999/02/22-rdf-syntax-ns" xmlns:cc="http://creativecommons.org/ns" xmlns:dc="http://purl.org/dc/elements/1.1/">
  <g id="Colorful-Objekts" serif:id="Colorful Objekts">
    <g id="Die">
      <g>
        <path d="M12,18l-4,0l0,-2l4,0l0,-2l4,0l0,-2l6,0l0,-2l4,0l0,-2l4,0l0,-2l4,0l0,2l4,0l0,2l4,0l0,2l4,0l0,2l4,0l0,2l4,0l0,4l-6,0l0,2l-4,0l0,2l-4,0l0,2l-4,0l0,2l-8,0l0,-2l-4,0l0,-2l-4,0l0,-2l-4,0l0,-2l-4,0l0,-2Zm18,-4l0,2l-2,0l0,2l2,0l0,2l4,0l0,-2l2,0l0,-2l-2,0l0,-2l-4,0Z" style="fill:#00b48d;" />
        <path d="M30,18l-2,0l0,-2l2,0l0,-2l4,0l0,2l2,0l0,2l-2,0l0,2l-4,0l0,-2Z" style="fill:#ca006a;" />
        <path d="M12,50l-4,0l0,-32l4,0l0,2l4,0l0,2l4,0l0,2l4,0l0,2l4,0l0,2l4,0l0,32l-4,0l0,-2l-4,0l0,-2l-4,0l0,-2l-4,0l0,-2l-4,0l0,-2Zm0,-6l0,2l2,0l0,2l4,0l0,-2l2,0l0,-2l-2,0l0,-2l-4,0l0,2l-2,0Zm8,-10l0,2l2,0l0,2l4,0l0,-2l2,0l0,-2l-2,0l0,-2l-4,0l0,2l-2,0Z" style="fill:#16a6de;" />
        <path d="M32,60l0,-32l4,0l0,-2l4,0l0,-2l4,0l0,-2l4,0l0,-2l6,0l0,-2l2,0l0,32l-4,0l0,2l-4,0l0,2l-4,0l0,2l-4,0l0,2l-4,0l0,2l-4,0Zm4,-14l0,2l-2,0l0,2l2,0l0,2l4,0l0,-2l2,0l0,-2l-2,0l0,-2l-4,0Zm4,-8l0,2l2,0l0,2l4,0l0,-2l2,0l0,-2l-2,0l0,-2l-4,0l0,2l-2,0Zm8,-12l0,2l-2,0l0,2l2,0l0,2l4,0l0,-2l2,0l0,-2l-2,0l0,-2l-4,0Z" style="fill:#006661;" />
        <path d="M48,30l-2,0l0,-2l2,0l0,-2l4,0l0,2l2,0l0,2l-2,0l0,2l-4,0l0,-2Zm-6,10l-2,0l0,-2l2,0l0,-2l4,0l0,2l2,0l0,2l-2,0l0,2l-4,0l0,-2Zm-6,10l-2,0l0,-2l2,0l0,-2l4,0l0,2l2,0l0,2l-2,0l0,2l-4,0l0,-2Z" style="fill:#e52320;" />
        <path d="M22,36l-2,0l0,-2l2,0l0,-2l4,0l0,2l2,0l0,2l-2,0l0,2l-4,0l0,-2Zm-8,10l-2,0l0,-2l2,0l0,-2l4,0l0,2l2,0l0,2l-2,0l0,2l-4,0l0,-2Z" style="fill:#ff3b8d;" />
      </g>
    </g>
  </g>
  <metadata>
    <rdf:RDF>
      <cc:Work rdf:about="">
        <cc:License rdf:resource="http://creativecommons.org/licenses/by-sa/4.0/" />
        <dc:right>
          <cc:Agent>
            <dc:title>CC-BY-SA 4.0 Jugend Hackt</dc:title>
          </cc:Agent>
        </dc:right>
        <dc:title>
          <cc:Agent>
            <dc:title>Pixelhack</dc:title>
          </cc:Agent>
        </dc:title>
        <dc:contributor>
          <cc:Agent>
            <dc:title>Hanno Sternberg</dc:title>
          </cc:Agent>
        </dc:contributor>
        <dc:creator>
          <cc:Agent>
            <dc:title>Jugend Hackt</dc:title>
          </cc:Agent>
        </dc:creator>
        <dc:date>
          <cc:Agent>
            <dc:title>2013</dc:title>
          </cc:Agent>
        </dc:date>
      </cc:Work>
      <cc:License rdf:about="http://creativecommons.org/licenses/by-sa/4.0/">
        <cc:permits rdf:resource="http://creativecommons.org/ns#DerivativeWorks" />
        <cc:requires rdf:resource="http://creativecommons.org/ns#ShareAlike" />
      </cc:License>
    </rdf:RDF>
  </metadata>
</svg>