<?xml version="1.0" encoding="UTF-8" standalone="no"?>
<!DOCTYPE svg PUBLIC "-//W3C//DTD SVG 1.1//EN" "http://www.w3.org/Graphics/SVG/1.1/DTD/svg11.dtd">
<svg xmlns="http://www.w3.org/2000/svg" xmlns:serif="http://www.serif.com/" width="100%" height="100%" viewBox="0 0 64 64" version="1.1" xml:space="preserve" style="fill-rule:evenodd;clip-rule:evenodd;stroke-linejoin:round;stroke-miterlimit:2;" xmlns:rdf="http://www.w3.org/1999/02/22-rdf-syntax-ns" xmlns:cc="http://creativecommons.org/ns" xmlns:dc="http://purl.org/dc/elements/1.1/">
  <g id="Colorful-Objekts" serif:id="Colorful Objekts">
    <g id="Disks">
      <g>
        <g>
          <path d="M2,60l0,-56l2,0l0,-2l6,0l0,2l2,0l0,-2l34,0l0,2l2,0l0,-2l6,0l0,2l2,0l0,2l2,0l0,2l2,0l0,2l2,0l0,50l-2,0l0,2l-56,0l0,-2l-2,0Zm6,-8l-4,0l0,4l4,0l0,-4Zm52,0l-4,0l0,4l4,0l0,-4Z" style="fill:#e52320;" />
          <g>
            <path d="M44,4l0,16l-26,0l0,-16l26,0Zm-4,4l-4,0l0,8l4,0l0,-8Z" style="fill:#d1d6da;" />
            <path d="M16,22l0,-20l30,0l0,20l-30,0Zm2,-18l0,16l26,0l0,-16l-26,0Z" style="fill:#52575b;" />
          </g>
          <path d="M10,50l-6,0l0,-44l2,0l0,-2l2,0l0,2l2,0l0,16l36,0l0,-16l4,0l0,-2l2,0l0,2l2,0l0,2l2,0l0,2l2,0l0,2l2,0l0,38l-6,0l0,8l4,0l0,2l-52,0l0,-2l4,0l0,-8Zm30,-42l0,8l-4,0l0,-8l4,0Z" style="fill:#e6414a;" />
          <g>
            <rect x="10" y="26" width="44" height="34" style="fill:#fefffe;" />
            <rect x="10" y="60" width="44" height="2" style="fill:#d1d6da;" />
          </g>
        </g>
      </g>
    </g>
  </g>
  <g id="Disk--reflection-" serif:id="Disk (reflection)">
    <g>
      <path d="M-62,38l-2,0l0,-12l2,0l0,12Zm0,-12l0,-6l2,0l0,6l-2,0Zm2,-6l0,-4l2,0l0,4l-2,0Zm2,-4l0,-2l2,0l0,2l-2,0Zm2,-2l0,-4l2,0l0,4l-2,0Zm2,-4l0,-2l4,0l0,2l-4,0Zm4,-2l0,-2l2,0l0,2l-2,0Zm2,-2l0,-2l4,0l0,2l-4,0Zm4,-2l0,-2l6,0l0,2l-6,0Zm6,-2l0,-2l12,0l0,2l-12,0Zm12,0l6,0l0,2l-6,0l0,-2Zm6,2l4,0l0,2l-4,0l0,-2Zm4,2l2,0l0,2l-2,0l0,-2Zm2,2l4,0l0,2l-4,0l0,-2Zm4,2l2,0l0,4l-2,0l0,-4Zm2,4l2,0l0,2l-2,0l0,-2Zm2,2l2,0l0,4l-2,0l0,-4Zm2,4l2,0l0,6l-2,0l0,-6Zm2,6l2,0l0,12l-2,0l0,-12Zm0,12l0,6l-2,0l0,-6l2,0Zm-2,6l0,4l-2,0l0,-4l2,0Zm-2,4l0,2l-2,0l0,-2l2,0Zm-2,2l0,4l-2,0l0,-4l2,0Zm-2,4l0,2l-4,0l0,-2l4,0Zm-4,2l0,2l-2,0l0,-2l2,0Zm-2,2l0,2l-4,0l0,-2l4,0Zm-4,2l0,2l-6,0l0,-2l6,0Zm-6,2l0,2l-12,0l0,-2l12,0Zm-12,0l-6,0l0,-2l6,0l0,2Zm-6,-2l-4,0l0,-2l4,0l0,2Zm-4,-2l-2,0l0,-2l2,0l0,2Zm-2,-2l-4,0l0,-2l4,0l0,2Zm-4,-2l-2,0l0,-4l2,0l0,4Zm-2,-4l-2,0l0,-2l2,0l0,2Zm-2,-2l-2,0l0,-4l2,0l0,4Zm-2,-4l-2,0l0,-6l2,0l0,6Zm24,-10l-2,0l0,-4l2,0l0,4Zm0,-4l0,-2l2,0l0,2l-2,0Zm2,-2l0,-2l4,0l0,2l-4,0Zm4,0l2,0l0,2l-2,0l0,-2Zm2,2l2,0l0,4l-2,0l0,-4Zm0,4l0,2l-2,0l0,-2l2,0Zm-2,2l0,2l-4,0l0,-2l4,0Zm-4,0l-2,0l0,-2l2,0l0,2Z" style="fill:#52575b;" />
    </g>
  </g>
  <g id="Disk">
    <path d="M-62,102l-2,0l0,-12l2,0l0,12Zm0,-12l0,-6l2,0l0,6l-2,0Zm2,-6l0,-4l2,0l0,4l-2,0Zm2,-4l0,-2l2,0l0,2l-2,0Zm2,-2l0,-4l2,0l0,4l-2,0Zm2,-4l0,-2l4,0l0,2l-4,0Zm4,-2l0,-2l2,0l0,2l-2,0Zm2,-2l0,-2l4,0l0,2l-4,0Zm4,-2l0,-2l6,0l0,2l-6,0Zm6,-2l0,-2l12,0l0,2l-12,0Zm12,0l6,0l0,2l-6,0l0,-2Zm6,2l4,0l0,2l-4,0l0,-2Zm4,2l2,0l0,2l-2,0l0,-2Zm2,2l4,0l0,2l-4,0l0,-2Zm4,2l2,0l0,4l-2,0l0,-4Zm2,4l2,0l0,2l-2,0l0,-2Zm2,2l2,0l0,4l-2,0l0,-4Zm2,4l2,0l0,6l-2,0l0,-6Zm2,6l2,0l0,12l-2,0l0,-12Zm0,12l0,6l-2,0l0,-6l2,0Zm-2,6l0,4l-2,0l0,-4l2,0Zm-2,4l0,2l-2,0l0,-2l2,0Zm-2,2l0,4l-2,0l0,-4l2,0Zm-2,4l0,2l-4,0l0,-2l4,0Zm-4,2l0,2l-2,0l0,-2l2,0Zm-2,2l0,2l-4,0l0,-2l4,0Zm-4,2l0,2l-6,0l0,-2l6,0Zm-6,2l0,2l-12,0l0,-2l12,0Zm-12,0l-6,0l0,-2l6,0l0,2Zm-6,-2l-4,0l0,-2l4,0l0,2Zm-4,-2l-2,0l0,-2l2,0l0,2Zm-2,-2l-4,0l0,-2l4,0l0,2Zm-4,-2l-2,0l0,-4l2,0l0,4Zm-2,-4l-2,0l0,-2l2,0l0,2Zm-2,-2l-2,0l0,-4l2,0l0,4Zm-2,-4l-2,0l0,-6l2,0l0,6Zm20,-10l-2,0l0,-4l2,0l0,4Zm0,-4l0,-2l2,0l0,2l-2,0Zm2,-2l0,-2l2,0l0,2l-2,0Zm2,-2l0,-2l2,0l0,2l-2,0Zm2,-2l0,-2l4,0l0,2l-4,0Zm4,0l2,0l0,2l-2,0l0,-2Zm2,2l2,0l0,2l-2,0l0,-2Zm2,2l2,0l0,2l-2,0l0,-2Zm2,2l2,0l0,4l-2,0l0,-4Zm0,4l0,2l-2,0l0,-2l2,0Zm-2,2l0,2l-2,0l0,-2l2,0Zm-2,2l0,2l-2,0l0,-2l2,0Zm-2,2l0,2l-4,0l0,-2l4,0Zm-4,0l-2,0l0,-2l2,0l0,2Zm-2,-2l-2,0l0,-2l2,0l0,2Zm-2,-2l-2,0l0,-2l2,0l0,2Zm0,-2l0,-4l2,0l0,4l-2,0Zm2,-4l0,-2l2,0l0,2l-2,0Zm2,-2l0,-2l4,0l0,2l-4,0Zm4,0l2,0l0,2l-2,0l0,-2Zm2,2l2,0l0,4l-2,0l0,-4Zm0,4l0,2l-2,0l0,-2l2,0Zm-2,2l0,2l-4,0l0,-2l4,0Zm-4,0l-2,0l0,-2l2,0l0,2Z" style="fill:#52575b;" />
  </g>
  <metadata>
    <rdf:RDF>
      <cc:Work rdf:about="">
        <cc:License rdf:resource="http://creativecommons.org/licenses/by-sa/4.0/" />
        <dc:right>
          <cc:Agent>
            <dc:title>CC-BY-SA 4.0 Jugend Hackt</dc:title>
          </cc:Agent>
        </dc:right>
        <dc:title>
          <cc:Agent>
            <dc:title>Pixelhack</dc:title>
          </cc:Agent>
        </dc:title>
        <dc:contributor>
          <cc:Agent>
            <dc:title>Hanno Sternberg</dc:title>
          </cc:Agent>
        </dc:contributor>
        <dc:creator>
          <cc:Agent>
            <dc:title>Jugend Hackt</dc:title>
          </cc:Agent>
        </dc:creator>
        <dc:date>
          <cc:Agent>
            <dc:title>2013</dc:title>
          </cc:Agent>
        </dc:date>
      </cc:Work>
      <cc:License rdf:about="http://creativecommons.org/licenses/by-sa/4.0/">
        <cc:permits rdf:resource="http://creativecommons.org/ns#DerivativeWorks" />
        <cc:requires rdf:resource="http://creativecommons.org/ns#ShareAlike" />
      </cc:License>
    </rdf:RDF>
  </metadata>
</svg>