<?xml version="1.0" encoding="UTF-8" standalone="no"?>
<!DOCTYPE svg PUBLIC "-//W3C//DTD SVG 1.1//EN" "http://www.w3.org/Graphics/SVG/1.1/DTD/svg11.dtd">
<svg xmlns="http://www.w3.org/2000/svg" xmlns:serif="http://www.serif.com/" width="100%" height="100%" viewBox="0 0 128 64" version="1.1" xml:space="preserve" style="fill-rule:evenodd;clip-rule:evenodd;stroke-linejoin:round;stroke-miterlimit:2;" xmlns:rdf="http://www.w3.org/1999/02/22-rdf-syntax-ns" xmlns:cc="http://creativecommons.org/ns" xmlns:dc="http://purl.org/dc/elements/1.1/">
  <g id="Cat---Dog" serif:id="Cat &amp; Dog">
    <g>
      <g>
        <path d="M4,16l-4,0l0,-8l4,0l0,8Zm0,-8l0,-4l8,0l0,4l-8,0Zm8,0l4,0l0,4l-4,0l0,-4Zm4,4l40,0l0,24l-4,0l0,-20l-36,0l0,-4Zm40,0l0,-4l4,0l0,4l-4,0Zm4,-4l0,-4l8,0l0,4l-8,0Zm8,-4l0,-4l40,0l0,4l-40,0Zm40,0l8,0l0,4l-8,0l0,-4Zm8,4l4,0l0,4l-4,0l0,-4Zm4,4l4,0l0,24l-4,0l0,-24Zm0,24l0,8l-12,0l0,-4l-4,0l0,-4l4,0l0,-4l4,0l0,8l4,0l0,-4l4,0Zm-16,4l0,4l-4,0l0,-4l4,0Zm-4,4l0,4l-10,0l0,16l-16,0l0,-8l-4,0l0,8l-16,0l0,-8l-18,0l0,8l-14,0l0,-4l-8,0l0,-14l8,0l0,-14l-10,0l0,-4l14,0l0,32l6,0l0,-8l26,0l0,8l8,0l0,-8l12,0l0,8l8,0l0,-12l-14,0l0,-4l28,0Zm-88,-16l-4,0l0,-4l4,0l0,4Zm-4,-4l-4,0l0,-8l4,0l0,8Zm14,32l0,-6l-4,0l0,6l4,0Zm50,-12l-4,0l0,-12l4,0l0,12Zm-4,-12l-4,0l0,-4l4,0l0,4Zm-4,0l0,4l-4,0l0,-4l4,0Zm-4,4l0,4l-4,0l0,-4l4,0Zm20,-20l0,4l-4,0l0,-4l4,0Zm8,18l2,0l0,4l-2,0l0,-4Zm-2,0l0,-6l4,0l0,4l-2,0l0,2l-2,0Zm-2,4l0,2l-2,0l0,-2l2,0Zm6,0l2,0l0,2l-2,0l0,-2Zm-6,0l0,-4l2,0l0,4l-2,0Zm18,-22l0,4l-4,0l0,-4l4,0Z" />
        <path d="M8,16l-4,0l0,-8l8,0l0,4l4,0l0,4l36,0l0,20l4,0l0,4l4,0l0,-4l4,0l0,-4l4,0l0,12l4,0l0,4l14,0l0,12l-8,0l0,-8l-12,0l0,8l-8,0l0,-8l-26,0l0,8l-6,0l0,-32l-14,0l0,-4l-4,0l0,-8Zm48,20l0,-24l4,0l0,-4l8,0l0,-4l40,0l0,4l8,0l0,4l4,0l0,24l-4,0l0,4l-4,0l0,-8l-4,0l0,4l-4,0l0,4l-4,0l0,4l-28,0l0,-12l-4,0l0,-4l-4,0l0,4l-4,0l0,4l-4,0Zm46,-20l-8,0l0,8l8,0l0,-8Zm-22,0l-8,0l0,8l8,0l0,-8Zm12,24l0,-2l-2,0l0,-4l-2,0l0,-2l2,0l0,-4l-4,0l0,6l-2,0l0,4l-2,0l0,2l2,0l0,-2l2,0l0,-4l2,0l0,4l2,0l0,2l2,0Zm-70,10l0,6l-4,0l0,-6l4,0Z" style="fill:#ff3b8d;" />
        <path d="M80,24l-8,0l0,-8l4,0l0,4l4,0l0,4Zm22,0l-8,0l0,-8l4,0l0,4l4,0l0,4Z" style="fill:#fff;" />
      </g>
    </g>
  </g>
  <metadata>
    <rdf:RDF>
      <cc:Work rdf:about="">
        <cc:License rdf:resource="http://creativecommons.org/licenses/by-sa/4.0/" />
        <dc:right>
          <cc:Agent>
            <dc:title>CC-BY-SA 4.0 Jugend Hackt</dc:title>
          </cc:Agent>
        </dc:right>
        <dc:title>
          <cc:Agent>
            <dc:title>Pixelhack</dc:title>
          </cc:Agent>
        </dc:title>
        <dc:contributor>
          <cc:Agent>
            <dc:title>Hanno Sternberg</dc:title>
          </cc:Agent>
        </dc:contributor>
        <dc:creator>
          <cc:Agent>
            <dc:title>Jugend Hackt</dc:title>
          </cc:Agent>
        </dc:creator>
        <dc:date>
          <cc:Agent>
            <dc:title>2013</dc:title>
          </cc:Agent>
        </dc:date>
      </cc:Work>
      <cc:License rdf:about="http://creativecommons.org/licenses/by-sa/4.0/">
        <cc:permits rdf:resource="http://creativecommons.org/ns#DerivativeWorks" />
        <cc:requires rdf:resource="http://creativecommons.org/ns#ShareAlike" />
      </cc:License>
    </rdf:RDF>
  </metadata>
</svg>