<?xml version="1.0" encoding="UTF-8" standalone="no"?>
<!DOCTYPE svg PUBLIC "-//W3C//DTD SVG 1.1//EN" "http://www.w3.org/Graphics/SVG/1.1/DTD/svg11.dtd">
<svg xmlns="http://www.w3.org/2000/svg" xmlns:serif="http://www.serif.com/" width="100%" height="100%" viewBox="0 0 128 64" version="1.1" xml:space="preserve" style="fill-rule:evenodd;clip-rule:evenodd;stroke-linejoin:round;stroke-miterlimit:2;" xmlns:rdf="http://www.w3.org/1999/02/22-rdf-syntax-ns" xmlns:cc="http://creativecommons.org/ns" xmlns:dc="http://purl.org/dc/elements/1.1/">
  <g id="Pride-Flags" serif:id="Pride Flags">
    <g>
      <g>
        <path d="M44,20l0,2l-32,0l0,-12l32,0l0,-2l6,0l0,-2l6,0l0,-2l8,0l0,2l6,0l0,2l6,0l0,2l8,0l0,-2l8,0l0,-2l10,0l0,2l8,0l0,2l14,0l0,12l-14,0l0,-2l-8,0l0,-2l-10,0l0,2l-8,0l0,2l-8,0l0,-2l-6,0l0,-2l-6,0l0,-2l-8,0l0,2l-6,0l0,2l-6,0Z" style="fill:#fcd009;" />
        <rect x="4" y="6" width="8" height="8" style="fill:#52575b;" />
        <path d="M44,32l0,2l-32,0l0,-12l32,0l0,-2l6,0l0,-2l6,0l0,-2l8,0l0,2l6,0l0,2l6,0l0,2l8,0l0,-2l8,0l0,-2l10,0l0,2l8,0l0,2l14,0l0,12l-14,0l0,-2l-8,0l0,-2l-10,0l0,2l-8,0l0,2l-8,0l0,-2l-6,0l0,-2l-6,0l0,-2l-8,0l0,2l-6,0l0,2l-6,0Z" style="fill:#fff;" />
        <path d="M44,44l0,2l-32,0l0,-12l32,0l0,-2l6,0l0,-2l6,0l0,-2l8,0l0,2l6,0l0,2l6,0l0,2l8,0l0,-2l8,0l0,-2l10,0l0,2l8,0l0,2l14,0l0,12l-14,0l0,-2l-8,0l0,-2l-10,0l0,2l-8,0l0,2l-8,0l0,-2l-6,0l0,-2l-6,0l0,-2l-8,0l0,2l-6,0l0,2l-6,0Z" style="fill:#550080;" />
        <path d="M44,56l0,2l-32,0l0,-12l32,0l0,-2l6,0l0,-2l6,0l0,-2l8,0l0,2l6,0l0,2l6,0l0,2l8,0l0,-2l8,0l0,-2l10,0l0,2l8,0l0,2l14,0l0,12l-14,0l0,-2l-8,0l0,-2l-10,0l0,2l-8,0l0,2l-8,0l0,-2l-6,0l0,-2l-6,0l0,-2l-8,0l0,2l-6,0l0,2l-6,0Z" />
        <rect x="4" y="54" width="8" height="8" style="fill:#52575b;" />
      </g>
    </g>
  </g>
  <metadata>
    <rdf:RDF>
      <cc:Work rdf:about="">
        <cc:License rdf:resource="http://creativecommons.org/licenses/by-sa/4.0/" />
        <dc:right>
          <cc:Agent>
            <dc:title>CC-BY-SA 4.0 Jugend Hackt</dc:title>
          </cc:Agent>
        </dc:right>
        <dc:title>
          <cc:Agent>
            <dc:title>Pixelhack</dc:title>
          </cc:Agent>
        </dc:title>
        <dc:contributor>
          <cc:Agent>
            <dc:title>Hanno Sternberg</dc:title>
          </cc:Agent>
        </dc:contributor>
        <dc:creator>
          <cc:Agent>
            <dc:title>Jugend Hackt</dc:title>
          </cc:Agent>
        </dc:creator>
        <dc:date>
          <cc:Agent>
            <dc:title>2013</dc:title>
          </cc:Agent>
        </dc:date>
      </cc:Work>
      <cc:License rdf:about="http://creativecommons.org/licenses/by-sa/4.0/">
        <cc:permits rdf:resource="http://creativecommons.org/ns#DerivativeWorks" />
        <cc:requires rdf:resource="http://creativecommons.org/ns#ShareAlike" />
      </cc:License>
    </rdf:RDF>
  </metadata>
</svg>