<?xml version="1.0" encoding="UTF-8" standalone="no"?>
<!DOCTYPE svg PUBLIC "-//W3C//DTD SVG 1.1//EN" "http://www.w3.org/Graphics/SVG/1.1/DTD/svg11.dtd">
<svg xmlns="http://www.w3.org/2000/svg" xmlns:serif="http://www.serif.com/" width="100%" height="100%" viewBox="0 0 64 64" version="1.1" xml:space="preserve" style="fill-rule:evenodd;clip-rule:evenodd;stroke-linejoin:round;stroke-miterlimit:2;" xmlns:rdf="http://www.w3.org/1999/02/22-rdf-syntax-ns" xmlns:cc="http://creativecommons.org/ns" xmlns:dc="http://purl.org/dc/elements/1.1/">
  <g id="Colorful-Objekts" serif:id="Colorful Objekts">
    <g id="Headphones1" serif:id="Headphones">
      <g id="Headphones-Ears3" serif:id="Headphones-Ears">
        <g>
          <path d="M12,52l-4,0l0,-10l2,0l0,-10l2,0l0,-4l2,0l0,-2l2,0l0,-4l2,0l0,-2l2,0l0,-2l4,0l0,-2l4,0l0,-2l8,0l0,2l4,0l0,2l4,0l0,2l2,0l0,2l2,0l0,4l2,0l0,2l2,0l0,4l2,0l0,10l2,0l0,10l-4,0l0,2l-2,0l0,2l-2,0l0,2l-4,0l0,-20l4,0l0,2l2,0l0,-6l-2,0l0,-4l-2,0l0,-4l-2,0l0,-4l-4,0l0,-2l-4,0l0,-2l-8,0l0,2l-4,0l0,2l-4,0l0,4l-2,0l0,4l-2,0l0,4l-2,0l0,6l2,0l0,-2l4,0l0,20l-4,0l0,-2l-2,0l0,-2l-2,0l0,-2Z" style="fill:#010001;" />
          <path d="M20,40l0,16l-2,0l0,-16l2,0Zm26,0l0,16l-2,0l0,-16l2,0Z" style="fill:#52575b;" />
          <path d="M14,42l0,10l-2,0l0,-10l2,0Zm38,0l0,10l-2,0l0,-10l2,0Z" style="fill:#fcd009;" />
          <path d="M56,46l0,4l-2,0l0,-4l2,0Zm-46,0l0,4l-2,0l0,-4l2,0Z" style="fill:#00b48d;" />
        </g>
        <g>
          <path d="M12,22l-2,0l0,-12l2,0l0,12Zm0,-12l0,-2l2,0l0,2l-2,0Zm2,0l2,0l0,2l-2,0l0,-2Zm2,2l2,0l0,2l-2,0l0,-2Zm2,2l2,0l0,2l-2,0l0,-2Zm2,2l2,0l0,6l-2,0l0,-6Zm0,6l0,4l-8,0l0,-4l2,0l0,2l4,0l0,-2l2,0Z" style="fill:#fcd009;" />
          <path d="M14,22l-2,0l0,-12l2,0l0,2l2,0l0,2l2,0l0,2l2,0l0,4l-2,0l0,2l-2,0l0,2l-2,0l0,-2Z" style="fill:#fbe50f;" />
          <path d="M18,20l-4,0l0,-4l2,0l0,2l2,0l0,2Z" style="fill:#f3971a;" />
        </g>
        <g>
          <path d="M52,22l2,0l0,-12l-2,0l0,12Zm0,-12l0,-2l-2,0l0,2l2,0Zm-2,0l-2,0l0,2l2,0l0,-2Zm-2,2l-2,0l0,2l2,0l0,-2Zm-2,2l-2,0l0,2l2,0l0,-2Zm-2,2l-2,0l0,6l2,0l0,-6Zm0,6l0,4l8,0l0,-4l-2,0l0,2l-4,0l0,-2l-2,0Z" style="fill:#fcd009;" />
          <path d="M50,22l2,0l0,-12l-2,0l0,2l-2,0l0,2l-2,0l0,2l-2,0l0,4l2,0l0,2l2,0l0,2l2,0l0,-2Z" style="fill:#fbe50f;" />
          <path d="M46,20l4,0l0,-4l-2,0l0,2l-2,0l0,2Z" style="fill:#f3971a;" />
        </g>
      </g>
    </g>
  </g>
  <metadata>
    <rdf:RDF>
      <cc:Work rdf:about="">
        <cc:License rdf:resource="http://creativecommons.org/licenses/by-sa/4.0/" />
        <dc:right>
          <cc:Agent>
            <dc:title>CC-BY-SA 4.0 Jugend Hackt</dc:title>
          </cc:Agent>
        </dc:right>
        <dc:title>
          <cc:Agent>
            <dc:title>Pixelhack</dc:title>
          </cc:Agent>
        </dc:title>
        <dc:contributor>
          <cc:Agent>
            <dc:title>Hanno Sternberg</dc:title>
          </cc:Agent>
        </dc:contributor>
        <dc:creator>
          <cc:Agent>
            <dc:title>Jugend Hackt</dc:title>
          </cc:Agent>
        </dc:creator>
        <dc:date>
          <cc:Agent>
            <dc:title>2013</dc:title>
          </cc:Agent>
        </dc:date>
      </cc:Work>
      <cc:License rdf:about="http://creativecommons.org/licenses/by-sa/4.0/">
        <cc:permits rdf:resource="http://creativecommons.org/ns#DerivativeWorks" />
        <cc:requires rdf:resource="http://creativecommons.org/ns#ShareAlike" />
      </cc:License>
    </rdf:RDF>
  </metadata>
</svg>