<?xml version="1.0" encoding="UTF-8" standalone="no"?>
<!DOCTYPE svg PUBLIC "-//W3C//DTD SVG 1.1//EN" "http://www.w3.org/Graphics/SVG/1.1/DTD/svg11.dtd">
<svg xmlns="http://www.w3.org/2000/svg" width="100%" height="100%" viewBox="0 0 64 64" version="1.1" xml:space="preserve" style="fill-rule:evenodd;clip-rule:evenodd;stroke-linejoin:round;stroke-miterlimit:2;" xmlns:rdf="http://www.w3.org/1999/02/22-rdf-syntax-ns" xmlns:cc="http://creativecommons.org/ns" xmlns:dc="http://purl.org/dc/elements/1.1/">
  <g id="Emoji">
    <g id="Space">
      <g id="Satellite">
        <g>
          <path d="M16,36l0,2l-4,0l0,-2l-2,0l0,-2l-2,0l0,-2l-2,0l0,-2l-2,0l0,-4l2,0l0,2l2,0l0,2l2,0l0,2l2,0l0,2l2,0l0,2l2,0Zm-10,-10l0,-4l2,0l0,-2l2,0l0,-2l2,0l0,2l2,0l0,2l2,0l0,2l2,0l0,2l2,0l0,2l2,0l0,2l-4,0l0,-2l-2,0l0,-2l-2,0l0,-2l-2,0l0,-2l-2,0l0,2l-2,0l0,2l-2,0Zm6,-8l0,-2l2,0l0,2l-2,0Zm2,-2l0,-2l2,0l0,2l-2,0Zm2,-2l0,-4l2,0l0,2l2,0l0,2l2,0l0,2l2,0l0,2l2,0l0,2l2,0l0,2l-4,0l0,-2l-2,0l0,-2l-2,0l0,-2l-2,0l0,-2l-2,0Zm2,-4l0,-2l2,0l0,2l-2,0Zm2,-2l0,-2l4,0l0,2l2,0l0,2l2,0l0,2l2,0l0,4l-2,0l0,-2l-2,0l0,-2l-2,0l0,-2l-2,0l0,-2l-2,0Zm8,8l0,2l-2,0l0,-2l2,0Zm0,2l2,0l0,2l-2,0l0,-2Zm-4,4l0,2l-2,0l0,-2l2,0Zm-2,2l0,2l-2,0l0,-2l2,0Zm0,2l2,0l0,2l-2,0l0,-2Zm-4,4l0,2l-2,0l0,-2l2,0Zm-2,2l0,2l-2,0l0,-2l2,0Zm0,2l2,0l0,2l-2,0l0,-2Zm-8,-6l0,-2l2,0l0,2l-2,0Zm2,2l0,-2l2,0l0,2l-2,0Zm2,2l0,-2l2,0l0,2l-2,0Zm2,-12l0,-2l2,0l0,2l-2,0Zm2,2l0,-2l2,0l0,2l-2,0Zm2,2l0,-2l2,0l0,2l-2,0Zm-2,4l0,2l-2,0l0,-2l2,0Zm-2,-2l0,2l-2,0l0,-2l2,0Zm-2,-2l0,2l-2,0l0,-2l2,0Zm4,-6l0,-2l2,0l0,2l-2,0Zm4,-6l0,-2l2,0l0,2l-2,0Zm2,2l0,-2l2,0l0,2l-2,0Zm2,2l0,-2l2,0l0,2l-2,0Zm-2,4l0,2l-2,0l0,-2l2,0Zm-2,-2l0,2l-2,0l0,-2l2,0Z" style="fill:#8000ff;" />
          <path d="M20,12l-2,0l0,-2l2,0l0,2Zm0,-2l0,-2l2,0l0,2l-2,0Zm2,0l2,0l0,2l-2,0l0,-2Zm2,2l2,0l0,2l-2,0l0,-2Zm2,2l2,0l0,2l-2,0l0,-2Zm2,2l2,0l0,2l-2,0l0,-2Zm0,2l0,2l-2,0l0,-2l2,0Zm-2,0l-2,0l0,-2l2,0l0,2Zm-2,-2l-2,0l0,-2l2,0l0,2Zm-2,-2l-2,0l0,-2l2,0l0,2Zm-8,2l-2,0l0,-2l2,0l0,2Zm0,-2l0,-2l2,0l0,2l-2,0Zm2,0l2,0l0,2l-2,0l0,-2Zm2,2l2,0l0,2l-2,0l0,-2Zm2,2l2,0l0,2l-2,0l0,-2Zm2,2l2,0l0,2l-2,0l0,-2Zm2,2l2,0l0,2l-2,0l0,-2Zm0,2l0,2l-2,0l0,-2l2,0Zm-2,2l0,2l-2,0l0,-2l2,0Zm-2,0l-2,0l0,-2l2,0l0,2Zm-2,-2l-2,0l0,-2l2,0l0,2Zm-2,-2l-2,0l0,-2l2,0l0,2Zm-2,-2l-2,0l0,-2l2,0l0,2Zm0,-2l0,-2l2,0l0,2l-2,0Zm2,0l2,0l0,2l-2,0l0,-2Zm2,2l2,0l0,2l-2,0l0,-2Zm2,2l2,0l0,2l-2,0l0,-2Zm-12,6l-2,0l0,-2l2,0l0,2Zm0,-2l0,-2l2,0l0,2l-2,0Zm2,-2l0,-2l2,0l0,2l-2,0Zm2,0l2,0l0,2l-2,0l0,-2Zm2,2l2,0l0,2l-2,0l0,-2Zm2,2l2,0l0,2l-2,0l0,-2Zm2,2l2,0l0,2l-2,0l0,-2Zm0,2l0,2l-2,0l0,-2l2,0Zm-2,2l0,2l-2,0l0,-2l2,0Zm-2,0l-2,0l0,-2l2,0l0,2Zm-2,-2l-2,0l0,-2l2,0l0,2Zm-2,-2l-2,0l0,-2l2,0l0,2Zm0,-2l0,-2l2,0l0,2l-2,0Zm2,0l2,0l0,2l-2,0l0,-2Zm2,2l2,0l0,2l-2,0l0,-2Z" style="fill:#16a6de;" />
        </g>
        <g>
          <path d="M44,56l0,2l-4,0l0,-2l-2,0l0,-2l-2,0l0,-2l-2,0l0,-4l2,0l0,2l2,0l0,2l2,0l0,2l2,0l0,2l2,0Zm-8,-8l0,-4l2,0l0,-2l2,0l0,-2l2,0l0,2l2,0l0,2l2,0l0,2l2,0l0,2l2,0l0,2l-4,0l0,-2l-2,0l0,-2l-2,0l0,-2l-2,0l0,2l-2,0l0,2l-2,0Zm6,-8l0,-2l2,0l0,2l-2,0Zm2,-2l0,-2l-2,0l0,-2l4,0l0,2l2,0l0,2l2,0l0,2l2,0l0,2l2,0l0,2l-4,0l0,-2l-2,0l0,-2l-2,0l0,-2l-2,0Zm2,-4l0,-2l2,0l0,2l-2,0Zm2,-2l0,-2l2,0l0,2l-2,0Zm0,-2l-2,0l0,-2l2,0l0,2Zm0,-2l0,-2l4,0l0,2l2,0l0,2l2,0l0,2l2,0l0,2l2,0l0,4l-2,0l0,-2l-2,0l0,-2l-2,0l0,-2l-2,0l0,-2l-2,0l0,-2l-2,0Zm10,10l0,2l-2,0l0,-2l2,0Zm-2,2l0,2l-2,0l0,-2l2,0Zm-6,4l0,2l-2,0l0,-2l2,0Zm0,2l2,0l0,2l-2,0l0,-2Zm-4,4l0,2l-2,0l0,-2l2,0Zm-2,2l0,2l-2,0l0,-2l2,0Zm0,2l2,0l0,2l-2,0l0,-2Zm-6,-4l0,-2l2,0l0,2l-2,0Zm2,2l0,-2l2,0l0,2l-2,0Zm4,-10l0,-2l2,0l0,2l-2,0Zm2,2l0,-2l2,0l0,2l-2,0Zm-2,4l0,2l-2,0l0,-2l2,0Zm-2,-2l0,2l-2,0l0,-2l2,0Zm6,-10l0,-2l2,0l0,2l-2,0Zm2,2l0,-2l2,0l0,2l-2,0Zm2,2l0,-2l2,0l0,2l-2,0Zm-2,-6l0,-2l2,0l0,2l-2,0Zm6,2l0,2l-2,0l0,-2l2,0Zm-2,-2l0,2l-2,0l0,-2l2,0Z" style="fill:#8000ff;" />
          <path d="M46,34l-2,0l0,-2l2,0l0,2Zm0,-2l0,-2l2,0l0,2l-2,0Zm2,-2l0,-2l2,0l0,2l-2,0Zm2,0l2,0l0,2l-2,0l0,-2Zm2,2l2,0l0,2l-2,0l0,-2Zm2,2l2,0l0,2l-2,0l0,-2Zm2,2l2,0l0,2l-2,0l0,-2Zm0,2l0,2l-2,0l0,-2l2,0Zm-2,2l0,2l-2,0l0,-2l2,0Zm-2,0l-2,0l0,-2l2,0l0,2Zm-2,-2l-2,0l0,-2l2,0l0,2Zm-2,-2l-2,0l0,-2l2,0l0,2Zm0,-2l0,-2l2,0l0,2l-2,0Zm2,0l2,0l0,2l-2,0l0,-2Zm2,2l2,0l0,2l-2,0l0,-2Zm-10,4l-2,0l0,-2l2,0l0,2Zm0,-2l0,-2l2,0l0,2l-2,0Zm2,0l2,0l0,2l-2,0l0,-2Zm2,2l2,0l0,2l-2,0l0,-2Zm2,2l2,0l0,2l-2,0l0,-2Zm2,2l2,0l0,2l-2,0l0,-2Zm0,2l0,2l-2,0l0,-2l2,0Zm-2,0l-2,0l0,-2l2,0l0,2Zm-2,-2l-2,0l0,-2l2,0l0,2Zm-2,-2l-2,0l0,-2l2,0l0,2Zm-6,8l-2,0l0,-2l2,0l0,2Zm0,-2l0,-2l2,0l0,2l-2,0Zm2,-2l0,-2l2,0l0,2l-2,0Zm2,0l2,0l0,2l-2,0l0,-2Zm2,2l2,0l0,2l-2,0l0,-2Zm2,2l2,0l0,2l-2,0l0,-2Zm0,2l0,2l-2,0l0,-2l2,0Zm-2,2l0,2l-2,0l0,-2l2,0Zm-2,0l-2,0l0,-2l2,0l0,2Zm-2,-2l-2,0l0,-2l2,0l0,2Zm0,-2l0,-2l2,0l0,2l-2,0Zm2,0l2,0l0,2l-2,0l0,-2Z" style="fill:#16a6de;" />
        </g>
        <g>
          <path d="M36,24l-4,0l0,-4l4,0l0,2l2,0l0,2l4,0l0,6l-2,0l0,-2l-2,0l0,-2l-2,0l0,-2Zm-10,16l0,-2l2,0l0,2l-2,0Zm0,0l0,2l-2,0l0,-2l2,0Zm0,-14l0,2l-2,0l0,-2l2,0Zm16,10l0,2l-4,0l0,-2l4,0Zm-22,12l0,4l-2,0l0,-4l2,0Z" style="fill:#52575b;" />
          <path d="M36,20l-4,0l0,-4l2,0l0,-2l2,0l0,2l4,0l0,2l2,0l0,2l2,0l0,2l2,0l0,4l-4,0l0,-2l-4,0l0,-2l-2,0l0,-2Zm-12,16l-2,0l0,-6l2,0l0,-2l2,0l0,-4l2,0l0,-2l4,0l0,2l4,0l0,2l2,0l0,2l2,0l0,2l2,0l0,2l-2,0l0,4l-2,0l0,2l-2,0l0,2l-2,0l0,2l-4,0l0,-2l-2,0l0,-2l-4,0l0,-2Zm2,-4l0,2l2,0l0,-2l2,0l0,-2l2,0l0,-2l-2,0l0,2l-2,0l0,2l-2,0Zm-8,14l-4,0l0,-4l2,0l0,-2l8,0l0,2l2,0l0,2l2,0l0,8l-4,0l0,-2l-4,0l0,-2l-2,0l0,-2Zm0,10l-4,0l0,-4l2,0l0,-2l2,0l0,2l2,0l0,2l-2,0l0,2Z" style="fill:#d1d6da;" />
          <path d="M30,30l0,-2l2,0l0,2l-2,0Zm-2,2l0,2l-2,0l0,-2l2,0Zm0,0l0,-2l2,0l0,2l-2,0Z" style="fill:#ea680d;" />
        </g>
      </g>
    </g>
  </g>
  <metadata>
    <rdf:RDF>
      <cc:Work rdf:about="">
        <cc:License rdf:resource="http://creativecommons.org/licenses/by-sa/4.0/" />
        <dc:right>
          <cc:Agent>
            <dc:title>CC-BY-SA 4.0 Jugend Hackt</dc:title>
          </cc:Agent>
        </dc:right>
        <dc:title>
          <cc:Agent>
            <dc:title>Pixelhack</dc:title>
          </cc:Agent>
        </dc:title>
        <dc:contributor>
          <cc:Agent>
            <dc:title>Hanno Sternberg</dc:title>
          </cc:Agent>
        </dc:contributor>
        <dc:creator>
          <cc:Agent>
            <dc:title>Jugend Hackt</dc:title>
          </cc:Agent>
        </dc:creator>
        <dc:date>
          <cc:Agent>
            <dc:title>2013</dc:title>
          </cc:Agent>
        </dc:date>
      </cc:Work>
      <cc:License rdf:about="http://creativecommons.org/licenses/by-sa/4.0/">
        <cc:permits rdf:resource="http://creativecommons.org/ns#DerivativeWorks" />
        <cc:requires rdf:resource="http://creativecommons.org/ns#ShareAlike" />
      </cc:License>
    </rdf:RDF>
  </metadata>
</svg>