<?xml version="1.0" encoding="UTF-8" standalone="no"?>
<!DOCTYPE svg PUBLIC "-//W3C//DTD SVG 1.1//EN" "http://www.w3.org/Graphics/SVG/1.1/DTD/svg11.dtd">
<svg xmlns="http://www.w3.org/2000/svg" width="100%" height="100%" viewBox="0 0 64 64" version="1.1" xml:space="preserve" style="fill-rule:evenodd;clip-rule:evenodd;stroke-linejoin:round;stroke-miterlimit:2;" xmlns:rdf="http://www.w3.org/1999/02/22-rdf-syntax-ns" xmlns:cc="http://creativecommons.org/ns" xmlns:dc="http://purl.org/dc/elements/1.1/">
  <g id="Emoji">
    <g id="Plants">
      <g id="Maple">
        <path d="M32,24l-4,0l0,-2l2,0l0,-4l4,0l0,2l-2,0l0,4Zm8,6l0,2l-2,0l0,-2l2,0Zm-4,16l-2,0l0,-2l2,0l0,2Zm-14,2l0,-2l6,0l0,2l-6,0Zm2,-24l-2,0l0,-12l-2,0l0,-4l2,0l0,2l4,0l0,2l-2,0l0,12Zm6,-14l0,-4l4,0l0,4l-4,0Zm-2,36l0,-2l2,0l0,2l-2,0Zm-2,-34l2,0l0,2l-2,0l0,-2Zm20,34l2,0l0,4l-6,0l0,-2l4,0l0,-2Zm-20,-16l2,0l0,2l-2,0l0,-2Zm24,-6l0,-2l2,0l0,2l-2,0Zm-6,4l0,-2l2,0l0,2l-2,0Zm-2,-12l0,12l2,0l0,2l-4,0l0,-14l2,0Zm8,26l0,2l-4,0l0,-2l4,0Zm0,-14l6,0l0,-2l2,0l0,4l-2,0l0,6l-2,0l0,-6l-4,0l0,-2Zm-36,0l0,-6l2,0l0,2l2,0l0,2l-2,0l0,2l-2,0Zm32,16l0,2l-2,0l0,-2l2,0Zm10,-6l0,2l-4,0l0,-2l4,0Zm-28,-26l0,-2l2,0l0,2l-2,0Zm-10,14l4,0l0,2l-4,0l0,-2Zm34,14l0,2l-2,0l0,-2l2,0Zm-6,-14l0,-2l4,0l0,4l-2,0l0,-2l-2,0Zm-12,-16l2,0l0,2l-2,0l0,-2Zm14,40l2,0l0,2l-2,0l0,-2Zm-12,-38l4,0l0,2l-4,0l0,-2Zm-14,16l2,0l0,-4l2,0l0,6l-4,0l0,-2Zm34,8l2,0l0,2l-2,0l0,-2Zm-16,-24l0,-2l2,0l0,-2l2,0l0,8l-2,0l0,-4l-2,0Zm2,36l-6,0l0,-2l6,0l0,2Zm-32,-12l0,2l2,0l0,2l-4,0l0,-2l-2,0l0,-2l4,0Zm4,6l4,0l0,2l-4,0l0,-2Zm-4,-10l2,0l0,4l-2,0l0,-4Zm2,8l2,0l0,2l-2,0l0,-2Zm6,4l2,0l0,4l2,0l0,2l-4,0l0,2l-4,0l0,-2l2,0l0,-2l2,0l0,-4Zm-10,-14l-2,0l0,-4l2,0l0,2l6,0l0,2l-4,0l0,2l-2,0l0,-2Z" style="fill:#e6414a;" />
        <path d="M12,32l-2,0l0,-2l4,0l0,-2l2,0l0,-2l2,0l0,2l4,0l0,2l4,0l0,2l2,0l0,-2l-2,0l0,-6l-2,0l0,-12l2,0l0,2l2,0l0,-2l2,0l0,-2l4,0l0,2l2,0l0,2l4,0l0,-2l2,0l0,4l-2,0l0,14l-2,0l0,2l2,0l0,-2l4,0l0,-2l2,0l0,-2l2,0l0,2l2,0l0,2l4,0l0,6l2,0l0,2l-4,0l0,2l-2,0l0,2l-4,0l0,2l-2,0l0,2l2,0l0,2l-4,0l0,-2l-6,0l0,-2l2,0l0,-2l4,0l0,-2l4,0l0,-2l2,0l0,-2l2,0l0,-2l-2,0l0,2l-6,0l0,2l-4,0l0,2l-4,0l0,-22l-4,0l0,4l-2,0l0,2l2,0l0,16l-4,0l0,-2l-4,0l0,-2l-6,0l0,-2l-2,0l0,2l2,0l0,2l2,0l0,2l4,0l0,2l4,0l0,2l2,0l0,2l-6,0l0,2l-2,0l0,-4l-2,0l0,-2l-4,0l0,-2l-2,0l0,-2l-2,0l0,-2l2,0l0,-4Z" style="fill:#e52320;" />
        <path d="M16,36l6,0l0,2l-6,0l0,-2Zm10,4l4,0l0,2l-4,0l0,-2Zm-10,-4l-2,0l0,-2l2,0l0,2Zm6,2l4,0l0,2l-4,0l0,-2Zm16,4l0,2l-4,0l0,-2l4,0Zm10,-6l0,-2l2,0l0,2l-2,0Zm-6,4l0,-2l4,0l0,2l-4,0Zm-4,2l0,-2l4,0l0,2l-4,0Zm8,-4l0,-2l2,0l0,2l-2,0Zm-12,-18l0,20l-2,0l0,-20l2,0Z" style="fill:#ea680d;" />
        <path d="M26,42l4,0l0,-18l2,0l0,16l6,0l0,2l-4,0l0,18l-4,0l0,-16l-4,0l0,-2Zm-4,-2l-4,0l0,-2l4,0l0,2Zm16,0l0,-2l4,0l0,2l-4,0Zm4,-2l0,-2l4,0l0,2l-4,0Zm-20,2l4,0l0,2l-4,0l0,-2Z" style="fill:#ca006a;" />
      </g>
    </g>
  </g>
  <metadata>
    <rdf:RDF>
      <cc:Work rdf:about="">
        <cc:License rdf:resource="http://creativecommons.org/licenses/by-sa/4.0/" />
        <dc:right>
          <cc:Agent>
            <dc:title>CC-BY-SA 4.0 Jugend Hackt</dc:title>
          </cc:Agent>
        </dc:right>
        <dc:title>
          <cc:Agent>
            <dc:title>Pixelhack</dc:title>
          </cc:Agent>
        </dc:title>
        <dc:contributor>
          <cc:Agent>
            <dc:title>Hanno Sternberg</dc:title>
          </cc:Agent>
        </dc:contributor>
        <dc:creator>
          <cc:Agent>
            <dc:title>Jugend Hackt</dc:title>
          </cc:Agent>
        </dc:creator>
        <dc:date>
          <cc:Agent>
            <dc:title>2013</dc:title>
          </cc:Agent>
        </dc:date>
      </cc:Work>
      <cc:License rdf:about="http://creativecommons.org/licenses/by-sa/4.0/">
        <cc:permits rdf:resource="http://creativecommons.org/ns#DerivativeWorks" />
        <cc:requires rdf:resource="http://creativecommons.org/ns#ShareAlike" />
      </cc:License>
    </rdf:RDF>
  </metadata>
</svg>