<?xml version="1.0" encoding="UTF-8" standalone="no"?>
<!DOCTYPE svg PUBLIC "-//W3C//DTD SVG 1.1//EN" "http://www.w3.org/Graphics/SVG/1.1/DTD/svg11.dtd">
<svg xmlns="http://www.w3.org/2000/svg" width="100%" height="100%" viewBox="0 0 64 64" version="1.1" xml:space="preserve" style="fill-rule:evenodd;clip-rule:evenodd;stroke-linejoin:round;stroke-miterlimit:2;" xmlns:rdf="http://www.w3.org/1999/02/22-rdf-syntax-ns" xmlns:cc="http://creativecommons.org/ns" xmlns:dc="http://purl.org/dc/elements/1.1/">
  <g id="Emoji">
    <g id="Plants">
      <g id="Rice">
        <path d="M34,8l0,-2l12,0l0,2l-12,0Zm-4,2l0,-2l4,0l0,2l-4,0Zm0,0l0,6l-2,0l0,-6l2,0Zm6,18l0,6l-2,0l0,-6l2,0Zm4,-2l0,-2l12,0l0,2l-12,0Zm-4,2l0,-2l4,0l0,2l-4,0Zm8,-16l0,2l-10,0l0,-2l10,0Zm-4,6l0,2l-8,0l0,-2l8,0Zm10,12l0,2l-10,0l0,-2l10,0Zm-4,6l0,2l-8,0l0,-2l8,0Z" style="fill:#fbe50f;" />
        <path d="M28,28l0,-12l2,0l0,-6l4,0l0,4l10,0l0,2l-12,0l0,4l8,0l0,2l-8,0l0,4l-2,0l0,2l-2,0Zm6,-18l0,-2l12,0l0,2l-12,0Zm6,18l0,-2l12,0l0,2l-12,0Zm-6,18l0,-12l2,0l0,-6l4,0l0,4l10,0l0,2l-12,0l0,4l8,0l0,2l-10,0l0,6l-2,0Z" style="fill:#fcd009;" />
        <path d="M18,48l-2,0l0,-18l4,0l0,2l2,0l0,2l2,0l0,18l4,0l0,2l-8,0l0,-2l-2,0l0,-4Zm18,12l0,2l-2,0l0,-16l2,0l0,12l6,0l0,-12l2,0l0,-2l4,0l0,12l-2,0l0,2l-2,0l0,2l-8,0Zm-6,-32l0,6l-2,0l0,-6l2,0Zm0,30l0,4l-2,0l0,-4l2,0Z" style="fill:#09aa24;" />
        <path d="M32,58l-4,0l0,-24l2,0l0,22l2,0l0,2Zm10,-12l0,-2l2,0l0,2l-2,0Zm0,0l0,12l-2,0l0,-12l2,0Zm2,-2l0,-2l4,0l0,2l-4,0Z" style="fill:#29e400;" />
        <path d="M40,64l-16,0l0,-2l2,0l0,-2l2,0l0,2l2,0l0,-2l4,0l0,2l2,0l0,-2l2,0l0,2l2,0l0,2Z" style="fill:#e1bb95;" />
      </g>
    </g>
  </g>
  <metadata>
    <rdf:RDF>
      <cc:Work rdf:about="">
        <cc:License rdf:resource="http://creativecommons.org/licenses/by-sa/4.0/" />
        <dc:right>
          <cc:Agent>
            <dc:title>CC-BY-SA 4.0 Jugend Hackt</dc:title>
          </cc:Agent>
        </dc:right>
        <dc:title>
          <cc:Agent>
            <dc:title>Pixelhack</dc:title>
          </cc:Agent>
        </dc:title>
        <dc:contributor>
          <cc:Agent>
            <dc:title>Hanno Sternberg</dc:title>
          </cc:Agent>
        </dc:contributor>
        <dc:creator>
          <cc:Agent>
            <dc:title>Jugend Hackt</dc:title>
          </cc:Agent>
        </dc:creator>
        <dc:date>
          <cc:Agent>
            <dc:title>2013</dc:title>
          </cc:Agent>
        </dc:date>
      </cc:Work>
      <cc:License rdf:about="http://creativecommons.org/licenses/by-sa/4.0/">
        <cc:permits rdf:resource="http://creativecommons.org/ns#DerivativeWorks" />
        <cc:requires rdf:resource="http://creativecommons.org/ns#ShareAlike" />
      </cc:License>
    </rdf:RDF>
  </metadata>
</svg>