<?xml version="1.0" encoding="UTF-8" standalone="no"?>
<!DOCTYPE svg PUBLIC "-//W3C//DTD SVG 1.1//EN" "http://www.w3.org/Graphics/SVG/1.1/DTD/svg11.dtd">
<svg xmlns="http://www.w3.org/2000/svg" width="100%" height="100%" viewBox="0 0 64 64" version="1.1" xml:space="preserve" style="fill-rule:evenodd;clip-rule:evenodd;stroke-linejoin:round;stroke-miterlimit:2;" xmlns:rdf="http://www.w3.org/1999/02/22-rdf-syntax-ns" xmlns:cc="http://creativecommons.org/ns" xmlns:dc="http://purl.org/dc/elements/1.1/">
  <g id="Emoji">
    <g id="Basket">
      <path d="M16,24l0,-16l2,0l0,-2l2,0l0,-2l20,0l0,2l2,0l0,2l2,0l0,22l-4,0l0,-20l-2,0l0,-2l-2,0l0,-2l-14,0l0,2l-2,0l0,2l-2,0l0,14l-2,0Z" style="fill:#a0673e;" />
      <path d="M20,10l0,-2l2,0l0,2l-2,0Zm0,0l0,14l-2,0l0,-14l2,0Zm2,-2l0,-2l2,0l0,2l-2,0Zm18,16l0,4l-2,0l0,-4l2,0Z" style="fill:#5d473d;" />
      <path d="M52,38l2,0l0,2l-2,0l0,-2Zm-44,-6l-6,0l0,-6l2,0l0,-2l34,0l0,4l2,0l0,2l4,0l0,-6l14,0l0,8l-2,0l0,2l-2,0l0,2l-2,0l0,2l-2,0l0,-2l-2,0l0,-2l2,0l0,-2l-2,0l0,2l-2,0l0,-2l-16,0l0,2l-2,0l0,-2l-2,0l0,2l2,0l0,2l-2,0l0,2l-2,0l0,-2l-2,0l0,-2l2,0l0,-2l-2,0l0,2l-2,0l0,-2l-2,0l0,2l2,0l0,2l-2,0l0,2l-2,0l0,-2l-2,0l0,-2l2,0l0,-2l-2,0l0,2l-2,0l0,-2l-2,0l0,2l2,0l0,2l-2,0l0,2l-2,0l0,-2l-2,0l0,-2l2,0l0,-2Zm16,6l0,2l-2,0l0,2l-2,0l0,-2l-2,0l0,-2l2,0l0,-2l2,0l0,2l2,0Zm-4,4l0,2l-2,0l0,2l-2,0l0,-2l-2,0l0,-2l2,0l0,-2l2,0l0,2l2,0Zm-4,4l0,2l-2,0l0,2l-2,0l0,-2l-2,0l0,-2l2,0l0,-2l2,0l0,2l2,0Zm-4,-2l-4,0l0,-4l2,0l0,2l2,0l0,2Zm-2,-4l0,-2l2,0l0,-2l2,0l0,2l2,0l0,2l-2,0l0,2l-2,0l0,-2l-2,0Zm6,14l0,-4l4,0l0,2l-2,0l0,2l-2,0Zm8,-8l0,-4l4,0l0,2l-2,0l0,2l-2,0Zm4,-4l0,-4l4,0l0,2l-2,0l0,2l-2,0Zm4,-4l0,-4l4,0l0,2l-2,0l0,2l-2,0Zm-12,12l0,-4l4,0l0,2l-2,0l0,2l-2,0Zm28,-8l4,0l0,4l-2,0l0,-2l-2,0l0,-2Zm-6,-6l-2,0l0,-2l4,0l0,4l-2,0l0,-2Zm2,2l4,0l0,4l-2,0l0,-2l-2,0l0,-2Zm-20,20l-4,0l0,-4l4,0l0,4Zm0,-4l0,-4l4,0l0,4l-4,0Zm4,-4l0,-4l4,0l0,4l-4,0Zm4,-4l0,-4l4,0l0,4l-4,0Zm4,-4l0,-4l4,0l0,4l-4,0Zm4,0l4,0l0,4l-4,0l0,-4Zm4,4l4,0l0,4l-4,0l0,-4Zm4,4l2,0l0,4l-2,0l0,-4Zm0,4l0,4l-4,0l0,-4l4,0Zm-4,4l0,2l-4,0l0,-2l4,0Zm-4,0l-4,0l0,-4l4,0l0,4Zm-4,0l0,2l-4,0l0,-2l4,0Zm-4,0l-4,0l0,-4l4,0l0,4Zm-4,0l0,2l-4,0l0,-2l4,0Zm4,-4l0,-4l4,0l0,4l-4,0Zm4,-4l0,-4l4,0l0,4l-4,0Zm4,0l4,0l0,4l-4,0l0,-4Zm-26,4l0,2l-2,0l0,-2l2,0Zm4,4l0,2l-2,0l0,-2l2,0Z" style="fill:#e1bb95;" />
      <path d="M20,34l-2,0l0,-2l2,0l0,2Zm28,0l0,-2l2,0l0,2l-2,0Zm-40,4l2,0l0,2l-2,0l0,-2Zm2,0l0,-2l2,0l0,2l-2,0Zm2,-2l0,-2l2,0l0,2l-2,0Zm2,0l2,0l0,2l-2,0l0,-2Zm2,2l2,0l0,2l-2,0l0,-2Zm2,0l0,-2l2,0l0,2l-2,0Zm2,-2l0,-2l2,0l0,2l-2,0Zm2,0l2,0l0,2l-2,0l0,-2Zm2,2l2,0l0,-2l2,0l0,-2l2,0l0,-2l16,0l0,2l2,0l0,2l2,0l0,2l2,0l0,4l-4,0l0,-4l-4,0l0,-4l-4,0l0,2l2,0l0,2l2,0l0,2l2,0l0,2l2,0l0,2l2,0l0,2l2,0l0,2l-2,0l0,2l-2,0l0,-4l-4,0l0,-4l-4,0l0,-4l-4,0l0,4l-4,0l0,4l-4,0l0,4l-4,0l0,4l-4,0l0,4l4,0l0,2l-6,0l0,-2l-4,0l0,-4l-2,0l0,-4l2,0l0,-2l2,0l0,-2l2,0l0,-2l2,0l0,-2l2,0l0,-2l2,0l0,-2Zm24,12l0,4l-4,0l0,-4l4,0Zm-4,4l0,4l-4,0l0,-4l4,0Zm-4,4l0,2l-4,0l0,-2l4,0Zm-4,0l-4,0l0,-4l4,0l0,4Zm-4,0l0,2l-4,0l0,-2l4,0Zm-4,0l-4,0l0,-4l4,0l0,4Zm-12,-12l-2,0l0,-2l2,0l0,2Zm-2,-2l-2,0l0,-2l2,0l0,2Zm-2,-2l-2,0l0,-2l2,0l0,2Zm16,0l-4,0l0,4l-4,0l0,4l-4,0l0,4l2,0l0,-2l2,0l0,-2l2,0l0,-2l2,0l0,-2l2,0l0,-2l2,0l0,-2l2,0l0,-2l2,0l0,-2l2,0l0,-2l2,0l0,-2l-4,0l0,4l-4,0l0,4Zm-14,0l0,-2l2,0l0,2l-2,0Zm4,-2l2,0l0,2l-2,0l0,-2Zm26,6l0,4l-4,0l0,-4l4,0Zm-4,4l0,4l-4,0l0,-4l4,0Zm-8,4l-4,0l0,-4l4,0l0,4Zm4,-4l-4,0l0,-4l4,0l0,4Zm0,-8l4,0l0,4l-4,0l0,-4Zm-28,-4l-2,0l0,-2l2,0l0,2Zm4,12l-2,0l0,-2l2,0l0,2Zm2,-16l0,-2l2,0l0,2l-2,0Zm30,24l2,0l0,2l-2,0l0,-2Zm-22,-24l0,-2l2,0l0,2l-2,0Zm30,4l0,-2l2,0l0,2l-2,0Zm-40,-4l-2,0l0,-2l2,0l0,2Zm16,0l-2,0l0,-2l2,0l0,2Zm-16,10l0,2l-2,0l0,-2l2,0Zm-4,-12l0,2l-2,0l0,-2l2,0Z" style="fill:#bf8e67;" />
    </g>
  </g>
  <metadata>
    <rdf:RDF>
      <cc:Work rdf:about="">
        <cc:License rdf:resource="http://creativecommons.org/licenses/by-sa/4.0/" />
        <dc:right>
          <cc:Agent>
            <dc:title>CC-BY-SA 4.0 Jugend Hackt</dc:title>
          </cc:Agent>
        </dc:right>
        <dc:title>
          <cc:Agent>
            <dc:title>Pixelhack</dc:title>
          </cc:Agent>
        </dc:title>
        <dc:contributor>
          <cc:Agent>
            <dc:title>Hanno Sternberg</dc:title>
          </cc:Agent>
        </dc:contributor>
        <dc:creator>
          <cc:Agent>
            <dc:title>Jugend Hackt</dc:title>
          </cc:Agent>
        </dc:creator>
        <dc:date>
          <cc:Agent>
            <dc:title>2013</dc:title>
          </cc:Agent>
        </dc:date>
      </cc:Work>
      <cc:License rdf:about="http://creativecommons.org/licenses/by-sa/4.0/">
        <cc:permits rdf:resource="http://creativecommons.org/ns#DerivativeWorks" />
        <cc:requires rdf:resource="http://creativecommons.org/ns#ShareAlike" />
      </cc:License>
    </rdf:RDF>
  </metadata>
</svg>