<?xml version="1.0" encoding="UTF-8" standalone="no"?>
<!DOCTYPE svg PUBLIC "-//W3C//DTD SVG 1.1//EN" "http://www.w3.org/Graphics/SVG/1.1/DTD/svg11.dtd">
<svg xmlns="http://www.w3.org/2000/svg" xmlns:serif="http://www.serif.com/" width="100%" height="100%" viewBox="0 0 64 64" version="1.1" xml:space="preserve" style="fill-rule:evenodd;clip-rule:evenodd;stroke-linejoin:round;stroke-miterlimit:2;" xmlns:rdf="http://www.w3.org/1999/02/22-rdf-syntax-ns" xmlns:cc="http://creativecommons.org/ns" xmlns:dc="http://purl.org/dc/elements/1.1/">
  <g id="Writing">
    <g id="Pen---Paper" serif:id="Pen &amp; Paper">
      <g>
        <path d="M12,56l-2,0l0,-48l2,0l0,46l2,0l0,2l34,0l0,-2l2,0l0,-34l-12,0l0,-12l-26,0l0,-2l28,0l0,2l2,0l0,2l2,0l0,2l2,0l0,2l2,0l0,2l2,0l0,2l2,0l0,38l-2,0l0,2l-38,0l0,-2Z" style="fill:#d1d6da;" />
        <path d="M12,54l0,-46l26,0l0,12l12,0l0,34l-2,0l0,2l-34,0l0,-2l-2,0Z" style="fill:#fff;" />
        <path d="M18,28l0,-4l26,0l0,4l-26,0Zm26,2l0,2l-26,0l0,-2l26,0Zm0,4l0,2l-26,0l0,-2l26,0Zm0,4l0,2l-26,0l0,-2l26,0Zm0,4l0,2l-26,0l0,-2l26,0Z" style="fill:#d1d6da;" />
      </g>
      <g>
        <path d="M44,32l-2,0l0,-4l2,0l0,-2l2,0l0,-2l2,0l0,-2l2,0l0,-2l6,0l0,2l4,0l0,2l-2,0l0,2l-2,0l0,2l-2,0l0,2l-2,0l0,2l-2,0l0,2l-2,0l0,2l-2,0l0,-2l-2,0l0,-2Zm16,-10l0,-2l-2,0l0,-2l-2,0l0,-2l4,0l0,2l2,0l0,4l-2,0Zm-30,28l-2,0l0,-4l2,0l0,-4l2,0l0,-2l2,0l0,-2l2,0l0,-2l2,0l0,-2l2,0l0,2l2,0l0,2l2,0l0,4l-2,0l0,2l-2,0l0,2l-2,0l0,2l-4,0l0,2l-2,0l0,2l-2,0l0,-2Z" style="fill:#10498c;" />
        <path d="M42,28l0,2l-2,0l0,-2l2,0Zm4,-4l0,-2l2,0l0,2l-2,0Zm-2,2l0,-2l2,0l0,2l-2,0Zm4,-4l0,-2l2,0l0,2l-2,0Zm2,-2l0,-2l6,0l0,2l-6,0Zm-8,8l0,-2l2,0l0,2l-2,0Zm-14,18l0,-6l4,0l0,2l-2,0l0,4l-2,0Zm4,-6l0,-2l2,0l0,2l-2,0Zm2,-2l0,-4l2,0l0,-2l2,0l0,4l-2,0l0,2l-2,0Zm-6,8l0,2l-2,0l0,-2l2,0Z" style="fill:#8000ff;" />
        <path d="M56,30l0,2l-2,0l0,-2l2,0Zm0,0l0,-2l2,0l0,2l-2,0Zm4,-4l0,-4l2,0l0,4l-2,0Zm0,-4l-4,0l0,-4l2,0l0,2l2,0l0,2Zm-2,6l0,-2l2,0l0,2l-2,0Zm-18,6l-2,0l0,-2l2,0l0,-2l2,0l0,2l2,0l0,2l2,0l0,2l2,0l0,4l-4,0l0,-2l-2,0l0,-2l-2,0l0,-2Zm-12,18l-2,0l0,-4l2,0l0,2l2,0l0,2l2,0l0,2l-4,0l0,-2Z" style="fill:#fcd009;" />
        <path d="M54,30l0,2l-2,0l0,-2l2,0Zm4,-4l0,-2l2,0l0,2l-2,0Zm-4,4l0,-2l2,0l0,2l-2,0Zm2,-2l0,-2l2,0l0,2l-2,0Z" style="fill:#52575b;" />
        <path d="M40,30l0,2l-2,0l0,-2l2,0Zm-14,16l0,4l-2,0l0,-4l2,0Z" style="fill:#fbe50f;" />
        <path d="M50,34l0,-2l2,0l0,2l-2,0Zm0,0l0,2l-2,0l0,-2l2,0Zm-6,8l0,-2l2,0l0,2l-2,0Zm-2,2l0,-2l2,0l0,2l-2,0Zm-8,6l0,2l-2,0l0,-2l2,0Zm4,-2l0,-2l2,0l0,2l-2,0Zm-4,2l0,-2l4,0l0,2l-4,0Zm6,-4l0,-2l2,0l0,2l-2,0Z" style="fill:#550080;" />
        <path d="M28,54l-4,0l0,-4l2,0l0,2l2,0l0,2Z" />
      </g>
    </g>
  </g>
  <metadata>
    <rdf:RDF>
      <cc:Work rdf:about="">
        <cc:License rdf:resource="http://creativecommons.org/licenses/by-sa/4.0/" />
        <dc:right>
          <cc:Agent>
            <dc:title>CC-BY-SA 4.0 Jugend Hackt</dc:title>
          </cc:Agent>
        </dc:right>
        <dc:title>
          <cc:Agent>
            <dc:title>Pixelhack</dc:title>
          </cc:Agent>
        </dc:title>
        <dc:contributor>
          <cc:Agent>
            <dc:title>Hanno Sternberg</dc:title>
          </cc:Agent>
        </dc:contributor>
        <dc:creator>
          <cc:Agent>
            <dc:title>Jugend Hackt</dc:title>
          </cc:Agent>
        </dc:creator>
        <dc:date>
          <cc:Agent>
            <dc:title>2013</dc:title>
          </cc:Agent>
        </dc:date>
      </cc:Work>
      <cc:License rdf:about="http://creativecommons.org/licenses/by-sa/4.0/">
        <cc:permits rdf:resource="http://creativecommons.org/ns#DerivativeWorks" />
        <cc:requires rdf:resource="http://creativecommons.org/ns#ShareAlike" />
      </cc:License>
    </rdf:RDF>
  </metadata>
</svg>