<?xml version="1.0" encoding="UTF-8" standalone="no"?>
<!DOCTYPE svg PUBLIC "-//W3C//DTD SVG 1.1//EN" "http://www.w3.org/Graphics/SVG/1.1/DTD/svg11.dtd">
<svg xmlns="http://www.w3.org/2000/svg" xmlns:serif="http://www.serif.com/" width="100%" height="100%" viewBox="0 0 64 64" version="1.1" xml:space="preserve" style="fill-rule:evenodd;clip-rule:evenodd;stroke-linejoin:round;stroke-miterlimit:2;" xmlns:rdf="http://www.w3.org/1999/02/22-rdf-syntax-ns" xmlns:cc="http://creativecommons.org/ns" xmlns:dc="http://purl.org/dc/elements/1.1/">
  <g id="Emoji">
    <g id="Foods">
      <g id="Bubble-Tea" serif:id="Bubble Tea">
        <path d="M20,42l0,-16l30,0l0,8l-2,0l0,20l-2,0l0,10l-20,0l0,-6l-2,0l0,-2l-2,0l0,-14l-2,0Z" style="fill:#ea680d;" />
        <path d="M18,46l-2,0l0,-20l4,0l0,16l2,0l0,14l2,0l0,2l2,0l0,6l-6,0l0,-2l-2,0l0,-16Z" style="fill:#f3971b;" />
        <g>
          <path d="M26,54l-2,0l0,-2l2,0l0,-2l4,0l0,4l-2,0l0,2l-2,0l0,-2Z" style="fill:#a0673e;" />
          <path d="M36,56l0,-6l4,0l0,4l-2,0l0,2l-2,0Zm-14,4l-2,0l0,-2l2,0l0,-2l2,0l0,2l2,0l0,2l-2,0l0,2l-2,0l0,-2Zm10,0l-2,0l0,-2l2,0l0,-2l2,0l0,2l2,0l0,2l-2,0l0,2l-2,0l0,-2Z" style="fill:#5d473d;" />
          <path d="M44,60l0,2l-4,0l0,-2l2,0l0,-2l4,0l0,2l-2,0Z" style="fill:#bf8e67;" />
        </g>
        <path d="M42,58l0,2l-2,0l0,-22l2,0l0,-8l2,0l0,2l2,0l0,4l-2,0l0,22l-2,0Z" style="fill:#fff;" />
        <rect x="14" y="22" width="36" height="4" style="fill:#16a6de;" />
        <path d="M52,22l-40,0l0,-2l2,0l0,-2l38,0l0,4Z" style="fill:#fff;" />
        <g>
          <rect x="30" y="8" width="4" height="18" style="fill:#550080;" />
          <rect x="30" y="18" width="4" height="4" style="fill:#8000ff;" />
        </g>
      </g>
    </g>
  </g>
  <metadata>
    <rdf:RDF>
      <cc:Work rdf:about="">
        <cc:License rdf:resource="http://creativecommons.org/licenses/by-sa/4.0/" />
        <dc:right>
          <cc:Agent>
            <dc:title>CC-BY-SA 4.0 Jugend Hackt</dc:title>
          </cc:Agent>
        </dc:right>
        <dc:title>
          <cc:Agent>
            <dc:title>Pixelhack</dc:title>
          </cc:Agent>
        </dc:title>
        <dc:contributor>
          <cc:Agent>
            <dc:title>Hanno Sternberg</dc:title>
          </cc:Agent>
        </dc:contributor>
        <dc:creator>
          <cc:Agent>
            <dc:title>Jugend Hackt</dc:title>
          </cc:Agent>
        </dc:creator>
        <dc:date>
          <cc:Agent>
            <dc:title>2013</dc:title>
          </cc:Agent>
        </dc:date>
      </cc:Work>
      <cc:License rdf:about="http://creativecommons.org/licenses/by-sa/4.0/">
        <cc:permits rdf:resource="http://creativecommons.org/ns#DerivativeWorks" />
        <cc:requires rdf:resource="http://creativecommons.org/ns#ShareAlike" />
      </cc:License>
    </rdf:RDF>
  </metadata>
</svg>