<?xml version="1.0" encoding="UTF-8" standalone="no"?>
<!DOCTYPE svg PUBLIC "-//W3C//DTD SVG 1.1//EN" "http://www.w3.org/Graphics/SVG/1.1/DTD/svg11.dtd">
<svg xmlns="http://www.w3.org/2000/svg" width="100%" height="100%" viewBox="0 0 64 64" version="1.1" xml:space="preserve" style="fill-rule:evenodd;clip-rule:evenodd;stroke-linejoin:round;stroke-miterlimit:2;" xmlns:rdf="http://www.w3.org/1999/02/22-rdf-syntax-ns" xmlns:cc="http://creativecommons.org/ns" xmlns:dc="http://purl.org/dc/elements/1.1/">
  <g id="Emoji">
    <g>
      <g>
        <path d="M8,58l-2,0l0,-16l2,0l0,-6l2,0l0,-6l2,0l0,-4l2,0l0,-2l4,0l0,2l2,0l0,4l10,0l0,10l6,0l0,2l2,0l0,2l2,0l0,8l-4,0l0,2l-6,0l0,2l-8,0l0,2l-4,0l0,2l-10,0l0,-2Z" style="fill:#fbe50f;" />
        <path d="M8,52l-2,0l0,-6l2,0l0,4l2,0l0,2l2,0l0,2l2,0l0,2l4,0l0,4l-4,0l0,-2l-2,0l0,-2l-2,0l0,-2l-2,0l0,-2Zm2,-12l-2,0l0,-4l4,0l0,4l2,0l0,2l2,0l0,2l2,0l0,2l2,0l0,2l2,0l0,2l2,0l0,2l4,0l0,2l2,0l0,2l-6,0l0,-2l-4,0l0,-2l-2,0l0,-2l-2,0l0,-2l-2,0l0,-2l-2,0l0,-2l-2,0l0,-4Z" style="fill:#8000ff;" />
        <path d="M16,38l-2,0l0,-12l6,0l0,6l8,0l0,4l6,0l0,6l4,0l0,2l2,0l0,8l-10,0l0,-2l-4,0l0,-2l-2,0l0,-2l-2,0l0,-2l-2,0l0,-2l-2,0l0,-2l-2,0l0,-2Z" style="fill:#5d473d;" />
        <path d="M22,44l2,0l0,2l-2,0l0,-2Zm-2,-2l-2,0l0,-2l2,0l0,2Zm0,0l2,0l0,2l-2,0l0,-2Zm18,2l-2,0l0,-2l2,0l0,2Zm0,0l2,0l0,8l-2,0l0,-8Zm-8,-12l-4,0l0,-2l4,0l0,2Zm-2,16l0,2l-2,0l0,-2l2,0Zm6,2l0,2l-4,0l0,-2l4,0Zm-16,-26l0,2l-4,0l0,-2l4,0Z" style="fill:#a0673e;" />
      </g>
      <g>
        <path d="M30,44l0,4l-6,0l0,-4l2,0l0,-2l2,0l0,-2l2,0l0,-4l-2,0l0,-2l2,0l0,-2l2,0l0,2l2,0l0,2l-2,0l0,2l4,0l0,-2l16,0l0,2l4,0l0,2l2,0l0,4l-4,0l0,-2l-4,0l0,-2l-14,0l0,2l-2,0l0,2l-4,0Zm0,-22l-2,0l0,-2l2,0l0,-2l2,0l0,-2l4,0l0,2l2,0l0,-2l2,0l0,-6l2,0l0,-2l2,0l0,8l-2,0l0,4l-2,0l0,4l-2,0l0,2l2,0l0,4l-4,0l0,-4l-4,0l0,-2l-2,0l0,-2Zm6,-2l-4,0l0,2l4,0l0,-2Z" style="fill:#16a6de;" />
        <path d="M36,42l0,-2l2,0l0,2l-2,0Zm0,0l0,2l-2,0l0,-2l2,0Zm-10,0l0,-2l2,0l0,2l-2,0Zm0,0l0,2l-2,0l0,-2l2,0Zm4,-10l0,2l-2,0l0,-2l2,0Zm4,0l0,2l-2,0l0,-2l2,0Zm-2,12l0,2l-2,0l0,-2l2,0Z" style="fill:#550080;" />
      </g>
      <g>
        <path d="M46,32l0,2l-6,0l0,-2l2,0l0,-2l2,0l0,-2l4,0l0,-2l10,0l0,2l2,0l0,4l-6,0l0,-2l-4,0l0,2l-4,0Zm-26,6l0,2l-4,0l0,-6l2,0l0,-4l2,0l0,-2l2,0l0,-8l-2,0l0,-2l-2,0l0,-4l6,0l0,4l2,0l0,14l-2,0l0,4l-2,0l0,2l-2,0Zm30,-20l-2,0l0,-2l2,0l0,-2l2,0l0,2l2,0l0,2l-2,0l0,2l-2,0l0,-2Zm-38,0l-2,0l0,-2l2,0l0,-2l2,0l0,2l2,0l0,2l-2,0l0,2l-2,0l0,-2Z" style="fill:#ff3b8d;" />
        <path d="M46,32l0,2l-2,0l0,-2l2,0Zm4,-2l0,2l-2,0l0,-2l2,0Zm10,0l0,2l-2,0l0,-2l2,0Zm-40,-16l0,2l-2,0l0,-2l2,0Zm2,4l0,2l-2,0l0,-2l2,0Zm-4,16l0,2l-2,0l0,-2l2,0Z" style="fill:#ca006a;" />
      </g>
      <path d="M22,10l-2,0l0,-2l2,0l0,-2l2,0l0,2l2,0l0,2l-2,0l0,2l-2,0l0,-2Zm26,40l-2,0l0,-2l2,0l0,-2l2,0l0,2l2,0l0,2l-2,0l0,2l-2,0l0,-2Z" style="fill:#fcd009;" />
    </g>
  </g>
  <metadata>
    <rdf:RDF>
      <cc:Work rdf:about="">
        <cc:License rdf:resource="http://creativecommons.org/licenses/by-sa/4.0/" />
        <dc:right>
          <cc:Agent>
            <dc:title>CC-BY-SA 4.0 Jugend Hackt</dc:title>
          </cc:Agent>
        </dc:right>
        <dc:title>
          <cc:Agent>
            <dc:title>Pixelhack</dc:title>
          </cc:Agent>
        </dc:title>
        <dc:contributor>
          <cc:Agent>
            <dc:title>Hanno Sternberg</dc:title>
          </cc:Agent>
        </dc:contributor>
        <dc:creator>
          <cc:Agent>
            <dc:title>Jugend Hackt</dc:title>
          </cc:Agent>
        </dc:creator>
        <dc:date>
          <cc:Agent>
            <dc:title>2013</dc:title>
          </cc:Agent>
        </dc:date>
      </cc:Work>
      <cc:License rdf:about="http://creativecommons.org/licenses/by-sa/4.0/">
        <cc:permits rdf:resource="http://creativecommons.org/ns#DerivativeWorks" />
        <cc:requires rdf:resource="http://creativecommons.org/ns#ShareAlike" />
      </cc:License>
    </rdf:RDF>
  </metadata>
</svg>