<?xml version="1.0" encoding="UTF-8" standalone="no"?>
<!DOCTYPE svg PUBLIC "-//W3C//DTD SVG 1.1//EN" "http://www.w3.org/Graphics/SVG/1.1/DTD/svg11.dtd">
<svg xmlns="http://www.w3.org/2000/svg" width="100%" height="100%" viewBox="0 0 64 64" version="1.1" xml:space="preserve" style="fill-rule:evenodd;clip-rule:evenodd;stroke-linejoin:round;stroke-miterlimit:2;" xmlns:rdf="http://www.w3.org/1999/02/22-rdf-syntax-ns" xmlns:cc="http://creativecommons.org/ns" xmlns:dc="http://purl.org/dc/elements/1.1/">
  <g id="Emoji">
    <g id="Stopwatch">
      <g>
        <path d="M50,6l0,-2l2,0l0,2l-2,0Zm2,-2l0,-2l6,0l0,2l-6,0Zm-2,2l0,2l-2,0l0,-2l2,0Zm-46,20l0,12l-2,0l0,-14l2,0l0,-6l2,0l0,-2l2,0l0,-2l2,0l0,-2l2,0l0,-2l2,0l0,-2l2,0l0,-2l6,0l0,-2l14,0l0,2l-12,0l0,2l-6,0l0,2l-2,0l0,2l-2,0l0,2l-2,0l0,2l-2,0l0,2l-2,0l0,2l-2,0l0,6l-2,0Zm38,-20l0,2l-4,0l0,-2l4,0Zm-36,34l0,4l-2,0l0,-4l2,0Z" style="fill:#d1d6da;" />
        <path d="M6,40l-2,0l0,-14l2,0l0,-6l2,0l0,-2l2,0l0,-2l2,0l0,-2l2,0l0,-2l2,0l0,-2l2,0l0,-2l6,0l0,-2l14,0l0,2l6,0l0,2l2,0l0,2l2,0l0,2l2,0l0,2l2,0l0,2l2,0l0,2l2,0l0,6l2,0l0,14l-2,0l0,6l-2,0l0,2l-2,0l0,2l-2,0l0,2l-2,0l0,2l-2,0l0,2l-2,0l0,2l-6,0l0,2l-14,0l0,-2l-6,0l0,-2l-2,0l0,-2l-2,0l0,-2l-2,0l0,-2l-2,0l0,-2l-2,0l0,-2l-2,0l0,-6Zm42,-28l0,-4l2,0l0,-2l2,0l0,-2l6,0l0,2l2,0l0,2l2,0l0,6l-2,0l0,2l-2,0l0,2l-4,0l0,-2l-2,0l0,-2l-2,0l0,-2l-2,0Zm-38,14l0,14l2,0l0,4l2,0l0,2l2,0l0,2l2,0l0,2l2,0l0,2l4,0l0,2l14,0l0,-2l4,0l0,-2l2,0l0,-2l2,0l0,-2l2,0l0,-2l2,0l0,-4l2,0l0,-14l-2,0l0,-4l-2,0l0,-2l-2,0l0,-2l-2,0l0,-2l-2,0l0,-2l-4,0l0,-2l-14,0l0,2l-4,0l0,2l-2,0l0,2l-2,0l0,2l-2,0l0,2l-2,0l0,4l-2,0Zm42,-16l0,2l2,0l0,2l2,0l0,-2l2,0l0,-2l-2,0l0,-2l-2,0l0,2l-2,0Z" style="fill:#52575b;" />
        <path d="M50,14l2,0l0,2l-2,0l0,-2Zm2,2l2,0l0,2l-2,0l0,-2Zm-2,-2l-2,0l0,-2l2,0l0,2Z" style="fill:#5d473d;" />
      </g>
      <g>
        <path d="M38,12l0,2l4,0l0,2l2,0l0,2l2,0l0,2l2,0l0,2l2,0l0,4l2,0l0,14l-2,0l0,4l-2,0l0,2l-2,0l0,2l-2,0l0,2l-2,0l0,2l-4,0l0,2l-14,0l0,-2l-4,0l0,-2l-2,0l0,-2l-2,0l0,-2l-2,0l0,-2l-2,0l0,-4l-2,0l0,-14l2,0l0,-4l2,0l0,-2l2,0l0,-2l2,0l0,-2l2,0l0,-2l4,0l0,-2l14,0Z" style="fill:#fff;" />
        <g>
          <path d="M22,18l-2,0l0,-2l2,0l0,2Zm0,0l2,0l0,2l-2,0l0,-2Zm18,0l0,2l-2,0l0,-2l2,0Zm0,0l0,-2l2,0l0,2l-2,0Zm-24,6l-2,0l0,-2l2,0l0,2Zm0,0l2,0l0,2l-2,0l0,-2Zm30,0l0,2l-2,0l0,-2l2,0Zm0,0l0,-2l2,0l0,2l-2,0Zm-34,10l0,2l-2,0l0,-2l2,0Zm0,-2l-2,0l0,-2l2,0l0,2Zm0,0l4,0l0,2l-4,0l0,-2Zm38,2l2,0l0,2l-2,0l0,-2Zm0,0l-4,0l0,-2l4,0l0,2Zm0,-2l0,-2l2,0l0,2l-2,0Zm-34,10l0,-2l2,0l0,2l-2,0Zm0,0l0,2l-2,0l0,-2l2,0Zm30,0l2,0l0,2l-2,0l0,-2Zm0,0l-2,0l0,-2l2,0l0,2Zm-24,6l0,2l-2,0l0,-2l2,0Zm0,0l0,-2l2,0l0,2l-2,0Zm18,0l-2,0l0,-2l2,0l0,2Zm0,0l2,0l0,2l-2,0l0,-2Zm-10,4l0,2l-2,0l0,-2l2,0Zm2,0l2,0l0,2l-2,0l0,-2Zm-2,0l0,-4l2,0l0,4l-2,0Zm0,-40l0,2l-2,0l0,-2l2,0Zm4,0l0,2l-2,0l0,-2l2,0Z" />
          <g>
            <path d="M30,34l-2,0l0,-18l2,0l0,-2l2,0l0,2l2,0l0,18l-2,0l0,2l-2,0l0,-2Z" style="fill:#e6414a;" />
            <path d="M22,24l-2,0l0,-2l2,0l0,-2l2,0l0,2l2,0l0,2l2,0l0,8l-2,0l0,-2l-2,0l0,-4l-2,0l0,-2Z" style="fill:#550080;" />
          </g>
        </g>
      </g>
    </g>
  </g>
  <metadata>
    <rdf:RDF>
      <cc:Work rdf:about="">
        <cc:License rdf:resource="http://creativecommons.org/licenses/by-sa/4.0/" />
        <dc:right>
          <cc:Agent>
            <dc:title>CC-BY-SA 4.0 Jugend Hackt</dc:title>
          </cc:Agent>
        </dc:right>
        <dc:title>
          <cc:Agent>
            <dc:title>Pixelhack</dc:title>
          </cc:Agent>
        </dc:title>
        <dc:contributor>
          <cc:Agent>
            <dc:title>Hanno Sternberg</dc:title>
          </cc:Agent>
        </dc:contributor>
        <dc:creator>
          <cc:Agent>
            <dc:title>Jugend Hackt</dc:title>
          </cc:Agent>
        </dc:creator>
        <dc:date>
          <cc:Agent>
            <dc:title>2013</dc:title>
          </cc:Agent>
        </dc:date>
      </cc:Work>
      <cc:License rdf:about="http://creativecommons.org/licenses/by-sa/4.0/">
        <cc:permits rdf:resource="http://creativecommons.org/ns#DerivativeWorks" />
        <cc:requires rdf:resource="http://creativecommons.org/ns#ShareAlike" />
      </cc:License>
    </rdf:RDF>
  </metadata>
</svg>