<?xml version="1.0" encoding="UTF-8" standalone="no"?>
<!DOCTYPE svg PUBLIC "-//W3C//DTD SVG 1.1//EN" "http://www.w3.org/Graphics/SVG/1.1/DTD/svg11.dtd">
<svg xmlns="http://www.w3.org/2000/svg" width="100%" height="100%" viewBox="0 0 64 64" version="1.1" xml:space="preserve" style="fill-rule:evenodd;clip-rule:evenodd;stroke-linejoin:round;stroke-miterlimit:2;" xmlns:rdf="http://www.w3.org/1999/02/22-rdf-syntax-ns" xmlns:cc="http://creativecommons.org/ns" xmlns:dc="http://purl.org/dc/elements/1.1/">
  <g id="Emoji">
    <g id="Transportation">
      <g id="Inline-Skates">
        <path d="M2,44l0,-32l2,0l0,-2l2,0l0,-2l22,0l0,2l2,0l0,4l2,0l0,10l2,0l0,2l4,0l0,2l6,0l0,2l4,0l0,2l2,0l0,2l2,0l0,2l2,0l0,2l2,0l0,6l-4,0l0,2l-10,0l0,-2l-6,0l0,2l-10,0l0,-2l-6,0l0,2l-10,0l0,-2l-8,0Z" style="fill:#e6414a;" />
        <g>
          <path d="M18,16l-16,0l0,-4l2,0l0,-2l2,0l0,-2l14,0l0,4l-2,0l0,4Z" style="fill:#8000ff;" />
          <path d="M18,16l0,-4l2,0l0,4l-2,0Zm0,0l0,2l-16,0l0,-2l16,0Zm2,-4l0,-4l2,0l0,4l-2,0Z" style="fill:#550080;" />
        </g>
        <path d="M12,40l-2,0l0,-2l46,0l0,6l-4,0l0,2l-10,0l0,-2l-6,0l0,2l-10,0l0,-2l-6,0l0,2l-6,0l0,-2l-2,0l0,-4Z" style="fill:#550080;" />
        <path d="M22,28l0,2l-2,0l0,-2l2,0Zm2,4l0,2l-2,0l0,-2l2,0Z" />
        <path d="M22,32l0,2l-4,0l0,-4l4,0l0,-2l4,0l0,-2l4,0l0,-2l4,0l0,2l2,0l0,2l-6,0l0,2l-4,0l0,2l-4,0Zm10,-16l0,2l-12,0l0,-2l12,0Zm0,4l0,2l-12,0l0,-2l12,0Z" style="fill:#fcd009;" />
        <path d="M4,26l-2,0l0,-4l2,0l0,2l2,0l0,2l2,0l0,4l2,0l0,4l2,0l0,2l32,0l0,-2l2,0l0,-2l4,0l0,2l2,0l0,2l2,0l0,2l-44,0l0,-2l-2,0l0,-4l-2,0l0,-4l-2,0l0,-2Z" style="fill:#e52320;" />
        <path d="M10,44l-8,0l0,-18l2,0l0,2l2,0l0,4l2,0l0,4l2,0l0,4l2,0l0,4l2,0l0,2l-4,0l0,-2Z" style="fill:#ca006a;" />
        <g>
          <g>
            <path d="M2,54l-2,0l0,-6l2,0l0,6Zm0,-6l0,-2l2,0l0,2l-2,0Zm2,-2l0,-2l6,0l0,2l-6,0Zm6,0l2,0l0,2l-2,0l0,-2Zm2,2l2,0l0,6l-2,0l0,-6Zm0,6l0,2l-2,0l0,-2l2,0Zm-2,2l0,2l-6,0l0,-2l6,0Zm-6,0l-2,0l0,-2l2,0l0,2Z" style="fill:#09aa24;" />
            <path d="M2,54l0,-6l2,0l0,-2l6,0l0,2l2,0l0,6l-2,0l0,2l-6,0l0,-2l-2,0Z" style="fill:#29e400;" />
            <path d="M6,52l-2,0l0,-2l2,0l0,-2l2,0l0,2l2,0l0,2l-2,0l0,2l-2,0l0,-2Z" style="fill:#fff;" />
          </g>
          <g>
            <path d="M18,54l-2,0l0,-6l2,0l0,6Zm0,-6l0,-2l2,0l0,2l-2,0Zm2,-2l0,-2l6,0l0,2l-6,0Zm6,0l2,0l0,2l-2,0l0,-2Zm2,2l2,0l0,6l-2,0l0,-6Zm0,6l0,2l-2,0l0,-2l2,0Zm-2,2l0,2l-6,0l0,-2l6,0Zm-6,0l-2,0l0,-2l2,0l0,2Z" style="fill:#09aa24;" />
            <path d="M18,54l0,-6l2,0l0,-2l6,0l0,2l2,0l0,6l-2,0l0,2l-6,0l0,-2l-2,0Z" style="fill:#29e400;" />
            <path d="M22,52l-2,0l0,-2l2,0l0,-2l2,0l0,2l2,0l0,2l-2,0l0,2l-2,0l0,-2Z" style="fill:#fff;" />
          </g>
          <g>
            <path d="M34,54l-2,0l0,-6l2,0l0,6Zm0,-6l0,-2l2,0l0,2l-2,0Zm2,-2l0,-2l6,0l0,2l-6,0Zm6,0l2,0l0,2l-2,0l0,-2Zm2,2l2,0l0,6l-2,0l0,-6Zm0,6l0,2l-2,0l0,-2l2,0Zm-2,2l0,2l-6,0l0,-2l6,0Zm-6,0l-2,0l0,-2l2,0l0,2Z" style="fill:#09aa24;" />
            <path d="M34,54l0,-6l2,0l0,-2l6,0l0,2l2,0l0,6l-2,0l0,2l-6,0l0,-2l-2,0Z" style="fill:#29e400;" />
            <path d="M38,52l-2,0l0,-2l2,0l0,-2l2,0l0,2l2,0l0,2l-2,0l0,2l-2,0l0,-2Z" style="fill:#fff;" />
          </g>
          <g>
            <path d="M50,54l-2,0l0,-6l2,0l0,6Zm0,-6l0,-2l2,0l0,2l-2,0Zm2,-2l0,-2l6,0l0,2l-6,0Zm6,0l2,0l0,2l-2,0l0,-2Zm2,2l2,0l0,6l-2,0l0,-6Zm0,6l0,2l-2,0l0,-2l2,0Zm-2,2l0,2l-6,0l0,-2l6,0Zm-6,0l-2,0l0,-2l2,0l0,2Z" style="fill:#09aa24;" />
            <path d="M50,54l0,-6l2,0l0,-2l6,0l0,2l2,0l0,6l-2,0l0,2l-6,0l0,-2l-2,0Z" style="fill:#29e400;" />
            <path d="M54,52l-2,0l0,-2l2,0l0,-2l2,0l0,2l2,0l0,2l-2,0l0,2l-2,0l0,-2Z" style="fill:#fff;" />
          </g>
          <path d="M14,48l-2,0l0,-2l6,0l0,2l-2,0l0,2l-2,0l0,-2Zm16,0l-2,0l0,-2l6,0l0,2l-2,0l0,2l-2,0l0,-2Zm16,0l-2,0l0,-2l6,0l0,2l-2,0l0,2l-2,0l0,-2Z" style="fill:#52575b;" />
        </g>
      </g>
    </g>
  </g>
  <metadata>
    <rdf:RDF>
      <cc:Work rdf:about="">
        <cc:License rdf:resource="http://creativecommons.org/licenses/by-sa/4.0/" />
        <dc:right>
          <cc:Agent>
            <dc:title>CC-BY-SA 4.0 Jugend Hackt</dc:title>
          </cc:Agent>
        </dc:right>
        <dc:title>
          <cc:Agent>
            <dc:title>Pixelhack</dc:title>
          </cc:Agent>
        </dc:title>
        <dc:contributor>
          <cc:Agent>
            <dc:title>Hanno Sternberg</dc:title>
          </cc:Agent>
        </dc:contributor>
        <dc:creator>
          <cc:Agent>
            <dc:title>Jugend Hackt</dc:title>
          </cc:Agent>
        </dc:creator>
        <dc:date>
          <cc:Agent>
            <dc:title>2013</dc:title>
          </cc:Agent>
        </dc:date>
      </cc:Work>
      <cc:License rdf:about="http://creativecommons.org/licenses/by-sa/4.0/">
        <cc:permits rdf:resource="http://creativecommons.org/ns#DerivativeWorks" />
        <cc:requires rdf:resource="http://creativecommons.org/ns#ShareAlike" />
      </cc:License>
    </rdf:RDF>
  </metadata>
</svg>