<?xml version="1.0" encoding="UTF-8" standalone="no"?>
<!DOCTYPE svg PUBLIC "-//W3C//DTD SVG 1.1//EN" "http://www.w3.org/Graphics/SVG/1.1/DTD/svg11.dtd">
<svg xmlns="http://www.w3.org/2000/svg" width="100%" height="100%" viewBox="0 0 64 64" version="1.1" xml:space="preserve" style="fill-rule:evenodd;clip-rule:evenodd;stroke-linejoin:round;stroke-miterlimit:2;" xmlns:rdf="http://www.w3.org/1999/02/22-rdf-syntax-ns" xmlns:cc="http://creativecommons.org/ns" xmlns:dc="http://purl.org/dc/elements/1.1/">
  <g id="Emoji">
    <g id="Foods">
      <g id="Cake">
        <path d="M34,8l-4,0l0,-4l2,0l0,2l2,0l0,2Zm0,0l2,0l0,2l2,0l0,4l-2,0l0,-2l-2,0l0,-4Z" style="fill:#09aa24;" />
        <path d="M32,18l-8,0l0,-8l2,0l0,-2l2,0l0,-2l2,0l0,2l4,0l0,4l2,0l0,4l-4,0l0,2Z" style="fill:#e52320;" />
        <path d="M14,30l-10,0l0,-2l2,0l0,-2l2,0l0,-2l2,0l0,-2l2,0l0,-2l2,0l0,-2l2,0l0,-2l2,0l0,-2l2,0l0,-2l2,0l0,-2l2,0l0,4l-2,0l0,2l-2,0l0,2l-2,0l0,2l-2,0l0,2l-2,0l0,2l-2,0l0,2l-2,0l0,2l4,0l0,2Zm26,-20l-4,0l0,-2l4,0l0,2Zm-18,16l0,-2l8,0l0,2l-8,0Zm26,-14l-8,0l0,-2l8,0l0,2Zm-12,10l0,-2l8,0l0,2l-8,0Zm8,-2l0,-2l8,0l0,2l-8,0Zm8,-2l0,-2l2,0l0,-2l-6,0l0,-2l8,0l0,2l2,0l0,2l-2,0l0,2l-4,0Zm-22,6l0,-2l6,0l0,2l-6,0Zm-16,4l0,-2l8,0l0,2l-8,0Z" style="fill:#f9dbb9;" />
        <path d="M14,28l-4,0l0,-2l2,0l0,-2l2,0l0,-2l2,0l0,-2l2,0l0,-2l2,0l0,-2l2,0l0,-2l2,0l0,4l8,0l0,-2l4,0l0,-2l2,0l0,-4l2,0l0,2l8,0l0,2l6,0l0,2l-2,0l0,2l-8,0l0,2l-8,0l0,2l-6,0l0,2l-8,0l0,2l-8,0l0,2Z" style="fill:#e1bb95;" />
        <path d="M16,48l-12,0l0,-6l10,0l0,-2l8,0l0,-2l6,0l0,-2l6,0l0,-2l8,0l0,-2l6,0l0,-2l6,0l0,-2l2,0l0,-12l4,0l0,30l-2,0l0,2l-2,0l0,-12l-6,0l0,2l-8,0l0,2l-6,0l0,2l-8,0l0,2l-6,0l0,2l-6,0l0,2Z" style="fill:#bf8e67;" />
        <path d="M14,40l0,2l-10,0l0,-12l10,0l0,-2l8,0l0,-2l8,0l0,-2l6,0l0,-2l8,0l0,-2l8,0l0,-2l4,0l0,10l-2,0l0,2l-6,0l0,2l-6,0l0,2l-8,0l0,2l-6,0l0,2l-6,0l0,2l-8,0Zm-8,18l-2,0l0,-10l12,0l0,-2l6,0l0,-2l6,0l0,-2l8,0l0,-2l6,0l0,-2l8,0l0,-2l6,0l0,12l-4,0l0,2l-8,0l0,2l-6,0l0,2l-8,0l0,2l-6,0l0,2l-8,0l0,2l-6,0l0,2l-4,0l0,-4Z" style="fill:#a0673e;" />
      </g>
    </g>
  </g>
  <metadata>
    <rdf:RDF>
      <cc:Work rdf:about="">
        <cc:License rdf:resource="http://creativecommons.org/licenses/by-sa/4.0/" />
        <dc:right>
          <cc:Agent>
            <dc:title>CC-BY-SA 4.0 Jugend Hackt</dc:title>
          </cc:Agent>
        </dc:right>
        <dc:title>
          <cc:Agent>
            <dc:title>Pixelhack</dc:title>
          </cc:Agent>
        </dc:title>
        <dc:contributor>
          <cc:Agent>
            <dc:title>Hanno Sternberg</dc:title>
          </cc:Agent>
        </dc:contributor>
        <dc:creator>
          <cc:Agent>
            <dc:title>Jugend Hackt</dc:title>
          </cc:Agent>
        </dc:creator>
        <dc:date>
          <cc:Agent>
            <dc:title>2013</dc:title>
          </cc:Agent>
        </dc:date>
      </cc:Work>
      <cc:License rdf:about="http://creativecommons.org/licenses/by-sa/4.0/">
        <cc:permits rdf:resource="http://creativecommons.org/ns#DerivativeWorks" />
        <cc:requires rdf:resource="http://creativecommons.org/ns#ShareAlike" />
      </cc:License>
    </rdf:RDF>
  </metadata>
</svg>