<?xml version="1.0" encoding="UTF-8" standalone="no"?>
<!DOCTYPE svg PUBLIC "-//W3C//DTD SVG 1.1//EN" "http://www.w3.org/Graphics/SVG/1.1/DTD/svg11.dtd">
<svg xmlns="http://www.w3.org/2000/svg" width="100%" height="100%" viewBox="0 0 64 64" version="1.1" xml:space="preserve" style="fill-rule:evenodd;clip-rule:evenodd;stroke-linejoin:round;stroke-miterlimit:2;" xmlns:rdf="http://www.w3.org/1999/02/22-rdf-syntax-ns" xmlns:cc="http://creativecommons.org/ns" xmlns:dc="http://purl.org/dc/elements/1.1/">
  <g id="Emoji">
    <g id="Foods">
      <g id="Fries">
        <g>
          <path d="M10,40l-2,0l0,-10l2,0l0,2l2,0l0,10l2,0l0,8l2,0l0,8l2,0l0,6l-2,0l0,-4l-2,0l0,-6l-2,0l0,-8l-2,0l0,-6Zm40,24l-4,0l0,-4l2,0l0,-8l2,0l0,-8l2,0l0,-8l2,0l0,-6l4,0l0,10l-2,0l0,6l-2,0l0,8l-2,0l0,6l-2,0l0,4Zm-28,-18l-2,0l0,-8l2,0l0,2l4,0l0,6l2,0l0,12l2,0l0,6l-6,0l0,-6l-2,0l0,-12Zm20,18l-6,0l0,-6l2,0l0,-12l2,0l0,-6l2,0l0,-2l4,0l0,8l-2,0l0,12l-2,0l0,6Z" style="fill:#fff;" />
          <path d="M12,32l-2,0l0,-2l4,0l0,2l2,0l0,2l2,0l0,4l2,0l0,8l2,0l0,12l2,0l0,6l-6,0l0,-6l-2,0l0,-8l-2,0l0,-8l-2,0l0,-10Zm34,32l-4,0l0,-6l2,0l0,-12l2,0l0,-12l4,0l0,-2l4,0l0,4l-2,0l0,8l-2,0l0,8l-2,0l0,8l-2,0l0,4Zm-18,-18l-2,0l0,-2l14,0l0,2l-2,0l0,12l-2,0l0,6l-6,0l0,-6l-2,0l0,-12Z" style="fill:#e6414a;" />
          <path d="M16,32l2,0l0,2l-2,0l0,-2Zm2,2l2,0l0,4l-2,0l0,-4Zm-2,-2l-2,0l0,-2l2,0l0,2Zm30,2l0,4l-2,0l0,-4l2,0Zm0,0l0,-2l2,0l0,-2l6,0l0,2l-4,0l0,2l-4,0Zm-6,8l0,2l-14,0l0,-2l14,0Z" style="fill:#d1d6da;" />
        </g>
        <path d="M58,30l-52,0l0,-4l2,0l0,-6l2,0l0,-4l2,0l0,-2l2,0l0,-2l4,0l0,-2l6,0l0,-2l18,0l0,2l4,0l0,2l4,0l0,2l2,0l0,2l2,0l0,2l2,0l0,6l2,0l0,6Z" style="fill:#e52320;" />
        <g>
          <path d="M36,42l-4,0l0,-2l2,0l0,-16l2,0l0,-8l2,0l0,12l-2,0l0,14Zm-20,-12l-2,0l0,-12l2,0l0,8l2,0l0,6l-2,0l0,-2Zm8,4l-2,0l0,-14l2,0l0,8l2,0l0,12l-2,0l0,-6Zm6,-22l0,6l-4,0l0,-6l4,0Zm16,6l0,10l-2,0l0,-10l2,0Zm-2,12l0,8l-2,0l0,-8l2,0Z" style="fill:#fcd009;" />
          <path d="M26,28l-2,0l0,-8l2,0l0,-2l4,0l0,-6l6,0l0,12l-2,0l0,16l-2,0l0,2l-6,0l0,-14Zm-8,-2l-2,0l0,-8l6,0l0,16l2,0l0,6l-2,0l0,-2l-2,0l0,-4l-2,0l0,-8Zm22,16l-4,0l0,-14l2,0l0,-12l6,0l0,12l2,0l0,-10l2,0l0,2l4,0l0,8l-2,0l0,2l-2,0l0,2l-2,0l0,2l-2,0l0,-4l-2,0l0,10l-2,0l0,2Z" style="fill:#fbe50f;" />
        </g>
      </g>
    </g>
  </g>
  <metadata>
    <rdf:RDF>
      <cc:Work rdf:about="">
        <cc:License rdf:resource="http://creativecommons.org/licenses/by-sa/4.0/" />
        <dc:right>
          <cc:Agent>
            <dc:title>CC-BY-SA 4.0 Jugend Hackt</dc:title>
          </cc:Agent>
        </dc:right>
        <dc:title>
          <cc:Agent>
            <dc:title>Pixelhack</dc:title>
          </cc:Agent>
        </dc:title>
        <dc:contributor>
          <cc:Agent>
            <dc:title>Hanno Sternberg</dc:title>
          </cc:Agent>
        </dc:contributor>
        <dc:creator>
          <cc:Agent>
            <dc:title>Jugend Hackt</dc:title>
          </cc:Agent>
        </dc:creator>
        <dc:date>
          <cc:Agent>
            <dc:title>2013</dc:title>
          </cc:Agent>
        </dc:date>
      </cc:Work>
      <cc:License rdf:about="http://creativecommons.org/licenses/by-sa/4.0/">
        <cc:permits rdf:resource="http://creativecommons.org/ns#DerivativeWorks" />
        <cc:requires rdf:resource="http://creativecommons.org/ns#ShareAlike" />
      </cc:License>
    </rdf:RDF>
  </metadata>
</svg>