<?xml version="1.0" encoding="UTF-8" standalone="no"?>
<!DOCTYPE svg PUBLIC "-//W3C//DTD SVG 1.1//EN" "http://www.w3.org/Graphics/SVG/1.1/DTD/svg11.dtd">
<svg xmlns="http://www.w3.org/2000/svg" xmlns:serif="http://www.serif.com/" width="100%" height="100%" viewBox="0 0 64 64" version="1.1" xml:space="preserve" style="fill-rule:evenodd;clip-rule:evenodd;stroke-linejoin:round;stroke-miterlimit:2;" xmlns:rdf="http://www.w3.org/1999/02/22-rdf-syntax-ns" xmlns:cc="http://creativecommons.org/ns" xmlns:dc="http://purl.org/dc/elements/1.1/">
  <g id="Emoji">
    <g id="Foods">
      <g id="Birthday-Cake" serif:id="Birthday Cake">
        <path d="M6,40l0,22l2,0l0,2l50,0l0,-24l-6,0l0,2l-8,0l0,-2l-8,0l0,2l-8,0l0,-2l-8,0l0,2l-6,0l0,-2l-8,0Z" style="fill:#a0673e;" />
        <rect x="6" y="48" width="52" height="4" style="fill:#bf8e67;" />
        <g>
          <path d="M6,28l0,4l-2,0l0,-4l2,0Zm2,-4l0,-2l2,0l0,2l-2,0Zm-2,4l0,-4l2,0l0,4l-2,0Z" style="fill:#f9dbb9;" />
          <path d="M14,40l-10,0l0,-8l2,0l0,-4l2,0l0,-4l2,0l0,-2l46,0l0,2l2,0l0,2l2,0l0,14l-8,0l0,2l-8,0l0,-2l-8,0l0,2l-8,0l0,-2l-8,0l0,2l-6,0l0,-2Z" style="fill:#e1bb95;" />
        </g>
        <g>
          <path d="M50,28l0,2l-2,0l0,-2l2,0Zm0,0l0,-2l2,0l0,2l-2,0Zm-26,8l-4,0l0,-2l2,0l0,-2l2,0l0,4Z" style="fill:#f3971b;" />
          <path d="M22,26l0,-2l2,0l0,2l-2,0Zm0,0l0,2l-2,0l0,-2l2,0Zm-8,2l-2,0l0,-2l2,0l0,2Zm0,0l2,0l0,2l-2,0l0,-2Zm26,6l-2,0l0,-2l2,0l0,2Zm0,0l2,0l0,2l-2,0l0,-2Z" style="fill:#ff3b8d;" />
          <path d="M32,28l-2,0l0,-2l2,0l0,2Zm0,0l2,0l0,2l-2,0l0,-2Zm-24,6l0,2l-2,0l0,-2l2,0Zm0,0l0,-2l2,0l0,2l-2,0Zm22,0l0,2l-2,0l0,-2l2,0Zm0,0l0,-2l2,0l0,2l-2,0Zm24,2l2,0l0,2l-2,0l0,-2Zm0,0l-2,0l0,-2l2,0l0,2Z" style="fill:#10498c;" />
        </g>
        <g>
          <g>
            <path d="M18,12l0,-4l2,0l0,2l2,0l0,2l-4,0Zm0,0l0,2l-2,0l0,-2l2,0Zm4,2l0,2l-2,0l0,-2l2,0Z" style="fill:#fbe50f;" />
            <path d="M18,16l0,-4l4,0l0,2l-2,0l0,2l-2,0Z" style="fill:#f3971b;" />
            <rect x="18" y="16" width="4" height="6" style="fill:#16a6de;" />
          </g>
          <g>
            <path d="M34,12l-4,0l0,-2l2,0l0,-2l2,0l0,4Zm0,0l2,0l0,2l-2,0l0,-2Zm-2,2l0,2l-2,0l0,-2l2,0Z" style="fill:#fbe50f;" />
            <path d="M32,14l-2,0l0,-2l4,0l0,4l-2,0l0,-2Z" style="fill:#f3971b;" />
            <rect x="30" y="16" width="4" height="6" style="fill:#16a6de;" />
          </g>
          <g>
            <path d="M44,12l0,-4l2,0l0,2l2,0l0,6l-2,0l0,-4l-2,0Zm0,0l0,4l-2,0l0,-4l2,0Z" style="fill:#fbe50f;" />
            <rect x="44" y="12" width="2" height="4" style="fill:#f3971b;" />
            <rect x="44" y="16" width="4" height="6" style="fill:#16a6de;" />
          </g>
        </g>
      </g>
    </g>
  </g>
  <metadata>
    <rdf:RDF>
      <cc:Work rdf:about="">
        <cc:License rdf:resource="http://creativecommons.org/licenses/by-sa/4.0/" />
        <dc:right>
          <cc:Agent>
            <dc:title>CC-BY-SA 4.0 Jugend Hackt</dc:title>
          </cc:Agent>
        </dc:right>
        <dc:title>
          <cc:Agent>
            <dc:title>Pixelhack</dc:title>
          </cc:Agent>
        </dc:title>
        <dc:contributor>
          <cc:Agent>
            <dc:title>Hanno Sternberg</dc:title>
          </cc:Agent>
        </dc:contributor>
        <dc:creator>
          <cc:Agent>
            <dc:title>Jugend Hackt</dc:title>
          </cc:Agent>
        </dc:creator>
        <dc:date>
          <cc:Agent>
            <dc:title>2013</dc:title>
          </cc:Agent>
        </dc:date>
      </cc:Work>
      <cc:License rdf:about="http://creativecommons.org/licenses/by-sa/4.0/">
        <cc:permits rdf:resource="http://creativecommons.org/ns#DerivativeWorks" />
        <cc:requires rdf:resource="http://creativecommons.org/ns#ShareAlike" />
      </cc:License>
    </rdf:RDF>
  </metadata>
</svg>