<?xml version="1.0" encoding="UTF-8" standalone="no"?>
<!DOCTYPE svg PUBLIC "-//W3C//DTD SVG 1.1//EN" "http://www.w3.org/Graphics/SVG/1.1/DTD/svg11.dtd">
<svg xmlns="http://www.w3.org/2000/svg" width="100%" height="100%" viewBox="0 0 64 64" version="1.1" xml:space="preserve" style="fill-rule:evenodd;clip-rule:evenodd;stroke-linejoin:round;stroke-miterlimit:2;" xmlns:rdf="http://www.w3.org/1999/02/22-rdf-syntax-ns" xmlns:cc="http://creativecommons.org/ns" xmlns:dc="http://purl.org/dc/elements/1.1/">
  <g id="Emoji">
    <g>
      <path d="M6,30l-2,0l0,-8l2,0l0,-4l2,0l0,-2l2,0l0,-2l4,0l0,-2l8,0l0,2l2,0l0,2l2,0l0,2l-4,0l0,2l-2,0l0,2l-4,0l0,2l-2,0l0,4l-2,0l0,4l-2,0l0,4l-2,0l0,-2l-2,0l0,-4Zm36,-12l-6,0l0,-2l4,0l0,-2l4,0l0,-2l6,0l0,2l4,0l0,2l2,0l0,2l2,0l0,4l2,0l0,8l-2,0l0,4l-2,0l0,2l-2,0l0,-6l-2,0l0,-2l-2,0l0,-2l-2,0l0,-2l-2,0l0,-2l-2,0l0,-2l-2,0l0,-2Z" style="fill:#fcd009;" />
      <path d="M52,30l0,6l-6,0l0,-2l-4,0l0,-4l-2,0l0,-2l-2,0l0,-2l-2,0l0,-2l-2,0l0,-4l8,0l0,2l2,0l0,4l2,0l0,2l4,0l0,2l2,0Zm-32,4l0,2l-8,0l0,-4l2,0l0,-4l2,0l0,-4l4,0l0,-2l2,0l0,-2l4,0l0,-2l2,0l0,2l2,0l0,6l-2,0l0,2l-6,0l0,6l-2,0Z" style="fill:#5d473d;" />
      <path d="M26,18l0,-2l2,0l0,2l-2,0Zm-10,6l0,-2l4,0l0,2l-4,0Zm12,-6l2,0l0,2l-2,0l0,-2Zm-8,4l0,-2l2,0l0,2l-2,0Zm2,-2l0,-2l4,0l0,2l-4,0Zm-10,12l0,-4l2,0l0,4l-2,0Zm-2,6l0,-6l2,0l0,4l2,0l0,2l-4,0Zm4,-10l0,-4l2,0l0,4l-2,0Zm28,-8l-6,0l0,-2l6,0l0,2Zm6,6l2,0l0,2l-2,0l0,-2Zm4,4l2,0l0,8l-2,0l0,-8Zm-6,-6l2,0l0,2l-2,0l0,-2Zm-2,-2l2,0l0,2l-2,0l0,-2Zm6,6l2,0l0,2l-2,0l0,-2Zm-8,-8l2,0l0,2l-2,0l0,-2Z" style="fill:#a0673e;" />
      <path d="M22,38l-2,0l0,-2l2,0l0,-2l2,0l0,2l2,0l0,2l-2,0l0,2l-2,0l0,-2Zm-6,12l-2,0l0,-2l2,0l0,-2l2,0l0,2l2,0l0,2l-2,0l0,2l-2,0l0,-2Zm30,2l-2,0l0,-2l2,0l0,-2l2,0l0,2l2,0l0,2l-2,0l0,2l-2,0l0,-2Z" style="fill:#fbe50f;" />
      <g>
        <path d="M12,50l-4,0l0,-2l2,0l0,-2l2,0l0,-4l2,0l0,-4l2,0l0,-6l-2,0l0,-6l4,0l0,16l-2,0l0,4l-2,0l0,2l-2,0l0,2Zm24,-16l-2,0l0,-6l2,0l0,-2l2,0l0,2l4,0l0,-2l2,0l0,-2l4,0l0,4l-2,0l0,2l-2,0l0,2l-2,0l0,2l-2,0l0,2l-4,0l0,-2Zm0,-4l0,2l2,0l0,-2l-2,0Zm-4,24l-2,0l0,-2l2,0l0,-2l2,0l0,2l2,0l0,2l-2,0l0,2l-2,0l0,-2Z" style="fill:#16a6de;" />
        <path d="M42,28l0,-2l2,0l0,2l-2,0Zm0,0l0,2l-2,0l0,-2l2,0Zm-24,-2l0,2l-2,0l0,-2l2,0Zm0,14l0,2l-2,0l0,-2l2,0Zm-4,2l0,2l-2,0l0,-2l2,0Z" style="fill:#10498c;" />
      </g>
      <g>
        <path d="M24,54l-4,0l0,-2l2,0l0,-12l2,0l0,2l2,0l0,8l-2,0l0,4Zm-6,-28l-2,0l0,-4l4,0l0,2l2,0l0,2l2,0l0,2l4,0l0,2l2,0l0,2l2,0l0,4l-2,0l0,4l2,0l0,2l2,0l0,2l-4,0l0,-2l-2,0l0,-8l-2,0l0,-2l-4,0l0,-2l-2,0l0,-2l-2,0l0,-2Zm32,20l-2,0l0,-14l2,0l0,-4l2,0l0,2l2,0l0,4l-2,0l0,4l-2,0l0,4l2,0l0,2l2,0l0,2l2,0l0,2l-2,0l0,2l-4,0l0,-4Zm-12,-2l-2,0l0,-2l2,0l0,-2l2,0l0,2l2,0l0,2l-2,0l0,2l-2,0l0,-2Z" style="fill:#ff3b8d;" />
        <path d="M52,44l-2,0l0,-2l2,0l0,2Zm0,0l2,0l0,2l-2,0l0,-2Zm-20,-10l0,2l-2,0l0,-2l2,0Zm-4,-6l0,2l-2,0l0,-2l2,0Zm22,4l0,2l-2,0l0,-2l2,0Z" style="fill:#ca006a;" />
      </g>
    </g>
  </g>
  <metadata>
    <rdf:RDF>
      <cc:Work rdf:about="">
        <cc:License rdf:resource="http://creativecommons.org/licenses/by-sa/4.0/" />
        <dc:right>
          <cc:Agent>
            <dc:title>CC-BY-SA 4.0 Jugend Hackt</dc:title>
          </cc:Agent>
        </dc:right>
        <dc:title>
          <cc:Agent>
            <dc:title>Pixelhack</dc:title>
          </cc:Agent>
        </dc:title>
        <dc:contributor>
          <cc:Agent>
            <dc:title>Hanno Sternberg</dc:title>
          </cc:Agent>
        </dc:contributor>
        <dc:creator>
          <cc:Agent>
            <dc:title>Jugend Hackt</dc:title>
          </cc:Agent>
        </dc:creator>
        <dc:date>
          <cc:Agent>
            <dc:title>2013</dc:title>
          </cc:Agent>
        </dc:date>
      </cc:Work>
      <cc:License rdf:about="http://creativecommons.org/licenses/by-sa/4.0/">
        <cc:permits rdf:resource="http://creativecommons.org/ns#DerivativeWorks" />
        <cc:requires rdf:resource="http://creativecommons.org/ns#ShareAlike" />
      </cc:License>
    </rdf:RDF>
  </metadata>
</svg>