<?xml version="1.0" encoding="UTF-8" standalone="no"?>
<!DOCTYPE svg PUBLIC "-//W3C//DTD SVG 1.1//EN" "http://www.w3.org/Graphics/SVG/1.1/DTD/svg11.dtd">
<svg xmlns="http://www.w3.org/2000/svg" xmlns:serif="http://www.serif.com/" width="100%" height="100%" viewBox="0 0 64 64" version="1.1" xml:space="preserve" style="fill-rule:evenodd;clip-rule:evenodd;stroke-linejoin:round;stroke-miterlimit:2;" xmlns:rdf="http://www.w3.org/1999/02/22-rdf-syntax-ns" xmlns:cc="http://creativecommons.org/ns" xmlns:dc="http://purl.org/dc/elements/1.1/">
  <g id="Emoji">
    <g id="Foods">
      <g id="Pizza-Slice" serif:id="Pizza Slice">
        <path d="M8,28l0,-2l2,0l0,2l-2,0Zm6,-6l0,-2l2,0l0,2l-2,0Zm24,-14l0,-2l6,0l0,2l-6,0Zm-10,4l0,-2l4,0l0,2l-4,0Zm-6,4l0,-2l2,0l0,2l-2,0Zm22,-10l0,-2l8,0l0,2l-8,0Zm-36,22l0,2l-2,0l0,-2l2,0Zm44,-22l2,0l0,2l-2,0l0,-2Zm-34,12l0,-2l4,0l0,2l-4,0Zm-2,2l0,-2l2,0l0,2l-2,0Zm8,-6l0,-2l4,0l0,2l-4,0Zm8,-4l0,-2l6,0l0,2l-6,0Zm-20,14l0,-2l2,0l0,2l-2,0Zm-2,2l0,-2l2,0l0,2l-2,0Z" style="fill:#bf8e67;" />
        <path d="M8,36l-2,0l0,-6l2,0l0,-2l2,0l0,-2l2,0l0,-2l2,0l0,-2l2,0l0,-2l2,0l0,-2l4,0l0,-2l2,0l0,-2l4,0l0,-2l4,0l0,-2l6,0l0,-2l6,0l0,-2l8,0l0,2l2,0l0,6l-4,0l0,2l-8,0l0,2l-6,0l0,2l-2,0l0,2l-4,0l0,2l-4,0l0,2l-2,0l0,2l-2,0l0,2l-2,0l0,2l-2,0l0,2l-2,0l0,4l-2,0l0,2l-2,0l0,-2l-4,0l0,-2Z" style="fill:#e1bb95;" />
        <path d="M18,38l0,2l-4,0l0,-2l2,0l0,-4l2,0l0,-2l2,0l0,-2l2,0l0,-2l2,0l0,-2l2,0l0,-2l4,0l0,-2l4,0l0,-2l2,0l0,-2l6,0l0,-2l8,0l0,-2l4,0l0,2l-2,0l0,2l-8,0l0,2l-6,0l0,2l-2,0l0,2l-2,0l0,2l-2,0l0,2l-4,0l0,2l-2,0l0,2l-2,0l0,2l-2,0l0,2l-2,0l0,2l-2,0Z" style="fill:#fcd009;" />
        <path d="M18,42l-4,0l0,-2l4,0l0,-2l2,0l0,-2l2,0l0,-2l2,0l0,-2l2,0l0,-2l2,0l0,-2l4,0l0,-2l2,0l0,-2l2,0l0,-2l2,0l0,-2l6,0l0,-2l8,0l0,-2l2,0l0,40l-2,0l0,2l-2,0l0,2l-4,0l0,-2l-4,0l0,-2l-4,0l0,-2l-2,0l0,-2l-4,0l0,-2l-4,0l0,-2l-4,0l0,-2l-2,0l0,-2l-4,0l0,-2Z" style="fill:#fbe50f;" />
        <path d="M38,32l-2,0l0,-6l2,0l0,-2l2,0l0,-2l6,0l0,2l2,0l0,2l2,0l0,6l-2,0l0,-2l-4,0l0,4l2,0l0,2l-6,0l0,-2l-2,0l0,-2Zm-12,12l-2,0l0,-4l2,0l0,-4l6,0l0,2l2,0l0,6l-2,0l0,2l-6,0l0,-2Zm16,4l-2,0l0,-4l2,0l0,-2l4,0l0,2l2,0l0,4l-2,0l0,2l-4,0l0,-2Z" style="fill:#e52320;" />
        <path d="M46,34l-2,0l0,-4l4,0l0,2l2,0l0,2l-2,0l0,2l-2,0l0,-2Zm-8,8l-2,0l0,-4l4,0l0,2l2,0l0,2l-2,0l0,2l-2,0l0,-2Zm8,12l-2,0l0,-2l4,0l0,-2l2,0l0,4l-2,0l0,2l-2,0l0,-2Z" style="fill:#09aa24;" />
      </g>
    </g>
  </g>
  <metadata>
    <rdf:RDF>
      <cc:Work rdf:about="">
        <cc:License rdf:resource="http://creativecommons.org/licenses/by-sa/4.0/" />
        <dc:right>
          <cc:Agent>
            <dc:title>CC-BY-SA 4.0 Jugend Hackt</dc:title>
          </cc:Agent>
        </dc:right>
        <dc:title>
          <cc:Agent>
            <dc:title>Pixelhack</dc:title>
          </cc:Agent>
        </dc:title>
        <dc:contributor>
          <cc:Agent>
            <dc:title>Hanno Sternberg</dc:title>
          </cc:Agent>
        </dc:contributor>
        <dc:creator>
          <cc:Agent>
            <dc:title>Jugend Hackt</dc:title>
          </cc:Agent>
        </dc:creator>
        <dc:date>
          <cc:Agent>
            <dc:title>2013</dc:title>
          </cc:Agent>
        </dc:date>
      </cc:Work>
      <cc:License rdf:about="http://creativecommons.org/licenses/by-sa/4.0/">
        <cc:permits rdf:resource="http://creativecommons.org/ns#DerivativeWorks" />
        <cc:requires rdf:resource="http://creativecommons.org/ns#ShareAlike" />
      </cc:License>
    </rdf:RDF>
  </metadata>
</svg>