<?xml version="1.0" encoding="UTF-8" standalone="no"?>
<!DOCTYPE svg PUBLIC "-//W3C//DTD SVG 1.1//EN" "http://www.w3.org/Graphics/SVG/1.1/DTD/svg11.dtd">
<svg xmlns="http://www.w3.org/2000/svg" width="100%" height="100%" viewBox="0 0 64 64" version="1.1" xml:space="preserve" style="fill-rule:evenodd;clip-rule:evenodd;stroke-linejoin:round;stroke-miterlimit:2;" xmlns:rdf="http://www.w3.org/1999/02/22-rdf-syntax-ns" xmlns:cc="http://creativecommons.org/ns" xmlns:dc="http://purl.org/dc/elements/1.1/">
  <g id="Emoji">
    <g id="Witch">
      <g>
        <path d="M40,22l-14,0l0,-4l2,0l0,-4l2,0l0,-2l10,0l0,2l4,0l0,2l-6,0l0,2l2,0l0,4Zm-26,12l-2,0l0,-4l2,0l0,4Zm0,-4l0,-4l2,0l0,-2l32,0l0,4l-2,0l0,-2l-28,0l0,2l-2,0l0,2l-2,0Zm0,4l2,0l0,4l-2,0l0,-4Zm40,-4l0,4l-2,0l0,-4l2,0Z" style="fill:#550080;" />
        <path d="M16,34l-2,0l0,-4l2,0l0,-2l2,0l0,-2l28,0l0,2l2,0l0,10l-6,0l0,-2l2,0l0,-4l-2,0l0,-4l-18,0l0,4l-2,0l0,4l2,0l0,2l-8,0l0,-4Zm26,-12l0,2l-18,0l0,-2l18,0Z" style="fill:#ca006a;" />
      </g>
      <g>
        <path d="M48,24l-2,0l0,-2l2,0l0,2Zm4,0l0,-2l2,0l0,2l-2,0Zm-4,0l4,0l0,26l-4,0l0,-26Z" style="fill:#e1bb95;" />
        <path d="M42,12l0,-6l2,0l0,2l2,0l0,-2l2,0l0,2l2,0l0,-2l2,0l0,2l2,0l0,-2l2,0l0,2l2,0l0,-2l2,0l0,6l-2,0l0,4l-2,0l0,4l-2,0l0,2l-2,0l0,2l-4,0l0,-2l-2,0l0,-6l-2,0l0,-4l-2,0Z" style="fill:#f3971a;" />
        <path d="M44,10l2,0l0,2l-2,0l0,-2Zm2,0l0,-2l2,0l0,2l-2,0Zm2,0l2,0l0,2l-2,0l0,-2Zm2,0l0,-2l2,0l0,2l-2,0Zm2,0l2,0l0,2l-2,0l0,-2Zm2,0l0,-2l2,0l0,2l-2,0Zm2,0l2,0l0,2l-2,0l0,-2Zm0,2l0,2l-2,0l0,-2l2,0Zm-2,2l0,2l-2,0l0,-2l2,0Zm0,2l2,0l0,2l-2,0l0,-2Zm0,2l0,2l-2,0l0,-2l2,0Zm-2,2l0,2l-2,0l0,-2l2,0Zm-2,2l0,2l-2,0l0,-2l2,0Zm-2,0l-2,0l0,-2l2,0l0,2Zm0,-2l0,-2l2,0l0,2l-2,0Zm0,-2l-2,0l0,-2l2,0l0,2Zm-2,-2l-2,0l0,-2l2,0l0,2Zm0,-2l0,-2l2,0l0,2l-2,0Zm4,-2l2,0l0,2l-2,0l0,-2Zm-2,2l2,0l0,2l-2,0l0,-2Zm4,2l0,2l-2,0l0,-2l2,0Zm4,-2l2,0l0,1l-2,0l0,-1Zm-12,-4l-2,0l0,-2l2,0l0,2Zm14,0l0,-2l2,0l0,2l-2,0Z" style="fill:#ea680d;" />
        <path d="M50,20l4,0l0,2l-4,0l0,-2Zm0,0l-4,0l0,-2l4,0l0,2Z" style="fill:#e52320;" />
      </g>
      <g>
        <path d="M24,40l0,-12l4,0l0,2l2,0l0,-2l6,0l0,2l2,0l0,-2l4,0l0,12l-2,0l0,2l-2,0l0,2l-10,0l0,-2l-2,0l0,-2l-2,0Zm8,-8l-6,0l0,2l6,0l0,4l2,0l0,-4l6,0l0,-2l-6,0l0,2l-2,0l0,-2Zm4,10l0,-2l-6,0l0,2l6,0Zm18,8l0,8l-8,0l0,-8l8,0Z" style="fill:#fbe50f;" />
        <path d="M30,28l0,2l-2,0l0,-2l2,0Zm8,0l0,2l-2,0l0,-2l2,0Z" style="fill:#9b9b9b;" />
        <path d="M32,46l-2,0l0,-2l6,0l0,2l-2,0l0,2l-2,0l0,-2Zm-8,-14l0,4l-2,0l0,-4l2,0Zm20,0l0,4l-2,0l0,-4l2,0Zm10,16l0,2l-2,0l0,-2l2,0Z" style="fill:#fcd009;" />
        <path d="M28,32l0,2l-2,0l0,-2l2,0Zm4,0l0,2l-2,0l0,-2l2,0Zm4,0l0,2l-2,0l0,-2l2,0Zm4,0l0,2l-2,0l0,-2l2,0Z" style="fill:#fff;" />
        <path d="M30,32l0,2l-2,0l0,-2l2,0Zm8,0l0,2l-2,0l0,-2l2,0Z" style="fill:#09aa24;" />
        <rect x="32" y="40" width="2" height="2" style="fill:#e52320;" />
        <rect x="34" y="40" width="2" height="2" style="fill:#e6414a;" />
        <rect x="30" y="40" width="2" height="2" style="fill:#e6414a;" />
        <rect x="32" y="34" width="2" height="4" style="fill:#ea680d;" />
      </g>
      <g>
        <path d="M46,58l-12,0l0,-10l2,0l0,2l4,0l0,-2l4,0l0,-2l2,0l0,2l2,0l0,2l-2,0l0,8Zm-14,0l-16,0l0,-6l2,0l0,-4l2,0l0,-2l2,0l0,2l4,0l0,2l4,0l0,-2l2,0l0,10Z" style="fill:#5d473d;" />
        <path d="M22,44l-2,0l0,-6l4,0l0,4l2,0l0,2l2,0l0,2l2,0l0,4l-4,0l0,-2l-4,0l0,-4Zm18,6l-4,0l0,-4l2,0l0,-2l2,0l0,-2l2,0l0,-4l6,0l0,2l-2,0l0,2l-2,0l0,6l-4,0l0,2Z" style="fill:#a0673e;" />
        <path d="M38,44l0,-2l2,0l0,2l-2,0Zm-8,2l2,0l0,2l-2,0l0,-2Zm6,0l0,-2l2,0l0,2l-2,0Zm-10,-4l-2,0l0,-2l2,0l0,2Zm2,2l2,0l0,2l-2,0l0,-2Zm6,4l0,-2l2,0l0,2l-2,0Zm6,-6l0,-2l2,0l0,2l-2,0Zm-8,6l2,0l0,10l-2,0l0,-10Zm-6,-6l2,0l0,2l-2,0l0,-2Z" style="fill:#bf8e67;" />
        <rect x="18" y="38" width="2" height="2" style="fill:#5d473d;" />
      </g>
    </g>
  </g>
  <metadata>
    <rdf:RDF>
      <cc:Work rdf:about="">
        <cc:License rdf:resource="http://creativecommons.org/licenses/by-sa/4.0/" />
        <dc:right>
          <cc:Agent>
            <dc:title>CC-BY-SA 4.0 Jugend Hackt</dc:title>
          </cc:Agent>
        </dc:right>
        <dc:title>
          <cc:Agent>
            <dc:title>Pixelhack</dc:title>
          </cc:Agent>
        </dc:title>
        <dc:contributor>
          <cc:Agent>
            <dc:title>Hanno Sternberg</dc:title>
          </cc:Agent>
        </dc:contributor>
        <dc:creator>
          <cc:Agent>
            <dc:title>Jugend Hackt</dc:title>
          </cc:Agent>
        </dc:creator>
        <dc:date>
          <cc:Agent>
            <dc:title>2013</dc:title>
          </cc:Agent>
        </dc:date>
      </cc:Work>
      <cc:License rdf:about="http://creativecommons.org/licenses/by-sa/4.0/">
        <cc:permits rdf:resource="http://creativecommons.org/ns#DerivativeWorks" />
        <cc:requires rdf:resource="http://creativecommons.org/ns#ShareAlike" />
      </cc:License>
    </rdf:RDF>
  </metadata>
</svg>