<?xml version="1.0" encoding="UTF-8" standalone="no"?>
<!DOCTYPE svg PUBLIC "-//W3C//DTD SVG 1.1//EN" "http://www.w3.org/Graphics/SVG/1.1/DTD/svg11.dtd">
<svg xmlns="http://www.w3.org/2000/svg" width="100%" height="100%" viewBox="0 0 64 64" version="1.1" xml:space="preserve" style="fill-rule:evenodd;clip-rule:evenodd;stroke-linejoin:round;stroke-miterlimit:2;" xmlns:rdf="http://www.w3.org/1999/02/22-rdf-syntax-ns" xmlns:cc="http://creativecommons.org/ns" xmlns:dc="http://purl.org/dc/elements/1.1/">
  <g>
    <path d="M14,26l-4,0l0,-12l4,0l0,12Zm0,-12l0,-8l4,0l0,8l-4,0Zm4,-8l0,-4l28,0l0,4l-28,0Zm28,0l4,0l0,8l-4,0l0,-8Zm4,8l4,0l0,12l-4,0l0,-12Zm0,12l0,8l-4,0l0,-8l4,0Zm-4,8l0,4l-4,0l0,-4l4,0Zm-4,4l0,12l-4,0l0,-12l4,0Zm-4,12l0,4l-12,0l0,-4l12,0Zm0,4l4,0l0,4l-4,0l0,-4Zm0,4l0,4l-12,0l0,-4l12,0Zm-12,0l-4,0l0,-4l4,0l0,4Zm0,-8l-4,0l0,-12l4,0l0,12Zm-4,-12l-4,0l0,-4l4,0l0,4Zm-4,-4l-4,0l0,-8l4,0l0,8Z" />
    <path d="M18,26l-4,0l0,-12l4,0l0,-8l28,0l0,8l4,0l0,12l-4,0l0,8l-4,0l0,4l-4,0l0,-8l-4,0l0,8l-4,0l0,-8l-4,0l0,8l-4,0l0,-4l-4,0l0,-8Zm20,12l0,8l-4,0l0,-8l4,0Zm-8,0l0,8l-4,0l0,-8l4,0Z" style="fill:#10498c;" />
    <path d="M30,38l-4,0l0,-8l4,0l0,8Zm0,0l4,0l0,8l-4,0l0,-8Zm4,0l0,-8l4,0l0,8l-4,0Z" style="fill:#fff;" />
    <path d="M38,46l0,4l-12,0l0,-4l12,0Zm0,8l0,4l-12,0l0,-4l12,0Z" style="fill:#52575b;" />
  </g>
  <metadata>
    <rdf:RDF>
      <cc:Work rdf:about="">
        <cc:License rdf:resource="http://creativecommons.org/licenses/by-sa/4.0/" />
        <dc:right>
          <cc:Agent>
            <dc:title>CC-BY-SA 4.0 Jugend Hackt</dc:title>
          </cc:Agent>
        </dc:right>
        <dc:title>
          <cc:Agent>
            <dc:title>Pixelhack</dc:title>
          </cc:Agent>
        </dc:title>
        <dc:contributor>
          <cc:Agent>
            <dc:title>Hanno Sternberg</dc:title>
          </cc:Agent>
        </dc:contributor>
        <dc:creator>
          <cc:Agent>
            <dc:title>Jugend Hackt</dc:title>
          </cc:Agent>
        </dc:creator>
        <dc:date>
          <cc:Agent>
            <dc:title>2013</dc:title>
          </cc:Agent>
        </dc:date>
      </cc:Work>
      <cc:License rdf:about="http://creativecommons.org/licenses/by-sa/4.0/">
        <cc:permits rdf:resource="http://creativecommons.org/ns#DerivativeWorks" />
        <cc:requires rdf:resource="http://creativecommons.org/ns#ShareAlike" />
      </cc:License>
    </rdf:RDF>
  </metadata>
</svg>