<?xml version="1.0" encoding="UTF-8" standalone="no"?>
<!DOCTYPE svg PUBLIC "-//W3C//DTD SVG 1.1//EN" "http://www.w3.org/Graphics/SVG/1.1/DTD/svg11.dtd">
<svg xmlns="http://www.w3.org/2000/svg" width="100%" height="100%" viewBox="0 0 64 64" version="1.1" xml:space="preserve" style="fill-rule:evenodd;clip-rule:evenodd;stroke-linejoin:round;stroke-miterlimit:2;" xmlns:rdf="http://www.w3.org/1999/02/22-rdf-syntax-ns" xmlns:cc="http://creativecommons.org/ns" xmlns:dc="http://purl.org/dc/elements/1.1/">
  <g id="Emoji">
    <g id="Transportation">
      <g id="ICE">
        <path d="M16,-2l0,2l-8,0l0,-2l8,0Zm20,0l0,2l-8,0l0,-2l8,0Zm20,0l0,2l-8,0l0,-2l8,0Z" style="fill:#5d473d;" />
      </g>
    </g>
    <g id="Space">
      <g id="Planet">
        <g>
          <path d="M8,52l-2,0l0,-6l2,0l0,2l4,0l0,-2l4,0l0,-2l2,0l0,-2l4,0l0,-2l2,0l0,-2l2,0l0,-2l2,0l0,-2l2,0l0,-2l2,0l0,-2l2,0l0,-2l2,0l0,-2l2,0l0,-2l2,0l0,-2l2,0l0,-4l2,0l0,-2l2,0l0,-4l2,0l0,-2l-2,0l0,-4l2,0l0,2l2,0l0,2l2,0l0,4l-2,0l0,4l-2,0l0,4l-2,0l0,2l-2,0l0,2l-2,0l0,4l-2,0l0,2l-2,0l0,2l-2,0l0,2l-2,0l0,2l-2,0l0,2l-2,0l0,2l-4,0l0,2l-2,0l0,2l-2,0l0,2l-2,0l0,2l-4,0l0,2l-4,0l0,2l-4,0l0,-2Z" style="fill:#fbe50f;" />
          <path d="M38,14l-2,0l0,-2l2,0l0,-2l4,0l0,-2l4,0l0,2l2,0l0,2l-4,0l0,2l-2,0l0,2l-4,0l0,-2Zm-30,32l-2,0l0,-2l2,0l0,-4l2,0l0,-2l2,0l0,2l2,0l0,4l-2,0l0,2l-2,0l0,2l-2,0l0,-2Z" style="fill:#fcd009;" />
        </g>
        <g>
          <path d="M16,20l-2,0l0,-2l2,0l0,-2l4,0l0,-2l4,0l0,-2l2,0l0,4l-2,0l0,2l-4,0l0,2l-2,0l0,2l-2,0l0,-2Zm18,18l0,-2l2,0l0,2l-2,0Zm-2,2l0,-2l2,0l0,2l-2,0Zm-2,2l0,-2l2,0l0,2l-2,0Zm10,-10l0,-2l2,0l0,2l-2,0Zm-16,14l0,-2l2,0l0,2l-2,0Zm12,-10l0,-2l2,0l0,2l-2,0Zm6,-6l0,-4l2,0l0,4l-2,0Zm2,-4l0,-2l2,0l0,2l-2,0Zm-18,18l0,-2l4,0l0,2l-4,0Zm12,-10l0,-2l2,0l0,2l-2,0Zm-14,12l0,2l-2,0l0,-2l2,0Z" style="fill:#bf8e67;" />
          <path d="M10,34l0,-6l4,0l0,-2l4,0l0,2l-2,0l0,2l-2,0l0,2l2,0l0,2l-2,0l0,2l-2,0l0,-2l-2,0Zm8,-8l0,-2l2,0l0,-2l2,0l0,2l2,0l0,-2l2,0l0,-2l2,0l0,-2l2,0l0,-4l-2,0l0,4l-2,0l0,2l-2,0l0,-4l2,0l0,-4l6,0l0,6l6,0l0,2l-2,0l0,4l-2,0l0,-2l-4,0l0,2l-2,0l0,2l-2,0l0,2l-2,0l0,2l-2,0l0,2l4,0l0,2l-2,0l0,2l-2,0l0,-2l-2,0l0,-2l-2,0l0,-2l2,0l0,-2l2,0l0,-2l-4,0Zm4,-4l0,-2l2,0l0,2l-2,0Zm12,2l0,2l-2,0l0,-2l2,0Zm-2,2l0,2l-2,0l0,-2l2,0Zm-2,2l0,2l-2,0l0,-2l2,0Zm-2,2l0,2l-2,0l0,-2l2,0Z" style="fill:#f3971b;" />
          <path d="M24,22l0,-2l2,0l0,2l-2,0Zm4,-4l0,-4l2,0l0,4l-2,0Zm-4,4l0,2l-2,0l0,-2l2,0Zm2,-2l0,-2l2,0l0,2l-2,0Zm0,10l0,2l-4,0l0,-2l2,0l0,-2l2,0l0,-2l2,0l0,-2l2,0l0,-2l4,0l0,2l-2,0l0,2l-2,0l0,2l-2,0l0,2l-2,0Zm-8,0l0,2l-4,0l0,-2l2,0l0,-2l2,0l0,-2l4,0l0,2l-2,0l0,2l-2,0Z" style="fill:#ea680d;" />
          <path d="M34,48l-8,0l0,-2l4,0l0,-2l2,0l0,-2l4,0l0,-2l2,0l0,-4l2,0l0,-2l2,0l0,-2l2,0l0,-4l2,0l0,8l-2,0l0,4l-2,0l0,2l-2,0l0,2l-2,0l0,2l-4,0l0,2Zm-14,-10l0,-2l2,0l0,2l-2,0Zm-4,2l0,-2l4,0l0,2l-4,0Zm0,0l0,2l-2,0l0,-2l2,0Zm22,-26l0,4l-6,0l0,-4l6,0Z" style="fill:#e6414a;" />
          <path d="M16,44l0,-4l4,0l0,-2l2,0l0,-2l2,0l0,-2l2,0l0,-2l2,0l0,-2l2,0l0,-2l2,0l0,-2l2,0l0,-2l2,0l0,-4l2,0l0,-4l2,0l0,2l2,0l0,4l-2,0l0,2l-2,0l0,2l-2,0l0,2l-2,0l0,2l-2,0l0,2l-2,0l0,2l-2,0l0,2l-2,0l0,2l-2,0l0,2l-2,0l0,2l-4,0l0,2l-2,0Zm0,-18l0,-4l2,0l0,-2l2,0l0,-2l4,0l0,2l-2,0l0,2l-2,0l0,2l-2,0l0,2l-2,0Zm14,18l0,-2l2,0l0,2l-2,0Zm10,-10l0,-2l2,0l0,2l-2,0Zm2,-2l0,-2l2,0l0,2l-2,0Zm-10,10l0,-2l2,0l0,-2l2,0l0,-2l2,0l0,4l-2,0l0,2l-4,0Zm-6,4l0,2l-2,0l0,-2l2,0Zm0,0l0,-2l4,0l0,2l-4,0Zm12,-10l0,-2l2,0l0,2l-2,0Zm8,-10l0,2l-2,0l0,-2l2,0Z" style="fill:#e1bb95;" />
          <path d="M14,26l0,2l-2,0l0,-6l2,0l0,-2l2,0l0,6l-2,0Zm0,12l-2,0l0,-2l2,0l0,-2l2,0l0,-2l4,0l0,2l2,0l0,2l-2,0l0,2l-4,0l0,2l-2,0l0,-2Z" style="fill:#e52320;" />
        </g>
      </g>
    </g>
  </g>
  <metadata>
    <rdf:RDF>
      <cc:Work rdf:about="">
        <cc:License rdf:resource="http://creativecommons.org/licenses/by-sa/4.0/" />
        <dc:right>
          <cc:Agent>
            <dc:title>CC-BY-SA 4.0 Jugend Hackt</dc:title>
          </cc:Agent>
        </dc:right>
        <dc:title>
          <cc:Agent>
            <dc:title>Pixelhack</dc:title>
          </cc:Agent>
        </dc:title>
        <dc:contributor>
          <cc:Agent>
            <dc:title>Hanno Sternberg</dc:title>
          </cc:Agent>
        </dc:contributor>
        <dc:creator>
          <cc:Agent>
            <dc:title>Jugend Hackt</dc:title>
          </cc:Agent>
        </dc:creator>
        <dc:date>
          <cc:Agent>
            <dc:title>2013</dc:title>
          </cc:Agent>
        </dc:date>
      </cc:Work>
      <cc:License rdf:about="http://creativecommons.org/licenses/by-sa/4.0/">
        <cc:permits rdf:resource="http://creativecommons.org/ns#DerivativeWorks" />
        <cc:requires rdf:resource="http://creativecommons.org/ns#ShareAlike" />
      </cc:License>
    </rdf:RDF>
  </metadata>
</svg>