<?xml version="1.0" encoding="UTF-8" standalone="no"?>
<!DOCTYPE svg PUBLIC "-//W3C//DTD SVG 1.1//EN" "http://www.w3.org/Graphics/SVG/1.1/DTD/svg11.dtd">
<svg xmlns="http://www.w3.org/2000/svg" width="100%" height="100%" viewBox="0 0 64 64" version="1.1" xml:space="preserve" style="fill-rule:evenodd;clip-rule:evenodd;stroke-linejoin:round;stroke-miterlimit:2;" xmlns:rdf="http://www.w3.org/1999/02/22-rdf-syntax-ns" xmlns:cc="http://creativecommons.org/ns" xmlns:dc="http://purl.org/dc/elements/1.1/">
  <g id="Emoji">
    <g id="Plants">
      <g id="Tulip">
        <path d="M18,-4l-2,0l0,-4l8,0l0,2l4,0l0,2l2,0l0,-12l4,0l0,12l2,0l0,-2l4,0l0,-2l8,0l0,4l-2,0l0,2l-2,0l0,2l-24,0l0,-2l-2,0l0,-2Z" style="fill:#09aa24;" />
      </g>
      <g id="Palm">
        <path d="M18,20l-12,0l0,-2l2,0l0,-4l2,0l0,-2l2,0l0,-2l4,0l0,-2l6,0l0,2l4,0l0,2l2,0l0,2l2,0l0,6l-2,0l0,-2l-10,0l0,2Zm-6,-4l0,2l2,0l0,-2l4,0l0,-2l2,0l0,2l6,0l0,-2l-6,0l0,-2l-2,0l0,2l-4,0l0,2l-2,0Zm20,4l0,-6l2,0l0,-2l2,0l0,-2l4,0l0,-2l6,0l0,2l4,0l0,2l2,0l0,2l2,0l0,4l2,0l0,2l-12,0l0,-2l-10,0l0,2l-2,0Zm4,-6l0,2l2,0l0,-2l4,0l0,-2l2,0l0,2l2,0l0,2l4,0l0,2l2,0l0,-2l-2,0l0,-2l-4,0l0,-2l-2,0l0,-2l-2,0l0,2l-4,0l0,2l-2,0Zm-16,8l0,-2l4,0l0,2l-4,0Zm-2,4l0,4l-2,0l0,-4l2,0Zm0,0l0,-4l2,0l0,4l-2,0Zm22,-2l-2,0l0,-2l2,0l0,2Zm4,2l2,0l0,4l-2,0l0,-4Zm2,4l2,0l0,2l-2,0l0,-2Zm-6,-6l4,0l0,2l-4,0l0,-2Z" style="fill:#29e400;" />
        <path d="M42,12l0,-2l2,0l0,2l-2,0Zm2,0l2,0l0,2l-2,0l0,-2Zm6,4l2,0l0,2l-2,0l0,-2Zm-12,-2l0,-2l4,0l0,2l-4,0Zm0,0l0,2l-2,0l0,-2l2,0Zm8,0l4,0l0,2l-4,0l0,-2Zm-32,2l0,2l-2,0l0,-2l2,0Zm4,-2l0,-2l2,0l0,2l-2,0Zm2,0l6,0l0,2l-6,0l0,-2Zm-6,2l0,-2l4,0l0,2l-4,0Zm0,20l-2,0l0,-12l2,0l0,-2l2,0l0,-2l2,0l0,-2l10,0l0,2l6,0l0,-2l10,0l0,2l2,0l0,2l2,0l0,2l2,0l0,12l-2,0l0,2l-2,0l0,-2l-2,0l0,-2l-2,0l0,-4l-2,0l0,-2l-4,0l0,-2l-2,0l0,-2l-2,0l0,-2l-2,0l0,2l-8,0l0,8l-2,0l0,2l-2,0l0,2l-2,0l0,2l-2,0l0,-2Zm4,-14l0,4l-2,0l0,4l2,0l0,-4l2,0l0,-4l4,0l0,-2l-4,0l0,2l-2,0Zm22,0l-2,0l0,2l2,0l0,2l4,0l0,4l2,0l0,2l2,0l0,-2l-2,0l0,-4l-2,0l0,-2l-4,0l0,-2Z" style="fill:#09aa24;" />
        <path d="M36,64l-10,0l0,-32l2,0l0,-2l2,0l0,-4l-2,0l0,-2l2,0l0,-2l2,0l0,2l2,0l0,2l2,0l0,2l-2,0l0,2l-2,0l0,4l2,0l0,2l2,0l0,28Z" style="fill:#5d473d;" />
        <path d="M34,30l0,-2l2,0l0,2l-2,0Zm0,0l0,2l-2,0l0,-2l2,0Zm-12,-2l0,-4l4,0l0,2l-2,0l0,2l-2,0Z" style="fill:#e1bb95;" />
        <path d="M26,32l-4,0l0,-4l2,0l0,-2l2,0l0,-2l2,0l0,6l-2,0l0,2Zm8,2l-2,0l0,-2l2,0l0,-2l2,0l0,-2l4,0l0,2l-2,0l0,4l-2,0l0,2l-2,0l0,-2Z" style="fill:#bf8e67;" />
        <path d="M28,30l0,-4l2,0l0,4l-2,0Zm0,0l0,2l-2,0l0,-2l2,0Zm12,6l-4,0l0,-2l2,0l0,-4l4,0l0,2l-2,0l0,4Z" style="fill:#a0673e;" />
      </g>
    </g>
  </g>
  <metadata>
    <rdf:RDF>
      <cc:Work rdf:about="">
        <cc:License rdf:resource="http://creativecommons.org/licenses/by-sa/4.0/" />
        <dc:right>
          <cc:Agent>
            <dc:title>CC-BY-SA 4.0 Jugend Hackt</dc:title>
          </cc:Agent>
        </dc:right>
        <dc:title>
          <cc:Agent>
            <dc:title>Pixelhack</dc:title>
          </cc:Agent>
        </dc:title>
        <dc:contributor>
          <cc:Agent>
            <dc:title>Hanno Sternberg</dc:title>
          </cc:Agent>
        </dc:contributor>
        <dc:creator>
          <cc:Agent>
            <dc:title>Jugend Hackt</dc:title>
          </cc:Agent>
        </dc:creator>
        <dc:date>
          <cc:Agent>
            <dc:title>2013</dc:title>
          </cc:Agent>
        </dc:date>
      </cc:Work>
      <cc:License rdf:about="http://creativecommons.org/licenses/by-sa/4.0/">
        <cc:permits rdf:resource="http://creativecommons.org/ns#DerivativeWorks" />
        <cc:requires rdf:resource="http://creativecommons.org/ns#ShareAlike" />
      </cc:License>
    </rdf:RDF>
  </metadata>
</svg>