<?xml version="1.0" encoding="UTF-8" standalone="no"?>
<!DOCTYPE svg PUBLIC "-//W3C//DTD SVG 1.1//EN" "http://www.w3.org/Graphics/SVG/1.1/DTD/svg11.dtd">
<svg xmlns="http://www.w3.org/2000/svg" width="100%" height="100%" viewBox="0 0 64 64" version="1.1" xml:space="preserve" style="fill-rule:evenodd;clip-rule:evenodd;stroke-linejoin:round;stroke-miterlimit:2;" xmlns:rdf="http://www.w3.org/1999/02/22-rdf-syntax-ns" xmlns:cc="http://creativecommons.org/ns" xmlns:dc="http://purl.org/dc/elements/1.1/">
  <g id="Emoji">
    <g id="Compass">
      <g>
        <path d="M50,12l-4,0l0,-4l2,0l0,-2l2,0l0,-2l4,0l0,2l2,0l0,2l2,0l0,6l-2,0l0,2l-6,0l0,-2l4,0l0,-2l2,0l0,-2l-2,0l0,-2l-4,0l0,4Z" style="fill:#f3971b;" />
        <path d="M48,14l-2,0l0,-2l4,0l0,-2l2,0l0,4l-2,0l0,2l-2,0l0,-2Z" style="fill:#ea680d;" />
      </g>
      <g>
        <path d="M8,20l0,-4l2,0l0,4l-2,0Zm10,-10l0,-2l8,0l0,2l-8,0Zm-14,16l0,14l-2,0l0,-14l2,0Zm2,-4l0,-2l2,0l0,2l-2,0Zm6,-8l0,-2l2,0l0,2l-2,0Zm14,-6l0,-2l8,0l0,2l-8,0Zm-22,18l0,-4l2,0l0,4l-2,0Zm10,-14l0,-2l4,0l0,2l-4,0Zm-4,4l0,-2l2,0l0,2l-2,0Z" style="fill:#fbe50f;" />
        <path d="M6,44l-2,0l0,-18l2,0l0,-4l2,0l0,-2l2,0l0,-4l2,0l0,-2l2,0l0,-2l4,0l0,-2l8,0l0,-2l14,0l0,2l4,0l0,2l2,0l0,2l2,0l0,2l2,0l0,2l2,0l0,4l2,0l0,4l2,0l0,14l-2,0l0,6l-2,0l0,2l-2,0l0,4l-2,0l0,2l-4,0l0,2l-2,0l0,2l-6,0l0,2l-12,0l0,-2l-6,0l0,-2l-4,0l0,-2l-2,0l0,-2l-2,0l0,-2l-2,0l0,-2l-2,0l0,-4Zm2,-14l0,6l2,0l0,6l2,0l0,4l2,0l0,2l2,0l0,2l4,0l0,2l4,0l0,2l12,0l0,-2l4,0l0,-2l2,0l0,-2l2,0l0,-2l2,0l0,-2l2,0l0,-4l2,0l0,-14l-2,0l0,-4l-2,0l0,-2l-2,0l0,-2l-2,0l0,-2l-2,0l0,-2l-6,0l0,-2l-8,0l0,2l-6,0l0,2l-4,0l0,2l-2,0l0,2l-2,0l0,4l-2,0l0,6l-2,0Z" style="fill:#fcd009;" />
        <path d="M10,36l-2,0l0,-6l2,0l0,-6l2,0l0,-4l2,0l0,-2l2,0l0,-2l4,0l0,-2l6,0l0,-2l8,0l0,2l6,0l0,2l2,0l0,2l2,0l0,2l2,0l0,2l2,0l0,4l2,0l0,14l-2,0l0,4l-2,0l0,2l-2,0l0,2l-2,0l0,2l-2,0l0,2l-4,0l0,2l-12,0l0,-2l-4,0l0,-2l-4,0l0,-2l-2,0l0,-2l-2,0l0,-4l-2,0l0,-6Z" style="fill:#fff;" />
      </g>
      <g>
        <path d="M32,28l2,0l0,-2l2,0l0,4l-4,0l0,-2Zm0,0l-4,0l0,-12l2,0l0,8l2,0l0,4Zm-8,8l2,0l0,4l-4,0l0,-2l2,0l0,-2Zm-4,-2l-8,0l0,-2l12,0l0,4l-4,0l0,-2Zm14,2l0,-4l12,0l0,2l-8,0l0,2l-4,0Zm-6,14l0,-12l4,0l0,4l-2,0l0,8l-2,0Z" style="fill:#52575b;" />
        <path d="M20,24l4,0l0,2l4,0l0,2l-2,0l0,2l-2,0l0,2l-2,0l0,-4l-2,0l0,-4Zm0,0l-2,0l0,-2l2,0l0,2Z" style="fill:#ff3b8d;" />
        <path d="M26,36l-2,0l0,-6l2,0l0,-2l6,0l0,2l4,0l0,2l-2,0l0,4l-2,0l0,2l-6,0l0,-2Z" style="fill:#d1d6da;" />
        <path d="M34,40l-2,0l0,-4l4,0l0,2l2,0l0,2l2,0l0,4l-4,0l0,-2l-2,0l0,-2Z" style="fill:#00b48d;" />
      </g>
    </g>
  </g>
  <metadata>
    <rdf:RDF>
      <cc:Work rdf:about="">
        <cc:License rdf:resource="http://creativecommons.org/licenses/by-sa/4.0/" />
        <dc:right>
          <cc:Agent>
            <dc:title>CC-BY-SA 4.0 Jugend Hackt</dc:title>
          </cc:Agent>
        </dc:right>
        <dc:title>
          <cc:Agent>
            <dc:title>Pixelhack</dc:title>
          </cc:Agent>
        </dc:title>
        <dc:contributor>
          <cc:Agent>
            <dc:title>Hanno Sternberg</dc:title>
          </cc:Agent>
        </dc:contributor>
        <dc:creator>
          <cc:Agent>
            <dc:title>Jugend Hackt</dc:title>
          </cc:Agent>
        </dc:creator>
        <dc:date>
          <cc:Agent>
            <dc:title>2013</dc:title>
          </cc:Agent>
        </dc:date>
      </cc:Work>
      <cc:License rdf:about="http://creativecommons.org/licenses/by-sa/4.0/">
        <cc:permits rdf:resource="http://creativecommons.org/ns#DerivativeWorks" />
        <cc:requires rdf:resource="http://creativecommons.org/ns#ShareAlike" />
      </cc:License>
    </rdf:RDF>
  </metadata>
</svg>