<?xml version="1.0" encoding="UTF-8" standalone="no"?>
<!DOCTYPE svg PUBLIC "-//W3C//DTD SVG 1.1//EN" "http://www.w3.org/Graphics/SVG/1.1/DTD/svg11.dtd">
<svg xmlns="http://www.w3.org/2000/svg" width="100%" height="100%" viewBox="0 0 128 96" version="1.1" xml:space="preserve" style="fill-rule:evenodd;clip-rule:evenodd;stroke-linejoin:round;stroke-miterlimit:2;" xmlns:rdf="http://www.w3.org/1999/02/22-rdf-syntax-ns" xmlns:cc="http://creativecommons.org/ns" xmlns:dc="http://purl.org/dc/elements/1.1/">
  <g id="Joystick">
    <g>
      <path d="M30,82l-2,0l0,-18l2,0l0,-2l2,0l0,-2l52,0l0,2l2,0l0,2l2,0l0,18l-2,0l0,2l-2,0l0,2l-52,0l0,-2l-2,0l0,-2Z" style="fill:#8b98a2;" />
      <path d="M90,78l0,2l-2,0l0,-18l2,0l0,-2l2,0l0,-2l2,0l0,-2l2,0l0,-2l2,0l0,-2l2,0l0,18l-2,0l0,2l-2,0l0,2l-2,0l0,2l-2,0l0,2l-2,0Z" style="fill:#52575b;" />
      <path d="M86,62l-2,0l0,-2l2,0l0,-2l2,0l0,-2l2,0l0,-2l2,0l0,-2l2,0l0,-2l2,0l0,-2l2,0l0,2l2,0l0,2l-2,0l0,2l-2,0l0,2l-2,0l0,2l-2,0l0,2l-2,0l0,2l-2,0l0,2l-2,0l0,-2Z" style="fill:#006661;" />
      <path d="M86,60l-52,0l0,-2l2,0l0,-2l2,0l0,-2l2,0l0,-2l2,0l0,-2l2,0l0,-2l52,0l0,2l-2,0l0,2l-2,0l0,2l-2,0l0,2l-2,0l0,2l-2,0l0,2Z" style="fill:#d1d6da;" />
    </g>
    <g>
      <path d="M52,56l0,-2l2,0l0,2l-2,0Zm-2,2l0,2l-6,0l0,-2l6,0Zm0,0l0,-2l2,0l0,2l-2,0Z" style="fill:#800015;" />
      <path d="M44,56l-2,0l0,-2l2,0l0,-2l6,0l0,2l2,0l0,2l-2,0l0,2l-6,0l0,-2Z" style="fill:#e52320;" />
      <path d="M46,54l0,2l-4,0l0,-2l2,0l0,-2l4,0l0,2l-2,0Z" style="fill:#e6414a;" />
    </g>
    <g>
      <path d="M84,56l0,-2l2,0l0,2l-2,0Zm-2,2l0,2l-6,0l0,-2l6,0Zm0,0l0,-2l2,0l0,2l-2,0Z" style="fill:#800015;" />
      <path d="M76,56l-2,0l0,-2l2,0l0,-2l6,0l0,2l2,0l0,2l-2,0l0,2l-6,0l0,-2Z" style="fill:#e52320;" />
      <path d="M78,54l0,2l-4,0l0,-2l2,0l0,-2l4,0l0,2l-2,0Z" style="fill:#e6414a;" />
    </g>
    <g>
      <path d="M68,56l0,-2l2,0l0,2l-2,0Zm2,-4l-2,0l0,-2l2,0l0,2Zm-2,4l0,2l-8,0l0,-2l8,0Zm2,-2l0,-2l2,0l0,2l-2,0Z" style="fill:#800015;" />
      <path d="M56,26l-2,0l0,-6l2,0l0,-2l2,0l0,-2l12,0l0,2l2,0l0,2l2,0l0,6l-2,0l0,2l-2,0l0,2l-2,0l0,22l2,0l0,2l-2,0l0,2l-8,0l0,-2l-2,0l0,-2l2,0l0,-22l-2,0l0,-2l-2,0l0,-2Z" style="fill:#e52320;" />
      <path d="M56,24l0,2l-2,0l0,-6l2,0l0,-2l2,0l0,-2l8,0l0,2l-2,0l0,2l-4,0l0,2l-2,0l0,2l-2,0Zm6,6l0,22l-2,0l0,-22l2,0Z" style="fill:#e6414a;" />
    </g>
  </g>
  <metadata>
    <rdf:RDF>
      <cc:Work rdf:about="">
        <cc:License rdf:resource="http://creativecommons.org/licenses/by-sa/4.0/" />
        <dc:right>
          <cc:Agent>
            <dc:title>CC-BY-SA 4.0 Jugend Hackt</dc:title>
          </cc:Agent>
        </dc:right>
        <dc:title>
          <cc:Agent>
            <dc:title>Pixelhack</dc:title>
          </cc:Agent>
        </dc:title>
        <dc:contributor>
          <cc:Agent>
            <dc:title>Hanno Sternberg</dc:title>
          </cc:Agent>
        </dc:contributor>
        <dc:creator>
          <cc:Agent>
            <dc:title>Jugend Hackt</dc:title>
          </cc:Agent>
        </dc:creator>
        <dc:date>
          <cc:Agent>
            <dc:title>2013</dc:title>
          </cc:Agent>
        </dc:date>
      </cc:Work>
      <cc:License rdf:about="http://creativecommons.org/licenses/by-sa/4.0/">
        <cc:permits rdf:resource="http://creativecommons.org/ns#DerivativeWorks" />
        <cc:requires rdf:resource="http://creativecommons.org/ns#ShareAlike" />
      </cc:License>
    </rdf:RDF>
  </metadata>
</svg>