<?xml version="1.0" encoding="UTF-8" standalone="no"?>
<!DOCTYPE svg PUBLIC "-//W3C//DTD SVG 1.1//EN" "http://www.w3.org/Graphics/SVG/1.1/DTD/svg11.dtd">
<svg xmlns="http://www.w3.org/2000/svg" width="100%" height="100%" viewBox="0 0 64 64" version="1.1" xml:space="preserve" style="fill-rule:evenodd;clip-rule:evenodd;stroke-linejoin:round;stroke-miterlimit:2;" xmlns:rdf="http://www.w3.org/1999/02/22-rdf-syntax-ns" xmlns:cc="http://creativecommons.org/ns" xmlns:dc="http://purl.org/dc/elements/1.1/">
  <g>
    <g>
      <rect x="30" y="-16" width="4" height="16" style="fill:#a0673e;" />
    </g>
  </g>
  <g id="Karline">
    <path d="M24,14l2,0l0,2l-2,0l0,-2Zm10,2l0,-2l2,0l0,2l-2,0Zm-10,-2l-2,0l0,-2l2,0l0,2Zm12,0l0,-2l2,0l0,2l-2,0Zm-10,2l2,0l0,-2l2,0l0,-2l2,0l0,4l2,0l0,2l-8,0l0,-2Z" style="fill:#bf8e67;" />
    <path d="M28,14l0,2l-2,0l0,-2l2,0Zm6,0l0,2l-2,0l0,-2l2,0Zm14,26l0,4l-4,0l0,-4l4,0Zm-20,4l0,4l-4,0l0,-4l4,0Zm8,2l0,4l-4,0l0,-4l4,0Z" style="fill:#f3971b;" />
    <path d="M26,20l-2,0l0,-4l2,0l0,2l8,0l0,-2l2,0l0,12l-12,0l0,-2l10,0l0,-6l-4,0l0,2l-4,0l0,-2Z" style="fill:#f9dbb9;" />
    <path d="M26,22l4,0l0,2l2,0l0,-2l-2,0l0,-2l4,0l0,6l-10,0l0,-2l2,0l0,-2Zm0,0l-2,0l0,-2l2,0l0,2Zm2,20l-4,0l0,-14l2,0l0,2l4,0l0,2l2,0l0,-2l2,0l0,-2l2,0l0,-4l8,0l0,2l4,0l0,12l-4,0l0,-4l-2,0l0,4l-2,0l0,2l-2,0l0,-6l-2,0l0,6l2,0l0,2l-2,0l0,2l-4,0l0,-4l-2,0l0,-4l-2,0l0,6Z" style="fill:#fff;" />
    <path d="M26,22l0,2l-2,0l0,-2l2,0Zm6,0l0,2l-2,0l0,-2l2,0Z" style="fill:#5d473d;" />
    <path d="M30,30l-4,0l0,-2l8,0l0,2l-2,0l0,2l-2,0l0,-2Zm12,8l0,-4l2,0l0,4l-2,0Zm6,-12l-4,0l0,-2l4,0l0,2Zm-10,16l0,-2l2,0l0,2l-2,0Zm0,-2l-2,0l0,-6l2,0l0,6Zm2,0l0,-2l2,0l0,2l-2,0Zm4,-2l4,0l0,-12l2,0l0,14l-6,0l0,-2Zm-6,8l-6,0l0,-2l4,0l0,-2l2,0l0,4Zm-14,-4l4,0l0,-6l2,0l0,4l2,0l0,2l-2,0l0,2l-6,0l0,-2Zm0,0l-2,0l0,-16l2,0l0,16Z" style="fill:#d1d6da;" />
    <path d="M20,46l-2,0l0,-2l2,0l0,-2l4,0l0,6l4,0l0,-4l2,0l0,-2l2,0l0,8l4,0l0,-4l2,0l0,-4l2,0l0,-2l4,0l0,4l4,0l0,-2l2,0l0,2l2,0l0,2l-2,0l0,2l-2,0l0,2l-4,0l0,2l-18,0l0,-2l-4,0l0,-2l-2,0l0,-2Z" style="fill:#52575b;" />
  </g>
  <metadata>
    <rdf:RDF>
      <cc:Work rdf:about="">
        <cc:License rdf:resource="http://creativecommons.org/licenses/by-sa/4.0/" />
        <dc:right>
          <cc:Agent>
            <dc:title>CC-BY-SA 4.0 Jugend Hackt</dc:title>
          </cc:Agent>
        </dc:right>
        <dc:title>
          <cc:Agent>
            <dc:title>Pixelhack</dc:title>
          </cc:Agent>
        </dc:title>
        <dc:contributor>
          <cc:Agent>
            <dc:title>Hanno Sternberg</dc:title>
          </cc:Agent>
        </dc:contributor>
        <dc:creator>
          <cc:Agent>
            <dc:title>Jugend Hackt</dc:title>
          </cc:Agent>
        </dc:creator>
        <dc:date>
          <cc:Agent>
            <dc:title>2013</dc:title>
          </cc:Agent>
        </dc:date>
      </cc:Work>
      <cc:License rdf:about="http://creativecommons.org/licenses/by-sa/4.0/">
        <cc:permits rdf:resource="http://creativecommons.org/ns#DerivativeWorks" />
        <cc:requires rdf:resource="http://creativecommons.org/ns#ShareAlike" />
      </cc:License>
    </rdf:RDF>
  </metadata>
</svg>