<?xml version="1.0" encoding="UTF-8" standalone="no"?>
<!DOCTYPE svg PUBLIC "-//W3C//DTD SVG 1.1//EN" "http://www.w3.org/Graphics/SVG/1.1/DTD/svg11.dtd">
<svg xmlns="http://www.w3.org/2000/svg" xmlns:serif="http://www.serif.com/" width="100%" height="100%" viewBox="0 0 64 64" version="1.1" xml:space="preserve" style="fill-rule:evenodd;clip-rule:evenodd;stroke-linejoin:round;stroke-miterlimit:2;" xmlns:rdf="http://www.w3.org/1999/02/22-rdf-syntax-ns" xmlns:cc="http://creativecommons.org/ns" xmlns:dc="http://purl.org/dc/elements/1.1/">
  <g id="Colorful-Objekts" serif:id="Colorful Objekts">
    <g id="Light-Bulbs" serif:id="Light Bulbs">
      <g>
        <path d="M14,26l-4,0l0,-12l4,0l0,12Zm0,-12l0,-8l4,0l0,8l-4,0Zm4,-8l0,-4l28,0l0,4l-28,0Zm28,0l4,0l0,8l-4,0l0,-8Zm4,8l4,0l0,12l-4,0l0,-12Zm0,12l0,8l-4,0l0,-8l4,0Zm-4,8l0,4l-4,0l0,-4l4,0Zm-4,4l0,8l-4,0l0,-8l4,0Zm-4,8l0,4l-12,0l0,-4l12,0Zm-12,0l-4,0l0,-8l4,0l0,8Zm-4,-8l-4,0l0,-4l4,0l0,4Zm-4,-4l-4,0l0,-8l4,0l0,8Zm20,20l0,4l-12,0l0,-4l12,0Z" style="fill:#52575b;" />
        <path d="M18,26l-4,0l0,-12l4,0l0,-8l28,0l0,8l4,0l0,12l-4,0l0,8l-4,0l0,4l-4,0l0,-8l-4,0l0,8l-4,0l0,-8l-4,0l0,8l-4,0l0,-4l-4,0l0,-8Zm20,12l0,8l-4,0l0,-8l4,0Zm-8,0l0,8l-4,0l0,-8l4,0Z" style="fill:#d1d6da;" />
        <path d="M30,38l-4,0l0,-8l4,0l0,8Zm0,0l4,0l0,8l-4,0l0,-8Zm4,0l0,-8l4,0l0,8l-4,0Z" style="fill:#fff;" />
        <path d="M26,50l12,0l0,4l-12,0l0,-4Zm12,4l4,0l0,4l-4,0l0,-4Zm0,4l0,4l-12,0l0,-4l12,0Zm-12,0l-4,0l0,-4l4,0l0,4Zm0,-8l-4,0l0,-4l4,0l0,4Zm12,0l0,-4l4,0l0,4l-4,0Z" />
      </g>
      <g>
        <path d="M106,102l0,8l-4,0l0,-8l4,0Zm8,-12l0,8l-4,0l0,-8l4,0Zm-32,8l4,0l0,4l-4,0l0,-4Zm-4,-8l4,0l0,8l-4,0l0,-8Zm32,-20l4,0l0,8l-4,0l0,-8Zm0,28l0,4l-4,0l0,-4l4,0Zm-24,4l4,0l0,8l-4,0l0,-8Zm-8,-12l-4,0l0,-12l4,0l0,12Zm0,-12l0,-8l4,0l0,8l-4,0Zm36,0l4,0l0,12l-4,0l0,-12Zm-32,-8l0,-4l28,0l0,4l-28,0Zm-12,2l-4,0l0,-4l4,0l0,4Zm0,0l4,0l0,4l-4,0l0,-4Zm52,0l0,-4l4,0l0,4l-4,0Zm0,0l0,4l-4,0l0,-4l4,0Zm-52,24l0,-4l4,0l0,4l-4,0Zm0,0l0,4l-4,0l0,-4l4,0Zm52,0l4,0l0,4l-4,0l0,-4Zm0,0l-4,0l0,-4l4,0l0,4Zm-52,14l0,-4l4,0l0,4l-4,0Zm0,0l0,4l-4,0l0,-4l4,0Zm4,-4l0,-4l4,0l0,4l-4,0Zm48,4l4,0l0,4l-4,0l0,-4Zm-4,-4l-4,0l0,-4l4,0l0,4Zm0,0l4,0l0,4l-4,0l0,-4Zm-40,-42l0,4l-4,0l0,-4l4,0Zm40,0l0,4l-4,0l0,-4l4,0Zm-46,18l0,4l-8,0l0,-4l8,0Zm56,0l0,4l-8,0l0,-4l8,0Z" style="fill:#e52320;" />
      </g>
    </g>
  </g>
  <g id="Creatures">
    <g id="Monsters--Two-Mouths-" serif:id="Monsters (Two Mouths)">
      <g>
        <g>
          <path d="M-48,116l-12,0l0,-100l12,0l0,-8l38,0l0,8l10,0l0,100l-10,0l0,8l-38,0l0,-8Z" style="fill:#010001;" />
          <path d="M-44,116l-12,0l0,-100l12,0l0,-8l34,0l0,8l10,0l0,100l-10,0l0,8l-34,-0l0,-8Z" style="fill:#ff3b8d;" />
        </g>
      </g>
    </g>
  </g>
  <g id="Disk">
    <path d="M2,-26l-2,0l0,-12l2,0l0,12Zm0,-12l0,-6l2,0l0,6l-2,0Zm2,-6l0,-4l2,0l0,4l-2,0Zm2,-4l0,-2l2,0l0,2l-2,0Zm2,-2l0,-4l2,0l0,4l-2,0Zm2,-4l0,-2l4,0l0,2l-4,0Zm4,-2l0,-2l2,0l0,2l-2,0Zm2,-2l0,-2l4,0l0,2l-4,0Zm4,-2l0,-2l6,0l0,2l-6,0Zm6,-2l0,-2l12,0l0,2l-12,0Zm12,0l6,0l0,2l-6,0l0,-2Zm6,2l4,0l0,2l-4,0l0,-2Zm4,2l2,0l0,2l-2,0l0,-2Zm2,2l4,0l0,2l-4,0l0,-2Zm4,2l2,0l0,4l-2,0l0,-4Zm2,4l2,0l0,2l-2,0l0,-2Zm2,2l2,0l0,4l-2,0l0,-4Zm2,4l2,0l0,6l-2,0l0,-6Zm2,6l2,0l0,12l-2,0l0,-12Zm0,12l0,6l-2,0l0,-6l2,0Zm-2,6l0,4l-2,0l0,-4l2,0Zm-2,4l0,2l-2,0l0,-2l2,0Zm-2,2l0,4l-2,0l0,-4l2,0Zm-2,4l0,2l-4,0l0,-2l4,0Zm-4,2l0,2l-2,0l0,-2l2,0Zm-2,2l0,2l-4,0l0,-2l4,0Zm-4,2l0,2l-6,0l0,-2l6,0Zm-6,2l0,2l-12,0l0,-2l12,0Zm-12,0l-6,0l0,-2l6,0l0,2Zm-6,-2l-4,0l0,-2l4,0l0,2Zm-4,-2l-2,0l0,-2l2,0l0,2Zm-2,-2l-4,0l0,-2l4,0l0,2Zm-4,-2l-2,0l0,-4l2,0l0,4Zm-2,-4l-2,0l0,-2l2,0l0,2Zm-2,-2l-2,0l0,-4l2,0l0,4Zm-2,-4l-2,0l0,-6l2,0l0,6Zm20,-10l-2,0l0,-4l2,0l0,4Zm0,-4l0,-2l2,0l0,2l-2,0Zm2,-2l0,-2l2,0l0,2l-2,0Zm2,-2l0,-2l2,0l0,2l-2,0Zm2,-2l0,-2l4,0l0,2l-4,0Zm4,0l2,0l0,2l-2,0l0,-2Zm2,2l2,0l0,2l-2,0l0,-2Zm2,2l2,0l0,2l-2,0l0,-2Zm2,2l2,0l0,4l-2,0l0,-4Zm0,4l0,2l-2,0l0,-2l2,0Zm-2,2l0,2l-2,0l0,-2l2,0Zm-2,2l0,2l-2,0l0,-2l2,0Zm-2,2l0,2l-4,0l0,-2l4,0Zm-4,0l-2,0l0,-2l2,0l0,2Zm-2,-2l-2,0l0,-2l2,0l0,2Zm-2,-2l-2,0l0,-2l2,0l0,2Zm0,-2l0,-4l2,0l0,4l-2,0Zm2,-4l0,-2l2,0l0,2l-2,0Zm2,-2l0,-2l4,0l0,2l-4,0Zm4,0l2,0l0,2l-2,0l0,-2Zm2,2l2,0l0,4l-2,0l0,-4Zm0,4l0,2l-2,0l0,-2l2,0Zm-2,2l0,2l-4,0l0,-2l4,0Zm-4,0l-2,0l0,-2l2,0l0,2Z" style="fill:#52575b;" />
  </g>
  <metadata>
    <rdf:RDF>
      <cc:Work rdf:about="">
        <cc:License rdf:resource="http://creativecommons.org/licenses/by-sa/4.0/" />
        <dc:right>
          <cc:Agent>
            <dc:title>CC-BY-SA 4.0 Jugend Hackt</dc:title>
          </cc:Agent>
        </dc:right>
        <dc:title>
          <cc:Agent>
            <dc:title>Pixelhack</dc:title>
          </cc:Agent>
        </dc:title>
        <dc:contributor>
          <cc:Agent>
            <dc:title>Hanno Sternberg</dc:title>
          </cc:Agent>
        </dc:contributor>
        <dc:creator>
          <cc:Agent>
            <dc:title>Jugend Hackt</dc:title>
          </cc:Agent>
        </dc:creator>
        <dc:date>
          <cc:Agent>
            <dc:title>2013</dc:title>
          </cc:Agent>
        </dc:date>
      </cc:Work>
      <cc:License rdf:about="http://creativecommons.org/licenses/by-sa/4.0/">
        <cc:permits rdf:resource="http://creativecommons.org/ns#DerivativeWorks" />
        <cc:requires rdf:resource="http://creativecommons.org/ns#ShareAlike" />
      </cc:License>
    </rdf:RDF>
  </metadata>
</svg>