<?xml version="1.0" encoding="UTF-8" standalone="no"?>
<!DOCTYPE svg PUBLIC "-//W3C//DTD SVG 1.1//EN" "http://www.w3.org/Graphics/SVG/1.1/DTD/svg11.dtd">
<svg xmlns="http://www.w3.org/2000/svg" xmlns:serif="http://www.serif.com/" width="100%" height="100%" viewBox="0 0 192 128" version="1.1" xml:space="preserve" style="fill-rule:evenodd;clip-rule:evenodd;stroke-linejoin:round;stroke-miterlimit:2;" xmlns:rdf="http://www.w3.org/1999/02/22-rdf-syntax-ns" xmlns:cc="http://creativecommons.org/ns" xmlns:dc="http://purl.org/dc/elements/1.1/">
  <g id="Hands">
    <g>
      <path d="M194,30l-2,0l0,-14l2,0l0,14Zm2,6l2,0l0,10l-2,0l0,-10Zm-2,-6l2,0l0,6l-2,0l0,-6Zm4,-20l0,6l-2,0l0,-6l2,0Z" style="fill:#52575b;" />
    </g>
  </g>
  <g id="Hands1" serif:id="Hands">
    <path d="M194,30l-2,0l0,-14l2,0l0,14Zm2,6l2,0l0,10l-2,0l0,-10Zm-2,-6l2,0l0,6l-2,0l0,-6Zm30,14l4,0l0,2l-4,0l0,-2Zm-4,-10l-2,0l0,-4l2,0l0,4Zm16,20l2,0l0,2l-2,0l0,-2Zm-16,-24l0,-2l2,0l0,2l-2,0Zm2,8l2,0l0,6l-2,0l0,-6Zm10,10l2,0l0,4l-2,0l0,-4Zm-4,-2l4,0l0,2l-4,0l0,-2Zm6,6l2,0l0,2l-2,0l0,-2Zm-14,-18l2,0l0,4l-2,0l0,-4Zm-22,-24l0,6l-2,0l0,-6l2,0Z" style="fill:#52575b;" />
  </g>
  <g id="Cat---Dog" serif:id="Cat &amp; Dog">
    <g>
      <g>
        <path d="M8,-28l-4,0l0,-24l4,0l0,24Zm0,-24l0,-4l4,0l0,4l-4,0Zm4,-4l0,-4l4,0l0,4l-4,0Zm4,-4l0,-4l4,0l0,4l-4,0Zm4,0l4,0l0,4l-4,0l0,-4Zm4,4l16,0l0,4l-16,0l0,-4Zm16,0l0,-4l4,0l0,4l-4,0Zm4,-4l0,-4l4,0l0,4l-4,0Zm4,0l4,0l0,4l-4,0l0,-4Zm4,4l4,0l0,4l-4,0l0,-4Zm4,4l44,0l0,4l-40,0l0,20l-4,0l0,-24Zm44,0l0,-4l4,0l0,4l-4,0Zm4,-4l0,-4l4,0l0,4l-4,0Zm4,-4l0,-4l12,0l0,4l-12,0Zm12,0l4,0l0,8l-4,0l0,-8Zm0,8l0,4l-4,0l0,-4l4,0Zm-4,4l0,4l-4,0l0,-4l4,0Zm-4,4l0,4l-4,0l0,-4l4,0Zm-4,4l0,4l-4,0l0,-4l4,0Zm-4,4l0,4l-4,0l0,8l8,0l0,16l-8,0l0,8l-16,0l0,-8l-16,0l0,8l-16,0l0,-8l-4,0l0,8l-16,0l0,-12l-16,0l0,-8l4,0l0,4l16,0l0,12l8,0l0,-8l12,0l0,8l8,0l0,-8l24,0l0,8l8,0l0,-32l8,0Zm-88,16l-4,0l0,-4l4,0l0,4Zm-4,-4l-4,0l0,-4l4,0l0,4Zm88,4l0,8l4,0l0,-8l-4,0Zm-44,-8l0,4l-4,0l0,-4l4,0Zm-4,4l0,4l-4,0l0,-4l4,0Zm-4,4l0,4l-4,0l0,-4l4,0Zm24,-24l0,12l-4,0l0,-12l4,0Zm-48,8l-8,0l0,-8l4,0l0,4l4,0l0,4Zm56,-8l0,12l-4,0l0,-12l4,0Zm8,0l0,12l-4,0l0,-12l4,0Zm-58,20l0,-2l2,0l0,-2l-2,0l0,-4l4,0l0,8l-4,0Zm0,0l0,2l-2,0l0,-2l2,0Zm4,0l2,0l0,2l-2,0l0,-2Zm14,-12l-8,0l0,-8l4,0l0,4l4,0l0,4Z" />
      </g>
    </g>
    <g>
      <g>
        <path d="M12,82l-6,0l0,-36l6,0l0,36Zm0,-36l0,-6l6,0l0,6l-6,0Zm6,-6l0,-6l6,0l0,6l-6,0Zm6,-6l0,-6l6,0l0,6l-6,0Zm6,0l6,0l0,6l-6,0l0,-6Zm6,6l24,0l0,6l-24,0l0,-6Zm24,0l0,-6l6,0l0,6l-6,0Zm6,-6l0,-6l6,0l0,6l-6,0Zm6,0l6,0l0,6l-6,0l0,-6Zm6,6l6,0l0,6l-6,0l0,-6Zm6,6l66,0l0,6l-60,0l0,30l-6,0l0,-36Zm66,0l0,-6l6,0l0,6l-6,0Zm6,-6l0,-6l6,0l0,6l-6,0Zm6,-6l0,-6l18,0l0,6l-18,0Zm18,0l6,0l0,12l-6,0l0,-12Zm0,12l0,6l-6,0l0,-6l6,0Zm-6,6l0,6l-6,0l0,-6l6,0Zm-6,6l0,6l-6,0l0,-6l6,0Zm-6,6l0,6l-6,0l0,-6l6,0Zm-6,6l0,6l-6,0l0,12l12,0l0,24l-12,0l0,12l-24,0l0,-12l-24,0l0,12l-24,0l0,-12l-6,0l0,12l-24,0l0,-18l-24,0l0,-12l6,0l0,6l24,0l0,18l12,0l0,-12l18,0l0,12l12,0l0,-12l36,0l0,12l12,0l0,-48l12,0Zm-132,24l-6,0l0,-6l6,0l0,6Zm-6,-6l-6,0l0,-6l6,0l0,6Zm132,6l0,12l6,0l0,-12l-6,0Zm-66,-12l0,6l-6,0l0,-6l6,0Zm-6,6l0,6l-6,0l0,-6l6,0Zm-6,6l0,6l-6,0l0,-6l6,0Zm-36,-24l-12,0l0,-12l6,0l0,6l6,0l0,6Zm72,-12l0,18l-6,0l0,-18l6,0Zm-64,30l0,-4l2,0l0,4l-2,0Zm0,0l0,2l-2,0l0,-2l2,0Zm2,-4l0,-2l-2,0l0,-6l6,0l0,6l-2,0l0,2l-2,0Zm4,4l2,0l0,2l-2,0l0,-2Zm-2,-4l2,0l0,4l-2,0l0,-4Zm84,-26l0,18l-6,0l0,-18l6,0Zm-12,0l0,18l-6,0l0,-18l6,0Zm-48,12l-12,0l0,-12l6,0l0,6l6,0l0,6Z" />
        <path d="M18,82l-6,0l0,-36l6,0l0,-6l6,0l0,-6l6,0l0,6l6,0l0,6l24,0l0,-6l6,0l0,-6l6,0l0,6l6,0l0,6l6,0l0,36l-6,0l0,6l-6,0l0,6l-6,0l0,6l6,0l0,-6l6,0l0,-6l6,0l0,-6l6,0l0,-30l60,0l0,-6l6,0l0,-6l6,0l0,-6l18,0l0,12l-6,0l0,6l-6,0l0,6l-6,0l0,6l-6,0l0,6l-12,0l0,48l-12,0l0,-12l-36,0l0,12l-12,0l0,-12l-18,0l0,12l-12,0l0,-18l-24,0l0,-6l-6,0l0,-6l-6,0l0,-6Zm6,-24l0,12l12,0l0,-12l-12,0Zm36,0l0,12l12,0l0,-12l-12,0Zm-10,18l-6,0l0,6l2,0l0,2l-2,0l0,4l-2,0l0,2l2,0l0,4l6,0l0,-4l2,0l0,-2l-2,0l0,-4l-2,0l0,-2l2,0l0,-6Zm52,-18l0,18l6,0l0,-18l-6,0Zm30,0l-6,0l0,18l6,0l0,-18Zm-12,0l-6,0l0,18l6,0l0,-18Zm-74,26l2,0l0,4l-2,0l0,-4Zm110,10l0,12l-6,0l0,-12l6,0Z" style="fill:#fcd009;" />
        <path d="M36,58l0,6l-6,0l0,-6l6,0Zm36,0l0,6l-6,0l0,-6l6,0Z" style="fill:#fff;" />
        <rect x="44" y="88" width="6" height="6" style="fill:#00b48d;" />
      </g>
    </g>
  </g>
  <metadata>
    <rdf:RDF>
      <cc:Work rdf:about="">
        <cc:License rdf:resource="http://creativecommons.org/licenses/by-sa/4.0/" />
        <dc:right>
          <cc:Agent>
            <dc:title>CC-BY-SA 4.0 Jugend Hackt</dc:title>
          </cc:Agent>
        </dc:right>
        <dc:title>
          <cc:Agent>
            <dc:title>Pixelhack</dc:title>
          </cc:Agent>
        </dc:title>
        <dc:contributor>
          <cc:Agent>
            <dc:title>Hanno Sternberg</dc:title>
          </cc:Agent>
        </dc:contributor>
        <dc:creator>
          <cc:Agent>
            <dc:title>Jugend Hackt</dc:title>
          </cc:Agent>
        </dc:creator>
        <dc:date>
          <cc:Agent>
            <dc:title>2013</dc:title>
          </cc:Agent>
        </dc:date>
      </cc:Work>
      <cc:License rdf:about="http://creativecommons.org/licenses/by-sa/4.0/">
        <cc:permits rdf:resource="http://creativecommons.org/ns#DerivativeWorks" />
        <cc:requires rdf:resource="http://creativecommons.org/ns#ShareAlike" />
      </cc:License>
    </rdf:RDF>
  </metadata>
</svg>