<?xml version="1.0" encoding="UTF-8" standalone="no"?>
<!DOCTYPE svg PUBLIC "-//W3C//DTD SVG 1.1//EN" "http://www.w3.org/Graphics/SVG/1.1/DTD/svg11.dtd">
<svg xmlns="http://www.w3.org/2000/svg" width="100%" height="100%" viewBox="0 0 64 64" version="1.1" xml:space="preserve" style="fill-rule:evenodd;clip-rule:evenodd;stroke-linejoin:round;stroke-miterlimit:2;" xmlns:rdf="http://www.w3.org/1999/02/22-rdf-syntax-ns" xmlns:cc="http://creativecommons.org/ns" xmlns:dc="http://purl.org/dc/elements/1.1/">
  <g>
    <g>
      <path d="M18,18l-4,0l0,-4l4,0l0,2l28,0l0,-2l4,0l0,4l-4,0l0,6l-28,0l0,-6Zm24,0l-4,0l0,4l4,0l0,-4Zm-8,0l-4,0l0,4l4,0l0,-4Zm-8,0l-4,0l0,4l4,0l0,-4Zm20,14l-28,0l0,-6l4,0l0,4l4,0l0,-4l4,0l0,4l4,0l0,-4l4,0l0,4l4,0l0,-4l4,0l0,6Zm0,8l-28,0l0,-6l4,0l0,4l4,0l0,-4l4,0l0,4l4,0l0,-4l4,0l0,4l4,0l0,-4l4,0l0,6Zm-28,8l0,2l-4,0l0,-4l4,0l0,-4l4,0l0,4l4,0l0,-4l4,0l0,4l4,0l0,-4l4,0l0,4l4,0l0,-4l4,0l0,4l4,0l0,4l-4,0l0,-2l-28,0Z" style="fill:#16a6de;" />
    </g>
  </g>
  <metadata>
    <rdf:RDF>
      <cc:Work rdf:about="">
        <cc:License rdf:resource="http://creativecommons.org/licenses/by-sa/4.0/" />
        <dc:right>
          <cc:Agent>
            <dc:title>CC-BY-SA 4.0 Jugend Hackt</dc:title>
          </cc:Agent>
        </dc:right>
        <dc:title>
          <cc:Agent>
            <dc:title>Pixelhack</dc:title>
          </cc:Agent>
        </dc:title>
        <dc:contributor>
          <cc:Agent>
            <dc:title>Hanno Sternberg</dc:title>
          </cc:Agent>
        </dc:contributor>
        <dc:creator>
          <cc:Agent>
            <dc:title>Jugend Hackt</dc:title>
          </cc:Agent>
        </dc:creator>
        <dc:date>
          <cc:Agent>
            <dc:title>2013</dc:title>
          </cc:Agent>
        </dc:date>
      </cc:Work>
      <cc:License rdf:about="http://creativecommons.org/licenses/by-sa/4.0/">
        <cc:permits rdf:resource="http://creativecommons.org/ns#DerivativeWorks" />
        <cc:requires rdf:resource="http://creativecommons.org/ns#ShareAlike" />
      </cc:License>
    </rdf:RDF>
  </metadata>
</svg>