<?xml version="1.0" encoding="UTF-8" standalone="no"?>
<!DOCTYPE svg PUBLIC "-//W3C//DTD SVG 1.1//EN" "http://www.w3.org/Graphics/SVG/1.1/DTD/svg11.dtd">
<svg xmlns="http://www.w3.org/2000/svg" width="100%" height="100%" viewBox="0 0 64 128" version="1.1" xml:space="preserve" style="fill-rule:evenodd;clip-rule:evenodd;stroke-linejoin:round;stroke-miterlimit:2;" xmlns:rdf="http://www.w3.org/1999/02/22-rdf-syntax-ns" xmlns:cc="http://creativecommons.org/ns" xmlns:dc="http://purl.org/dc/elements/1.1/">
  <g id="Robot">
    <path d="M6,56l-4,0l0,-12l4,0l0,-20l4,0l0,-4l12,0l0,-6l4,0l0,6l12,0l0,-6l4,0l0,6l12,0l0,4l4,0l0,20l4,0l0,12l-4,0l0,20l-4,0l0,4l-44,0l0,-4l-4,0l0,-20Zm20,-42l0,-4l12,0l0,4l-12,0Zm-4,30l-8,0l0,2l-2,0l0,8l2,0l0,2l8,0l0,-2l2,0l0,-8l-2,0l0,-2Zm20,0l0,2l-2,0l0,8l2,0l0,2l8,0l0,-2l2,0l0,-8l-2,0l0,-2l-8,0Zm6,28l0,-6l-2,0l0,-2l-28,0l0,2l-2,0l0,6l2,0l0,2l28,0l0,-2l2,0Zm-34,44l0,-32l36,0l0,32l-8,0l0,-4l-4,0l0,-4l-4,0l0,-4l-4,0l0,4l-4,0l0,4l-4,0l0,4l-8,0Zm24,-4l0,4l-12,0l0,-4l4,0l0,-4l4,0l0,4l4,0Zm-28,-24l0,28l-4,0l0,-28l4,0Zm48,0l0,28l-4,0l0,-28l4,0Z" style="fill:#ea680d;" />
    <path d="M14,54l0,-8l8,0l0,8l-8,0Zm6,-6l-4,0l0,4l4,0l0,-4Zm22,6l0,-8l8,0l0,8l-8,0Zm6,-6l-4,0l0,4l4,0l0,-4Zm-22,64l0,-4l4,0l0,4l-4,0Zm8,-4l4,0l0,4l-4,0l0,-4Zm-4,0l0,-4l4,0l0,4l-4,0Zm-4,4l0,4l-4,0l0,-4l4,0Zm12,0l4,0l0,4l-4,0l0,-4Zm0,-98l0,6l-12,0l0,-6l12,0Zm-16,52l0,6l-4,0l0,-6l4,0Zm6,0l0,6l-4,0l0,-6l4,0Zm6,0l0,6l-4,0l0,-6l4,0Zm6,0l0,6l-4,0l0,-6l4,0Zm6,0l0,6l-4,0l0,-6l4,0Z" style="fill:#fff;" />
    <path d="M14,54l-2,0l0,-8l2,0l0,8Zm0,-8l0,-2l8,0l0,2l-8,0Zm8,0l2,0l0,8l-2,0l0,-8Zm0,8l0,2l-8,0l0,-2l8,0Zm-2,-6l0,4l-4,0l0,-4l4,0Zm22,6l-2,0l0,-8l2,0l0,8Zm0,-8l0,-2l8,0l0,2l-8,0Zm8,0l2,0l0,8l-2,0l0,-8Zm0,8l0,2l-8,0l0,-2l8,0Zm-2,-6l0,4l-4,0l0,-4l4,0Zm-30,24l-2,0l0,-6l2,0l0,6Zm0,-6l0,-2l28,0l0,2l-4,0l0,6l4,0l0,2l-28,0l0,-2l4,0l0,-6l-4,0Zm28,0l2,0l0,6l-2,0l0,-6Zm-6,0l-4,0l0,6l4,0l0,-6Zm-6,0l-4,0l0,6l4,0l0,-6Zm-6,0l-4,0l0,6l4,0l0,-6Z" />
  </g>
  <metadata>
    <rdf:RDF>
      <cc:Work rdf:about="">
        <cc:License rdf:resource="http://creativecommons.org/licenses/by-sa/4.0/" />
        <dc:right>
          <cc:Agent>
            <dc:title>CC-BY-SA 4.0 Jugend Hackt</dc:title>
          </cc:Agent>
        </dc:right>
        <dc:title>
          <cc:Agent>
            <dc:title>Pixelhack</dc:title>
          </cc:Agent>
        </dc:title>
        <dc:contributor>
          <cc:Agent>
            <dc:title>Hanno Sternberg</dc:title>
          </cc:Agent>
        </dc:contributor>
        <dc:creator>
          <cc:Agent>
            <dc:title>Jugend Hackt</dc:title>
          </cc:Agent>
        </dc:creator>
        <dc:date>
          <cc:Agent>
            <dc:title>2013</dc:title>
          </cc:Agent>
        </dc:date>
      </cc:Work>
      <cc:License rdf:about="http://creativecommons.org/licenses/by-sa/4.0/">
        <cc:permits rdf:resource="http://creativecommons.org/ns#DerivativeWorks" />
        <cc:requires rdf:resource="http://creativecommons.org/ns#ShareAlike" />
      </cc:License>
    </rdf:RDF>
  </metadata>
</svg>