<?xml version="1.0" encoding="UTF-8" standalone="no"?>
<!DOCTYPE svg PUBLIC "-//W3C//DTD SVG 1.1//EN" "http://www.w3.org/Graphics/SVG/1.1/DTD/svg11.dtd">
<svg xmlns="http://www.w3.org/2000/svg" width="100%" height="100%" viewBox="0 0 64 64" version="1.1" xml:space="preserve" style="fill-rule:evenodd;clip-rule:evenodd;stroke-linejoin:round;stroke-miterlimit:2;" xmlns:rdf="http://www.w3.org/1999/02/22-rdf-syntax-ns" xmlns:cc="http://creativecommons.org/ns" xmlns:dc="http://purl.org/dc/elements/1.1/">
  <g id="Pizza">
    <path d="M12,6l0,-2l2,0l0,2l-2,0Zm2,-2l0,-2l6,0l0,2l-6,0Zm6,-2l0,-2l26,0l0,2l-26,0Zm34,4l2,0l0,2l-2,0l0,-2Zm-6,-2l6,0l0,2l-6,0l0,-2Zm-2,-2l2,0l0,2l-2,0l0,-2Zm10,6l2,0l0,14l-2,0l0,-14Zm-44,-2l0,18l-2,0l0,-18l2,0Z" style="fill:#5d473d;" />
    <path d="M54,8l2,0l0,8l-2,0l0,-8Zm-40,-2l0,-2l6,0l0,-2l26,0l0,2l-24,0l0,2l-8,0Zm32,-2l2,0l0,2l6,0l0,2l-8,0l0,-4Zm-32,2l0,6l-2,0l0,-6l2,0Zm22,54l0,-6l2,0l0,-2l2,0l0,-2l2,0l0,-2l2,0l0,-2l2,0l0,-8l2,0l0,-4l2,0l0,-2l2,0l0,-10l4,0l0,2l-2,0l0,10l-2,0l0,2l-2,0l0,4l-2,0l0,8l-2,0l0,2l-2,0l0,2l-2,0l0,2l-2,0l0,2l-2,0l0,4l-2,0Zm-2,2l0,-2l2,0l0,2l-2,0Zm-14,-20l2,0l0,2l2,0l0,8l2,0l0,2l2,0l0,6l-2,0l0,-4l-2,0l0,-2l-2,0l0,-8l-2,0l0,-4Zm10,20l4,0l0,2l-4,0l0,-2Zm-2,-2l2,0l0,2l-2,0l0,-2Zm-12,-26l-2,0l0,-6l2,0l0,4l2,0l0,2l2,0l0,8l-2,0l0,-6l-2,0l0,-2Zm-2,-10l0,2l-2,0l0,-2l2,0Z" style="fill:#a0673e;" />
    <path d="M24,10l-10,0l0,-4l8,0l0,-2l24,0l0,4l8,0l0,6l-2,0l0,-2l-2,0l0,-2l-8,0l0,-2l-8,0l0,2l-4,0l0,2l-2,0l0,2l-2,0l0,-2l-2,0l0,-2Z" style="fill:#f3971b;" />
    <path d="M22,14l-8,0l0,-4l10,0l0,2l2,0l0,2l2,0l0,-2l2,0l0,-2l4,0l0,-2l8,0l0,2l8,0l0,2l2,0l0,2l2,0l0,4l-4,0l0,-2l-2,0l0,-2l-6,0l0,-2l-8,0l0,2l-2,0l0,2l-2,0l0,2l-6,0l0,-2l-2,0l0,-2Zm2,8l0,2l-2,0l0,-2l2,0Zm14,0l0,2l-2,0l0,-2l2,0Zm-8,20l0,2l-2,0l0,-2l2,0Z" style="fill:#ea680d;" />
    <path d="M44,46l0,-8l2,0l0,8l-2,0Zm-6,6l0,-2l2,0l0,2l-2,0Zm4,-4l0,-2l2,0l0,2l-2,0Zm6,-14l0,-2l2,0l0,2l-2,0Zm-2,4l0,-4l2,0l0,4l-2,0Zm4,-6l0,-10l2,0l0,10l-2,0Zm-10,18l0,-2l2,0l0,2l-2,0Zm-14,2l-2,0l0,-6l2,0l0,6Zm0,0l2,0l0,2l-2,0l0,-2Zm8,8l0,-8l4,0l0,2l-2,0l0,6l-2,0Zm-4,0l4,0l0,2l-4,0l0,-2Zm-2,-6l2,0l0,6l-2,0l0,-6Zm-10,-22l-2,0l0,-4l2,0l0,4Zm0,0l2,0l0,2l-2,0l0,-2Zm2,2l2,0l0,4l-2,0l0,-4Zm-6,-22l0,12l-2,0l0,-12l2,0Zm42,4l0,6l-2,0l0,-6l2,0Z" style="fill:#bf8e67;" />
    <path d="M50,18l4,0l0,2l-4,0l0,-2Zm-34,4l0,2l-2,0l0,-2l2,0Zm14,22l0,4l-4,0l0,-2l2,0l0,-2l2,0Zm-8,-28l-8,0l0,-2l8,0l0,2Zm22,16l4,0l0,2l-4,0l0,-2Zm-8,8l2,0l0,2l4,0l0,-2l2,0l0,4l-8,0l0,-4Zm-14,-24l2,0l0,2l6,0l0,-2l2,0l0,-2l2,0l0,2l2,0l0,2l-2,0l0,4l-2,0l0,-2l-8,0l0,2l-2,0l0,-2l-4,0l0,2l-2,0l0,-4l6,0l0,-2Zm12,-2l0,-2l8,0l0,2l-4,0l0,2l-2,0l0,-2l-2,0Zm8,0l6,0l0,2l2,0l0,2l-2,0l0,6l-4,0l0,-2l2,0l0,-4l-2,0l0,-2l-2,0l0,-2Zm2,10l0,8l-2,0l0,-2l-4,0l0,2l-2,0l0,-8l2,0l0,2l4,0l0,-2l2,0Zm-8,8l0,2l-2,0l0,4l2,0l0,2l-2,0l0,4l-4,0l0,-2l2,0l0,-4l-2,0l0,-2l2,0l0,-4l4,0Zm-6,4l-2,0l0,-2l-4,0l0,2l-2,0l0,-2l-2,0l0,-2l2,0l0,-2l2,0l0,2l6,0l0,4Zm-6,-6l0,-2l2,0l0,-4l-2,0l0,-2l4,0l0,8l-4,0Zm12,-6l-2,0l0,-2l2,0l0,2Z" style="fill:#fcd009;" />
    <path d="M14,22l0,-6l8,0l0,2l-6,0l0,4l-2,0Zm36,10l-6,0l0,-8l4,0l0,-6l2,0l0,2l4,0l0,2l-4,0l0,10Zm-22,-10l-4,0l0,-2l8,0l0,2l2,0l0,2l2,0l0,8l-4,0l0,4l-2,0l0,-4l-6,0l0,-2l4,0l0,-8Zm0,30l-2,0l0,-4l4,0l0,-4l4,0l0,-4l2,0l0,4l8,0l0,2l-2,0l0,2l-2,0l0,2l-2,0l0,2l-4,0l0,8l-4,0l0,-6l-2,0l0,-2Zm8,-38l0,2l-2,0l0,-2l2,0Z" style="fill:#fbe50f;" />
    <path d="M42,16l2,0l0,2l-2,0l0,-2Zm-6,4l0,2l-2,0l0,-4l2,0l0,-2l2,0l0,-2l4,0l0,2l-2,0l0,4l-4,0Zm-16,6l-6,0l0,-2l2,0l0,-2l2,0l0,-2l2,0l0,6Zm18,8l0,2l-4,0l0,-2l2,0l0,-2l2,0l0,-2l4,0l0,2l-2,0l0,2l-2,0Zm4,-2l2,0l0,2l-2,0l0,-2Zm-20,10l-2,0l0,-4l2,0l0,-2l2,0l0,-2l2,0l0,6l-4,0l0,2Zm0,0l2,0l0,2l-2,0l0,-2Zm22,-20l0,2l-2,0l0,-2l2,0Zm-20,6l0,2l-2,0l0,-2l2,0Zm6,8l0,2l-2,0l0,-2l2,0Zm8,2l0,2l-2,0l0,-2l2,0Zm6,0l0,2l-2,0l0,-2l2,0Z" style="fill:#e6414a;" />
    <path d="M38,22l-2,0l0,-2l4,0l0,-4l2,0l0,2l4,0l0,4l-4,0l0,4l-4,0l0,-4Zm-20,6l-4,0l0,-2l6,0l0,-6l2,0l0,4l4,0l0,4l-4,0l0,4l-4,0l0,-4Zm20,10l-4,0l0,-2l4,0l0,-2l2,0l0,-2l2,0l0,2l4,0l0,4l-4,0l0,4l-4,0l0,-4Zm-14,4l-2,0l0,-2l4,0l0,-6l2,0l0,4l4,0l0,4l-4,0l0,4l-4,0l0,-4Z" style="fill:#e52320;" />
  </g>
  <metadata>
    <rdf:RDF>
      <cc:Work rdf:about="">
        <cc:License rdf:resource="http://creativecommons.org/licenses/by-sa/4.0/" />
        <dc:right>
          <cc:Agent>
            <dc:title>CC-BY-SA 4.0 Jugend Hackt</dc:title>
          </cc:Agent>
        </dc:right>
        <dc:title>
          <cc:Agent>
            <dc:title>Pixelhack</dc:title>
          </cc:Agent>
        </dc:title>
        <dc:contributor>
          <cc:Agent>
            <dc:title>Hanno Sternberg</dc:title>
          </cc:Agent>
        </dc:contributor>
        <dc:creator>
          <cc:Agent>
            <dc:title>Jugend Hackt</dc:title>
          </cc:Agent>
        </dc:creator>
        <dc:date>
          <cc:Agent>
            <dc:title>2013</dc:title>
          </cc:Agent>
        </dc:date>
      </cc:Work>
      <cc:License rdf:about="http://creativecommons.org/licenses/by-sa/4.0/">
        <cc:permits rdf:resource="http://creativecommons.org/ns#DerivativeWorks" />
        <cc:requires rdf:resource="http://creativecommons.org/ns#ShareAlike" />
      </cc:License>
    </rdf:RDF>
  </metadata>
</svg>