<?xml version="1.0" encoding="UTF-8" standalone="no"?>
<!DOCTYPE svg PUBLIC "-//W3C//DTD SVG 1.1//EN" "http://www.w3.org/Graphics/SVG/1.1/DTD/svg11.dtd">
<svg xmlns="http://www.w3.org/2000/svg" xmlns:serif="http://www.serif.com/" width="100%" height="100%" viewBox="0 0 64 64" version="1.1" xml:space="preserve" style="fill-rule:evenodd;clip-rule:evenodd;stroke-linejoin:round;stroke-miterlimit:2;" xmlns:rdf="http://www.w3.org/1999/02/22-rdf-syntax-ns" xmlns:cc="http://creativecommons.org/ns" xmlns:dc="http://purl.org/dc/elements/1.1/">
  <g id="Colorful-Objekts" serif:id="Colorful Objekts">
    <g id="Presents">
      <g>
        <path d="M26,20l-14,0l0,-6l2,0l0,-2l2,0l0,-2l6,0l0,2l2,0l0,2l2,0l0,6Zm26,0l-14,0l0,-6l2,0l0,-2l2,0l0,-2l6,0l0,2l2,0l0,2l2,0l0,6Z" style="fill:#8000ff;" />
        <path d="M38,56l-12,0l0,-42l2,0l0,-2l8,0l0,2l2,0l0,42Z" style="fill:#550080;" />
        <path d="M26,32l-18,0l0,-10l2,0l0,-2l16,0l0,12Zm30,0l-18,0l0,-12l16,0l0,2l2,0l0,10Z" style="fill:#ea680d;" />
        <path d="M26,32l0,2l-14,0l0,-2l14,0Zm26,0l0,2l-14,0l0,-2l14,0Z" style="fill:#fcd009;" />
        <path d="M14,54l-2,0l0,-20l14,0l0,22l-12,0l0,-2Zm24,2l0,-22l14,0l0,20l-2,0l0,2l-12,0Z" style="fill:#f3971b;" />
      </g>
    </g>
  </g>
  <metadata>
    <rdf:RDF>
      <cc:Work rdf:about="">
        <cc:License rdf:resource="http://creativecommons.org/licenses/by-sa/4.0/" />
        <dc:right>
          <cc:Agent>
            <dc:title>CC-BY-SA 4.0 Jugend Hackt</dc:title>
          </cc:Agent>
        </dc:right>
        <dc:title>
          <cc:Agent>
            <dc:title>Pixelhack</dc:title>
          </cc:Agent>
        </dc:title>
        <dc:contributor>
          <cc:Agent>
            <dc:title>Hanno Sternberg</dc:title>
          </cc:Agent>
        </dc:contributor>
        <dc:creator>
          <cc:Agent>
            <dc:title>Jugend Hackt</dc:title>
          </cc:Agent>
        </dc:creator>
        <dc:date>
          <cc:Agent>
            <dc:title>2013</dc:title>
          </cc:Agent>
        </dc:date>
      </cc:Work>
      <cc:License rdf:about="http://creativecommons.org/licenses/by-sa/4.0/">
        <cc:permits rdf:resource="http://creativecommons.org/ns#DerivativeWorks" />
        <cc:requires rdf:resource="http://creativecommons.org/ns#ShareAlike" />
      </cc:License>
    </rdf:RDF>
  </metadata>
</svg>