<?xml version="1.0" encoding="UTF-8" standalone="no"?>
<!DOCTYPE svg PUBLIC "-//W3C//DTD SVG 1.1//EN" "http://www.w3.org/Graphics/SVG/1.1/DTD/svg11.dtd">
<svg xmlns="http://www.w3.org/2000/svg" width="100%" height="100%" viewBox="0 0 64 64" version="1.1" xml:space="preserve" style="fill-rule:evenodd;clip-rule:evenodd;stroke-linejoin:round;stroke-miterlimit:2;" xmlns:rdf="http://www.w3.org/1999/02/22-rdf-syntax-ns" xmlns:cc="http://creativecommons.org/ns" xmlns:dc="http://purl.org/dc/elements/1.1/">
  <g id="Reisealpaka">
    <path d="M30,14l0,2l-4,0l0,-2l4,0Zm6,0l0,2l-4,0l0,-2l4,0Zm12,26l0,4l-4,0l0,-4l4,0Zm-20,4l0,4l-4,0l0,-4l4,0Zm8,2l0,4l-4,0l0,-4l4,0Z" style="fill:#f3971b;" />
    <path d="M26,18l-2,0l0,-2l12,0l0,2l-6,0l0,2l-4,0l0,-2Zm14,16l0,2l-2,0l0,-4l2,0l0,-2l2,0l0,-6l2,0l0,2l2,0l0,4l-2,0l0,4l-4,0Zm-14,6l-2,0l0,-4l2,0l0,2l2,0l0,4l-2,0l0,-2Zm6,0l-2,0l0,-2l4,0l0,-2l2,0l0,4l-2,0l0,2l-2,0l0,-2Zm-6,-14l0,2l-2,0l0,-2l2,0Zm10,0l0,2l-2,0l0,-2l2,0Zm12,10l0,2l-2,0l0,-2l2,0Z" style="fill:#fcd009;" />
    <path d="M26,20l4,0l0,2l-4,0l0,-2Zm4,0l0,-2l6,0l0,4l-2,0l0,-2l-4,0Zm-4,0l-2,0l0,-2l2,0l0,2Zm0,12l-2,0l0,-4l2,0l0,2l4,0l0,2l2,0l0,-2l2,0l0,-2l2,0l0,-4l2,0l0,6l-2,0l0,2l-2,0l0,2l-8,0l0,-2Zm20,0l0,2l-2,0l0,-4l2,0l0,-4l2,0l0,6l-2,0Zm-8,8l0,-4l2,0l0,-2l2,0l0,4l-2,0l0,2l-2,0Zm-2,2l0,2l-4,0l0,-2l2,0l0,-2l4,0l0,2l-2,0Zm-10,-2l0,2l-2,0l0,-2l2,0Z" style="fill:#16a6de;" />
    <path d="M26,22l-2,0l0,-2l2,0l0,2Zm0,0l4,0l0,2l2,0l0,-2l-2,0l0,-2l4,0l0,6l-10,0l0,-2l2,0l0,-2Z" style="fill:#fff;" />
    <path d="M26,22l0,2l-2,0l0,-2l2,0Zm6,0l0,2l-2,0l0,-2l2,0Z" style="fill:#5d473d;" />
    <path d="M34,26l0,2l-8,0l0,-2l8,0Zm0,0l0,-4l2,0l0,4l-2,0Zm-8,10l-2,0l0,-4l2,0l0,2l8,0l0,-2l2,0l0,-2l2,0l0,-6l4,0l0,6l-2,0l0,2l-2,0l0,2l-2,0l0,2l-2,0l0,2l-4,0l0,-2l-2,0l0,2l-2,0l0,-2Zm20,0l0,2l-2,0l0,-4l2,0l0,-2l2,0l0,-2l2,0l0,4l-2,0l0,2l-2,0Z" style="fill:#ff3b8d;" />
    <path d="M30,30l-4,0l0,-2l8,0l0,2l-2,0l0,2l-2,0l0,-2Zm20,10l-6,0l0,-2l4,0l0,-4l2,0l0,6Zm-18,2l-4,0l0,-4l2,0l0,2l2,0l0,2Zm16,-18l0,2l-4,0l0,-2l4,0Zm-24,10l0,4l-2,0l0,-4l2,0Zm14,0l0,4l-2,0l0,-4l2,0Z" style="fill:#e1bb95;" />
    <rect x="22" y="26" width="2" height="4" style="fill:#10498c;" />
    <path d="M40,40l0,-2l2,0l0,2l-2,0Zm-2,0l-2,0l0,-2l2,0l0,2Zm0,2l0,-2l2,0l0,2l-2,0Zm0,4l-6,0l0,-2l4,0l0,-2l2,0l0,4Zm4,-8l0,-4l2,0l0,4l-2,0Zm-18,4l-2,0l0,-4l2,0l0,4Zm0,0l6,0l0,2l-6,0l0,-2Zm26,-16l0,4l-2,0l0,-4l2,0Z" style="fill:#8000ff;" />
    <path d="M24,30l0,4l-2,0l0,-4l2,0Zm6,6l0,2l-2,0l0,-2l2,0Z" style="fill:#ca006a;" />
    <path d="M20,46l-2,0l0,-2l2,0l0,-2l4,0l0,6l4,0l0,-4l2,0l0,-2l2,0l0,8l4,0l0,-4l2,0l0,-4l2,0l0,-2l4,0l0,4l4,0l0,-2l2,0l0,2l2,0l0,2l-2,0l0,2l-2,0l0,2l-4,0l0,2l-18,0l0,-2l-4,0l0,-2l-2,0l0,-2Z" style="fill:#52575b;" />
  </g>
  <metadata>
    <rdf:RDF>
      <cc:Work rdf:about="">
        <cc:License rdf:resource="http://creativecommons.org/licenses/by-sa/4.0/" />
        <dc:right>
          <cc:Agent>
            <dc:title>CC-BY-SA 4.0 Jugend Hackt</dc:title>
          </cc:Agent>
        </dc:right>
        <dc:title>
          <cc:Agent>
            <dc:title>Pixelhack</dc:title>
          </cc:Agent>
        </dc:title>
        <dc:contributor>
          <cc:Agent>
            <dc:title>Hanno Sternberg</dc:title>
          </cc:Agent>
        </dc:contributor>
        <dc:creator>
          <cc:Agent>
            <dc:title>Jugend Hackt</dc:title>
          </cc:Agent>
        </dc:creator>
        <dc:date>
          <cc:Agent>
            <dc:title>2013</dc:title>
          </cc:Agent>
        </dc:date>
      </cc:Work>
      <cc:License rdf:about="http://creativecommons.org/licenses/by-sa/4.0/">
        <cc:permits rdf:resource="http://creativecommons.org/ns#DerivativeWorks" />
        <cc:requires rdf:resource="http://creativecommons.org/ns#ShareAlike" />
      </cc:License>
    </rdf:RDF>
  </metadata>
</svg>