<?xml version="1.0" encoding="UTF-8" standalone="no"?>
<!DOCTYPE svg PUBLIC "-//W3C//DTD SVG 1.1//EN" "http://www.w3.org/Graphics/SVG/1.1/DTD/svg11.dtd">
<svg xmlns="http://www.w3.org/2000/svg" xmlns:serif="http://www.serif.com/" width="100%" height="100%" viewBox="0 0 128 64" version="1.1" xml:space="preserve" style="fill-rule:evenodd;clip-rule:evenodd;stroke-linejoin:round;stroke-miterlimit:2;" xmlns:rdf="http://www.w3.org/1999/02/22-rdf-syntax-ns" xmlns:cc="http://creativecommons.org/ns" xmlns:dc="http://purl.org/dc/elements/1.1/">
  <g id="Resistors">
    <g id="Resistor--Trans-" serif:id="Resistor (Trans)">
      <g>
        <g>
          <path d="M90,16l-2,0l0,-2l6,0l0,2l2,0l0,2l2,0l0,2l2,0l0,4l2,0l0,12l-6,0l0,-12l-2,0l0,-4l-2,0l0,-2l-2,0l0,-2Z" style="fill:#16a6de;" />
          <path d="M94,46l0,2l-6,0l0,-2l2,0l0,-2l2,0l0,-2l2,0l0,-4l2,0l0,-2l6,0l0,2l-2,0l0,4l-2,0l0,2l-2,0l0,2l-2,0Z" style="fill:#10498c;" />
        </g>
        <g>
          <path d="M78,18l-2,0l0,-2l6,0l0,2l2,0l0,2l2,0l0,4l2,0l0,12l-6,0l0,-12l-2,0l0,-4l-2,0l0,-2Z" style="fill:#ff3b8d;" />
          <path d="M82,44l0,2l-6,0l0,-2l2,0l0,-2l2,0l0,-4l2,0l0,-2l6,0l0,2l-2,0l0,4l-2,0l0,2l-2,0Z" style="fill:#ca006a;" />
        </g>
        <g>
          <path d="M66,18l-2,0l0,-2l6,0l0,2l2,0l0,2l2,0l0,4l2,0l0,12l-6,0l0,-12l-2,0l0,-4l-2,0l0,-2Z" style="fill:#fff;" />
          <path d="M70,44l0,2l-6,0l0,-2l2,0l0,-2l2,0l0,-4l2,0l0,-2l6,0l0,2l-2,0l0,4l-2,0l0,2l-2,0Z" style="fill:#d1d6da;" />
        </g>
        <g>
          <path d="M54,18l-2,0l0,-2l6,0l0,2l2,0l0,2l2,0l0,4l2,0l0,12l-6,0l0,-12l-2,0l0,-4l-2,0l0,-2Z" style="fill:#ff3b8d;" />
          <path d="M58,44l0,2l-6,0l0,-2l2,0l0,-2l2,0l0,-4l2,0l0,-2l6,0l0,2l-2,0l0,4l-2,0l0,2l-2,0Z" style="fill:#ca006a;" />
        </g>
        <g>
          <path d="M40,16l-2,0l0,-2l4,0l0,2l4,0l0,2l2,0l0,2l2,0l0,4l2,0l0,12l-6,0l0,-12l-2,0l0,-4l-2,0l0,-2l-2,0l0,-2Z" style="fill:#16a6de;" />
          <path d="M42,46l0,2l-4,0l0,-2l2,0l0,-2l2,0l0,-2l2,0l0,-4l2,0l0,-2l6,0l0,2l-2,0l0,4l-2,0l0,2l-2,0l0,2l-4,0Z" style="fill:#10498c;" />
        </g>
      </g>
      <g>
        <path d="M50,20l-2,0l0,-2l-2,0l0,-2l6,0l0,2l2,0l0,2l2,0l0,4l2,0l0,14l-2,0l0,4l-2,0l0,2l-2,0l0,2l-6,0l0,-2l2,0l0,-2l2,0l0,-4l2,0l0,-14l-2,0l0,-4Zm12,0l-2,0l0,-2l-2,0l0,-2l6,0l0,2l2,0l0,2l2,0l0,4l2,0l0,14l-2,0l0,4l-2,0l0,2l-2,0l0,2l-6,0l0,-2l2,0l0,-2l2,0l0,-4l2,0l0,-14l-2,0l0,-4Zm12,0l-2,0l0,-2l-2,0l0,-2l6,0l0,2l2,0l0,2l2,0l0,4l2,0l0,14l-2,0l0,4l-2,0l0,2l-2,0l0,2l-6,0l0,-2l2,0l0,-2l2,0l0,-4l2,0l0,-14l-2,0l0,-4Zm12,0l-2,0l0,-2l-2,0l0,-2l8,0l0,2l2,0l0,2l2,0l0,4l2,0l0,14l-2,0l0,4l-2,0l0,2l-2,0l0,2l-8,0l0,-2l2,0l0,-2l2,0l0,-4l2,0l0,-14l-2,0l0,-4Zm14,4l0,-4l-2,0l0,-2l-2,0l0,-2l-2,0l0,-2l4,0l0,2l2,0l0,2l2,0l0,2l2,0l0,6l2,0l0,10l-2,0l0,6l-2,0l0,2l-2,0l0,2l-2,0l0,2l-4,0l0,-2l2,0l0,-2l2,0l0,-2l2,0l0,-4l2,0l0,-14l-2,0Zm-68,20l-2,0l0,-2l-2,0l0,-8l6,0l0,2l4,0l0,-8l-4,0l0,2l-8,0l0,-4l2,0l0,-6l2,0l0,-2l2,0l0,-2l2,0l0,-2l4,0l0,2l2,0l0,2l2,0l0,2l2,0l0,4l2,0l0,14l-2,0l0,4l-2,0l0,2l-2,0l0,2l-2,0l0,2l-4,0l0,-2l-2,0l0,-2Z" style="fill:#e1bb95;" />
        <path d="M104,36l0,-2l2,0l0,2l-2,0Zm-6,12l-4,0l0,-2l2,0l0,-2l2,0l0,-2l2,0l0,-4l2,0l0,-2l2,0l0,6l-2,0l0,2l-2,0l0,2l-2,0l0,2Zm-64,-2l-2,0l0,-2l6,0l0,-2l2,0l0,-4l2,0l0,-2l4,0l0,2l-2,0l0,4l-2,0l0,2l-2,0l0,2l-2,0l0,2l-4,0l0,-2Zm18,-2l0,2l-6,0l0,-2l2,0l0,-2l2,0l0,-4l2,0l0,-2l6,0l0,2l-2,0l0,4l-2,0l0,2l-2,0Zm12,0l0,2l-6,0l0,-2l2,0l0,-2l2,0l0,-4l2,0l0,-2l6,0l0,2l-2,0l0,4l-2,0l0,2l-2,0Zm12,0l0,2l-6,0l0,-2l2,0l0,-2l2,0l0,-4l2,0l0,-2l6,0l0,2l-2,0l0,4l-2,0l0,2l-2,0Zm14,0l0,2l-8,0l0,-2l2,0l0,-2l2,0l0,-4l2,0l0,-2l8,0l0,2l-2,0l0,4l-2,0l0,2l-2,0Z" style="fill:#bf8e67;" />
        <path d="M32,22l-4,0l0,-2l2,0l0,-2l2,0l0,-2l2,0l0,-2l4,0l0,2l2,0l0,2l2,0l0,2l2,0l0,2l-4,0l0,-2l-8,0l0,2Zm64,-6l-2,0l0,-2l4,0l0,2l2,0l0,2l2,0l0,2l2,0l0,2l-4,0l0,-2l-2,0l0,-2l-2,0l0,-2Zm-48,2l-2,0l0,-2l6,0l0,2l2,0l0,2l-6,0l0,-2Zm12,0l-2,0l0,-2l6,0l0,2l2,0l0,2l-6,0l0,-2Zm12,0l-2,0l0,-2l6,0l0,2l2,0l0,2l-6,0l0,-2Zm12,0l-2,0l0,-2l8,0l0,2l2,0l0,2l-8,0l0,-2Z" style="fill:#f9dbb9;" />
        <path d="M22,56l-4,0l0,-20l2,0l0,-4l4,0l0,-2l10,0l0,-2l4,0l0,8l-4,0l0,-2l-6,0l0,2l-4,0l0,4l-2,0l0,16Zm88,-22l-4,0l0,-4l8,0l0,2l4,0l0,4l2,0l0,20l-4,0l0,-16l-2,0l0,-4l-4,0l0,-2Z" style="fill:#52575b;" />
      </g>
    </g>
  </g>
  <g id="Creatures">
    <g id="Wrestlers">
      <g>
        <path d="M132,24l-4,0l0,-60l4,0l0,-4l4,0l0,-4l4,0l0,-4l4,0l0,-4l32,0l0,4l4,0l0,4l4,0l0,4l4,0l0,4l4,0l0,60l-4,0l0,4l-4,0l0,4l-8,0l0,8l-4,0l0,4l-24,0l0,-4l-4,0l0,-8l-8,0l0,-4l-4,0l0,-4Zm0,-48l0,16l4,0l0,4l4,0l0,4l12,0l0,8l-8,0l0,16l32,0l0,-16l-8,0l0,-8l12,0l0,-4l4,0l0,-4l4,0l0,-16l-24,0l0,4l-8,0l0,-4l-24,0Zm32,24l0,4l-8,0l0,-4l8,0Z" style="fill:#d1d6da;" />
      </g>
    </g>
  </g>
  <metadata>
    <rdf:RDF>
      <cc:Work rdf:about="">
        <cc:License rdf:resource="http://creativecommons.org/licenses/by-sa/4.0/" />
        <dc:right>
          <cc:Agent>
            <dc:title>CC-BY-SA 4.0 Jugend Hackt</dc:title>
          </cc:Agent>
        </dc:right>
        <dc:title>
          <cc:Agent>
            <dc:title>Pixelhack</dc:title>
          </cc:Agent>
        </dc:title>
        <dc:contributor>
          <cc:Agent>
            <dc:title>Hanno Sternberg</dc:title>
          </cc:Agent>
        </dc:contributor>
        <dc:creator>
          <cc:Agent>
            <dc:title>Jugend Hackt</dc:title>
          </cc:Agent>
        </dc:creator>
        <dc:date>
          <cc:Agent>
            <dc:title>2013</dc:title>
          </cc:Agent>
        </dc:date>
      </cc:Work>
      <cc:License rdf:about="http://creativecommons.org/licenses/by-sa/4.0/">
        <cc:permits rdf:resource="http://creativecommons.org/ns#DerivativeWorks" />
        <cc:requires rdf:resource="http://creativecommons.org/ns#ShareAlike" />
      </cc:License>
    </rdf:RDF>
  </metadata>
</svg>