<?xml version="1.0" encoding="UTF-8" standalone="no"?>
<!DOCTYPE svg PUBLIC "-//W3C//DTD SVG 1.1//EN" "http://www.w3.org/Graphics/SVG/1.1/DTD/svg11.dtd">
<svg xmlns="http://www.w3.org/2000/svg" xmlns:serif="http://www.serif.com/" width="100%" height="100%" viewBox="0 0 128 64" version="1.1" xml:space="preserve" style="fill-rule:evenodd;clip-rule:evenodd;stroke-linejoin:round;stroke-miterlimit:2;" xmlns:rdf="http://www.w3.org/1999/02/22-rdf-syntax-ns" xmlns:cc="http://creativecommons.org/ns" xmlns:dc="http://purl.org/dc/elements/1.1/">
  <g id="Resistors">
    <g id="Resistor--Pride-" serif:id="Resistor (Pride)">
      <g>
        <path d="M28,36l-2,0l0,-10l2,0l0,-6l2,0l0,-2l2,0l0,-2l2,0l0,-2l8,0l0,2l46,0l0,-2l10,0l0,2l2,0l0,2l2,0l0,2l2,0l0,6l2,0l0,10l-2,0l0,6l-2,0l0,2l-2,0l0,2l-2,0l0,2l-10,0l0,-2l-46,0l0,2l-8,0l0,-2l-2,0l0,-2l-2,0l0,-2l-2,0l0,-6Z" style="fill:#e1bb95;" />
        <path d="M32,20l0,2l-4,0l0,-2l2,0l0,-2l2,0l0,-2l2,0l0,-2l8,0l0,2l46,0l0,-2l10,0l0,2l2,0l0,2l2,0l0,2l2,0l0,2l-10,0l0,-2l-48,0l0,2l-8,0l0,-2l-6,0Z" style="fill:#f9dbb9;" />
        <path d="M34,46l-2,0l0,-2l4,0l0,-2l2,0l0,-2l2,0l0,-2l2,0l0,-2l62,0l0,6l-2,0l0,2l-2,0l0,2l-2,0l0,2l-10,0l0,-2l-46,0l0,2l-8,0l0,-2Zm70,-10l0,-2l2,0l0,2l-2,0Z" style="fill:#bf8e67;" />
      </g>
      <path d="M22,40l0,16l-4,0l0,-20l2,0l0,-4l4,0l0,-2l10,0l0,-2l4,0l0,8l-4,0l0,-2l-6,0l0,2l-4,0l0,4l-2,0Zm88,-6l-4,0l0,-4l8,0l0,2l4,0l0,4l2,0l0,20l-4,0l0,-16l-2,0l0,-4l-4,0l0,-2Z" style="fill:#52575b;" />
      <g>
        <g>
          <path d="M42,46l0,2l-6,0l0,-2l2,0l-0,-2l2,0l0,-2l2,0l0,-4l2,0l0,-2l6,0l0,2l-2,0l0,4l-2,0l0,2l-2,0l0,2l-2,0Z" style="fill:#e52320;" />
          <path d="M38,16l-2,-0l-0,-2l6,0l-0,2l2,-0l0,2l2,0l0,2l2,0l-0,4l2,0l0,12l-6,0l0,-12l-2,0l-0,-4l-2,0l0,-2l-2,0l0,-2Z" style="fill:#e6414a;" />
        </g>
        <g>
          <path d="M94,46l0,2l-6,0l0,-2l2,0l-0,-2l2,0l0,-2l2,0l0,-4l2,0l0,-2l6,0l0,2l-2,0l0,4l-2,0l0,2l-2,0l0,2l-2,0Z" style="fill:#550080;" />
          <path d="M90,16l-2,-0l-0,-2l6,0l-0,2l2,-0l0,2l2,0l0,2l2,0l-0,4l2,0l0,12l-6,0l0,-12l-2,0l-0,-4l-2,0l0,-2l-2,0l0,-2Z" style="fill:#8000ff;" />
        </g>
        <g>
          <path d="M54,44l0,2l-6,0l0,-2l2,0l0,-2l2,0l0,-4l2,0l0,-2l6,0l0,2l-2,0l0,4l-2,0l0,2l-2,0Z" style="fill:#ea680d;" />
          <path d="M50,18l-2,0l0,-2l6,0l0,2l2,0l0,2l2,0l0,4l2,0l0,12l-6,0l0,-12l-2,0l0,-4l-2,0l0,-2Z" style="fill:#f3971a;" />
        </g>
        <g>
          <path d="M64,44l0,2l-6,0l0,-2l2,0l0,-2l2,0l0,-4l2,0l0,-2l6,0l0,2l-2,0l0,4l-2,0l0,2l-2,0Z" style="fill:#fcd009;" />
          <path d="M60,18l-2,0l0,-2l6,0l0,2l2,0l0,2l2,0l0,4l2,0l0,12l-6,0l0,-12l-2,0l0,-4l-2,0l0,-2Z" style="fill:#fbe50f;" />
        </g>
        <g>
          <path d="M74,44l0,2l-6,0l0,-2l2,0l0,-2l2,0l0,-4l2,0l0,-2l6,0l0,2l-2,0l0,4l-2,0l0,2l-2,0Z" style="fill:#09aa24;" />
          <path d="M70,18l-2,0l0,-2l6,0l0,2l2,0l0,2l2,0l0,4l2,0l0,12l-6,0l0,-12l-2,0l0,-4l-2,0l0,-2Z" style="fill:#29e400;" />
        </g>
        <g>
          <path d="M84,44l0,2l-6,0l0,-2l2,0l0,-2l2,0l0,-4l2,0l0,-2l6,0l0,2l-2,0l0,4l-2,0l0,2l-2,0Z" style="fill:#10498c;" />
          <path d="M80,18l-2,0l0,-2l6,0l0,2l2,0l0,2l2,0l0,4l2,0l0,12l-6,0l0,-12l-2,0l0,-4l-2,0l0,-2Z" style="fill:#16a6de;" />
        </g>
      </g>
    </g>
  </g>
  <g id="Creatures">
    <g id="Wrestlers">
      <g>
        <path d="M132,24l-4,0l0,-60l4,0l0,-4l4,0l0,-4l4,0l0,-4l4,0l0,-4l32,0l0,4l4,0l0,4l4,0l0,4l4,0l0,4l4,0l0,60l-4,0l0,4l-4,0l0,4l-8,0l0,8l-4,0l0,4l-24,0l0,-4l-4,0l0,-8l-8,0l0,-4l-4,0l0,-4Zm0,-48l0,16l4,0l0,4l4,0l0,4l12,0l0,8l-8,0l0,16l32,0l0,-16l-8,0l0,-8l12,0l0,-4l4,0l0,-4l4,0l0,-16l-24,0l0,4l-8,0l0,-4l-24,0Zm32,24l0,4l-8,0l0,-4l8,0Z" style="fill:#52575b;" />
      </g>
    </g>
  </g>
  <metadata>
    <rdf:RDF>
      <cc:Work rdf:about="">
        <cc:License rdf:resource="http://creativecommons.org/licenses/by-sa/4.0/" />
        <dc:right>
          <cc:Agent>
            <dc:title>CC-BY-SA 4.0 Jugend Hackt</dc:title>
          </cc:Agent>
        </dc:right>
        <dc:title>
          <cc:Agent>
            <dc:title>Pixelhack</dc:title>
          </cc:Agent>
        </dc:title>
        <dc:contributor>
          <cc:Agent>
            <dc:title>Hanno Sternberg</dc:title>
          </cc:Agent>
        </dc:contributor>
        <dc:creator>
          <cc:Agent>
            <dc:title>Jugend Hackt</dc:title>
          </cc:Agent>
        </dc:creator>
        <dc:date>
          <cc:Agent>
            <dc:title>2013</dc:title>
          </cc:Agent>
        </dc:date>
      </cc:Work>
      <cc:License rdf:about="http://creativecommons.org/licenses/by-sa/4.0/">
        <cc:permits rdf:resource="http://creativecommons.org/ns#DerivativeWorks" />
        <cc:requires rdf:resource="http://creativecommons.org/ns#ShareAlike" />
      </cc:License>
    </rdf:RDF>
  </metadata>
</svg>