<?xml version="1.0" encoding="UTF-8" standalone="no"?>
<!DOCTYPE svg PUBLIC "-//W3C//DTD SVG 1.1//EN" "http://www.w3.org/Graphics/SVG/1.1/DTD/svg11.dtd">
<svg xmlns="http://www.w3.org/2000/svg" width="100%" height="100%" viewBox="0 0 128 64" version="1.1" xml:space="preserve" style="fill-rule:evenodd;clip-rule:evenodd;stroke-linejoin:round;stroke-miterlimit:2;" xmlns:rdf="http://www.w3.org/1999/02/22-rdf-syntax-ns" xmlns:cc="http://creativecommons.org/ns" xmlns:dc="http://purl.org/dc/elements/1.1/">
  <g id="Rotor">
    <path d="M62,34l-4,0l0,-4l4,0l0,-14l4,0l0,12l-2,0l0,28l-2,0l0,-4l-4,0l0,-4l4,0l0,-14Zm4,-28l0,8l-4,0l0,-8l4,0Zm-24,24l0,22l-2,0l0,-22l2,0Zm4,0l0,2l-2,0l0,-2l2,0Zm4,0l0,2l-2,0l0,-2l2,0Zm4,0l0,22l-2,0l0,-22l2,0Zm-8,20l0,2l-2,0l0,-2l2,0Zm4,0l0,2l-2,0l0,-2l2,0Z" style="fill:#52575b;" />
    <g>
      <path d="M92,8l0,2l-10,0l0,-2l10,0Zm0,0l0,-2l22,0l0,2l-22,0Zm-32,2l0,-2l2,0l0,2l-2,0Zm0,0l0,2l-6,0l0,-2l6,0Zm-52,6l0,-4l6,0l0,2l-4,0l0,2l-2,0Zm6,-4l0,-2l8,0l0,2l-8,0Z" style="fill:#e6414a;" />
      <path d="M14,16l-4,0l0,-2l4,0l0,-2l8,0l0,-2l32,0l0,2l6,0l0,-2l2,0l0,4l4,0l0,-6l4,0l0,2l22,0l0,-2l28,0l0,4l-6,0l0,2l-46,0l0,2l-10,0l0,-2l-14,0l0,2l-10,0l0,2l-20,0l0,-2Z" style="fill:#e52320;" />
    </g>
    <path d="M38,24l0,2l-2,0l0,-2l2,0Zm0,0l0,-2l2,0l0,2l-2,0Zm2,-2l0,-2l4,0l0,2l-4,0Zm4,-2l0,-2l8,0l0,2l-8,0Zm8,-2l0,-2l10,0l0,2l-10,0Zm36,4l2,0l0,2l-2,0l0,-2Zm-4,-2l4,0l0,2l-4,0l0,-2Zm-8,-2l8,0l0,2l-8,0l0,-2Zm0,0l-10,0l0,-2l10,0l0,2Zm-22,12l-16,0l0,-2l18,0l0,8l2,0l0,10l-2,0l0,8l-18,0l0,-2l16,0l0,-22Zm-8,2l0,18l-2,0l0,-18l2,0Zm4,0l0,18l-2,0l0,-18l2,0Z" />
    <path d="M58,26l-20,0l0,-2l2,0l0,-2l4,0l0,-2l8,0l0,-2l10,0l0,4l-2,0l0,2l-2,0l0,2Zm18,8l-12,0l0,-4l4,0l0,-2l2,0l0,-4l-2,0l0,-2l-2,0l0,-4l10,0l0,2l8,0l0,2l4,0l0,2l2,0l0,4l-2,0l0,2l-4,0l0,2l-8,0l0,2Z" style="fill:#550080;" />
    <path d="M60,24l0,-2l2,0l0,2l-2,0Zm0,0l0,2l-2,0l0,-2l2,0Zm8,0l2,0l0,4l-2,0l0,-4Zm0,0l-2,0l0,-2l2,0l0,2Zm0,4l0,2l-2,0l0,-2l2,0Zm8,32l0,2l-12,0l0,-26l12,0l0,-2l8,0l0,-2l4,0l0,-2l2,0l0,-2l2,0l0,26l-2,0l0,2l-2,0l0,2l-4,0l0,2l-8,0Z" style="fill:#8000ff;" />
    <path d="M66,28l0,2l-2,0l0,-2l2,0Zm0,0l0,-4l2,0l0,4l-2,0Zm-4,-4l0,2l-2,0l0,-2l2,0Zm0,10l0,14l-2,0l0,-14l2,0Z" style="fill:#09aa24;" />
    <path d="M90,28l0,-4l2,0l0,4l-2,0Zm-6,4l0,-2l4,0l0,2l-4,0Zm-8,2l0,-2l8,0l0,2l-8,0Zm12,-4l0,-2l2,0l0,2l-2,0Zm-12,4l0,2l-12,0l0,-2l12,0Zm14,22l0,-2l2,0l0,2l-2,0Zm-14,6l0,2l-12,0l0,-2l12,0Zm12,-4l0,-2l2,0l0,2l-2,0Zm-4,2l0,-2l4,0l0,2l-4,0Zm-8,2l0,-2l8,0l0,2l-8,0Z" style="fill:#16a6de;" />
    <path d="M36,56l0,-30l24,0l0,2l-22,0l0,26l22,0l0,2l-24,0Z" style="fill:#10498c;" />
    <path d="M56,36l0,-8l4,0l0,-2l2,0l0,4l-4,0l0,4l2,0l0,14l-2,0l0,4l4,0l0,4l-2,0l0,-2l-4,0l0,-8l2,0l0,-10l-2,0Z" style="fill:#00b48d;" />
    <path d="M40,30l0,2l-2,0l0,-2l2,0Zm0,4l0,2l-2,0l0,-2l2,0Zm0,4l0,2l-2,0l0,-2l2,0Zm0,4l0,2l-2,0l0,-2l2,0Zm0,4l0,2l-2,0l0,-2l2,0Zm0,4l0,2l-2,0l0,-2l2,0Z" style="fill:#d1d6da;" />
    <path d="M44,30l0,22l-2,0l0,-22l2,0Zm4,0l0,22l-2,0l0,-22l2,0Zm4,0l0,22l-2,0l0,-22l2,0Z" style="fill:#f3971b;" />
    <path d="M40,32l0,2l-2,0l0,-2l2,0Zm0,4l0,2l-2,0l0,-2l2,0Zm0,4l0,2l-2,0l0,-2l2,0Zm0,4l0,2l-2,0l0,-2l2,0Zm0,4l0,2l-2,0l0,-2l2,0Z" style="fill:#fff;" />
  </g>
  <metadata>
    <rdf:RDF>
      <cc:Work rdf:about="">
        <cc:License rdf:resource="http://creativecommons.org/licenses/by-sa/4.0/" />
        <dc:right>
          <cc:Agent>
            <dc:title>CC-BY-SA 4.0 Jugend Hackt</dc:title>
          </cc:Agent>
        </dc:right>
        <dc:title>
          <cc:Agent>
            <dc:title>Pixelhack</dc:title>
          </cc:Agent>
        </dc:title>
        <dc:contributor>
          <cc:Agent>
            <dc:title>Hanno Sternberg</dc:title>
          </cc:Agent>
        </dc:contributor>
        <dc:creator>
          <cc:Agent>
            <dc:title>Jugend Hackt</dc:title>
          </cc:Agent>
        </dc:creator>
        <dc:date>
          <cc:Agent>
            <dc:title>2013</dc:title>
          </cc:Agent>
        </dc:date>
      </cc:Work>
      <cc:License rdf:about="http://creativecommons.org/licenses/by-sa/4.0/">
        <cc:permits rdf:resource="http://creativecommons.org/ns#DerivativeWorks" />
        <cc:requires rdf:resource="http://creativecommons.org/ns#ShareAlike" />
      </cc:License>
    </rdf:RDF>
  </metadata>
</svg>