<?xml version="1.0" encoding="UTF-8" standalone="no"?>
<!DOCTYPE svg PUBLIC "-//W3C//DTD SVG 1.1//EN" "http://www.w3.org/Graphics/SVG/1.1/DTD/svg11.dtd">
<svg xmlns="http://www.w3.org/2000/svg" xmlns:serif="http://www.serif.com/" width="100%" height="100%" viewBox="0 0 64 64" version="1.1" xml:space="preserve" style="fill-rule:evenodd;clip-rule:evenodd;stroke-linejoin:round;stroke-miterlimit:2;" xmlns:rdf="http://www.w3.org/1999/02/22-rdf-syntax-ns" xmlns:cc="http://creativecommons.org/ns" xmlns:dc="http://purl.org/dc/elements/1.1/">
  <g id="Colorful-Objekts" serif:id="Colorful Objekts">
    <g id="Safety-Vest" serif:id="Safety Vest">
      <g>
        <path d="M16,42l-12,0l0,-20l2,0l0,-4l2,0l0,-4l2,0l0,-4l2,0l0,-6l2,0l0,-2l2,0l0,40Zm14,0l-10,0l0,-40l2,0l0,4l2,0l0,6l2,0l0,6l2,0l0,4l2,0l0,20Zm14,0l-10,0l0,-20l2,0l0,-4l2,0l0,-6l2,0l0,-6l2,0l0,-4l2,0l0,40Zm16,0l-12,0l0,-40l2,0l0,2l2,0l0,6l2,0l0,4l2,0l0,4l2,0l0,4l2,0l0,20Zm-54,12l-2,0l0,-8l26,0l0,10l-2,0l0,2l-20,0l0,-2l-2,0l0,-2Zm28,2l0,-10l26,0l0,8l-2,0l0,2l-2,0l0,2l-20,0l0,-2l-2,0Z" style="fill:#e6414a;" />
        <path d="M30,46l-26,0l0,-4l12,0l0,-40l4,0l0,40l10,0l0,4Zm30,0l-26,0l0,-4l10,0l0,-40l4,0l0,40l12,0l0,4Z" style="fill:#d1d6da;" />
        <path d="M24,6l-2,0l0,-4l20,0l0,4l-2,0l0,6l-2,0l0,6l-2,0l0,4l-2,0l0,34l-4,0l0,-34l-2,0l0,-4l-2,0l0,-6l-2,0l0,-6Z" style="fill:#ff3b8d;" />
      </g>
    </g>
  </g>
  <metadata>
    <rdf:RDF>
      <cc:Work rdf:about="">
        <cc:License rdf:resource="http://creativecommons.org/licenses/by-sa/4.0/" />
        <dc:right>
          <cc:Agent>
            <dc:title>CC-BY-SA 4.0 Jugend Hackt</dc:title>
          </cc:Agent>
        </dc:right>
        <dc:title>
          <cc:Agent>
            <dc:title>Pixelhack</dc:title>
          </cc:Agent>
        </dc:title>
        <dc:contributor>
          <cc:Agent>
            <dc:title>Hanno Sternberg</dc:title>
          </cc:Agent>
        </dc:contributor>
        <dc:creator>
          <cc:Agent>
            <dc:title>Jugend Hackt</dc:title>
          </cc:Agent>
        </dc:creator>
        <dc:date>
          <cc:Agent>
            <dc:title>2013</dc:title>
          </cc:Agent>
        </dc:date>
      </cc:Work>
      <cc:License rdf:about="http://creativecommons.org/licenses/by-sa/4.0/">
        <cc:permits rdf:resource="http://creativecommons.org/ns#DerivativeWorks" />
        <cc:requires rdf:resource="http://creativecommons.org/ns#ShareAlike" />
      </cc:License>
    </rdf:RDF>
  </metadata>
</svg>