<?xml version="1.0" encoding="UTF-8" standalone="no"?>
<!DOCTYPE svg PUBLIC "-//W3C//DTD SVG 1.1//EN" "http://www.w3.org/Graphics/SVG/1.1/DTD/svg11.dtd">
<svg xmlns="http://www.w3.org/2000/svg" width="100%" height="100%" viewBox="0 0 64 64" version="1.1" xml:space="preserve" style="fill-rule:evenodd;clip-rule:evenodd;stroke-linejoin:round;stroke-miterlimit:2;" xmlns:rdf="http://www.w3.org/1999/02/22-rdf-syntax-ns" xmlns:cc="http://creativecommons.org/ns" xmlns:dc="http://purl.org/dc/elements/1.1/">
  <g>
    <path d="M26,6l0,-2l6,0l0,2l-6,0Zm0,0l0,2l-2,0l0,-2l2,0Zm6,0l6,0l0,2l2,0l0,4l-2,0l0,2l-6,0l0,-8Zm26,44l-2,0l0,-6l2,0l0,6Zm2,4l-2,0l0,-4l2,0l0,4Zm-2,4l0,2l-26,0l0,-2l26,0Zm0,0l0,-2l2,0l0,-2l2,0l0,4l-4,0Zm-4,-18l-2,0l0,-4l-4,0l0,-2l6,0l0,6Zm2,4l-2,0l0,-4l2,0l0,4Z" style="fill:#5d473d;" />
    <path d="M40,8l2,0l0,4l-2,0l0,-4Zm2,4l2,0l0,8l-4,0l0,-2l2,0l0,-6Zm-2,0l0,2l-2,0l0,-2l2,0Zm-2,-6l-6,0l0,-2l6,0l0,2Zm2,14l0,2l-4,0l0,-2l4,0Zm-2,-14l2,0l0,2l-2,0l0,-2Z" style="fill:#52575b;" />
    <path d="M26,12l-2,0l0,-4l2,0l0,-2l6,0l0,8l-6,0l0,-2Zm6,2l6,0l0,2l-6,0l0,-2Zm18,36l0,2l-2,0l0,-2l2,0Zm-10,-14l0,2l-4,0l0,-2l4,0Zm2,8l0,2l-4,0l0,-2l4,0Zm-4,-16l0,2l-6,0l0,-2l6,0Zm8,14l0,2l-4,0l0,-2l4,0Zm2,10l0,2l-8,0l0,-2l8,0Zm-4,-18l0,2l-4,0l0,-2l4,0Zm-2,-8l0,-2l2,0l0,-4l2,0l0,8l2,0l0,8l-2,0l0,-2l-2,0l0,-2l2,0l0,-2l-2,0l0,-4l-2,0Zm-6,12l0,2l-4,0l0,-2l4,0Zm2,8l0,2l-6,0l0,-2l6,0Zm12,0l2,0l0,4l-2,0l0,-4Zm-12,-18l0,-2l4,0l0,2l-4,0Zm2,26l0,2l-8,0l0,-2l8,0Zm8,-18l2,0l0,10l-2,0l0,-4l-2,0l0,-2l2,0l0,-4Zm-12,-14l0,2l-4,0l0,-2l4,0Z" style="fill:#a0673e;" />
    <path d="M4,58l-2,0l0,-4l2,0l0,4Zm0,-4l0,-4l2,0l0,4l-2,0Zm2,-4l0,-6l2,0l0,6l-2,0Zm2,-6l0,-4l2,0l0,4l-2,0Zm2,-4l0,-4l2,0l0,4l-2,0Zm2,-4l0,-2l4,0l0,-6l2,0l0,-8l2,0l0,4l2,0l0,2l-2,0l0,4l-2,0l0,2l2,0l0,2l-2,0l0,2l-2,0l0,4l2,0l0,2l-2,0l0,4l-2,0l0,-10l-2,0Zm10,-10l4,0l0,2l-4,0l0,-2Zm4,2l6,0l0,2l-6,0l0,-2Zm6,2l6,0l0,-2l4,0l0,-2l2,0l0,4l2,0l0,2l-2,0l0,2l-4,0l0,2l-4,0l0,2l-4,0l0,-8Zm0,8l0,2l-4,0l0,-2l4,0Zm-4,0l-4,0l0,-2l4,0l0,2Zm-4,-2l-4,0l0,-2l4,0l0,2Zm-6,6l4,0l0,2l-4,0l0,-2Zm4,2l4,0l0,2l-4,0l0,-2Zm4,2l6,0l0,2l-6,0l0,-2Zm6,2l6,0l0,-2l4,0l0,-2l4,0l0,-2l2,0l0,4l2,0l0,4l-2,0l0,2l-8,0l0,2l-8,0l0,-6Zm18,-2l0,-10l2,0l0,4l2,0l0,4l2,0l0,6l2,0l0,4l2,0l0,2l-2,0l0,2l-26,0l0,-2l8,0l0,-2l8,0l0,-2l2,0l0,-2l2,0l0,-4l-2,0Zm-18,12l0,2l-28,0l0,-2l28,0Zm0,-2l-8,0l0,-2l8,0l0,2Zm-8,-2l-8,0l0,-2l8,0l0,2Zm-8,-2l-2,0l0,-2l2,0l0,2Zm-2,-2l-2,0l0,-4l2,0l0,4Zm6,-30l0,-8l2,0l0,6l2,0l0,2l-4,0Zm2,-8l0,-4l2,0l0,4l-2,0Zm2,0l2,0l0,2l-2,0l0,-2Zm2,2l6,0l0,2l-6,0l0,-2Zm6,2l6,0l0,-2l2,0l0,-2l2,0l0,6l-2,0l0,2l-4,0l0,2l-4,0l0,-6Zm0,6l0,2l-4,0l0,-2l4,0Zm-4,0l-4,0l0,-2l4,0l0,2Z" style="fill:#ea680d;" />
    <path d="M24,18l-2,0l0,-6l2,0l0,2l2,0l0,2l6,0l0,6l-4,0l0,-2l-4,0l0,-2Zm-4,14l-2,0l0,-2l2,0l0,-4l2,0l0,2l4,0l0,2l6,0l0,8l-4,0l0,-2l-4,0l0,-2l-4,0l0,-2Zm12,26l-28,0l0,-4l2,0l0,-4l2,0l0,-6l2,0l0,-4l2,0l0,-4l2,0l0,10l-2,0l0,4l2,0l0,2l2,0l0,2l8,0l0,2l8,0l0,2Zm-18,-12l2,0l0,-4l2,0l0,2l4,0l0,2l4,0l0,2l6,0l0,6l-8,0l0,-2l-8,0l0,-2l-2,0l0,-4Z" style="fill:#f3971b;" />
    <path d="M22,24l-2,0l0,-4l4,0l0,2l4,0l0,2l4,0l0,4l-6,0l0,-2l-4,0l0,-2Zm-4,16l-2,0l0,-4l2,0l0,-2l2,0l0,2l4,0l0,2l4,0l0,2l4,0l0,6l-6,0l0,-2l-4,0l0,-2l-4,0l0,-2Z" style="fill:#fff;" />
    <path d="M38,28l-6,0l0,-4l4,0l0,-2l4,0l0,-2l4,0l0,4l-2,0l0,2l-4,0l0,2Zm0,18l-6,0l0,-6l4,0l0,-2l4,0l0,-2l4,0l0,-2l2,0l0,2l2,0l0,4l-2,0l0,2l-4,0l0,2l-4,0l0,2Z" style="fill:#d1d6da;" />
  </g>
  <metadata>
    <rdf:RDF>
      <cc:Work rdf:about="">
        <cc:License rdf:resource="http://creativecommons.org/licenses/by-sa/4.0/" />
        <dc:right>
          <cc:Agent>
            <dc:title>CC-BY-SA 4.0 Jugend Hackt</dc:title>
          </cc:Agent>
        </dc:right>
        <dc:title>
          <cc:Agent>
            <dc:title>Pixelhack</dc:title>
          </cc:Agent>
        </dc:title>
        <dc:contributor>
          <cc:Agent>
            <dc:title>Hanno Sternberg</dc:title>
          </cc:Agent>
        </dc:contributor>
        <dc:creator>
          <cc:Agent>
            <dc:title>Jugend Hackt</dc:title>
          </cc:Agent>
        </dc:creator>
        <dc:date>
          <cc:Agent>
            <dc:title>2013</dc:title>
          </cc:Agent>
        </dc:date>
      </cc:Work>
      <cc:License rdf:about="http://creativecommons.org/licenses/by-sa/4.0/">
        <cc:permits rdf:resource="http://creativecommons.org/ns#DerivativeWorks" />
        <cc:requires rdf:resource="http://creativecommons.org/ns#ShareAlike" />
      </cc:License>
    </rdf:RDF>
  </metadata>
</svg>