<?xml version="1.0" encoding="UTF-8" standalone="no"?>
<!DOCTYPE svg PUBLIC "-//W3C//DTD SVG 1.1//EN" "http://www.w3.org/Graphics/SVG/1.1/DTD/svg11.dtd">
<svg xmlns="http://www.w3.org/2000/svg" xmlns:serif="http://www.serif.com/" width="100%" height="100%" viewBox="0 0 64 64" version="1.1" xml:space="preserve" style="fill-rule:evenodd;clip-rule:evenodd;stroke-linejoin:round;stroke-miterlimit:2;" xmlns:rdf="http://www.w3.org/1999/02/22-rdf-syntax-ns" xmlns:cc="http://creativecommons.org/ns" xmlns:dc="http://purl.org/dc/elements/1.1/">
  <g id="Colorful-Objekts" serif:id="Colorful Objekts">
    <g id="Skateboards">
      <g>
        <path d="M6,56l-2,0l0,-10l2,0l0,-2l4,0l0,-2l2,0l0,-2l2,0l0,-2l2,0l0,-2l2,0l0,-2l2,0l0,-2l2,0l0,-2l2,0l0,-2l2,0l0,-2l2,0l0,-2l2,0l0,-2l2,0l0,-2l2,0l0,-2l2,0l0,-2l2,0l0,-2l2,0l0,-4l2,0l0,-2l4,0l0,-2l4,0l0,2l4,0l0,4l2,0l0,10l-2,0l0,4l-2,0l0,2l-2,0l0,4l-2,0l0,2l-2,0l0,2l-2,0l0,2l-2,0l0,2l-2,0l0,2l-2,0l0,2l-2,0l0,2l-2,0l0,2l-2,0l0,2l-2,0l0,2l-2,0l0,2l-2,0l0,2l-2,0l0,2l-4,0l0,2l-12,0l0,-2l-2,0l0,-2Zm44,-24l2,0l0,6l-6,0l0,-2l2,0l0,-2l2,0l0,-2Zm-20,20l2,0l0,6l-6,0l0,-2l2,0l0,-2l2,0l0,-2Zm-16,-10l0,2l2,0l0,-2l-2,0Zm4,-4l0,2l2,0l0,-2l-2,0Zm4,10l-2,0l0,2l2,0l0,-2Zm2,-4l0,2l2,0l0,-2l-2,0Zm10,-22l0,2l2,0l0,-2l-2,0Zm4,-4l0,2l2,0l0,-2l-2,0Zm4,10l-2,0l0,2l2,0l0,-2Zm4,-4l-2,0l0,2l2,0l0,-2Z" style="fill:#ff3b8d;" />
        <path d="M56,12l-2,0l0,-2l2,0l0,2Zm-10,24l0,-2l2,0l0,2l-2,0Zm-40,22l-2,0l0,-2l2,0l0,2Zm32,-14l0,-2l2,0l0,2l-2,0Zm-8,8l0,-2l2,0l0,2l-2,0Zm-2,2l0,-2l2,0l0,2l-2,0Zm28,-32l0,-10l2,0l0,10l-2,0Zm-14,18l0,-2l2,0l0,2l-2,0Zm6,-6l0,-2l2,0l0,2l-2,0Zm-14,14l0,-2l2,0l0,2l-2,0Zm16,-16l0,-4l2,0l0,-2l2,0l0,-4l2,0l0,6l-2,0l0,2l-2,0l0,2l-2,0Zm-10,10l0,-2l2,0l0,2l-2,0Zm-14,14l0,-2l2,0l0,2l-2,0Zm-6,4l0,-2l4,0l0,2l-4,0Zm4,-2l0,-2l2,0l0,2l-2,0Zm8,-8l0,-2l2,0l0,2l-2,0Zm12,-12l0,-2l2,0l0,2l-2,0Zm-38,20l2,0l0,2l-2,0l0,-2Zm30,-12l0,-2l2,0l0,2l-2,0Zm-28,14l12,0l0,2l-12,0l0,-2Z" style="fill:#bf8e67;" />
        <path d="M40,18l0,2l-2,0l0,-2l2,0Zm-4,4l0,2l-2,0l0,-2l2,0Zm10,2l0,2l-2,0l0,-2l2,0Zm-4,4l0,2l-2,0l0,-2l2,0Zm-22,10l0,2l-2,0l0,-2l2,0Zm-4,4l0,2l-2,0l0,-2l2,0Zm10,2l0,2l-2,0l0,-2l2,0Zm-4,4l0,2l-2,0l0,-2l2,0Z" style="fill:#10498c;" />
      </g>
    </g>
  </g>
  <metadata>
    <rdf:RDF>
      <cc:Work rdf:about="">
        <cc:License rdf:resource="http://creativecommons.org/licenses/by-sa/4.0/" />
        <dc:right>
          <cc:Agent>
            <dc:title>CC-BY-SA 4.0 Jugend Hackt</dc:title>
          </cc:Agent>
        </dc:right>
        <dc:title>
          <cc:Agent>
            <dc:title>Pixelhack</dc:title>
          </cc:Agent>
        </dc:title>
        <dc:contributor>
          <cc:Agent>
            <dc:title>Hanno Sternberg</dc:title>
          </cc:Agent>
        </dc:contributor>
        <dc:creator>
          <cc:Agent>
            <dc:title>Jugend Hackt</dc:title>
          </cc:Agent>
        </dc:creator>
        <dc:date>
          <cc:Agent>
            <dc:title>2013</dc:title>
          </cc:Agent>
        </dc:date>
      </cc:Work>
      <cc:License rdf:about="http://creativecommons.org/licenses/by-sa/4.0/">
        <cc:permits rdf:resource="http://creativecommons.org/ns#DerivativeWorks" />
        <cc:requires rdf:resource="http://creativecommons.org/ns#ShareAlike" />
      </cc:License>
    </rdf:RDF>
  </metadata>
</svg>