<?xml version="1.0" encoding="UTF-8" standalone="no"?>
<!DOCTYPE svg PUBLIC "-//W3C//DTD SVG 1.1//EN" "http://www.w3.org/Graphics/SVG/1.1/DTD/svg11.dtd">
<svg xmlns="http://www.w3.org/2000/svg" xmlns:serif="http://www.serif.com/" width="100%" height="100%" viewBox="0 0 64 64" version="1.1" xml:space="preserve" style="fill-rule:evenodd;clip-rule:evenodd;stroke-linejoin:round;stroke-miterlimit:2;" xmlns:rdf="http://www.w3.org/1999/02/22-rdf-syntax-ns" xmlns:cc="http://creativecommons.org/ns" xmlns:dc="http://purl.org/dc/elements/1.1/">
  <g id="Colorful-Objekts" serif:id="Colorful Objekts">
    <g id="Suitcases">
      <g>
        <g>
          <g>
            <path d="M4,58l-2,0l0,-34l2,0l0,-2l2,0l0,-2l6,0l0,4l-6,0l0,34l6,0l0,4l-6,0l0,-2l-2,0l0,-2Zm54,-34l-6,0l0,-4l6,0l0,2l2,0l0,2l2,0l0,34l-2,0l0,2l-2,0l0,2l-6,0l0,-4l6,0l0,-34Zm-10,-4l0,4l-32,0l0,-4l32,0Zm0,38l0,4l-32,0l0,-4l32,0Z" style="fill:#fcd009;" />
            <rect x="6" y="24" width="52" height="34" style="fill:#fbe50f;" />
          </g>
          <g>
            <path d="M24,16l0,4l-2,0l0,-6l2,0l0,-2l2,0l0,-2l12,0l0,2l2,0l0,2l2,0l0,6l-4,0l0,-4l-2,0l0,-2l-10,0l0,2l-2,0Z" style="fill:#a0673e;" />
            <path d="M26,16l0,-2l2,0l0,2l-2,0Zm0,0l0,4l-2,0l0,-4l2,0Z" style="fill:#5d473d;" />
          </g>
          <g>
            <path d="M16,20l0,10l-4,0l0,-10l4,0Zm0,16l0,26l-4,0l0,-26l4,0Z" style="fill:#5d473d;" />
            <path d="M16,32l2,0l0,4l-2,0l0,-4Zm-4,0l0,-2l4,0l0,2l-4,0Zm0,0l0,4l-2,0l0,-4l2,0Z" style="fill:#52575b;" />
            <rect x="12" y="32" width="4" height="4" style="fill:#fbe50f;" />
          </g>
          <g>
            <path d="M52,20l0,10l-4,0l0,-10l4,0Zm0,16l0,26l-4,0l0,-26l4,0Z" style="fill:#5d473d;" />
            <path d="M48,32l0,4l-2,0l0,-4l2,0Zm0,0l0,-2l4,0l0,2l-4,0Zm4,0l2,0l0,4l-2,0l0,-4Z" style="fill:#52575b;" />
            <rect x="48" y="32" width="4" height="4" style="fill:#fbe50f;" />
          </g>
        </g>
        <g>
          <path d="M30,40l-2,0l0,-12l2,0l0,-2l2,0l0,2l2,0l0,2l4,0l0,-2l2,0l0,-2l2,0l0,2l2,0l0,12l-2,0l0,2l-4,0l0,-2l2,0l0,-2l2,0l0,-4l-2,0l0,-2l-8,0l0,2l-2,0l0,4l2,0l0,2l2,0l0,2l-4,0l0,-2Zm8,2l0,2l-4,0l0,-2l4,0Zm-4,-2l0,-2l4,0l0,2l-4,0Zm6,-6l0,2l-2,0l0,-2l2,0Zm-8,0l2,0l0,2l-2,0l0,-2Z" style="fill:#550080;" />
          <path d="M34,40l-2,0l0,-2l-2,0l0,-4l2,0l0,2l2,0l0,-2l-2,0l0,-2l8,0l0,2l-2,0l0,2l2,0l0,-2l2,0l0,4l-2,0l0,2l-2,0l0,-2l-4,0l0,2Zm4,0l0,2l-4,0l0,-2l4,0Z" style="fill:#8000ff;" />
        </g>
        <path d="M22,52l-2,0l0,-2l2,0l0,-2l2,0l0,-2l2,0l0,-2l2,0l0,2l2,0l0,2l2,0l0,2l-2,0l0,2l-2,0l0,2l-2,0l0,2l-2,0l0,-2l-2,0l0,-2Z" style="fill:#8000ff;" />
      </g>
    </g>
  </g>
  <metadata>
    <rdf:RDF>
      <cc:Work rdf:about="">
        <cc:License rdf:resource="http://creativecommons.org/licenses/by-sa/4.0/" />
        <dc:right>
          <cc:Agent>
            <dc:title>CC-BY-SA 4.0 Jugend Hackt</dc:title>
          </cc:Agent>
        </dc:right>
        <dc:title>
          <cc:Agent>
            <dc:title>Pixelhack</dc:title>
          </cc:Agent>
        </dc:title>
        <dc:contributor>
          <cc:Agent>
            <dc:title>Hanno Sternberg</dc:title>
          </cc:Agent>
        </dc:contributor>
        <dc:creator>
          <cc:Agent>
            <dc:title>Jugend Hackt</dc:title>
          </cc:Agent>
        </dc:creator>
        <dc:date>
          <cc:Agent>
            <dc:title>2013</dc:title>
          </cc:Agent>
        </dc:date>
      </cc:Work>
      <cc:License rdf:about="http://creativecommons.org/licenses/by-sa/4.0/">
        <cc:permits rdf:resource="http://creativecommons.org/ns#DerivativeWorks" />
        <cc:requires rdf:resource="http://creativecommons.org/ns#ShareAlike" />
      </cc:License>
    </rdf:RDF>
  </metadata>
</svg>