<?xml version="1.0" encoding="UTF-8" standalone="no"?>
<!DOCTYPE svg PUBLIC "-//W3C//DTD SVG 1.1//EN" "http://www.w3.org/Graphics/SVG/1.1/DTD/svg11.dtd">
<svg xmlns="http://www.w3.org/2000/svg" width="100%" height="100%" viewBox="0 0 64 64" version="1.1" xml:space="preserve" style="fill-rule:evenodd;clip-rule:evenodd;stroke-linejoin:round;stroke-miterlimit:2;" xmlns:rdf="http://www.w3.org/1999/02/22-rdf-syntax-ns" xmlns:cc="http://creativecommons.org/ns" xmlns:dc="http://purl.org/dc/elements/1.1/">
  <g id="Devices">
    <g id="Tablet">
      <g>
        <rect x="6" y="16" width="52" height="32" style="fill:#10498c;" />
        <path d="M6,48l-2,0l0,-32l2,0l0,32Zm0,-32l0,-2l52,0l0,2l-22,0l0,2l-6,0l0,-2l-24,0Zm52,0l2,0l0,32l-2,0l0,-32Zm0,32l0,2l-52,0l0,-2l52,0Z" style="fill:#010001;" />
      </g>
      <g>
        <rect x="8" y="40" width="6" height="6" style="fill:#e52320;" />
        <rect x="16" y="40" width="6" height="6" style="fill:#ea680d;" />
        <rect x="24" y="40" width="6" height="6" style="fill:#fcd009;" />
        <rect x="32" y="40" width="6" height="6" style="fill:#09aa24;" />
        <rect x="40" y="40" width="6" height="6" style="fill:#550080;" />
        <rect x="48" y="40" width="6" height="6" style="fill:#ca006a;" />
      </g>
    </g>
  </g>
  <metadata>
    <rdf:RDF>
      <cc:Work rdf:about="">
        <cc:License rdf:resource="http://creativecommons.org/licenses/by-sa/4.0/" />
        <dc:right>
          <cc:Agent>
            <dc:title>CC-BY-SA 4.0 Jugend Hackt</dc:title>
          </cc:Agent>
        </dc:right>
        <dc:title>
          <cc:Agent>
            <dc:title>Pixelhack</dc:title>
          </cc:Agent>
        </dc:title>
        <dc:contributor>
          <cc:Agent>
            <dc:title>Hanno Sternberg</dc:title>
          </cc:Agent>
        </dc:contributor>
        <dc:creator>
          <cc:Agent>
            <dc:title>Jugend Hackt</dc:title>
          </cc:Agent>
        </dc:creator>
        <dc:date>
          <cc:Agent>
            <dc:title>2013</dc:title>
          </cc:Agent>
        </dc:date>
      </cc:Work>
      <cc:License rdf:about="http://creativecommons.org/licenses/by-sa/4.0/">
        <cc:permits rdf:resource="http://creativecommons.org/ns#DerivativeWorks" />
        <cc:requires rdf:resource="http://creativecommons.org/ns#ShareAlike" />
      </cc:License>
    </rdf:RDF>
  </metadata>
</svg>