<?xml version="1.0" encoding="UTF-8" standalone="no"?>
<!DOCTYPE svg PUBLIC "-//W3C//DTD SVG 1.1//EN" "http://www.w3.org/Graphics/SVG/1.1/DTD/svg11.dtd">
<svg xmlns="http://www.w3.org/2000/svg" xmlns:serif="http://www.serif.com/" width="100%" height="100%" viewBox="0 0 64 64" version="1.1" xml:space="preserve" style="fill-rule:evenodd;clip-rule:evenodd;stroke-linejoin:round;stroke-miterlimit:2;" xmlns:rdf="http://www.w3.org/1999/02/22-rdf-syntax-ns" xmlns:cc="http://creativecommons.org/ns" xmlns:dc="http://purl.org/dc/elements/1.1/">
  <g id="Colorful-Objekts" serif:id="Colorful Objekts">
    <g id="Needles---Threads" serif:id="Needles &amp; Threads">
      <g>
        <path d="M-28,36l-4,0l0,-2l2,0l0,-2l2,0l0,-2l2,0l0,-2l4,0l0,-2l2,0l0,-2l2,0l0,-2l2,0l0,-2l4,0l0,-2l2,0l0,-2l2,0l0,-4l8,0l0,6l-6,0l0,2l-2,0l0,2l-2,0l0,2l-4,0l0,2l-2,0l0,2l-2,0l0,2l-4,0l0,2l-4,0l0,2l-2,0l0,2Zm22,-22l0,2l4,0l0,-2l-4,0Zm-36,32l0,-4l2,0l0,-2l2,0l0,-2l6,0l0,2l-4,0l0,2l-2,0l0,2l-2,0l0,2l-2,0Z" style="fill:#d1d6da;" />
      </g>
      <g>
        <path d="M52,12l2,0l0,2l-2,0l0,-2Zm-4,-2l-4,0l0,-2l4,0l0,2Zm0,0l4,0l0,2l-4,0l0,-2Zm6,4l2,0l0,2l-2,0l0,-2Zm-4,14l0,2l-4,0l0,-2l2,0l0,-2l4,0l0,-2l2,0l0,-2l2,0l0,-2l2,0l0,4l-2,0l0,2l-2,0l0,2l-4,0Zm-6,20l-26,0l0,-4l4,0l0,2l4,0l0,-2l18,0l0,4Zm0,-26l0,4l-26,0l0,-4l26,0Zm-8,8l0,2l-18,0l0,-2l18,0Zm-4,4l0,2l-14,0l0,-2l14,0Zm12,0l0,2l-6,0l0,-2l6,0Zm-18,4l0,2l-8,0l0,-2l8,0Zm18,0l0,2l-10,0l0,-2l10,0Z" style="fill:#fbe50f;" />
        <path d="M36,36l-4,0l0,-2l2,0l0,-2l2,0l0,-2l2,0l0,-2l4,0l0,-2l2,0l0,-2l2,0l0,-2l2,0l0,-2l4,0l0,-2l2,0l0,-2l2,0l0,-4l8,0l0,6l-6,0l0,2l-2,0l0,2l-2,0l0,2l-4,0l0,2l-2,0l0,2l-2,0l0,2l-4,0l0,2l-4,0l0,2l-2,0l0,2Zm22,-22l0,2l4,0l0,-2l-4,0Zm-36,32l0,-4l2,0l0,-2l2,0l0,-2l6,0l0,2l-4,0l0,2l-2,0l0,2l-2,0l0,2l-2,0Z" style="fill:#d1d6da;" />
        <path d="M12,20l0,-4l2,0l0,-2l34,0l0,2l-32,0l0,2l-2,0l0,2l-2,0Z" style="fill:#f9dbb9;" />
        <path d="M48,22l-34,0l0,-4l2,0l0,-2l34,0l0,4l-2,0l0,2Zm-34,32l-2,0l0,-4l2,0l0,-2l4,0l0,2l28,0l0,-2l2,0l0,2l2,0l0,4l-2,0l0,2l-34,0l0,-2Z" style="fill:#e1bb95;" />
        <path d="M18,30l0,-4l24,0l0,2l-4,0l0,2l-20,0Zm0,14l0,-4l6,0l0,2l-2,0l0,2l-4,0Zm26,0l-16,0l0,-2l2,0l0,-2l14,0l0,4Zm-10,-12l0,2l-16,0l0,-2l16,0Zm10,0l0,2l-4,0l0,-2l4,0Zm0,4l0,2l-26,0l0,-2l26,0Z" style="fill:#f3971b;" />
        <path d="M38,34l0,-2l2,0l0,2l-2,0Zm0,0l0,2l-2,0l0,-2l2,0Zm-12,10l0,2l-2,0l0,-2l2,0Zm2,-2l0,-2l2,0l0,2l-2,0Zm-2,2l0,-2l2,0l0,2l-2,0Zm18,-14l0,2l-2,0l0,-2l2,0Zm-10,8l0,2l-2,0l0,-2l2,0Z" style="fill:#52575b;" />
        <rect x="18" y="48" width="28" height="2" style="fill:#a0673e;" />
      </g>
    </g>
  </g>
  <metadata>
    <rdf:RDF>
      <cc:Work rdf:about="">
        <cc:License rdf:resource="http://creativecommons.org/licenses/by-sa/4.0/" />
        <dc:right>
          <cc:Agent>
            <dc:title>CC-BY-SA 4.0 Jugend Hackt</dc:title>
          </cc:Agent>
        </dc:right>
        <dc:title>
          <cc:Agent>
            <dc:title>Pixelhack</dc:title>
          </cc:Agent>
        </dc:title>
        <dc:contributor>
          <cc:Agent>
            <dc:title>Hanno Sternberg</dc:title>
          </cc:Agent>
        </dc:contributor>
        <dc:creator>
          <cc:Agent>
            <dc:title>Jugend Hackt</dc:title>
          </cc:Agent>
        </dc:creator>
        <dc:date>
          <cc:Agent>
            <dc:title>2013</dc:title>
          </cc:Agent>
        </dc:date>
      </cc:Work>
      <cc:License rdf:about="http://creativecommons.org/licenses/by-sa/4.0/">
        <cc:permits rdf:resource="http://creativecommons.org/ns#DerivativeWorks" />
        <cc:requires rdf:resource="http://creativecommons.org/ns#ShareAlike" />
      </cc:License>
    </rdf:RDF>
  </metadata>
</svg>