<?xml version="1.0" encoding="UTF-8" standalone="no"?>
<!DOCTYPE svg PUBLIC "-//W3C//DTD SVG 1.1//EN" "http://www.w3.org/Graphics/SVG/1.1/DTD/svg11.dtd">
<svg xmlns="http://www.w3.org/2000/svg" width="100%" height="100%" viewBox="0 0 64 64" version="1.1" xml:space="preserve" style="fill-rule:evenodd;clip-rule:evenodd;stroke-linejoin:round;stroke-miterlimit:2;" xmlns:rdf="http://www.w3.org/1999/02/22-rdf-syntax-ns" xmlns:cc="http://creativecommons.org/ns" xmlns:dc="http://purl.org/dc/elements/1.1/">
  <g id="Whale">
    <path d="M24,26l8,0l0,2l-8,0l0,-2Zm18,6l10,0l0,2l-10,0l0,-2Zm-38,6l12,0l0,2l2,0l0,2l2,0l0,2l2,0l0,2l2,0l0,2l2,0l0,4l-4,0l0,-2l-8,0l0,-2l-4,0l0,-2l-2,0l0,-2l-2,0l0,-4l-2,0l0,-2Zm28,-10l6,0l0,2l-6,0l0,-2Zm6,2l4,0l0,2l-4,0l0,-2Zm-28,-4l0,-2l14,0l0,2l-14,0Zm-4,2l0,-2l4,0l0,2l-4,0Zm-2,10l-2,0l0,-6l2,0l0,6Zm0,-6l0,-4l2,0l0,4l-2,0Zm46,-2l0,-4l6,0l0,4l-2,0l0,-2l-2,0l0,2l-2,0Zm10,4l-2,0l0,-2l4,0l0,6l-4,0l0,-2l2,0l0,-2Z" style="fill:#16a6de;" />
    <path d="M58,34l2,0l0,2l-2,0l0,-2Zm-42,4l-12,0l0,-6l2,0l0,-4l4,0l0,-2l14,0l0,2l8,0l0,2l6,0l0,2l4,0l0,2l10,0l0,2l-2,0l0,2l-2,0l0,4l-2,0l0,2l-4,0l0,2l-4,0l0,2l-2,0l0,-4l-2,0l0,-2l-8,0l0,2l2,0l0,2l2,0l0,4l-4,0l0,-2l-2,0l0,-2l-2,0l0,-2l-2,0l0,-2l-2,0l0,-2l-2,0l0,-2Zm-6,-8l0,2l4,0l0,-2l-4,0Zm42,4l0,-6l2,0l0,2l4,0l0,4l-6,0Zm-18,18l-2,0l0,-2l2,0l0,2Zm0,0l4,0l0,2l-4,0l0,-2Z" style="fill:#10498c;" />
    <rect x="10" y="30" width="2" height="2" style="fill:#fefffe;" />
    <rect x="12" y="30" width="2" height="2" style="fill:#010001;" />
    <path d="M42,46l0,-2l4,0l0,2l-4,0Zm10,-10l0,-2l6,0l0,2l-6,0Zm-6,8l0,-2l2,0l0,2l-2,0Zm2,-2l0,-4l2,0l0,4l-2,0Zm2,-4l0,-2l2,0l0,2l-2,0Zm-8,8l0,2l-4,0l0,-2l4,0Zm-10,4l0,2l-6,0l0,-2l6,0Z" style="fill:#550080;" />
    <path d="M28,44l-2,0l0,-2l8,0l0,2l2,0l0,4l2,0l0,4l-4,0l0,-2l-4,0l0,-4l-2,0l0,-2Z" style="fill:#8000ff;" />
    <path d="M38,54l0,-6l4,0l0,-2l2,0l0,4l-2,0l0,2l-2,0l0,2l-2,0Zm-18,-2l-6,0l0,-2l8,0l0,2l12,0l0,2l-14,0l0,-2Z" style="fill:#52575b;" />
  </g>
  <metadata>
    <rdf:RDF>
      <cc:Work rdf:about="">
        <cc:License rdf:resource="http://creativecommons.org/licenses/by-sa/4.0/" />
        <dc:right>
          <cc:Agent>
            <dc:title>CC-BY-SA 4.0 Jugend Hackt</dc:title>
          </cc:Agent>
        </dc:right>
        <dc:title>
          <cc:Agent>
            <dc:title>Pixelhack</dc:title>
          </cc:Agent>
        </dc:title>
        <dc:contributor>
          <cc:Agent>
            <dc:title>Hanno Sternberg</dc:title>
          </cc:Agent>
        </dc:contributor>
        <dc:creator>
          <cc:Agent>
            <dc:title>Jugend Hackt</dc:title>
          </cc:Agent>
        </dc:creator>
        <dc:date>
          <cc:Agent>
            <dc:title>2013</dc:title>
          </cc:Agent>
        </dc:date>
      </cc:Work>
      <cc:License rdf:about="http://creativecommons.org/licenses/by-sa/4.0/">
        <cc:permits rdf:resource="http://creativecommons.org/ns#DerivativeWorks" />
        <cc:requires rdf:resource="http://creativecommons.org/ns#ShareAlike" />
      </cc:License>
    </rdf:RDF>
  </metadata>
</svg>