<?xml version="1.0" encoding="UTF-8" standalone="no"?>
<!DOCTYPE svg PUBLIC "-//W3C//DTD SVG 1.1//EN" "http://www.w3.org/Graphics/SVG/1.1/DTD/svg11.dtd">
<svg xmlns="http://www.w3.org/2000/svg" width="100%" height="100%" viewBox="0 0 64 64" version="1.1" xml:space="preserve" style="fill-rule:evenodd;clip-rule:evenodd;stroke-linejoin:round;stroke-miterlimit:2;" xmlns:rdf="http://www.w3.org/1999/02/22-rdf-syntax-ns" xmlns:cc="http://creativecommons.org/ns" xmlns:dc="http://purl.org/dc/elements/1.1/">
  <g>
    <g>
      <rect x="30" y="30" width="4" height="18" style="fill:#5d473d;" />
      <rect x="30" y="48" width="4" height="16" style="fill:#a0673e;" />
    </g>
    <rect x="30" y="26" width="4" height="4" />
    <g>
      <g>
        <path d="M14,10l-2,0l0,-2l10,0l0,8l2,0l0,4l-2,0l0,-2l-2,0l0,-2l-2,0l0,-2l-2,0l0,-2l-2,0l0,-2Z" style="fill:#e52320;" />
        <path d="M24,16l-2,0l0,-8l2,0l0,4l2,0l0,10l-2,0l0,-6Z" style="fill:#ca006a;" />
        <path d="M26,12l-2,0l0,-4l4,0l0,2l2,0l0,2l2,0l0,2l2,0l0,2l2,0l0,2l2,0l0,4l-2,0l0,2l-2,0l0,2l-6,0l0,-2l-2,0l0,-12Z" style="fill:#e6414a;" />
      </g>
      <g>
        <path d="M44,20l-4,0l0,-2l2,0l0,-2l2,0l0,-2l2,0l0,-2l2,0l0,-2l2,0l0,-2l2,0l0,10l-8,0l0,2Z" style="fill:#fcd009;" />
        <path d="M48,20l0,2l-10,0l0,-2l6,0l0,-2l8,0l0,2l-4,0Z" style="fill:#f3971b;" />
        <path d="M36,30l-2,0l0,-6l2,0l0,-2l12,0l0,-2l4,0l0,4l-2,0l0,2l-2,0l0,2l-2,0l0,2l-2,0l0,2l-2,0l0,2l-4,0l0,-2l-2,0l0,-2Z" style="fill:#fbe50f;" />
      </g>
      <g>
        <path d="M16,36l-4,0l0,-4l2,0l0,-2l2,0l0,-2l2,0l0,-2l2,0l0,-2l2,0l0,-2l4,0l0,2l2,0l0,2l2,0l0,6l-2,0l0,2l-12,0l0,2Z" style="fill:#00b48d;" />
        <path d="M20,36l0,2l-8,0l0,-2l4,0l0,-2l10,0l0,2l-6,0Z" style="fill:#8000ff;" />
        <path d="M12,48l0,-10l8,0l0,-2l4,0l0,2l-2,0l0,2l-2,0l0,2l-2,0l0,2l-2,0l0,2l-2,0l0,2l-2,0Z" style="fill:#09aa24;" />
      </g>
      <g>
        <path d="M28,38l-2,0l0,-4l2,0l0,-2l2,0l0,-2l6,0l0,2l2,0l0,12l2,0l0,4l-4,0l0,-2l-2,0l0,-2l-2,0l0,-2l-2,0l0,-2l-2,0l0,-2Z" style="fill:#16a6de;" />
        <path d="M40,44l-2,0l0,-10l2,0l0,6l2,0l0,8l-2,0l0,-4Z" style="fill:#550080;" />
        <path d="M42,40l-2,0l0,-4l2,0l0,2l2,0l0,2l2,0l0,2l2,0l0,2l2,0l0,2l2,0l0,2l-10,0l0,-8Z" style="fill:#10498c;" />
      </g>
    </g>
  </g>
  <metadata>
    <rdf:RDF>
      <cc:Work rdf:about="">
        <cc:License rdf:resource="http://creativecommons.org/licenses/by-sa/4.0/" />
        <dc:right>
          <cc:Agent>
            <dc:title>CC-BY-SA 4.0 Jugend Hackt</dc:title>
          </cc:Agent>
        </dc:right>
        <dc:title>
          <cc:Agent>
            <dc:title>Pixelhack</dc:title>
          </cc:Agent>
        </dc:title>
        <dc:contributor>
          <cc:Agent>
            <dc:title>Hanno Sternberg</dc:title>
          </cc:Agent>
        </dc:contributor>
        <dc:creator>
          <cc:Agent>
            <dc:title>Jugend Hackt</dc:title>
          </cc:Agent>
        </dc:creator>
        <dc:date>
          <cc:Agent>
            <dc:title>2013</dc:title>
          </cc:Agent>
        </dc:date>
      </cc:Work>
      <cc:License rdf:about="http://creativecommons.org/licenses/by-sa/4.0/">
        <cc:permits rdf:resource="http://creativecommons.org/ns#DerivativeWorks" />
        <cc:requires rdf:resource="http://creativecommons.org/ns#ShareAlike" />
      </cc:License>
    </rdf:RDF>
  </metadata>
</svg>