<?xml version="1.0" encoding="UTF-8" standalone="no"?>
<!DOCTYPE svg PUBLIC "-//W3C//DTD SVG 1.1//EN" "http://www.w3.org/Graphics/SVG/1.1/DTD/svg11.dtd">
<svg xmlns="http://www.w3.org/2000/svg" xmlns:serif="http://www.serif.com/" width="100%" height="100%" viewBox="0 0 128 192" version="1.1" xml:space="preserve" style="fill-rule:evenodd;clip-rule:evenodd;stroke-linejoin:round;stroke-miterlimit:2;" xmlns:rdf="http://www.w3.org/1999/02/22-rdf-syntax-ns" xmlns:cc="http://creativecommons.org/ns" xmlns:dc="http://purl.org/dc/elements/1.1/">
  <g id="Background-Pattern" serif:id="Background Pattern">
    <g>
      <path d="M0,64l0,-64l62,0l0,28l-4,0l0,2l-4,0l0,2l-2,0l0,2l-4,0l0,2l-2,0l0,2l-4,0l0,2l-4,0l0,2l-2,0l0,2l-4,0l0,2l-2,0l0,2l-4,0l0,2l-4,0l0,2l-2,0l0,2l-4,0l0,2l-2,0l0,2l-4,0l0,2l-4,0l0,2l-2,0l0,2l-4,0Zm70,-36l-4,0l0,-28l62,0l0,64l-4,0l0,-2l-4,0l0,-2l-2,0l0,-2l-4,0l0,-2l-2,0l0,-2l-4,0l0,-2l-4,0l0,-2l-2,0l0,-2l-4,0l0,-2l-2,0l0,-2l-4,0l0,-2l-4,0l0,-2l-2,0l0,-2l-4,0l0,-2l-2,0l0,-2l-4,0l0,-2l-4,0l0,-2l-2,0l0,-2Zm-64,96l-4,0l0,-56l4,0l0,-2l2,0l0,-2l4,0l0,-2l4,0l0,-2l2,0l0,-2l4,0l0,-2l2,0l0,-2l4,0l0,-2l4,0l0,-2l2,0l0,-2l4,0l0,-2l2,0l0,-2l4,0l0,-2l4,0l0,-2l2,0l0,-2l4,0l0,-2l2,0l0,-2l4,0l0,-2l8,0l0,2l2,0l0,2l4,0l0,2l4,0l0,2l2,0l0,2l4,0l0,2l2,0l0,2l4,0l0,2l4,0l0,2l2,0l0,2l4,0l0,2l2,0l0,2l4,0l0,2l4,0l0,2l2,0l0,2l4,0l0,2l2,0l0,2l4,0l0,2l4,0l0,56l-4,0l0,2l-4,0l0,2l-2,0l0,2l-4,0l0,2l-4,0l0,2l-2,0l0,2l-4,0l0,2l-4,0l0,2l-2,0l0,2l-4,0l0,2l-2,0l0,2l-4,0l0,2l-4,0l0,2l-2,0l0,2l-4,0l0,2l-4,0l0,2l-2,0l0,2l-4,0l0,2l-8,0l0,-2l-2,0l0,-2l-4,0l0,-2l-2,0l0,-2l-4,0l0,-2l-4,0l0,-2l-2,0l0,-2l-4,0l0,-2l-2,0l0,-2l-4,0l0,-2l-2,0l0,-2l-4,0l0,-2l-2,0l0,-2l-4,0l0,-2l-4,0l0,-2l-2,0l0,-2l-4,0l0,-2l-2,0l0,-2Zm56,68l-62,0l0,-64l4,0l0,2l2,0l0,2l4,0l0,2l2,0l0,2l4,0l0,2l4,0l0,2l2,0l0,2l4,0l0,2l2,0l0,2l4,0l0,2l2,0l0,2l4,0l0,2l2,0l0,2l4,0l0,2l4,0l0,2l2,0l0,2l4,0l0,2l2,0l0,2l4,0l0,2l2,0l0,26Zm66,0l-62,0l0,-28l2,0l0,-2l4,0l0,-2l2,0l0,-2l4,0l0,-2l4,0l0,-2l2,0l0,-2l4,0l0,-2l4,0l0,-2l2,0l0,-2l4,0l0,-2l2,0l0,-2l4,0l0,-2l4,0l0,-2l2,0l0,-2l4,0l0,-2l4,0l0,-2l2,0l0,-2l4,0l0,-2l4,0l0,64Z" style="fill:#d1d6da;" />
      <path d="M0,128l0,-64l4,0l0,-2l2,0l0,-2l4,0l0,-2l4,0l0,-2l2,0l0,-2l4,0l0,-2l2,0l0,-2l4,0l0,-2l4,0l0,-2l2,0l0,-2l4,0l0,-2l2,0l0,-2l4,0l0,-2l4,0l0,-2l2,0l0,-2l4,0l0,-2l2,0l0,-2l4,0l0,-2l4,0l0,-28l4,0l0,28l4,0l0,2l2,0l0,2l4,0l0,2l4,0l0,2l2,0l0,2l4,0l0,2l2,0l0,2l4,0l0,2l4,0l0,2l2,0l0,2l4,0l0,2l2,0l0,2l4,0l0,2l4,0l0,2l2,0l0,2l4,0l0,2l2,0l0,2l4,0l0,2l4,0l0,64l-4,0l0,2l-4,0l0,2l-2,0l0,2l-4,0l0,2l-4,0l0,2l-2,0l0,2l-4,0l0,2l-4,0l0,2l-2,0l0,2l-4,0l0,2l-2,0l0,2l-4,0l0,2l-4,0l0,2l-2,0l0,2l-4,0l0,2l-4,0l0,2l-2,0l0,2l-4,0l0,2l-2,0l0,28l-4,0l0,-26l-2,0l0,-2l-4,0l0,-2l-2,0l0,-2l-4,0l0,-2l-2,0l0,-2l-4,0l0,-2l-4,0l0,-2l-2,0l0,-2l-4,0l0,-2l-2,0l0,-2l-4,0l0,-2l-2,0l0,-2l-4,0l0,-2l-2,0l0,-2l-4,0l0,-2l-4,0l0,-2l-2,0l0,-2l-4,0l0,-2l-2,0l0,-2l-4,0Zm6,-60l-4,0l0,56l4,0l0,2l2,0l0,2l4,0l0,2l2,0l0,2l4,0l0,2l4,0l0,2l2,0l0,2l4,0l0,2l2,0l0,2l4,0l0,2l2,0l0,2l4,0l0,2l2,0l0,2l4,0l0,2l4,0l0,2l2,0l0,2l4,0l0,2l2,0l0,2l8,0l0,-2l4,0l0,-2l2,0l0,-2l4,0l0,-2l4,0l0,-2l2,0l0,-2l4,0l0,-2l4,0l0,-2l2,0l0,-2l4,0l0,-2l2,0l0,-2l4,0l0,-2l4,0l0,-2l2,0l0,-2l4,0l0,-2l4,0l0,-2l2,0l0,-2l4,0l0,-2l4,0l0,-56l-4,0l0,-2l-4,0l0,-2l-2,0l0,-2l-4,0l0,-2l-2,0l0,-2l-4,0l0,-2l-4,0l0,-2l-2,0l0,-2l-4,0l0,-2l-2,0l0,-2l-4,0l0,-2l-4,0l0,-2l-2,0l0,-2l-4,0l0,-2l-2,0l0,-2l-4,0l0,-2l-4,0l0,-2l-2,0l0,-2l-8,0l0,2l-4,0l0,2l-2,0l0,2l-4,0l0,2l-2,0l0,2l-4,0l0,2l-4,0l0,2l-2,0l0,2l-4,0l0,2l-2,0l0,2l-4,0l0,2l-4,0l0,2l-2,0l0,2l-4,0l0,2l-2,0l0,2l-4,0l0,2l-4,0l0,2l-2,0l0,2Z" style="fill:#fff;" />
    </g>
  </g>
  <metadata>
    <rdf:RDF>
      <cc:Work rdf:about="">
        <cc:License rdf:resource="http://creativecommons.org/licenses/by-sa/4.0/" />
        <dc:right>
          <cc:Agent>
            <dc:title>CC-BY-SA 4.0 Jugend Hackt</dc:title>
          </cc:Agent>
        </dc:right>
        <dc:title>
          <cc:Agent>
            <dc:title>Pixelhack</dc:title>
          </cc:Agent>
        </dc:title>
        <dc:contributor>
          <cc:Agent>
            <dc:title>Hanno Sternberg</dc:title>
          </cc:Agent>
        </dc:contributor>
        <dc:creator>
          <cc:Agent>
            <dc:title>Jugend Hackt</dc:title>
          </cc:Agent>
        </dc:creator>
        <dc:date>
          <cc:Agent>
            <dc:title>2013</dc:title>
          </cc:Agent>
        </dc:date>
      </cc:Work>
      <cc:License rdf:about="http://creativecommons.org/licenses/by-sa/4.0/">
        <cc:permits rdf:resource="http://creativecommons.org/ns#DerivativeWorks" />
        <cc:requires rdf:resource="http://creativecommons.org/ns#ShareAlike" />
      </cc:License>
    </rdf:RDF>
  </metadata>
</svg>