<?xml version="1.0" encoding="UTF-8" standalone="no"?>
<!DOCTYPE svg PUBLIC "-//W3C//DTD SVG 1.1//EN" "http://www.w3.org/Graphics/SVG/1.1/DTD/svg11.dtd">
<svg xmlns="http://www.w3.org/2000/svg" xmlns:serif="http://www.serif.com/" width="100%" height="100%" viewBox="0 0 64 64" version="1.1" xml:space="preserve" style="fill-rule:evenodd;clip-rule:evenodd;stroke-linejoin:round;stroke-miterlimit:2;" xmlns:rdf="http://www.w3.org/1999/02/22-rdf-syntax-ns" xmlns:cc="http://creativecommons.org/ns" xmlns:dc="http://purl.org/dc/elements/1.1/">
  <g id="Colorful-Objekts" serif:id="Colorful Objekts">
    <g id="Cameras">
      <g id="With-Flash" serif:id="With Flash">
        <g>
          <path d="M40,18l-2,0l0,-2l2,0l0,2Zm0,-2l0,-2l4,0l0,2l-4,0Zm4,-2l0,-4l2,0l0,4l-2,0Zm2,-4l0,-2l2,0l0,2l-2,0Zm2,0l2,0l0,4l-2,0l0,-4Zm2,4l4,0l0,2l-4,0l0,-2Zm4,2l2,0l0,2l-2,0l0,-2Zm0,2l0,2l-4,0l0,-2l4,0Zm-4,2l0,4l-2,0l0,-4l2,0Zm-2,4l0,2l-2,0l0,-2l2,0Zm-2,0l-2,0l0,-4l2,0l0,4Zm-2,-4l-4,0l0,-2l4,0l0,2Zm-6,10l0,4l-4,0l0,-4l4,0Z" style="fill:#fff;" />
          <path d="M46,18l-6,0l0,-2l6,0l0,2Zm0,-2l0,-6l2,0l0,6l-2,0Zm2,0l6,0l0,2l-6,0l0,-2Zm0,2l0,6l-2,0l0,-6l2,0Z" style="fill:#fbe50f;" />
          <path d="M14,16l-2,0l0,-2l8,0l0,2l-2,0l0,2l-4,0l0,-2Zm-6,2l0,6l-2,0l0,-6l2,0Zm0,28l0,2l-2,0l0,-2l2,0Z" style="fill:#52575b;" />
          <path d="M46,16l2,0l0,2l-2,0l0,-2Zm2,0l0,-2l2,0l0,2l-2,0Zm-2,2l0,2l-2,0l0,-2l2,0Zm2,0l2,0l0,2l-2,0l0,-2Zm-2,-2l-2,0l0,-2l2,0l0,2Z" style="fill:#fcd009;" />
          <path d="M24,24l-16,0l0,-8l6,0l0,2l4,0l0,-2l20,0l0,2l2,0l0,2l4,0l0,4l-4,0l0,-2l-2,0l0,-2l-12,0l0,2l-2,0l0,2Zm34,0l-8,0l0,-4l4,0l0,-2l4,0l0,6Zm-2,26l-48,0l0,-4l18,0l0,2l12,0l0,-2l20,0l0,2l-2,0l0,2Z" style="fill:#d1d6da;" />
          <path d="M20,40l-2,0l0,-12l2,0l0,-2l2,0l0,-2l2,0l0,-2l2,0l0,-2l12,0l0,2l2,0l0,2l2,0l0,2l2,0l0,2l2,0l0,12l-2,0l0,2l-2,0l0,2l-2,0l0,2l-2,0l0,2l-12,0l0,-2l-2,0l0,-2l-2,0l0,-2l-2,0l0,-2Zm2,-10l0,8l2,0l0,2l2,0l0,2l2,0l0,2l8,0l0,-2l2,0l0,-2l2,0l0,-2l2,0l0,-8l-2,0l0,-2l-2,0l0,-2l-2,0l0,-2l-8,0l0,2l-2,0l0,2l-2,0l0,2l-2,0Zm-14,-6l0,22l-2,0l0,-22l2,0Z" style="fill:#e52320;" />
          <path d="M8,46l0,-22l14,0l0,2l-2,0l0,2l-2,0l0,12l2,0l0,2l2,0l0,2l2,0l0,2l-16,0Zm50,0l-18,0l0,-2l2,0l0,-2l2,0l0,-2l2,0l0,-12l-2,0l0,-2l-2,0l0,-2l4,0l0,2l2,0l0,-2l10,0l0,22Z" style="fill:#e6414a;" />
          <path d="M24,38l-2,0l0,-8l2,0l0,-2l2,0l0,-2l2,0l0,-2l8,0l0,2l2,0l0,2l2,0l0,2l2,0l0,8l-2,0l0,2l-2,0l0,2l-2,0l0,2l-8,0l0,-2l-2,0l0,-2l-2,0l0,-2Zm14,-8l-4,0l0,4l4,0l0,-4Z" style="fill:#550080;" />
        </g>
      </g>
    </g>
  </g>
  <metadata>
    <rdf:RDF>
      <cc:Work rdf:about="">
        <cc:License rdf:resource="http://creativecommons.org/licenses/by-sa/4.0/" />
        <dc:right>
          <cc:Agent>
            <dc:title>CC-BY-SA 4.0 Jugend Hackt</dc:title>
          </cc:Agent>
        </dc:right>
        <dc:title>
          <cc:Agent>
            <dc:title>Pixelhack</dc:title>
          </cc:Agent>
        </dc:title>
        <dc:contributor>
          <cc:Agent>
            <dc:title>Hanno Sternberg</dc:title>
          </cc:Agent>
        </dc:contributor>
        <dc:creator>
          <cc:Agent>
            <dc:title>Jugend Hackt</dc:title>
          </cc:Agent>
        </dc:creator>
        <dc:date>
          <cc:Agent>
            <dc:title>2013</dc:title>
          </cc:Agent>
        </dc:date>
      </cc:Work>
      <cc:License rdf:about="http://creativecommons.org/licenses/by-sa/4.0/">
        <cc:permits rdf:resource="http://creativecommons.org/ns#DerivativeWorks" />
        <cc:requires rdf:resource="http://creativecommons.org/ns#ShareAlike" />
      </cc:License>
    </rdf:RDF>
  </metadata>
</svg>