<?xml version="1.0" encoding="UTF-8" standalone="no"?>
<!DOCTYPE svg PUBLIC "-//W3C//DTD SVG 1.1//EN" "http://www.w3.org/Graphics/SVG/1.1/DTD/svg11.dtd">
<svg xmlns="http://www.w3.org/2000/svg" xmlns:serif="http://www.serif.com/" width="100%" height="100%" viewBox="0 0 64 64" version="1.1" xml:space="preserve" style="fill-rule:evenodd;clip-rule:evenodd;stroke-linejoin:round;stroke-miterlimit:2;" xmlns:rdf="http://www.w3.org/1999/02/22-rdf-syntax-ns" xmlns:cc="http://creativecommons.org/ns" xmlns:dc="http://purl.org/dc/elements/1.1/">
  <g id="Colorful-Objekts" serif:id="Colorful Objekts">
    <g id="Casettes">
      <g>
        <path d="M4,14l0,36l-2,0l0,-36l2,0Zm0,0l0,-2l56,0l0,2l-56,0Z" style="fill:#ff3b8d;" />
        <path d="M4,52l0,-38l58,0l0,36l-2,0l0,2l-10,0l0,-4l-2,0l0,-4l-32,0l0,4l-2,0l0,4l-10,0Zm54,-36l-52,0l0,26l52,0l0,-26Z" style="fill:#ca006a;" />
        <path d="M6,42l0,-26l52,0l0,26l-52,0Zm42,-16l-32,0l0,2l-2,0l0,8l2,0l0,2l32,0l0,-2l2,0l0,-8l-2,0l0,-2Z" style="fill:#fff;" />
        <path d="M14,36l0,-8l2,0l0,-2l32,0l0,2l2,0l0,8l-2,0l0,2l-32,0l0,-2l-2,0Zm4,-8l0,2l-2,0l0,4l2,0l0,2l4,0l0,-2l2,0l0,-4l-2,0l0,-2l-4,0Zm28,0l-4,0l0,2l-2,0l0,4l2,0l0,2l4,0l0,-2l2,0l0,-4l-2,0l0,-2Zm-8,0l-12,0l0,6l12,0l0,-6Z" />
        <path d="M18,34l-2,0l0,-4l2,0l0,-2l4,0l0,2l2,0l0,4l-2,0l0,2l-4,0l0,-2Zm24,0l-2,0l0,-4l2,0l0,-2l4,0l0,2l2,0l0,4l-2,0l0,2l-4,0l0,-2Zm8,18l-36,0l0,-4l2,0l0,-4l32,0l0,4l2,0l0,4Z" style="fill:#52575b;" />
        <path d="M32,34l-6,0l0,-6l4,0l0,2l2,0l0,4Z" style="fill:#5d473d;" />
        <path d="M32,30l-2,0l0,-2l8,0l0,6l-6,0l0,-4Z" style="fill:#d1d6da;" />
      </g>
    </g>
  </g>
  <metadata>
    <rdf:RDF>
      <cc:Work rdf:about="">
        <cc:License rdf:resource="http://creativecommons.org/licenses/by-sa/4.0/" />
        <dc:right>
          <cc:Agent>
            <dc:title>CC-BY-SA 4.0 Jugend Hackt</dc:title>
          </cc:Agent>
        </dc:right>
        <dc:title>
          <cc:Agent>
            <dc:title>Pixelhack</dc:title>
          </cc:Agent>
        </dc:title>
        <dc:contributor>
          <cc:Agent>
            <dc:title>Hanno Sternberg</dc:title>
          </cc:Agent>
        </dc:contributor>
        <dc:creator>
          <cc:Agent>
            <dc:title>Jugend Hackt</dc:title>
          </cc:Agent>
        </dc:creator>
        <dc:date>
          <cc:Agent>
            <dc:title>2013</dc:title>
          </cc:Agent>
        </dc:date>
      </cc:Work>
      <cc:License rdf:about="http://creativecommons.org/licenses/by-sa/4.0/">
        <cc:permits rdf:resource="http://creativecommons.org/ns#DerivativeWorks" />
        <cc:requires rdf:resource="http://creativecommons.org/ns#ShareAlike" />
      </cc:License>
    </rdf:RDF>
  </metadata>
</svg>