<?xml version="1.0" encoding="UTF-8" standalone="no"?>
<!DOCTYPE svg PUBLIC "-//W3C//DTD SVG 1.1//EN" "http://www.w3.org/Graphics/SVG/1.1/DTD/svg11.dtd">
<svg xmlns="http://www.w3.org/2000/svg" xmlns:serif="http://www.serif.com/" width="100%" height="100%" viewBox="0 0 64 48" version="1.1" xml:space="preserve" style="fill-rule:evenodd;clip-rule:evenodd;stroke-linejoin:round;stroke-miterlimit:2;" xmlns:rdf="http://www.w3.org/1999/02/22-rdf-syntax-ns" xmlns:cc="http://creativecommons.org/ns" xmlns:dc="http://purl.org/dc/elements/1.1/">
  <g id="Cat---Dog" serif:id="Cat &amp; Dog">
    <g>
      <g>
        <path d="M12,24l-4,0l0,-4l2,0l0,2l2,0l0,2Zm12,0l-4,0l0,-4l2,0l0,2l2,0l0,2Zm-14,-12l2,0l0,2l-2,0l0,-2Zm38,4l0,-2l2,0l0,2l-2,0Zm2,8l0,2l-2,0l0,4l4,0l0,8l-4,0l0,4l-8,0l0,-4l-8,0l0,-2l10,0l0,4l4,0l0,-16l4,0Zm-2,8l0,4l2,0l0,-4l-2,0Zm-40,0l2,0l0,2l8,0l0,6l4,0l0,-4l6,0l0,4l4,0l0,2l-6,0l0,-4l-2,0l0,4l-8,0l0,-6l-8,0l0,-4Zm12,-18l0,-2l2,0l0,2l-2,0Zm-16,14l-2,0l0,-12l2,0l0,12Zm8,-14l8,0l0,2l-8,0l0,-2Zm46,-2l2,0l0,4l-2,0l0,-4Zm-6,0l0,-2l6,0l0,2l-6,0Zm-26,18l0,2l-2,0l0,-2l2,0Zm30,-12l0,2l-2,0l0,-2l2,0Zm-6,-4l0,-2l2,0l0,2l-2,0Zm-26,18l0,2l-2,0l0,-2l2,0Zm-2,-20l0,-2l2,0l0,2l-2,0Zm32,8l0,2l-2,0l0,-2l2,0Zm-26,-4l20,0l0,2l-18,0l0,10l-2,0l0,-12Zm24,6l0,2l-2,0l0,-2l2,0Zm-26,-8l2,0l0,2l-2,0l0,-2Zm-18,-2l0,-2l2,0l0,2l-2,0Zm16,0l2,0l0,2l-2,0l0,-2Zm-18,2l0,-2l2,0l0,2l-2,0Zm22,14l0,2l-2,0l0,-2l2,0Zm-24,-12l0,-2l2,0l0,2l-2,0Zm0,12l2,0l0,2l-2,0l0,-2Zm54,-12l0,2l-2,0l0,-2l2,0Zm-52,14l2,0l0,2l-2,0l0,-2Zm28,-10l0,6l-2,0l0,-6l2,0Zm4,0l0,6l-2,0l0,-6l2,0Zm4,0l0,6l-2,0l0,-6l2,0Zm-26,6l0,4l-2,0l0,-4l2,0Z" />
        <path d="M6,28l-2,0l0,-12l2,0l0,-2l2,0l0,-2l2,0l0,2l2,0l0,2l8,0l0,-2l2,0l0,-2l2,0l0,2l2,0l0,2l2,0l0,12l-2,0l0,2l-2,0l0,2l-2,0l0,2l2,0l0,-2l2,0l0,-2l2,0l0,-2l2,0l0,-10l18,0l0,-2l2,0l0,-2l2,0l0,-2l6,0l0,4l-2,0l0,2l-2,0l0,2l-2,0l0,2l-2,0l0,2l-4,0l0,16l-4,0l0,-4l-10,0l0,4l-4,0l0,-4l-6,0l0,4l-4,0l0,-6l-8,0l0,-2l-2,0l0,-2l-2,0l0,-2Zm2,-8l0,4l4,0l0,-4l-4,0Zm12,0l0,4l4,0l0,-4l-4,0Zm-4,6l-2,0l0,4l2,0l0,-4Zm16,-6l0,6l2,0l0,-6l-2,0Zm10,0l-2,0l0,6l2,0l0,-6Zm-4,0l-2,0l0,6l2,0l0,-6Zm12,12l0,4l-2,0l0,-4l2,0Z" style="fill:#fcd009;" />
        <path d="M12,20l0,2l-2,0l0,-2l2,0Zm12,0l0,2l-2,0l0,-2l2,0Z" style="fill:#fff;" />
      </g>
    </g>
    <g>
      <g>
        <path d="M8,84l-4,0l0,-24l4,0l0,24Zm0,-24l0,-4l4,0l0,4l-4,0Zm4,-4l0,-4l4,0l0,4l-4,0Zm4,-4l0,-4l4,0l0,4l-4,0Zm4,0l4,0l0,4l-4,0l0,-4Zm4,4l16,0l0,4l-16,0l0,-4Zm16,0l0,-4l4,0l0,4l-4,0Zm4,-4l0,-4l4,0l0,4l-4,0Zm4,0l4,0l0,4l-4,0l0,-4Zm4,4l4,0l0,4l-4,0l0,-4Zm4,4l44,0l0,4l-40,0l0,20l-4,0l0,-24Zm44,0l0,-4l4,0l0,4l-4,0Zm4,-4l0,-4l4,0l0,4l-4,0Zm4,-4l0,-4l12,0l0,4l-12,0Zm12,0l4,0l0,8l-4,0l0,-8Zm0,8l0,4l-4,0l0,-4l4,0Zm-4,4l0,4l-4,0l0,-4l4,0Zm-4,4l0,4l-4,0l0,-4l4,0Zm-4,4l0,4l-4,0l0,-4l4,0Zm-4,4l0,4l-4,0l0,8l8,0l0,16l-8,0l0,8l-16,0l0,-8l-16,0l0,8l-16,0l0,-8l-4,0l0,8l-16,0l0,-12l-16,0l0,-8l4,0l0,4l16,0l0,12l8,0l0,-8l12,0l0,8l8,0l0,-8l24,0l0,8l8,0l0,-32l8,0Zm-88,16l-4,0l0,-4l4,0l0,4Zm-4,-4l-4,0l0,-4l4,0l0,4Zm88,4l0,8l4,0l0,-8l-4,0Zm-44,-8l0,4l-4,0l0,-4l4,0Zm-4,4l0,4l-4,0l0,-4l4,0Zm-4,4l0,4l-4,0l0,-4l4,0Zm24,-24l0,12l-4,0l0,-12l4,0Zm-48,8l-8,0l0,-8l4,0l0,4l4,0l0,4Zm56,-8l0,12l-4,0l0,-12l4,0Zm8,0l0,12l-4,0l0,-12l4,0Zm-58,20l0,-2l2,0l0,-2l-2,0l0,-4l4,0l0,8l-4,0Zm0,0l0,2l-2,0l0,-2l2,0Zm4,0l2,0l0,2l-2,0l0,-2Zm14,-12l-8,0l0,-8l4,0l0,4l4,0l0,4Z" />
      </g>
    </g>
  </g>
  <metadata>
    <rdf:RDF>
      <cc:Work rdf:about="">
        <cc:License rdf:resource="http://creativecommons.org/licenses/by-sa/4.0/" />
        <dc:right>
          <cc:Agent>
            <dc:title>CC-BY-SA 4.0 Jugend Hackt</dc:title>
          </cc:Agent>
        </dc:right>
        <dc:title>
          <cc:Agent>
            <dc:title>Pixelhack</dc:title>
          </cc:Agent>
        </dc:title>
        <dc:contributor>
          <cc:Agent>
            <dc:title>Hanno Sternberg</dc:title>
          </cc:Agent>
        </dc:contributor>
        <dc:creator>
          <cc:Agent>
            <dc:title>Jugend Hackt</dc:title>
          </cc:Agent>
        </dc:creator>
        <dc:date>
          <cc:Agent>
            <dc:title>2013</dc:title>
          </cc:Agent>
        </dc:date>
      </cc:Work>
      <cc:License rdf:about="http://creativecommons.org/licenses/by-sa/4.0/">
        <cc:permits rdf:resource="http://creativecommons.org/ns#DerivativeWorks" />
        <cc:requires rdf:resource="http://creativecommons.org/ns#ShareAlike" />
      </cc:License>
    </rdf:RDF>
  </metadata>
</svg>