<?xml version="1.0" encoding="UTF-8" standalone="no"?>
<!DOCTYPE svg PUBLIC "-//W3C//DTD SVG 1.1//EN" "http://www.w3.org/Graphics/SVG/1.1/DTD/svg11.dtd">
<svg xmlns="http://www.w3.org/2000/svg" xmlns:serif="http://www.serif.com/" width="100%" height="100%" viewBox="0 0 64 64" version="1.1" xml:space="preserve" style="fill-rule:evenodd;clip-rule:evenodd;stroke-linejoin:round;stroke-miterlimit:2;" xmlns:rdf="http://www.w3.org/1999/02/22-rdf-syntax-ns" xmlns:cc="http://creativecommons.org/ns" xmlns:dc="http://purl.org/dc/elements/1.1/">
  <g id="Colorful-Objekts" serif:id="Colorful Objekts">
    <g id="Crayons">
      <g>
        <path d="M46,8l0,-4l4,0l0,2l-2,0l0,2l-2,0Zm-38,40l0,2l-2,0l0,-2l2,0Zm2,-6l0,-2l2,0l0,2l-2,0Zm-2,6l0,-6l2,0l0,6l-2,0Z" style="fill:#e6414a;" />
        <path d="M44,10l0,-4l2,0l0,4l-2,0Zm-30,28l0,-2l2,0l0,-2l2,0l0,-2l2,0l0,-2l2,0l0,-2l2,0l0,-2l2,0l0,-2l2,0l0,-2l2,0l0,-2l2,0l0,-2l2,0l0,-2l2,0l0,-2l2,0l0,-2l2,0l0,-2l4,0l0,2l-2,0l0,2l-2,0l0,2l-2,0l0,2l-2,0l0,2l-2,0l0,2l-2,0l0,2l-2,0l0,2l-2,0l0,2l-2,0l0,2l-2,0l0,2l-2,0l0,2l-2,0l0,2l-2,0l0,2l-4,0Zm0,0l0,4l-2,0l0,-4l2,0Z" style="fill:#fff;" />
        <path d="M50,10l-2,0l0,-4l4,0l0,2l2,0l0,2l2,0l0,2l2,0l0,2l-2,0l0,2l-2,0l0,-2l-2,0l0,-2l-2,0l0,-2Zm-42,46l0,2l-2,0l0,-8l2,0l0,-2l2,0l0,-6l4,0l0,2l2,0l0,2l2,0l0,2l2,0l0,2l-2,0l0,2l-4,0l0,2l-4,0l0,2l-2,0Z" style="fill:#ff3b8d;" />
        <path d="M46,12l2,0l0,2l-2,0l0,-2Zm6,6l2,0l0,2l-2,0l0,-2Zm-4,-4l2,0l0,2l-2,0l0,-2Zm6,6l2,0l0,2l-2,0l0,-2Zm-4,-4l2,0l0,2l-2,0l0,-2Zm-6,-6l2,0l0,2l-2,0l0,-2Zm0,0l-2,0l0,-2l2,0l0,2Zm-18,28l-2,0l0,-4l2,0l0,-4l2,0l0,-2l2,0l0,-2l2,0l0,-2l2,0l0,-2l4,0l0,-2l2,0l0,-2l4,0l0,2l2,0l0,4l-2,0l0,2l-2,0l0,2l-2,0l0,2l-2,0l0,2l-2,0l0,2l-2,0l0,2l-2,0l0,2l-2,0l0,2l-4,0l0,-2Zm-6,6l2,0l0,2l-2,0l0,-2Zm-4,-4l-2,0l0,-2l2,0l0,2Zm6,6l2,0l0,2l-2,0l0,-2Zm-4,-4l2,0l0,2l-2,0l0,-2Zm6,6l2,0l0,2l-2,0l0,-2Zm-8,-8l2,0l0,2l-2,0l0,-2Z" style="fill:#52575b;" />
        <path d="M16,44l-2,0l0,-4l2,0l0,2l2,0l0,2l2,0l0,2l2,0l0,4l-2,0l0,-2l-2,0l0,-2l-2,0l0,-2Zm0,-4l0,-2l2,0l0,-2l2,0l0,-2l2,0l0,-2l2,0l0,-2l2,0l0,4l-2,0l0,4l2,0l0,2l4,0l0,2l-2,0l0,2l-2,0l0,2l-4,0l0,-2l-2,0l0,-2l-2,0l0,-2l-2,0Zm10,-10l0,-2l2,0l0,2l-2,0Zm2,-2l0,-2l2,0l0,2l-2,0Zm2,-2l0,-2l2,0l0,2l-2,0Zm2,-2l0,-2l2,0l0,2l-2,0Zm2,-2l0,-2l2,0l0,-2l2,0l0,-2l2,0l0,-2l2,0l0,-2l4,0l0,2l2,0l0,2l2,0l0,2l2,0l0,2l-2,0l0,2l-2,0l0,2l-2,0l0,-4l-2,0l0,-2l-4,0l0,2l-2,0l0,2l-4,0Zm12,-10l0,-4l2,0l0,2l2,0l0,2l2,0l0,2l2,0l0,4l-2,0l0,-2l-2,0l0,-2l-2,0l0,-2l-2,0Zm0,12l0,2l-2,0l0,-2l2,0Zm-2,2l0,2l-2,0l0,-2l2,0Zm-2,2l0,2l-2,0l0,-2l2,0Zm-2,2l0,2l-2,0l0,-2l2,0Zm-2,2l0,2l-2,0l0,-2l2,0Zm-2,2l0,2l-2,0l0,-2l2,0Zm-2,2l0,2l-2,0l0,-2l2,0Zm-2,2l0,2l-2,0l0,-2l2,0Z" style="fill:#d1d6da;" />
        <path d="M16,58l-8,0l0,-2l2,0l0,-2l4,0l0,-2l4,0l0,-2l4,0l0,2l2,0l0,2l-2,0l0,2l-6,0l0,2Zm44,-44l0,4l-4,0l0,-4l4,0Z" style="fill:#ca006a;" />
        <path d="M54,20l0,-4l2,0l0,2l2,0l0,2l-4,0Zm-28,32l-4,0l0,-4l2,0l0,2l2,0l0,2Zm-2,-4l0,-2l2,0l0,-2l2,0l0,-2l2,0l0,-2l2,0l0,-2l2,0l0,-2l2,0l0,-2l2,0l0,-2l2,0l0,-2l2,0l0,-2l2,0l0,-2l2,0l0,-2l2,0l0,-2l2,0l0,-2l4,0l0,4l-2,0l0,2l-2,0l0,2l-2,0l0,2l-2,0l0,2l-2,0l0,2l-2,0l0,2l-2,0l0,2l-2,0l0,2l-2,0l0,2l-2,0l0,2l-2,0l0,2l-2,0l0,2l-2,0l0,2l-2,0l0,-2l-2,0Z" style="fill:#f9dbb9;" />
      </g>
    </g>
  </g>
  <metadata>
    <rdf:RDF>
      <cc:Work rdf:about="">
        <cc:License rdf:resource="http://creativecommons.org/licenses/by-sa/4.0/" />
        <dc:right>
          <cc:Agent>
            <dc:title>CC-BY-SA 4.0 Jugend Hackt</dc:title>
          </cc:Agent>
        </dc:right>
        <dc:title>
          <cc:Agent>
            <dc:title>Pixelhack</dc:title>
          </cc:Agent>
        </dc:title>
        <dc:contributor>
          <cc:Agent>
            <dc:title>Hanno Sternberg</dc:title>
          </cc:Agent>
        </dc:contributor>
        <dc:creator>
          <cc:Agent>
            <dc:title>Jugend Hackt</dc:title>
          </cc:Agent>
        </dc:creator>
        <dc:date>
          <cc:Agent>
            <dc:title>2013</dc:title>
          </cc:Agent>
        </dc:date>
      </cc:Work>
      <cc:License rdf:about="http://creativecommons.org/licenses/by-sa/4.0/">
        <cc:permits rdf:resource="http://creativecommons.org/ns#DerivativeWorks" />
        <cc:requires rdf:resource="http://creativecommons.org/ns#ShareAlike" />
      </cc:License>
    </rdf:RDF>
  </metadata>
</svg>