<?xml version="1.0" encoding="UTF-8" standalone="no"?>
<!DOCTYPE svg PUBLIC "-//W3C//DTD SVG 1.1//EN" "http://www.w3.org/Graphics/SVG/1.1/DTD/svg11.dtd">
<svg xmlns="http://www.w3.org/2000/svg" xmlns:serif="http://www.serif.com/" width="100%" height="100%" viewBox="0 0 64 48" version="1.1" xml:space="preserve" style="fill-rule:evenodd;clip-rule:evenodd;stroke-linejoin:round;stroke-miterlimit:2;" xmlns:rdf="http://www.w3.org/1999/02/22-rdf-syntax-ns" xmlns:cc="http://creativecommons.org/ns" xmlns:dc="http://purl.org/dc/elements/1.1/">
  <g id="Cat---Dog" serif:id="Cat &amp; Dog">
    <g>
      <g>
        <path d="M2,18l-2,0l0,-4l2,0l0,4Zm0,-4l0,-2l4,0l0,2l-4,0Zm4,0l2,0l0,2l-2,0l0,-2Zm2,2l20,0l0,12l-2,0l0,-10l-18,0l0,-2Zm20,0l0,-2l2,0l0,2l-2,0Zm2,-2l0,-2l4,0l0,2l-4,0Zm4,-2l0,-2l20,0l0,2l-20,0Zm20,0l4,0l0,2l-4,0l0,-2Zm4,2l2,0l0,2l-2,0l0,-2Zm2,2l2,0l0,12l-2,0l0,-12Zm0,12l0,4l-6,0l0,-2l-2,0l0,-2l2,0l0,-2l2,0l0,4l2,0l0,-2l2,0Zm-8,2l0,2l-2,0l0,-2l2,0Zm-2,2l0,2l-4,0l0,8l-8,0l0,-4l-2,0l0,4l-8,0l0,-4l-10,0l0,4l-6,0l0,-2l-4,0l0,-8l4,0l0,-6l-6,0l0,-2l8,0l0,16l2,0l0,-4l14,0l0,4l4,0l0,-4l6,0l0,4l4,0l0,-6l-8,0l0,-2l14,0Zm-44,-8l-2,0l0,-2l2,0l0,2Zm-2,-2l-2,0l0,-4l2,0l0,4Zm8,16l0,-4l-2,0l0,4l2,0Zm24,-6l-2,0l0,-6l2,0l0,6Zm-2,-6l-2,0l0,-2l2,0l0,2Zm-2,0l0,2l-2,0l0,-2l2,0Zm-2,2l0,2l-2,0l0,-2l2,0Zm10,-10l0,2l-2,0l0,-2l2,0Zm12,0l0,2l-2,0l0,-2l2,0Zm-6,10l-4,0l0,-2l2,0l0,-2l2,0l0,4Z" />
        <path d="M4,18l-2,0l0,-4l4,0l0,2l2,0l0,2l18,0l0,10l2,0l0,2l2,0l0,-2l2,0l0,-2l2,0l0,6l2,0l0,2l8,0l0,6l-4,0l0,-4l-6,0l0,4l-4,0l0,-4l-14,0l0,4l-2,0l0,-16l-8,0l0,-2l-2,0l0,-4Zm24,10l0,-12l2,0l0,-2l4,0l0,-2l20,0l0,2l4,0l0,2l2,0l0,12l-2,0l0,2l-2,0l0,-4l-2,0l0,2l-2,0l0,2l-2,0l0,2l-14,0l0,-6l-2,0l0,-2l-2,0l0,2l-2,0l0,2l-2,0Zm24,-10l-4,0l0,4l4,0l0,-4Zm-12,0l-4,0l0,4l4,0l0,-4Zm6,10l0,-4l-2,0l0,2l-2,0l0,2l4,0Zm-34,6l0,4l-2,0l0,-4l2,0Z" style="fill:#ff3b8d;" />
        <path d="M40,22l-4,0l0,-4l2,0l0,2l2,0l0,2Zm12,0l-4,0l0,-4l2,0l0,2l2,0l0,2Z" style="fill:#fff;" />
      </g>
    </g>
    <g>
      <g>
        <path d="M-60,64l-4,0l0,-8l4,0l0,8Zm0,-8l0,-4l8,0l0,4l-8,0Zm8,0l4,0l0,4l-4,0l0,-4Zm4,4l40,0l0,24l-4,0l0,-20l-36,0l0,-4Zm40,0l0,-4l4,0l0,4l-4,0Zm4,-4l0,-4l8,0l0,4l-8,0Zm8,-4l0,-4l40,0l0,4l-40,0Zm40,0l8,0l0,4l-8,0l0,-4Zm8,4l4,0l0,4l-4,0l0,-4Zm4,4l4,0l0,24l-4,0l0,-24Zm0,24l0,8l-12,0l0,-4l-4,0l0,-4l4,0l0,-4l4,0l0,8l4,0l0,-4l4,0Zm-16,4l0,4l-4,0l0,-4l4,0Zm-4,4l0,4l-10,0l0,16l-16,0l0,-8l-4,0l0,8l-16,0l0,-8l-18,0l0,8l-14,0l0,-4l-8,0l0,-14l8,0l0,-14l-10,0l0,-4l14,0l0,32l6,0l0,-8l26,0l0,8l8,0l0,-8l12,0l0,8l8,0l0,-12l-14,0l0,-4l28,0Zm-88,-16l-4,0l0,-4l4,0l0,4Zm-4,-4l-4,0l0,-8l4,0l0,8Zm14,32l0,-6l-4,0l0,6l4,0Zm50,-12l-4,0l0,-12l4,0l0,12Zm-4,-12l-4,0l0,-4l4,0l0,4Zm-4,0l0,4l-4,0l0,-4l4,0Zm-4,4l0,4l-4,0l0,-4l4,0Zm20,-20l0,4l-4,0l0,-4l4,0Zm8,18l2,0l0,4l-2,0l0,-4Zm-2,0l0,-6l4,0l0,4l-2,0l0,2l-2,0Zm-2,4l0,2l-2,0l0,-2l2,0Zm6,0l2,0l0,2l-2,0l0,-2Zm-6,0l0,-4l2,0l0,4l-2,0Zm18,-22l0,4l-4,0l0,-4l4,0Z" />
      </g>
    </g>
  </g>
  <metadata>
    <rdf:RDF>
      <cc:Work rdf:about="">
        <cc:License rdf:resource="http://creativecommons.org/licenses/by-sa/4.0/" />
        <dc:right>
          <cc:Agent>
            <dc:title>CC-BY-SA 4.0 Jugend Hackt</dc:title>
          </cc:Agent>
        </dc:right>
        <dc:title>
          <cc:Agent>
            <dc:title>Pixelhack</dc:title>
          </cc:Agent>
        </dc:title>
        <dc:contributor>
          <cc:Agent>
            <dc:title>Hanno Sternberg</dc:title>
          </cc:Agent>
        </dc:contributor>
        <dc:creator>
          <cc:Agent>
            <dc:title>Jugend Hackt</dc:title>
          </cc:Agent>
        </dc:creator>
        <dc:date>
          <cc:Agent>
            <dc:title>2013</dc:title>
          </cc:Agent>
        </dc:date>
      </cc:Work>
      <cc:License rdf:about="http://creativecommons.org/licenses/by-sa/4.0/">
        <cc:permits rdf:resource="http://creativecommons.org/ns#DerivativeWorks" />
        <cc:requires rdf:resource="http://creativecommons.org/ns#ShareAlike" />
      </cc:License>
    </rdf:RDF>
  </metadata>
</svg>