<?xml version="1.0" encoding="UTF-8" standalone="no"?>
<!DOCTYPE svg PUBLIC "-//W3C//DTD SVG 1.1//EN" "http://www.w3.org/Graphics/SVG/1.1/DTD/svg11.dtd">
<svg xmlns="http://www.w3.org/2000/svg" xmlns:serif="http://www.serif.com/" width="100%" height="100%" viewBox="0 0 64 64" version="1.1" xml:space="preserve" style="fill-rule:evenodd;clip-rule:evenodd;stroke-linejoin:round;stroke-miterlimit:2;" xmlns:rdf="http://www.w3.org/1999/02/22-rdf-syntax-ns" xmlns:cc="http://creativecommons.org/ns" xmlns:dc="http://purl.org/dc/elements/1.1/">
  <g id="Colorful-Objekts" serif:id="Colorful Objekts">
    <g id="Donuts">
      <g>
        <path d="M10,28l-2,0l0,-4l2,0l0,-8l2,0l0,-4l2,0l0,-2l2,0l0,-2l2,0l0,-2l4,0l0,-2l6,0l0,-2l8,0l0,2l6,0l0,2l4,0l0,2l2,0l0,2l2,0l0,2l2,0l0,2l2,0l0,6l2,0l0,14l-2,0l0,4l-2,0l0,2l-2,0l0,6l-2,0l0,-2l-2,0l0,2l-2,0l0,2l-2,0l0,2l-2,0l0,-2l-2,0l0,2l-4,0l0,-2l-2,0l0,4l-2,0l0,-2l-4,0l0,-2l-2,0l0,2l-4,0l0,-4l-2,0l0,-2l-2,0l0,-2l-2,0l0,-2l-2,0l0,-4l2,0l0,-2l-2,0l0,2l-2,0l0,-8Zm2,-2l0,2l4,0l0,-4l-2,0l0,2l-2,0Zm4,-8l0,2l2,0l0,-2l-2,0Zm6,-4l0,2l2,0l0,-2l2,0l0,-2l-2,0l0,2l-2,0Zm-2,8l-2,0l0,2l2,0l0,-2Zm16,-14l-2,0l0,2l2,0l0,-2Zm-4,0l-2,0l0,2l2,0l0,-2Zm10,6l0,2l4,0l0,-2l2,0l0,-2l-4,0l0,2l-2,0Zm-4,2l-10,0l0,2l-2,0l0,2l-2,0l0,2l-2,0l0,4l2,0l0,4l2,0l0,2l2,0l0,2l10,0l0,-2l2,0l0,-4l2,0l0,-8l-2,0l0,-2l-2,0l0,-2Zm12,4l-2,0l0,2l2,0l0,-2Zm0,12l0,-4l-2,0l0,2l-2,0l0,2l4,0Zm-4,8l0,-2l-2,0l0,-2l-2,0l0,2l2,0l0,2l2,0Zm-4,6l0,-2l-2,0l0,2l2,0Zm-6,-4l0,-2l-2,0l0,2l-2,0l0,2l2,0l0,-2l2,0Zm-12,0l0,-4l-4,0l0,2l2,0l0,2l2,0Zm-4,-10l0,2l2,0l0,-2l-2,0Z" style="fill:#8000ff;" />
        <path d="M24,14l0,2l-2,0l0,-2l2,0Zm0,0l0,-2l2,0l0,2l-2,0Zm22,0l0,2l-4,0l0,-2l2,0l0,-2l4,0l0,2l-2,0Zm-30,14l-4,0l0,-2l2,0l0,-2l2,0l0,4Zm34,4l-4,0l0,-2l2,0l0,-2l2,0l0,4Zm-6,6l2,0l0,2l-2,0l0,-2Zm0,0l-2,0l0,-2l2,0l0,2Zm-22,2l-2,0l0,-2l4,0l0,4l-2,0l0,-2Zm12,2l0,2l-2,0l0,-2l2,0Zm0,0l0,-2l2,0l0,2l-2,0Zm-2,-34l0,2l-2,0l0,-2l2,0Zm4,0l0,2l-2,0l0,-2l2,0Zm-18,10l0,2l-2,0l0,-2l2,0Zm32,2l0,2l-2,0l0,-2l2,0Zm-30,2l0,2l-2,0l0,-2l2,0Zm2,10l0,2l-2,0l0,-2l2,0Zm-8,2l0,2l-2,0l0,-2l2,0Zm28,10l0,2l-2,0l0,-2l2,0Zm-8,4l0,2l-2,0l0,-2l2,0Z" style="fill:#fff;" />
        <path d="M22,26l0,-4l2,0l0,-2l2,0l0,-2l2,0l0,-2l10,0l0,2l2,0l0,2l-4,0l0,-2l-4,0l0,4l-2,0l0,-2l-2,0l0,2l-2,0l0,2l-2,0l0,2l-2,0Zm18,-6l2,0l0,4l-2,0l0,-4Z" style="fill:#550080;" />
        <path d="M26,28l0,2l-2,0l0,-6l2,0l0,-2l2,0l0,-2l2,0l0,2l2,0l0,-4l4,0l0,2l4,0l0,4l2,0l0,4l-4,0l0,-2l-10,0l0,2l-2,0Zm-8,18l2,0l0,2l-2,0l0,-2Zm-6,-6l2,0l0,2l-2,0l0,-2Zm0,0l-2,0l0,-4l2,0l0,4Zm4,4l2,0l0,2l-2,0l0,-2Zm-2,-2l2,0l0,2l-2,0l0,-2Zm38,-2l0,2l-2,0l0,-2l2,0Zm0,0l0,-2l2,0l0,2l-2,0Zm-8,8l0,2l-2,0l0,-2l2,0Zm0,0l0,-2l2,0l0,2l-2,0Zm2,-2l0,-2l2,0l0,2l-2,0Zm-20,4l4,0l0,2l-4,0l0,-2Zm0,0l-2,0l0,-2l2,0l0,2Zm12,0l0,-2l2,0l0,2l-2,0Zm0,0l0,2l-6,0l0,-2l6,0Zm18,-16l0,2l-2,0l0,-2l2,0Z" style="fill:#bf8e67;" />
        <path d="M54,40l0,-4l2,0l0,4l-2,0Zm-42,4l-2,0l0,-4l2,0l0,2l2,0l0,2l2,0l0,2l2,0l0,2l2,0l0,2l6,0l0,2l12,0l0,-2l6,0l0,-2l2,0l0,-2l4,0l0,-4l2,0l0,-2l2,0l0,6l-2,0l0,2l-2,0l0,4l-4,0l0,2l-2,0l0,2l-6,0l0,2l-12,0l0,-2l-4,0l0,-2l-4,0l0,-2l-2,0l0,-2l-2,0l0,-2l-2,0l0,-4Zm-2,-16l0,8l-2,0l0,-8l2,0Z" style="fill:#e1bb95;" />
      </g>
    </g>
  </g>
  <metadata>
    <rdf:RDF>
      <cc:Work rdf:about="">
        <cc:License rdf:resource="http://creativecommons.org/licenses/by-sa/4.0/" />
        <dc:right>
          <cc:Agent>
            <dc:title>CC-BY-SA 4.0 Jugend Hackt</dc:title>
          </cc:Agent>
        </dc:right>
        <dc:title>
          <cc:Agent>
            <dc:title>Pixelhack</dc:title>
          </cc:Agent>
        </dc:title>
        <dc:contributor>
          <cc:Agent>
            <dc:title>Hanno Sternberg</dc:title>
          </cc:Agent>
        </dc:contributor>
        <dc:creator>
          <cc:Agent>
            <dc:title>Jugend Hackt</dc:title>
          </cc:Agent>
        </dc:creator>
        <dc:date>
          <cc:Agent>
            <dc:title>2013</dc:title>
          </cc:Agent>
        </dc:date>
      </cc:Work>
      <cc:License rdf:about="http://creativecommons.org/licenses/by-sa/4.0/">
        <cc:permits rdf:resource="http://creativecommons.org/ns#DerivativeWorks" />
        <cc:requires rdf:resource="http://creativecommons.org/ns#ShareAlike" />
      </cc:License>
    </rdf:RDF>
  </metadata>
</svg>