<?xml version="1.0" encoding="UTF-8" standalone="no"?>
<!DOCTYPE svg PUBLIC "-//W3C//DTD SVG 1.1//EN" "http://www.w3.org/Graphics/SVG/1.1/DTD/svg11.dtd">
<svg xmlns="http://www.w3.org/2000/svg" xmlns:serif="http://www.serif.com/" width="100%" height="100%" viewBox="0 0 64 64" version="1.1" xml:space="preserve" style="fill-rule:evenodd;clip-rule:evenodd;stroke-linejoin:round;stroke-miterlimit:2;" xmlns:rdf="http://www.w3.org/1999/02/22-rdf-syntax-ns" xmlns:cc="http://creativecommons.org/ns" xmlns:dc="http://purl.org/dc/elements/1.1/">
  <g id="Devices">
    <g id="E-Reader--empty_" serif:id="E Reader (empty_">
      <path d="M12,56l0,-48l2,0l0,-2l36,0l0,2l4,0l0,48l-4,0l0,2l-36,0l0,-2l-2,0Zm4,-48l0,2l-2,0l0,44l2,0l0,2l30,0l0,-2l2,0l0,-44l-2,0l0,-2l-30,0Zm36,10l-2,0l0,8l2,0l0,-8Zm0,28l0,-8l-2,0l0,8l2,0Zm0,-12l0,-4l-2,0l0,4l2,0Z" />
      <path d="M16,54l-2,0l0,-44l2,0l0,-2l30,0l0,2l2,0l0,44l-2,0l0,2l-30,0l0,-2Z" style="fill:#d1d6da;" />
      <path d="M52,18l0,8l-2,0l0,-8l2,0Zm0,12l0,4l-2,0l0,-4l2,0Zm0,8l0,8l-2,0l0,-8l2,0Z" style="fill:#52575b;" />
    </g>
  </g>
  <g id="Creatures">
    <g id="Wrestlers">
      <g>
        <path d="M68,88l-4,0l0,-60l4,0l0,-4l4,0l0,-4l4,0l0,-4l4,0l0,-4l32,0l0,4l4,0l0,4l4,0l0,4l4,0l0,4l4,0l0,60l-4,0l0,4l-4,0l0,4l-8,0l0,8l-4,0l0,4l-24,0l0,-4l-4,0l0,-8l-8,0l0,-4l-4,0l0,-4Zm0,-48l0,16l4,0l0,4l4,0l0,4l12,0l0,8l-8,0l0,16l32,0l0,-16l-8,0l0,-8l12,0l0,-4l4,0l0,-4l4,0l0,-16l-24,0l0,4l-8,0l0,-4l-24,0Zm32,24l0,4l-8,0l0,-4l8,0Z" style="fill:#52575b;" />
      </g>
    </g>
  </g>
  <metadata>
    <rdf:RDF>
      <cc:Work rdf:about="">
        <cc:License rdf:resource="http://creativecommons.org/licenses/by-sa/4.0/" />
        <dc:right>
          <cc:Agent>
            <dc:title>CC-BY-SA 4.0 Jugend Hackt</dc:title>
          </cc:Agent>
        </dc:right>
        <dc:title>
          <cc:Agent>
            <dc:title>Pixelhack</dc:title>
          </cc:Agent>
        </dc:title>
        <dc:contributor>
          <cc:Agent>
            <dc:title>Hanno Sternberg</dc:title>
          </cc:Agent>
        </dc:contributor>
        <dc:creator>
          <cc:Agent>
            <dc:title>Jugend Hackt</dc:title>
          </cc:Agent>
        </dc:creator>
        <dc:date>
          <cc:Agent>
            <dc:title>2013</dc:title>
          </cc:Agent>
        </dc:date>
      </cc:Work>
      <cc:License rdf:about="http://creativecommons.org/licenses/by-sa/4.0/">
        <cc:permits rdf:resource="http://creativecommons.org/ns#DerivativeWorks" />
        <cc:requires rdf:resource="http://creativecommons.org/ns#ShareAlike" />
      </cc:License>
    </rdf:RDF>
  </metadata>
</svg>