<?xml version="1.0" encoding="UTF-8" standalone="no"?>
<!DOCTYPE svg PUBLIC "-//W3C//DTD SVG 1.1//EN" "http://www.w3.org/Graphics/SVG/1.1/DTD/svg11.dtd">
<svg xmlns="http://www.w3.org/2000/svg" width="100%" height="100%" viewBox="0 0 64 64" version="1.1" xml:space="preserve" style="fill-rule:evenodd;clip-rule:evenodd;stroke-linejoin:round;stroke-miterlimit:2;" xmlns:rdf="http://www.w3.org/1999/02/22-rdf-syntax-ns" xmlns:cc="http://creativecommons.org/ns" xmlns:dc="http://purl.org/dc/elements/1.1/">
  <g id="Devices">
    <g id="E-reader">
      <g>
        <path d="M14,56l-2,0l0,-48l2,0l0,-2l36,0l0,2l4,0l0,48l-4,0l0,2l-36,0l0,-2Z" style="fill:#010001;" />
        <path d="M16,54l-2,0l0,-44l2,0l0,-2l30,0l0,2l2,0l0,44l-2,0l0,2l-30,0l0,-2Z" style="fill:#d1d6da;" />
        <path d="M52,18l0,8l-2,0l0,-8l2,0Zm0,12l0,4l-2,0l0,-4l2,0Zm0,8l0,8l-2,0l0,-8l2,0Z" style="fill:#52575b;" />
      </g>
      <g>
        <rect x="18" y="12" width="8" height="2" style="fill:#52575b;" />
        <rect x="28" y="12" width="4" height="2" style="fill:#52575b;" />
        <rect x="34" y="12" width="4" height="2" style="fill:#52575b;" />
        <rect x="40" y="12" width="4" height="2" style="fill:#52575b;" />
        <rect x="18" y="16" width="6" height="2" style="fill:#fcd009;" />
        <rect x="26" y="16" width="8" height="2" style="fill:#52575b;" />
        <rect x="36" y="16" width="4" height="2" style="fill:#52575b;" />
        <rect x="42" y="16" width="2" height="2" style="fill:#52575b;" />
        <rect x="18" y="20" width="6" height="2" style="fill:#52575b;" />
        <rect x="26" y="20" width="2" height="2" style="fill:#52575b;" />
        <rect x="30" y="20" width="6" height="2" style="fill:#52575b;" />
        <rect x="38" y="20" width="4" height="2" style="fill:#52575b;" />
        <rect x="18" y="24" width="2" height="2" style="fill:#52575b;" />
        <rect x="22" y="24" width="4" height="2" style="fill:#52575b;" />
        <rect x="28" y="24" width="6" height="2" style="fill:#52575b;" />
        <rect x="36" y="24" width="6" height="2" style="fill:#52575b;" />
        <rect x="18" y="28" width="6" height="2" style="fill:#52575b;" />
        <rect x="26" y="28" width="6" height="2" style="fill:#e6414a;" />
        <rect x="34" y="28" width="6" height="2" style="fill:#52575b;" />
        <rect x="42" y="28" width="2" height="2" style="fill:#52575b;" />
        <rect x="18" y="32" width="4" height="2" style="fill:#52575b;" />
        <rect x="24" y="32" width="6" height="2" style="fill:#52575b;" />
        <rect x="32" y="32" width="6" height="2" style="fill:#ca006a;" />
        <rect x="40" y="32" width="4" height="2" style="fill:#52575b;" />
        <rect x="18" y="36" width="8" height="2" style="fill:#52575b;" />
        <rect x="28" y="36" width="4" height="2" style="fill:#52575b;" />
        <rect x="34" y="36" width="2" height="2" style="fill:#52575b;" />
        <rect x="38" y="36" width="6" height="2" style="fill:#09aa24;" />
        <rect x="18" y="40" width="6" height="2" style="fill:#52575b;" />
        <rect x="26" y="40" width="4" height="2" style="fill:#52575b;" />
        <rect x="32" y="40" width="4" height="2" style="fill:#f3971a;" />
        <rect x="38" y="40" width="4" height="2" style="fill:#52575b;" />
        <rect x="18" y="44" width="8" height="2" style="fill:#550080;" />
        <rect x="28" y="44" width="4" height="2" style="fill:#52575b;" />
        <rect x="34" y="44" width="3" height="2" style="fill:#52575b;" />
        <rect x="40" y="44" width="4" height="2" style="fill:#52575b;" />
        <rect x="18" y="48" width="4" height="2" style="fill:#52575b;" />
        <rect x="24" y="48" width="6" height="2" style="fill:#52575b;" />
        <rect x="32" y="48" width="4" height="2" style="fill:#52575b;" />
        <rect x="38" y="48" width="4" height="2" style="fill:#52575b;" />
      </g>
    </g>
  </g>
  <metadata>
    <rdf:RDF>
      <cc:Work rdf:about="">
        <cc:License rdf:resource="http://creativecommons.org/licenses/by-sa/4.0/" />
        <dc:right>
          <cc:Agent>
            <dc:title>CC-BY-SA 4.0 Jugend Hackt</dc:title>
          </cc:Agent>
        </dc:right>
        <dc:title>
          <cc:Agent>
            <dc:title>Pixelhack</dc:title>
          </cc:Agent>
        </dc:title>
        <dc:contributor>
          <cc:Agent>
            <dc:title>Hanno Sternberg</dc:title>
          </cc:Agent>
        </dc:contributor>
        <dc:creator>
          <cc:Agent>
            <dc:title>Jugend Hackt</dc:title>
          </cc:Agent>
        </dc:creator>
        <dc:date>
          <cc:Agent>
            <dc:title>2013</dc:title>
          </cc:Agent>
        </dc:date>
      </cc:Work>
      <cc:License rdf:about="http://creativecommons.org/licenses/by-sa/4.0/">
        <cc:permits rdf:resource="http://creativecommons.org/ns#DerivativeWorks" />
        <cc:requires rdf:resource="http://creativecommons.org/ns#ShareAlike" />
      </cc:License>
    </rdf:RDF>
  </metadata>
</svg>