<?xml version="1.0" encoding="UTF-8" standalone="no"?>
<!DOCTYPE svg PUBLIC "-//W3C//DTD SVG 1.1//EN" "http://www.w3.org/Graphics/SVG/1.1/DTD/svg11.dtd">
<svg xmlns="http://www.w3.org/2000/svg" xmlns:serif="http://www.serif.com/" width="100%" height="100%" viewBox="0 0 64 64" version="1.1" xml:space="preserve" style="fill-rule:evenodd;clip-rule:evenodd;stroke-linejoin:round;stroke-miterlimit:2;" xmlns:rdf="http://www.w3.org/1999/02/22-rdf-syntax-ns" xmlns:cc="http://creativecommons.org/ns" xmlns:dc="http://purl.org/dc/elements/1.1/">
  <g id="Colorful-Objekts" serif:id="Colorful Objekts">
    <g id="Eye">
      <g id="Eye2" serif:id="Eye">
        <path d="M4,34l-2,0l0,-8l2,0l0,8Zm0,-8l0,-4l2,0l0,4l-2,0Zm2,-4l0,-2l2,0l0,2l-2,0Zm2,-2l0,-2l2,0l0,2l-2,0Zm2,-2l0,-2l2,0l0,2l-2,0Zm2,-2l0,-2l2,0l0,2l-2,0Zm2,-2l0,-2l2,0l0,2l-2,0Zm2,-2l0,-2l4,0l0,2l-4,0Zm4,-2l0,-2l6,0l0,2l-6,0Zm6,-2l0,-2l12,0l0,2l-12,0Zm12,0l6,0l0,2l-6,0l0,-2Zm6,2l4,0l0,2l-4,0l0,-2Zm4,2l2,0l0,2l-2,0l0,-2Zm2,2l2,0l0,2l-2,0l0,-2Zm2,2l2,0l0,2l-2,0l0,-2Zm2,2l2,0l0,2l-2,0l0,-2Zm2,2l2,0l0,2l-2,0l0,-2Zm2,2l2,0l0,4l-2,0l0,-4Zm2,4l2,0l0,8l-2,0l0,-8Zm0,8l0,4l-2,0l0,-4l2,0Zm-2,4l0,4l-2,0l0,-4l2,0Zm-2,4l0,2l-2,0l0,-2l2,0Zm-2,2l0,2l-2,0l0,-2l2,0Zm-2,2l0,2l-2,0l0,-2l2,0Zm-2,2l0,2l-4,0l0,-2l4,0Zm-4,2l0,2l-6,0l0,-2l6,0Zm-6,2l0,2l-16,0l0,-2l16,0Zm-16,0l-6,0l0,-2l6,0l0,2Zm-6,-2l-2,0l0,-2l2,0l0,2Zm-2,-2l-4,0l0,-2l4,0l0,2Zm-4,-2l-2,0l0,-2l2,0l0,2Zm-2,-2l-2,0l0,-2l2,0l0,2Zm-2,-2l-2,0l0,-4l2,0l0,4Zm-2,-4l-2,0l0,-4l2,0l0,4Z" style="fill:#52575b;" />
        <path d="M6,34l-2,0l0,-8l2,0l0,8Zm0,-8l0,-4l2,0l0,4l-2,0Zm2,-4l0,-2l2,0l0,2l-2,0Zm2,-2l0,-2l2,0l0,2l-2,0Zm2,-2l0,-2l2,0l0,2l-2,0Zm2,-2l0,-2l2,0l0,2l-2,0Zm2,-2l0,-2l4,0l0,2l-4,0Zm4,-2l0,-2l6,0l0,2l-6,0Zm6,-2l0,-2l12,0l0,2l-12,0Zm12,0l6,0l0,2l-6,0l0,-2Zm6,2l4,0l0,2l-4,0l0,-2Zm4,2l2,0l0,2l-2,0l0,-2Zm2,2l2,0l0,2l-2,0l0,-2Zm2,2l2,0l0,2l-2,0l0,-2Zm2,2l2,0l0,2l-2,0l0,-2Zm2,2l2,0l0,4l-2,0l0,-4Zm2,4l2,0l0,8l-2,0l0,-8Zm0,8l0,4l-2,0l0,-4l2,0Zm-2,4l0,4l-2,0l0,-4l2,0Zm-2,4l0,2l-2,0l0,-2l2,0Zm-2,2l0,2l-2,0l0,-2l2,0Zm-2,2l0,2l-4,0l0,-2l4,0Zm-4,2l0,2l-6,0l0,-2l6,0Zm-6,2l0,2l-16,0l0,-2l16,0Zm-16,0l-6,0l0,-2l6,0l0,2Zm-6,-2l-2,0l0,-2l2,0l0,2Zm-2,-2l-4,0l0,-2l4,0l0,2Zm-4,-2l-2,0l0,-2l2,0l0,2Zm-2,-2l-2,0l0,-4l2,0l0,4Zm-2,-4l-2,0l0,-4l2,0l0,4Z" style="fill:#d1d6da;" />
        <path d="M8,34l-2,0l0,-8l2,0l0,-4l2,0l0,-2l2,0l0,-2l2,0l0,-2l2,0l0,-2l4,0l0,-2l6,0l0,-2l12,0l0,2l8,0l0,2l2,0l0,4l4,0l0,2l2,0l0,2l2,0l0,4l2,0l0,9l-2,0l0,3l-2,0l0,4l-2,0l0,2l-2,0l0,2l-4,0l0,2l-6,0l0,2l-16,0l0,-2l-4,0l0,-2l-4,0l0,-2l-4,0l0,-2l-2,0l0,-4l-2,0l0,-4Z" style="fill:#fefffe;" />
        <path d="M46,22l0,4l2,-0l0,8l-2,0l0,4l-2,-0l0,4l-4,-0l0,2l-4,0l0,2l-8,0l0,-2l-4,0l0,-2l-2,-0l0,-2l-2,-0l0,-2l-2,-0l0,-14l2,-0l0,-4l2,0l0,-2l2,0l0,-2l16,0l0,2l2,0l0,2l2,0l0,2l2,-0Z" style="fill:#ea680d;" />
        <path d="M18,38l-2,0l0,-14l2,0l0,14Zm0,-14l0,-4l2,0l0,4l-2,0Zm2,-4l0,-2l2,0l0,2l-2,0Zm2,-2l0,-2l2,0l0,2l-2,0Zm2,-2l0,-2l16,0l0,2l-16,0Zm16,0l2,0l0,2l-2,0l0,-2Zm2,2l2,0l0,2l-2,0l0,-2Zm2,2l2,0l0,2l-2,0l0,-2Zm2,2l2,0l0,4l-2,0l0,-4Zm2,4l2,0l0,8l-2,0l0,-8Zm0,8l0,4l-2,0l0,-4l2,0Zm-2,4l0,4l-2,0l0,-4l2,0Zm-2,4l0,2l-4,0l0,-2l4,0Zm-4,2l0,2l-4,0l0,-2l4,0Zm-4,2l0,2l-8,0l0,-2l8,0Zm-8,0l-4,0l0,-2l4,0l0,2Zm-4,-2l-2,0l0,-2l2,0l0,2Zm-2,-2l-2,0l0,-2l2,0l0,2Zm-2,-2l-2,0l0,-2l2,0l0,2Z" style="fill:#f3971a;" />
        <path d="M26,32l-2,0l0,-4l2,0l0,-4l5,-0l0,-2l3,0l0,2l4,-0l0,2l2,0l0,8l-2,0l0,2l-2,-0l0,2l-8,0l0,-2l-2,-0l0,-4Z" style="fill:#010001;" />
        <path d="M26,26l-2,0l0,-4l2,0l0,-2l4,0l0,2l2,0l0,4l-2,0l0,2l-4,0l0,-2Z" style="fill:#fefffe;" />
      </g>
    </g>
  </g>
  <metadata>
    <rdf:RDF>
      <cc:Work rdf:about="">
        <cc:License rdf:resource="http://creativecommons.org/licenses/by-sa/4.0/" />
        <dc:right>
          <cc:Agent>
            <dc:title>CC-BY-SA 4.0 Jugend Hackt</dc:title>
          </cc:Agent>
        </dc:right>
        <dc:title>
          <cc:Agent>
            <dc:title>Pixelhack</dc:title>
          </cc:Agent>
        </dc:title>
        <dc:contributor>
          <cc:Agent>
            <dc:title>Hanno Sternberg</dc:title>
          </cc:Agent>
        </dc:contributor>
        <dc:creator>
          <cc:Agent>
            <dc:title>Jugend Hackt</dc:title>
          </cc:Agent>
        </dc:creator>
        <dc:date>
          <cc:Agent>
            <dc:title>2013</dc:title>
          </cc:Agent>
        </dc:date>
      </cc:Work>
      <cc:License rdf:about="http://creativecommons.org/licenses/by-sa/4.0/">
        <cc:permits rdf:resource="http://creativecommons.org/ns#DerivativeWorks" />
        <cc:requires rdf:resource="http://creativecommons.org/ns#ShareAlike" />
      </cc:License>
    </rdf:RDF>
  </metadata>
</svg>