<?xml version="1.0" encoding="UTF-8" standalone="no"?>
<!DOCTYPE svg PUBLIC "-//W3C//DTD SVG 1.1//EN" "http://www.w3.org/Graphics/SVG/1.1/DTD/svg11.dtd">
<svg xmlns="http://www.w3.org/2000/svg" xmlns:serif="http://www.serif.com/" width="100%" height="100%" viewBox="0 0 128 64" version="1.1" xml:space="preserve" style="fill-rule:evenodd;clip-rule:evenodd;stroke-linejoin:round;stroke-miterlimit:2;" xmlns:rdf="http://www.w3.org/1999/02/22-rdf-syntax-ns" xmlns:cc="http://creativecommons.org/ns" xmlns:dc="http://purl.org/dc/elements/1.1/">
  <g id="Pride-Flags" serif:id="Pride Flags">
    <g>
      <g>
        <path d="M28,14l-4,0l0,-4l20,0l0,-2l6,0l0,-2l6,0l0,-2l8,0l0,2l6,0l0,2l6,0l0,2l8,0l0,-2l8,0l0,-2l10,0l0,2l8,0l0,2l14,0l0,8l-14,0l0,-2l-8,0l0,-2l-10,0l0,2l-8,0l0,2l-8,0l0,-2l-6,0l0,-2l-6,0l0,-2l-8,0l0,2l-6,0l0,2l-6,0l0,2l-16,0l0,-4Z" style="fill:#e52320;" />
        <path d="M12,6l0,8l-8,0l0,-8l8,0Zm0,48l0,8l-8,0l0,-8l8,0Z" style="fill:#52575b;" />
        <path d="M24,46l0,4l-4,0l0,-4l4,0Zm8,-16l4,0l0,8l-4,0l0,-8Zm-12,-12l4,0l0,4l-4,0l0,-4Zm12,20l0,4l-4,0l0,-4l4,0Zm-4,4l0,4l-4,0l0,-4l4,0Zm-12,-28l-4,0l0,-4l4,0l0,4Zm8,8l4,0l0,4l-4,0l0,-4Zm4,4l4,0l0,4l-4,0l0,-4Zm-12,28l0,4l-4,0l0,-4l4,0Zm0,-40l4,0l0,4l-4,0l0,-4Zm4,36l0,4l-4,0l0,-4l4,0Z" style="fill:#16a6de;" />
        <path d="M24,50l0,4l-4,0l0,-4l4,0Zm12,-20l4,0l0,8l-4,0l0,-8Zm0,8l0,4l-4,0l0,-4l4,0Zm-8,-16l4,0l0,4l-4,0l0,-4Zm0,24l0,4l-4,0l0,-4l4,0Zm4,-4l0,4l-4,0l0,-4l4,0Zm-12,-28l4,0l0,4l-4,0l0,-4Zm0,40l0,4l-4,0l0,-4l4,0Zm0,-40l-4,0l0,-4l4,0l0,4Zm12,12l4,0l0,4l-4,0l0,-4Zm-8,-8l4,0l0,4l-4,0l0,-4Z" style="fill:#a0673e;" />
        <path d="M40,30l4,0l0,8l-4,0l0,-8Zm-4,-4l4,0l0,4l-4,0l0,-4Zm-8,24l0,4l-4,0l0,-4l4,0Zm4,-4l0,4l-4,0l0,-4l4,0Zm-8,8l0,4l-4,0l0,-4l4,0Zm16,-16l0,4l-4,0l0,-4l4,0Zm-16,-24l-4,0l0,-4l4,0l0,4Zm12,28l0,4l-4,0l0,-4l4,0Zm-8,-24l4,0l0,4l-4,0l0,-4Zm4,4l4,0l0,4l-4,0l0,-4Zm-8,-8l4,0l0,4l-4,0l0,-4Z" />
        <path d="M36,22l-4,0l0,-4l12,0l0,-2l6,0l0,-2l6,0l0,-2l8,0l0,2l6,0l0,2l6,0l0,2l8,0l0,-2l8,0l0,-2l10,0l0,2l8,0l0,2l14,0l0,8l-14,0l0,-2l-8,0l0,-2l-10,0l0,2l-8,0l0,2l-8,0l0,-2l-6,0l0,-2l-6,0l0,-2l-8,0l0,2l-6,0l0,2l-6,0l0,2l-8,0l0,-4Z" style="fill:#ea680d;" />
        <path d="M16,18l4,0l0,4l-4,0l0,-4Zm4,28l0,4l-4,0l0,-4l4,0Zm-4,4l0,4l-4,0l0,-4l4,0Zm0,-32l-4,0l0,-4l4,0l0,4Zm4,4l4,0l0,4l-4,0l0,-4Zm8,16l0,4l-4,0l0,-4l4,0Zm-4,4l0,4l-4,0l0,-4l4,0Zm0,-16l4,0l0,4l-4,0l0,-4Zm4,4l4,0l0,8l-4,0l0,-8Z" style="fill:#ff3b8d;" />
        <path d="M16,46l0,4l-4,0l0,-32l4,0l0,4l4,0l0,4l4,0l0,4l4,0l0,8l-4,0l0,4l-4,0l0,4l-4,0Z" style="fill:#fff;" />
        <path d="M44,30l-4,0l0,-4l4,0l0,-2l6,0l0,-2l6,0l0,-2l8,0l0,2l6,0l0,2l6,0l0,2l8,0l0,-2l8,0l0,-2l10,0l0,2l8,0l0,2l14,0l0,8l-14,0l0,-2l-8,0l0,-2l-10,0l0,2l-8,0l0,2l-8,0l0,-2l-6,0l0,-2l-6,0l0,-2l-8,0l0,2l-6,0l0,2l-6,0l0,-2Z" style="fill:#fcd009;" />
        <path d="M44,40l0,2l-4,0l0,-4l4,0l0,-6l6,0l0,-2l6,0l0,-2l8,0l0,2l6,0l0,2l6,0l0,2l8,0l0,-2l8,0l0,-2l10,0l0,2l8,0l0,2l14,0l0,8l-14,0l0,-2l-8,0l0,-2l-10,0l0,2l-8,0l0,2l-8,0l0,-2l-6,0l0,-2l-6,0l0,-2l-8,0l0,2l-6,0l0,2l-6,0Z" style="fill:#09aa24;" />
        <path d="M44,50l-12,0l0,-4l4,0l0,-4l8,0l0,-2l6,0l0,-2l6,0l0,-2l8,0l0,2l6,0l0,2l6,0l0,2l8,0l0,-2l8,0l0,-2l10,0l0,2l8,0l0,2l14,0l0,8l-14,0l0,-2l-8,0l0,-2l-10,0l0,2l-8,0l0,2l-8,0l0,-2l-6,0l0,-2l-6,0l0,-2l-8,0l0,2l-6,0l0,2l-6,0l0,2Z" style="fill:#10498c;" />
        <path d="M44,58l-20,0l0,-4l4,0l0,-4l16,0l0,-2l6,0l0,-2l6,0l0,-2l8,0l0,2l6,0l0,2l6,0l0,2l8,0l0,-2l8,0l0,-2l10,0l0,2l8,0l0,2l14,0l0,8l-14,0l0,-2l-8,0l0,-2l-10,0l0,2l-8,0l0,2l-8,0l0,-2l-6,0l0,-2l-6,0l0,-2l-8,0l0,2l-6,0l0,2l-6,0l0,2Z" style="fill:#550080;" />
      </g>
    </g>
  </g>
  <metadata>
    <rdf:RDF>
      <cc:Work rdf:about="">
        <cc:License rdf:resource="http://creativecommons.org/licenses/by-sa/4.0/" />
        <dc:right>
          <cc:Agent>
            <dc:title>CC-BY-SA 4.0 Jugend Hackt</dc:title>
          </cc:Agent>
        </dc:right>
        <dc:title>
          <cc:Agent>
            <dc:title>Pixelhack</dc:title>
          </cc:Agent>
        </dc:title>
        <dc:contributor>
          <cc:Agent>
            <dc:title>Hanno Sternberg</dc:title>
          </cc:Agent>
        </dc:contributor>
        <dc:creator>
          <cc:Agent>
            <dc:title>Jugend Hackt</dc:title>
          </cc:Agent>
        </dc:creator>
        <dc:date>
          <cc:Agent>
            <dc:title>2013</dc:title>
          </cc:Agent>
        </dc:date>
      </cc:Work>
      <cc:License rdf:about="http://creativecommons.org/licenses/by-sa/4.0/">
        <cc:permits rdf:resource="http://creativecommons.org/ns#DerivativeWorks" />
        <cc:requires rdf:resource="http://creativecommons.org/ns#ShareAlike" />
      </cc:License>
    </rdf:RDF>
  </metadata>
</svg>