<?xml version="1.0" encoding="UTF-8" standalone="no"?>
<!DOCTYPE svg PUBLIC "-//W3C//DTD SVG 1.1//EN" "http://www.w3.org/Graphics/SVG/1.1/DTD/svg11.dtd">
<svg xmlns="http://www.w3.org/2000/svg" xmlns:serif="http://www.serif.com/" width="100%" height="100%" viewBox="0 0 128 96" version="1.1" xml:space="preserve" style="fill-rule:evenodd;clip-rule:evenodd;stroke-linejoin:round;stroke-miterlimit:2;" xmlns:rdf="http://www.w3.org/1999/02/22-rdf-syntax-ns" xmlns:cc="http://creativecommons.org/ns" xmlns:dc="http://purl.org/dc/elements/1.1/">
  <g id="Friends--standing-" serif:id="Friends (standing)">
    <g>
      <g>
        <path d="M34,96l-12,0l0,-8l8,0l0,4l4,0l0,4Z" />
        <path d="M50,96l-12,0l0,-8l4,0l0,4l8,0l0,4Z" />
        <path d="M42,88l-4,0l0,-20l8,0l0,24l-4,0l0,-4Zm-12,-20l0,20l-8,0l0,-20l8,0Z" style="fill:#00b48d;" />
      </g>
      <g>
        <path d="M12,64l-8,0l0,-12l2,0l0,4l4,0l0,-4l2,0l0,12Z" />
        <rect x="6" y="52" width="4" height="4" style="fill:#e1bb95;" />
        <rect x="62" y="54" width="4" height="4" style="fill:#e1bb95;" />
        <path d="M10,50l0,2l-4,0l0,-6l4,0l0,-4l4,0l0,-4l4,0l0,-4l32,0l0,4l4,0l0,4l4,0l0,4l4,0l0,4l4,0l0,4l-8,0l0,-4l-4,0l0,-4l-4,0l0,-4l-4,0l0,26l-24,0l0,-26l-4,0l0,4l-4,0l0,4l-4,0Z" style="fill:#16a6de;" />
      </g>
      <g>
        <path d="M26,20l0,4l-4,0l0,-8l4,0l0,-4l4,0l0,-4l8,0l0,4l4,0l0,4l4,0l0,8l-4,0l0,-4l-16,0Z" />
        <path d="M26,32l0,-12l16,0l0,12l-4,0l0,2l-8,0l0,-2l-4,0Z" style="fill:#e1bb95;" />
        <rect x="30" y="24" width="2" height="2" />
        <rect x="38" y="24" width="2" height="2" />
        <rect x="32" y="30" width="4" height="2" style="fill:#e6414a;" />
        <rect x="36" y="24" width="2" height="2" style="fill:#fff;" />
        <rect x="28" y="24" width="2" height="2" style="fill:#fff;" />
      </g>
    </g>
    <g>
      <g>
        <path d="M98,96l-12,0l0,-8l8,0l0,4l4,0l0,4Z" />
        <path d="M114,96l-12,0l0,-8l4,0l0,4l8,0l0,4Z" />
        <path d="M86,88l0,-28l24,0l0,32l-4,0l0,-4l-4,0l0,-22l-8,0l0,22l-8,0Z" style="fill:#fcd009;" />
      </g>
      <g>
        <path d="M118,38l0,-10l8,0l0,10l-2,0l0,-4l-4,0l0,4l-2,0Z" />
        <path d="M74,54l-8,0l0,-4l4,0l0,-4l4,0l0,-4l4,0l0,-4l4,0l0,-4l32,0l0,4l4,0l0,4l4,0l0,-4l4,0l0,8l-4,0l0,4l-4,0l0,-4l-4,0l0,-4l-4,0l0,18l-24,0l0,-18l-4,0l0,4l-4,0l0,4l-4,0l0,4Z" style="fill:#ea680d;" />
        <path d="M122,38l0,4l-4,0l0,-4l2,0l0,-4l4,0l0,4l-2,0Z" style="fill:#a0673e;" />
        <rect x="66" y="54" width="4" height="4" style="fill:#a0673e;" />
      </g>
      <g>
        <path d="M90,30l0,-10l16,0l0,10l-4,0l0,4l-8,0l0,-4l-4,0Z" style="fill:#a0673e;" />
        <rect x="86" y="16" width="4" height="12" />
        <rect x="106" y="20" width="4" height="8" />
        <rect x="94" y="22" width="2" height="2" />
        <rect x="102" y="22" width="2" height="2" />
        <path d="M110,20l-20,0l0,-8l16,0l0,4l4,0l0,4Zm-10,8l0,2l-4,0l0,-2l4,0Z" style="fill:#10498c;" />
        <rect x="100" y="22" width="2" height="2" style="fill:#fff;" />
        <rect x="92" y="22" width="2" height="2" style="fill:#fff;" />
      </g>
    </g>
  </g>
  <metadata>
    <rdf:RDF>
      <cc:Work rdf:about="">
        <cc:License rdf:resource="http://creativecommons.org/licenses/by-sa/4.0/" />
        <dc:right>
          <cc:Agent>
            <dc:title>CC-BY-SA 4.0 Jugend Hackt</dc:title>
          </cc:Agent>
        </dc:right>
        <dc:title>
          <cc:Agent>
            <dc:title>Pixelhack</dc:title>
          </cc:Agent>
        </dc:title>
        <dc:contributor>
          <cc:Agent>
            <dc:title>Hanno Sternberg</dc:title>
          </cc:Agent>
        </dc:contributor>
        <dc:creator>
          <cc:Agent>
            <dc:title>Jugend Hackt</dc:title>
          </cc:Agent>
        </dc:creator>
        <dc:date>
          <cc:Agent>
            <dc:title>2013</dc:title>
          </cc:Agent>
        </dc:date>
      </cc:Work>
      <cc:License rdf:about="http://creativecommons.org/licenses/by-sa/4.0/">
        <cc:permits rdf:resource="http://creativecommons.org/ns#DerivativeWorks" />
        <cc:requires rdf:resource="http://creativecommons.org/ns#ShareAlike" />
      </cc:License>
    </rdf:RDF>
  </metadata>
</svg>