<?xml version="1.0" encoding="UTF-8" standalone="no"?>
<!DOCTYPE svg PUBLIC "-//W3C//DTD SVG 1.1//EN" "http://www.w3.org/Graphics/SVG/1.1/DTD/svg11.dtd">
<svg xmlns="http://www.w3.org/2000/svg" xmlns:serif="http://www.serif.com/" width="100%" height="100%" viewBox="0 0 64 64" version="1.1" xml:space="preserve" style="fill-rule:evenodd;clip-rule:evenodd;stroke-linejoin:round;stroke-miterlimit:2;" xmlns:rdf="http://www.w3.org/1999/02/22-rdf-syntax-ns" xmlns:cc="http://creativecommons.org/ns" xmlns:dc="http://purl.org/dc/elements/1.1/">
  <g id="Hands">
    <g>
      <path d="M2,30l-2,0l0,-14l2,0l0,14Zm2,6l2,0l0,10l-2,0l0,-10Zm-2,-6l2,0l0,6l-2,0l0,-6Zm4,-20l0,6l-2,0l0,-6l2,0Z" style="fill:#52575b;" />
      <path d="M6,18l-2,0l0,12l2,0l0,6l2,0l0,8l10,0l0,-6l2,0l0,-4l2,0l0,-4l2,0l0,-4l-2,0l0,2l-2,0l0,2l-2,0l0,-20l-2,0l0,12l-2,0l0,-12l-2,0l0,12l-2,0l0,-12l-2,0l0,12l-2,0l0,-4" style="fill:#fefffe;" />
      <path d="M4,30l-2,0l0,-14l4,0l0,-6l2,0l0,12l-2,0l0,-4l-2,0l0,12Zm4,-20l0,-2l2,0l0,2l-2,0Zm2,0l2,0l0,12l-2,0l0,-12Zm2,0l0,-2l2,0l0,2l-2,0Zm2,0l2,0l0,12l-2,0l0,-12Zm2,0l0,-2l2,0l0,2l-2,0Zm2,0l2,0l0,16l2,0l0,2l-2,0l0,2l-2,0l0,-20Zm4,16l0,-2l2,0l0,2l-2,0Zm2,0l2,0l0,4l-2,0l0,-4Zm0,4l0,4l-2,0l0,-4l2,0Zm-2,4l0,4l-2,0l0,-4l2,0Zm-2,4l0,8l-14,0l0,-10l2,0l0,8l10,0l0,-6l2,0Zm-14,-2l-2,0l0,-6l2,0l0,6Z" style="fill:#010001;" />
    </g>
    <g>
      <path d="M28,34l2,0l0,4l-2,0l0,-4Zm8,12l4,0l0,2l-4,0l0,-2Zm6,6l2,0l0,2l-2,0l0,-2Zm-14,-22l0,-2l2,0l0,2l-2,0Zm4,14l4,0l0,2l-4,0l0,-2Zm8,4l2,0l0,4l-2,0l0,-4Zm-12,-14l-2,0l0,-4l2,0l0,4Zm16,20l2,0l0,2l-2,0l0,-2Zm-14,-16l2,0l0,6l-2,0l0,-6Z" style="fill:#52575b;" />
      <path d="M32,30l-2,0l0,4l2,0l0,4l2,0l0,4l2,0l0,2l4,0l0,2l2,0l0,2l2,0l0,4l2,0l0,2l6,0l0,-2l2,0l0,-2l2,0l0,-2l2,0l0,-2l-2,0l0,-2l-2,0l0,-2l-2,0l0,-10l-2,0l0,-8l-2,0l0,6l-2,0l0,-6l-2,0l0,6l-2,0l0,-6l-2,0l0,6l-2,0l0,-10l-2,0l0,-2l-2,0l0,4l2,0l0,12l-2,0l0,-2l-2,0l0,-2" style="fill:#fefffe;" />
      <path d="M30,34l-2,0l0,-4l2,0l0,4Zm0,-4l0,-2l2,0l0,2l-2,0Zm2,0l2,0l0,-8l2,0l0,12l-2,0l0,-2l-2,0l0,-2Zm2,-8l-2,0l0,-4l2,0l0,4Zm0,-4l0,-2l2,0l0,2l-2,0Zm2,0l2,0l0,2l-2,0l0,-2Zm2,2l2,0l0,2l10,0l0,2l-2,0l0,6l-2,0l0,-6l-2,0l0,6l-2,0l0,-6l-2,0l0,6l-2,0l0,-10Zm12,4l2,0l0,8l-2,0l0,-8Zm2,8l2,0l0,10l-2,0l0,-10Zm2,10l2,0l0,2l-2,0l0,-2Zm2,2l2,0l0,2l-2,0l0,-2Zm2,2l2,0l0,2l-2,0l0,-2Zm0,2l0,2l-2,0l0,-2l2,0Zm-2,2l0,2l-2,0l0,-2l2,0Zm-2,2l0,2l-2,0l0,-2l2,0Zm-2,2l0,2l-6,0l0,-2l6,0Zm-6,0l-2,0l0,-2l2,0l0,2Zm-2,-2l-2,0l0,-4l2,0l0,4Zm-2,-4l-2,0l0,-2l2,0l0,2Zm-2,-2l-4,0l0,-2l4,0l0,2Zm-4,-2l-4,0l0,-6l2,0l0,4l2,0l0,2Zm-4,-6l-2,0l0,-4l2,0l0,4Z" style="fill:#010001;" />
    </g>
  </g>
  <g id="Hands1" serif:id="Hands">
    <path d="M2,30l-2,0l0,-14l2,0l0,14Zm2,6l2,0l0,10l-2,0l0,-10Zm-2,-6l2,0l0,6l-2,0l0,-6Zm30,14l4,0l0,2l-4,0l0,-2Zm-4,-10l-2,0l0,-4l2,0l0,4Zm16,20l2,0l0,2l-2,0l0,-2Zm-16,-24l0,-2l2,0l0,2l-2,0Zm2,8l2,0l0,6l-2,0l0,-6Zm10,10l2,0l0,4l-2,0l0,-4Zm-4,-2l4,0l0,2l-4,0l0,-2Zm6,6l2,0l0,2l-2,0l0,-2Zm-14,-18l2,0l0,4l-2,0l0,-4Zm-22,-24l0,6l-2,0l0,-6l2,0Z" style="fill:#52575b;" />
    <path d="M2,30l0,-14l4,0l0,-6l2,0l0,12l-2,0l0,-4l-2,0l0,12l-2,0Zm6,-20l0,-2l2,0l0,2l-2,0Zm2,0l2,0l0,12l-2,0l0,-12Zm2,0l0,-2l2,0l0,2l-2,0Zm2,0l2,0l0,12l-2,0l0,-12Zm2,0l0,-2l2,0l0,2l-2,0Zm2,0l2,0l0,16l2,0l0,2l-2,0l0,2l-2,0l0,-20Zm4,16l0,-2l2,0l0,2l-2,0Zm2,0l2,0l0,4l-2,0l0,-4Zm0,4l0,4l-2,0l0,-4l2,0Zm-2,4l0,4l-2,0l0,-4l2,0Zm-2,4l0,8l-14,0l0,-10l2,0l0,8l10,0l0,-6l2,0Zm-14,-2l-2,0l0,-6l2,0l0,6Zm24,-2l-2,0l0,-4l2,0l0,4Zm0,-4l0,-2l2,0l0,2l-2,0Zm2,0l2,0l0,-8l2,0l0,12l-2,0l0,-2l-2,0l0,-2Zm2,-8l-2,0l0,-4l2,0l0,4Zm0,-4l0,-2l2,0l0,2l-2,0Zm2,0l2,0l0,2l-2,0l0,-2Zm2,2l2,0l0,2l10,0l0,2l-2,0l0,6l-2,0l0,-6l-2,0l0,6l-2,0l0,-6l-2,0l0,6l-2,0l0,-10Zm12,4l2,0l0,8l-2,0l0,-8Zm2,8l2,0l0,10l-2,0l0,-10Zm2,10l2,0l0,2l-2,0l0,-2Zm2,2l2,0l0,2l-2,0l0,-2Zm2,2l2,0l0,2l-2,0l0,-2Zm0,2l0,2l-2,0l0,-2l2,0Zm-2,2l0,2l-2,0l0,-2l2,0Zm-2,2l0,2l-2,0l0,-2l2,0Zm-2,2l0,2l-6,0l0,-2l6,0Zm-6,0l-2,0l0,-2l2,0l0,2Zm-2,-2l-2,0l0,-4l2,0l0,4Zm-2,-4l-2,0l0,-2l2,0l0,2Zm-2,-2l-4,0l0,-2l4,0l0,2Zm-4,-2l-4,0l0,-6l2,0l0,4l2,0l0,2Zm-4,-6l-2,0l0,-4l2,0l0,4Z" />
    <path d="M6,30l-2,0l0,-12l2,0l0,4l2,0l0,-12l2,0l0,12l2,0l0,-12l2,0l0,12l2,0l0,-12l2,0l0,20l2,0l0,-2l2,0l0,-2l2,0l0,4l-2,0l0,4l-2,0l0,4l-2,0l0,6l-10,0l0,-8l-2,0l0,-6Zm26,4l-2,0l0,-4l2,0l0,2l2,0l0,2l2,0l0,-12l-2,0l0,-4l2,0l0,2l2,0l0,10l2,0l0,-6l2,0l0,6l2,0l0,-6l2,0l0,6l2,0l0,-6l2,0l0,8l2,0l0,10l2,0l0,2l2,0l0,2l2,0l0,2l-2,0l0,2l-2,0l0,2l-2,0l0,2l-6,0l0,-2l-2,0l0,-4l-2,0l0,-2l-2,0l0,-2l-4,0l0,-2l-2,0l0,-4l-2,0l0,-4Z" style="fill:#fff;" />
  </g>
  <g id="CLI">
    <path d="M70,16l0,4l-6,0l0,-4l6,0Zm46,0l0,4l-24,0l0,-4l24,0Z" style="fill:#550080;" />
    <path d="M64,54l0,-34l64,0l0,34l-64,0Zm62,-32l-60,0l0,30l60,0l0,-30Z" style="fill:#52575b;" />
  </g>
  <metadata>
    <rdf:RDF>
      <cc:Work rdf:about="">
        <cc:License rdf:resource="http://creativecommons.org/licenses/by-sa/4.0/" />
        <dc:right>
          <cc:Agent>
            <dc:title>CC-BY-SA 4.0 Jugend Hackt</dc:title>
          </cc:Agent>
        </dc:right>
        <dc:title>
          <cc:Agent>
            <dc:title>Pixelhack</dc:title>
          </cc:Agent>
        </dc:title>
        <dc:contributor>
          <cc:Agent>
            <dc:title>Hanno Sternberg</dc:title>
          </cc:Agent>
        </dc:contributor>
        <dc:creator>
          <cc:Agent>
            <dc:title>Jugend Hackt</dc:title>
          </cc:Agent>
        </dc:creator>
        <dc:date>
          <cc:Agent>
            <dc:title>2013</dc:title>
          </cc:Agent>
        </dc:date>
      </cc:Work>
      <cc:License rdf:about="http://creativecommons.org/licenses/by-sa/4.0/">
        <cc:permits rdf:resource="http://creativecommons.org/ns#DerivativeWorks" />
        <cc:requires rdf:resource="http://creativecommons.org/ns#ShareAlike" />
      </cc:License>
    </rdf:RDF>
  </metadata>
</svg>