<?xml version="1.0" encoding="UTF-8" standalone="no"?>
<!DOCTYPE svg PUBLIC "-//W3C//DTD SVG 1.1//EN" "http://www.w3.org/Graphics/SVG/1.1/DTD/svg11.dtd">
<svg xmlns="http://www.w3.org/2000/svg" width="100%" height="100%" viewBox="0 0 64 64" version="1.1" xml:space="preserve" style="fill-rule:evenodd;clip-rule:evenodd;stroke-linejoin:round;stroke-miterlimit:2;" xmlns:rdf="http://www.w3.org/1999/02/22-rdf-syntax-ns" xmlns:cc="http://creativecommons.org/ns" xmlns:dc="http://purl.org/dc/elements/1.1/">
  <g id="Emoji">
    <g id="Suitcase">
      <path d="M24,16l0,4l-2,0l0,-6l2,0l0,-2l2,0l0,-2l12,0l0,2l2,0l0,2l2,0l0,6l-4,0l0,-4l-2,0l0,-2l-10,0l0,2l-2,0Z" style="fill:#a0673e;" />
      <path d="M26,16l0,-2l2,0l0,2l-2,0Zm0,0l0,4l-2,0l0,-4l2,0Zm-12,4l0,10l-4,0l0,-10l4,0Zm40,0l0,10l-4,0l0,-10l4,0Zm-40,16l0,28l-4,0l0,-28l4,0Zm40,0l0,28l-4,0l0,-28l4,0Z" style="fill:#5d473d;" />
      <path d="M2,60l-2,0l0,-36l2,0l0,-2l2,0l0,-2l6,0l0,4l-6,0l0,36l6,0l0,4l-6,0l0,-2l-2,0l0,-2Zm58,-36l-6,0l0,-4l6,0l0,2l2,0l0,2l2,0l0,36l-2,0l0,2l-2,0l0,2l-6,0l0,-4l6,0l0,-36Zm-10,-4l0,4l-36,0l0,-4l36,0Zm0,40l0,4l-36,0l0,-4l36,0Z" style="fill:#ea680d;" />
      <path d="M4,60l0,-36l6,0l0,8l-2,0l0,4l2,0l0,24l-6,0Zm10,-28l0,-8l36,0l0,8l-2,0l0,4l2,0l0,24l-36,0l0,-24l2,0l0,-4l-2,0Zm24,-6l-2,0l0,2l-2,0l0,2l-2,0l0,2l-2,0l0,2l2,0l0,2l2,0l0,2l2,0l0,2l2,0l0,2l2,0l0,-2l2,0l0,-2l2,0l0,-2l2,0l0,-2l-2,0l0,-2l-2,0l0,-2l-2,0l0,-2l-2,0l0,-2Zm-4,24l0,-2l-2,0l0,-2l-2,0l0,-2l-2,0l0,-2l-2,0l0,2l-2,0l0,2l-2,0l0,2l-2,0l0,2l-2,0l0,2l2,0l0,2l2,0l0,2l2,0l0,2l2,0l0,-2l2,0l0,-2l2,0l0,-2l2,0l0,-2l2,0Zm22,-18l-2,0l0,-8l6,0l0,36l-6,0l0,-24l2,0l0,-4Z" style="fill:#f3971b;" />
      <path d="M32,34l-2,0l0,-2l2,0l0,-2l2,0l0,-2l2,0l0,-2l2,0l0,2l2,0l0,2l2,0l0,2l2,0l0,2l2,0l0,2l-2,0l0,2l-2,0l0,2l-2,0l0,2l-2,0l0,-2l-2,0l0,-2l-2,0l0,-2l-2,0l0,-2Zm-12,18l-2,0l0,-2l2,0l0,-2l2,0l0,-2l2,0l0,-2l2,0l0,-2l2,0l0,2l2,0l0,2l2,0l0,2l2,0l0,2l-2,0l0,2l-2,0l0,2l-2,0l0,2l-2,0l0,2l-2,0l0,-2l-2,0l0,-2l-2,0l0,-2Z" style="fill:#10498c;" />
      <path d="M10,32l0,-2l4,0l0,2l-4,0Zm0,0l0,4l-2,0l0,-4l2,0Zm4,0l2,0l0,4l-2,0l0,-4Zm36,0l0,-2l4,0l0,2l-4,0Zm0,0l0,4l-2,0l0,-4l2,0Zm4,0l2,0l0,4l-2,0l0,-4Z" style="fill:#52575b;" />
      <path d="M14,32l0,4l-4,0l0,-4l4,0Zm40,0l0,4l-4,0l0,-4l4,0Z" style="fill:#ffe713;" />
    </g>
  </g>
  <metadata>
    <rdf:RDF>
      <cc:Work rdf:about="">
        <cc:License rdf:resource="http://creativecommons.org/licenses/by-sa/4.0/" />
        <dc:right>
          <cc:Agent>
            <dc:title>CC-BY-SA 4.0 Jugend Hackt</dc:title>
          </cc:Agent>
        </dc:right>
        <dc:title>
          <cc:Agent>
            <dc:title>Pixelhack</dc:title>
          </cc:Agent>
        </dc:title>
        <dc:contributor>
          <cc:Agent>
            <dc:title>Hanno Sternberg</dc:title>
          </cc:Agent>
        </dc:contributor>
        <dc:creator>
          <cc:Agent>
            <dc:title>Jugend Hackt</dc:title>
          </cc:Agent>
        </dc:creator>
        <dc:date>
          <cc:Agent>
            <dc:title>2013</dc:title>
          </cc:Agent>
        </dc:date>
      </cc:Work>
      <cc:License rdf:about="http://creativecommons.org/licenses/by-sa/4.0/">
        <cc:permits rdf:resource="http://creativecommons.org/ns#DerivativeWorks" />
        <cc:requires rdf:resource="http://creativecommons.org/ns#ShareAlike" />
      </cc:License>
    </rdf:RDF>
  </metadata>
</svg>