<?xml version="1.0" encoding="UTF-8" standalone="no"?>
<!DOCTYPE svg PUBLIC "-//W3C//DTD SVG 1.1//EN" "http://www.w3.org/Graphics/SVG/1.1/DTD/svg11.dtd">
<svg xmlns="http://www.w3.org/2000/svg" width="100%" height="100%" viewBox="0 0 64 64" version="1.1" xml:space="preserve" style="fill-rule:evenodd;clip-rule:evenodd;stroke-linejoin:round;stroke-miterlimit:2;" xmlns:rdf="http://www.w3.org/1999/02/22-rdf-syntax-ns" xmlns:cc="http://creativecommons.org/ns" xmlns:dc="http://purl.org/dc/elements/1.1/">
  <g id="Emoji">
    <g id="Foods">
      <g id="Tea">
        <path d="M12,46l-2,0l0,-20l2,0l0,-2l4,0l0,-2l8,0l0,-2l18,0l0,2l6,0l0,2l4,0l0,2l2,0l0,20l-2,0l0,4l-2,0l0,2l-2,0l0,2l-2,0l0,2l-6,0l0,2l-16,0l0,-2l-6,0l0,-2l-2,0l0,-2l-2,0l0,-2l-2,0l0,-4Z" style="fill:#d1d6da;" />
        <path d="M40,56l0,2l-4,0l0,-2l2,0l0,-6l2,0l0,-8l2,0l0,-8l6,0l0,-2l4,0l0,-4l2,0l0,18l-2,0l0,4l-2,0l0,2l-2,0l0,2l-2,0l0,2l-6,0Z" style="fill:#8b98a2;" />
        <path d="M16,32l-4,0l0,-6l4,0l-0,-2l8,0l0,-2l20,0l0,2l4,0l0,2l4,0l0,6l-4,0l0,2l-6,0l0,2l-20,0l0,-2l-6,0l-0,-2Z" style="fill:#8b98a2;" />
        <path d="M16,32l-4,0l0,-2l8,0l0,-2l4,0l0,-2l16,0l0,2l4,0l0,2l8,0l0,2l-4,0l0,2l-6,0l0,2l-20,0l0,-2l-6,0l0,-2Z" style="fill:#29e400;" />
        <path d="M22,18l-2,0l0,-6l2,0l0,-6l4,0l0,6l-2,0l0,6l2,0l0,8l-2,0l0,2l-2,0l0,-10Zm10,2l-2,0l0,-8l2,0l0,-6l4,0l0,6l-2,0l0,8l2,0l0,6l-4,0l0,-6Zm10,2l-2,0l0,-6l2,0l0,-6l4,0l0,6l-2,0l0,6l2,0l0,8l-2,0l0,-2l-2,0l0,-6Z" style="fill:#fefffe;" />
      </g>
    </g>
  </g>
  <metadata>
    <rdf:RDF>
      <cc:Work rdf:about="">
        <cc:License rdf:resource="http://creativecommons.org/licenses/by-sa/4.0/" />
        <dc:right>
          <cc:Agent>
            <dc:title>CC-BY-SA 4.0 Jugend Hackt</dc:title>
          </cc:Agent>
        </dc:right>
        <dc:title>
          <cc:Agent>
            <dc:title>Pixelhack</dc:title>
          </cc:Agent>
        </dc:title>
        <dc:contributor>
          <cc:Agent>
            <dc:title>Hanno Sternberg</dc:title>
          </cc:Agent>
        </dc:contributor>
        <dc:creator>
          <cc:Agent>
            <dc:title>Jugend Hackt</dc:title>
          </cc:Agent>
        </dc:creator>
        <dc:date>
          <cc:Agent>
            <dc:title>2013</dc:title>
          </cc:Agent>
        </dc:date>
      </cc:Work>
      <cc:License rdf:about="http://creativecommons.org/licenses/by-sa/4.0/">
        <cc:permits rdf:resource="http://creativecommons.org/ns#DerivativeWorks" />
        <cc:requires rdf:resource="http://creativecommons.org/ns#ShareAlike" />
      </cc:License>
    </rdf:RDF>
  </metadata>
</svg>