<?xml version="1.0" encoding="UTF-8" standalone="no"?>
<!DOCTYPE svg PUBLIC "-//W3C//DTD SVG 1.1//EN" "http://www.w3.org/Graphics/SVG/1.1/DTD/svg11.dtd">
<svg xmlns="http://www.w3.org/2000/svg" width="100%" height="100%" viewBox="0 0 64 64" version="1.1" xml:space="preserve" style="fill-rule:evenodd;clip-rule:evenodd;stroke-linejoin:round;stroke-miterlimit:2;" xmlns:rdf="http://www.w3.org/1999/02/22-rdf-syntax-ns" xmlns:cc="http://creativecommons.org/ns" xmlns:dc="http://purl.org/dc/elements/1.1/">
  <g id="Emoji">
    <g id="Rainbow">
      <path d="M-56,64l-6,0l0,-8l2,0l0,-8l2,0l0,-6l2,0l0,-4l2,0l0,-4l2,0l0,-2l2,0l0,-2l2,0l0,-4l2,0l0,-2l2,0l0,-2l2,0l0,-2l2,0l0,-2l2,0l0,-2l4,0l0,-2l2,0l0,-2l2,0l0,-2l4,0l0,-2l4,0l0,-2l6,0l0,-2l8,0l0,-2l8,0l0,6l-8,0l0,2l-8,0l0,2l-4,0l0,2l-4,0l0,2l-4,0l0,2l-2,0l0,2l-2,0l0,2l-4,0l0,2l-2,0l0,2l-2,0l0,2l-2,0l0,4l-2,0l0,2l-2,0l0,2l-2,0l0,4l-2,0l0,4l-2,0l0,4l-2,0l0,8l-2,0l0,8Z" style="fill:#e52320;" />
      <path d="M-50,64l-6,0l0,-8l2,0l0,-8l2,0l0,-4l2,0l0,-4l2,0l0,-4l2,0l0,-2l2,0l0,-2l2,0l0,-4l2,0l0,-2l2,0l0,-2l2,0l0,-2l4,0l0,-2l2,0l0,-2l2,0l0,-2l4,0l0,-2l4,0l0,-2l4,0l0,-2l8,0l0,-2l8,0l0,6l-6,0l0,2l-8,0l0,2l-4,0l0,2l-4,0l0,2l-4,0l0,2l-2,0l0,2l-2,0l0,2l-2,0l0,2l-2,0l0,2l-2,0l0,2l-2,0l0,2l-2,0l0,2l-2,0l0,4l-2,0l0,4l-2,0l0,4l-2,0l0,8l-2,0l0,6Z" style="fill:#ea680d;" />
      <path d="M-44,64l-6,0l0,-6l2,0l0,-8l2,0l0,-4l2,0l0,-4l2,0l0,-4l2,0l0,-2l2,0l0,-2l2,0l0,-2l2,0l0,-2l2,0l0,-2l2,0l0,-2l2,0l0,-2l2,0l0,-2l4,0l0,-2l4,0l0,-2l4,0l0,-2l8,0l0,-2l6,0l0,6l-6,0l0,2l-6,0l0,2l-6,0l0,2l-2,0l0,2l-4,0l0,2l-2,0l0,2l-2,0l0,2l-2,0l0,2l-2,0l0,2l-2,0l0,2l-2,0l0,4l-2,0l0,2l-2,0l0,6l-2,0l0,6l-2,0l0,6Z" style="fill:#fcd009;" />
      <path d="M-38,64l-6,0l0,-6l2,0l0,-6l2,0l0,-6l2,0l0,-2l2,0l0,-4l2,0l0,-2l2,0l0,-2l2,0l0,-2l2,0l0,-2l2,0l0,-2l2,0l0,-2l4,0l0,-2l2,0l0,-2l6,0l0,-2l6,0l0,-2l6,0l0,6l-6,0l0,2l-6,0l0,2l-4,0l0,2l-2,0l0,2l-4,0l0,2l-2,0l0,2l-2,0l0,2l-2,0l0,2l-2,0l0,4l-2,0l0,2l-2,0l0,4l-2,0l0,6l-2,0l0,6Z" style="fill:#09aa24;" />
      <path d="M-32,64l-6,0l0,-6l2,0l0,-6l2,0l0,-4l2,0l0,-2l2,0l0,-4l2,0l0,-2l2,0l0,-2l2,0l0,-2l2,0l0,-2l4,0l0,-2l2,0l0,-2l4,0l0,-2l6,0l0,-2l6,0l0,6l-4,0l0,2l-6,0l0,2l-4,0l0,2l-2,0l0,2l-4,0l0,2l-2,0l0,2l-2,0l0,4l-2,0l0,2l-2,0l0,4l-2,0l0,6l-2,0l0,4Z" style="fill:#10498c;" />
      <path d="M-24,64l-8,0l0,-4l2,0l0,-6l2,0l0,-4l2,0l0,-2l2,0l0,-4l2,0l0,-2l2,0l0,-2l4,0l0,-2l2,0l0,-2l4,0l0,-2l6,0l0,-2l4,0l0,8l-4,0l0,2l-6,0l0,2l-4,0l0,2l-2,0l0,2l-2,0l0,2l-2,0l0,4l-2,0l0,6l-2,0l0,4Z" style="fill:#550080;" />
    </g>
    <g id="Gear">
      <path d="M36,8l2,0l0,2l-2,0l0,-2Zm-8,0l0,-2l8,0l0,2l-8,0Zm0,0l0,2l-2,0l0,-2l2,0Zm-16,6l0,4l-2,0l0,-4l2,0Zm0,0l0,-2l2,0l0,2l-2,0Zm2,-2l0,-2l4,0l0,2l-4,0Zm36,0l-4,0l0,-2l4,0l0,2Zm0,0l2,0l0,2l-2,0l0,-2Zm2,2l2,0l0,4l-2,0l0,-4Zm-44,14l0,-2l2,0l0,2l-2,0Zm0,8l-2,0l0,-8l2,0l0,8Zm0,0l2,0l0,2l-2,0l0,-2Zm48,-8l-2,0l0,-2l2,0l0,2Zm0,0l2,0l0,8l-2,0l0,-8Zm0,8l0,2l-2,0l0,-2l2,0Zm-44,14l2,0l0,2l-2,0l0,-2Zm0,0l-2,0l0,-4l2,0l0,4Zm2,2l4,0l0,2l-4,0l0,-2Zm38,-2l0,-4l2,0l0,4l-2,0Zm-2,2l0,-2l2,0l0,2l-2,0Zm0,0l0,2l-4,0l0,-2l4,0Zm-22,4l-2,0l0,-2l2,0l0,2Zm8,0l0,-2l2,0l0,2l-2,0Zm-8,0l8,0l0,2l-8,0l0,-2Z" style="fill:#fff;" />
      <path d="M10,36l-2,0l0,-8l2,0l0,-2l6,0l0,-4l-2,0l0,-2l-2,0l0,-6l2,0l0,-2l6,0l0,2l2,0l0,2l4,0l0,-6l2,0l0,-2l8,0l0,2l2,0l0,6l4,0l0,-2l2,0l0,-2l6,0l0,2l2,0l0,6l-2,0l0,2l-2,0l0,4l6,0l0,2l2,0l0,8l-2,0l0,2l-6,0l0,4l2,0l0,2l2,0l0,6l-2,0l0,2l-6,0l0,-2l-2,0l0,-2l-4,0l0,6l-2,0l0,2l-8,0l0,-2l-2,0l0,-6l-4,0l0,2l-2,0l0,2l-6,0l0,-2l-2,0l0,-6l2,0l0,-2l2,0l0,-4l-6,0l0,-2Zm6,-8l0,8l2,0l0,4l2,0l0,2l2,0l0,2l2,0l0,2l4,0l0,2l8,0l0,-2l4,0l0,-2l2,0l0,-2l2,0l0,-2l2,0l0,-4l2,0l0,-8l-2,0l0,-4l-2,0l0,-2l-2,0l0,-2l-2,0l0,-2l-4,0l0,-2l-8,0l0,2l-4,0l0,2l-2,0l0,2l-2,0l0,2l-2,0l0,4l-2,0Zm6,8l-2,0l0,-8l2,0l0,8Zm0,-8l0,-4l2,0l0,4l-2,0Zm2,-4l0,-2l4,0l0,2l-4,0Zm4,-2l0,-2l8,0l0,2l-8,0Zm8,0l4,0l0,2l-4,0l0,-2Zm4,2l2,0l0,4l-2,0l0,-4Zm2,4l2,0l0,8l-2,0l0,-8Zm0,8l0,4l-2,0l0,-4l2,0Zm-2,4l0,2l-4,0l0,-2l4,0Zm-4,2l0,2l-8,0l0,-2l8,0Zm-8,0l-4,0l0,-2l4,0l0,2Zm-4,-2l-2,0l0,-4l2,0l0,4Zm2,-6l-2,0l0,-4l2,0l0,4Zm0,-4l0,-4l4,0l0,2l-2,0l0,2l-2,0Zm4,-4l0,-2l4,0l0,2l-4,0Zm4,0l4,0l0,4l-2,0l0,-2l-2,0l0,-2Zm4,4l2,0l0,4l-2,0l0,-4Zm0,4l0,4l-4,0l0,-2l2,0l0,-2l2,0Zm-4,4l0,2l-4,0l0,-2l4,0Zm-4,0l-4,0l0,-4l2,0l0,2l2,0l0,2Z" style="fill:#d1d6da;" />
      <path d="M18,36l-2,0l0,-8l2,0l0,-4l2,0l0,-2l2,0l0,-2l2,0l0,-2l4,0l0,-2l8,0l0,2l4,0l0,2l2,0l0,2l2,0l0,2l2,0l0,4l2,0l0,8l-2,0l0,4l-2,0l0,2l-2,0l0,2l-2,0l0,2l-4,0l0,2l-8,0l0,-2l-4,0l0,-2l-2,0l0,-2l-2,0l0,-2l-2,0l0,-4Zm2,-8l0,8l2,0l0,4l2,0l0,2l4,0l0,2l8,0l0,-2l4,0l0,-2l2,0l0,-4l2,0l0,-8l-2,0l0,-4l-2,0l0,-2l-4,0l0,-2l-8,0l0,2l-4,0l0,2l-2,0l0,4l-2,0Zm2,8l0,-8l2,0l0,-4l4,0l0,-2l8,0l0,2l4,0l0,4l2,0l0,8l-2,0l0,4l-4,0l0,2l-8,0l0,-2l-4,0l0,-4l-2,0Zm2,-6l0,4l2,0l0,4l4,0l0,2l4,0l0,-2l4,0l0,-4l2,0l0,-4l-2,0l0,-4l-4,0l0,-2l-4,0l0,2l-4,0l0,4l-2,0Z" style="fill:#52575b;" />
    </g>
  </g>
  <metadata>
    <rdf:RDF>
      <cc:Work rdf:about="">
        <cc:License rdf:resource="http://creativecommons.org/licenses/by-sa/4.0/" />
        <dc:right>
          <cc:Agent>
            <dc:title>CC-BY-SA 4.0 Jugend Hackt</dc:title>
          </cc:Agent>
        </dc:right>
        <dc:title>
          <cc:Agent>
            <dc:title>Pixelhack</dc:title>
          </cc:Agent>
        </dc:title>
        <dc:contributor>
          <cc:Agent>
            <dc:title>Hanno Sternberg</dc:title>
          </cc:Agent>
        </dc:contributor>
        <dc:creator>
          <cc:Agent>
            <dc:title>Jugend Hackt</dc:title>
          </cc:Agent>
        </dc:creator>
        <dc:date>
          <cc:Agent>
            <dc:title>2013</dc:title>
          </cc:Agent>
        </dc:date>
      </cc:Work>
      <cc:License rdf:about="http://creativecommons.org/licenses/by-sa/4.0/">
        <cc:permits rdf:resource="http://creativecommons.org/ns#DerivativeWorks" />
        <cc:requires rdf:resource="http://creativecommons.org/ns#ShareAlike" />
      </cc:License>
    </rdf:RDF>
  </metadata>
</svg>