<?xml version="1.0" encoding="UTF-8" standalone="no"?>
<!DOCTYPE svg PUBLIC "-//W3C//DTD SVG 1.1//EN" "http://www.w3.org/Graphics/SVG/1.1/DTD/svg11.dtd">
<svg xmlns="http://www.w3.org/2000/svg" width="100%" height="100%" viewBox="0 0 64 64" version="1.1" xml:space="preserve" style="fill-rule:evenodd;clip-rule:evenodd;stroke-linejoin:round;stroke-miterlimit:2;" xmlns:rdf="http://www.w3.org/1999/02/22-rdf-syntax-ns" xmlns:cc="http://creativecommons.org/ns" xmlns:dc="http://purl.org/dc/elements/1.1/">
  <g id="Emoji">
    <g id="Foods">
      <g id="Fries">
        <g>
          <path d="M10,-24l-2,0l0,-10l2,0l0,2l2,0l0,10l2,0l0,8l2,0l0,8l2,0l0,6l-2,0l0,-4l-2,0l0,-6l-2,0l0,-8l-2,0l0,-6Zm40,24l-4,0l0,-4l2,0l0,-8l2,0l0,-8l2,0l0,-8l2,0l0,-6l4,0l0,10l-2,0l0,6l-2,0l0,8l-2,0l0,6l-2,0l0,4Zm-28,-18l-2,0l0,-8l2,0l0,2l4,0l0,6l2,0l0,12l2,0l0,6l-6,0l0,-6l-2,0l0,-12Zm20,18l-6,0l0,-6l2,0l0,-12l2,0l0,-6l2,0l0,-2l4,0l0,8l-2,0l0,12l-2,0l0,6Z" style="fill:#fff;" />
          <path d="M12,-32l-2,0l0,-2l4,0l0,2l2,0l0,2l2,0l0,4l2,0l0,8l2,0l0,12l2,0l0,6l-6,0l0,-6l-2,0l0,-8l-2,0l0,-8l-2,0l0,-10Zm34,32l-4,0l0,-6l2,0l0,-12l2,0l0,-12l4,0l0,-2l4,0l0,4l-2,0l0,8l-2,0l0,8l-2,0l0,8l-2,0l0,4Zm-18,-18l-2,0l0,-2l14,0l0,2l-2,0l0,12l-2,0l0,6l-6,0l0,-6l-2,0l0,-12Z" style="fill:#e6414a;" />
        </g>
      </g>
      <g id="Croissant">
        <path d="M6,38l-2,0l0,-4l2,0l0,-8l2,0l0,2l4,0l0,2l4,0l0,2l2,0l0,2l4,0l0,2l2,0l0,10l-18,0l0,-8Zm2,-12l0,-2l-2,0l0,-4l2,0l0,-4l2,0l0,-4l2,0l0,-2l4,0l0,-2l2,0l0,-2l6,0l0,2l2,0l0,4l2,0l0,2l2,0l0,4l2,0l0,4l2,0l0,2l2,0l0,4l-2,0l0,4l-2,0l0,2l-4,0l0,2l-4,0l0,-2l-2,0l0,-2l-4,0l0,-2l-2,0l0,-2l-4,0l0,-2l-4,0Zm18,-18l0,-2l20,0l0,18l-10,0l0,-2l-2,0l0,-4l-2,0l0,-4l-2,0l0,-2l-2,0l0,-4l-2,0Zm24,16l-2,0l0,-14l4,0l0,2l2,0l0,2l2,0l0,2l2,0l0,6l2,0l0,6l-4,0l0,2l-4,0l0,-4l-2,0l0,-2Zm-38,28l-2,0l0,-4l14,0l0,2l2,0l0,2l4,0l0,4l-2,0l0,4l-6,0l0,-2l-4,0l0,-2l-4,0l0,-2l-2,0l0,-2Z" style="fill:#e1bb95;" />
        <path d="M28,12l2,0l0,2l-2,0l0,-2Zm0,0l-2,0l0,-4l2,0l0,4Zm8,12l2,0l0,4l-2,0l0,-4Zm-4,-6l2,0l0,4l-2,0l0,-4Zm-2,-4l2,0l0,4l-2,0l0,-4Zm4,8l2,0l0,2l-2,0l0,-2Zm-10,14l4,0l0,2l-4,0l0,-2Zm-8,-6l2,0l0,2l-2,0l0,-2Zm2,2l4,0l0,2l-4,0l0,-2Zm-6,-4l4,0l0,2l-4,0l0,-2Zm0,0l-4,0l0,-2l4,0l0,2Zm10,6l2,0l0,2l-2,0l0,-2Zm26,-24l0,16l-2,0l0,-16l2,0Zm-22,36l0,2l-16,0l0,-2l16,0Z" style="fill:#f9dbb9;" />
        <path d="M28,38l0,8l-4,0l0,-8l4,0Zm0,0l0,-4l4,0l0,-2l2,0l0,-4l4,0l0,4l-2,0l0,4l-4,0l0,2l-4,0Zm10,-10l0,-4l8,0l0,4l-8,0Zm12,2l-2,0l0,-6l2,0l0,2l2,0l0,4l4,0l0,-2l4,0l0,4l-2,0l0,2l-6,0l0,-2l-2,0l0,-2Zm-24,20l-2,0l0,-2l6,0l0,2l2,0l0,2l2,0l0,6l-2,0l0,2l-4,0l0,-4l2,0l0,-4l-4,0l0,-2Z" style="fill:#bf8e67;" />
      </g>
    </g>
  </g>
  <metadata>
    <rdf:RDF>
      <cc:Work rdf:about="">
        <cc:License rdf:resource="http://creativecommons.org/licenses/by-sa/4.0/" />
        <dc:right>
          <cc:Agent>
            <dc:title>CC-BY-SA 4.0 Jugend Hackt</dc:title>
          </cc:Agent>
        </dc:right>
        <dc:title>
          <cc:Agent>
            <dc:title>Pixelhack</dc:title>
          </cc:Agent>
        </dc:title>
        <dc:contributor>
          <cc:Agent>
            <dc:title>Hanno Sternberg</dc:title>
          </cc:Agent>
        </dc:contributor>
        <dc:creator>
          <cc:Agent>
            <dc:title>Jugend Hackt</dc:title>
          </cc:Agent>
        </dc:creator>
        <dc:date>
          <cc:Agent>
            <dc:title>2013</dc:title>
          </cc:Agent>
        </dc:date>
      </cc:Work>
      <cc:License rdf:about="http://creativecommons.org/licenses/by-sa/4.0/">
        <cc:permits rdf:resource="http://creativecommons.org/ns#DerivativeWorks" />
        <cc:requires rdf:resource="http://creativecommons.org/ns#ShareAlike" />
      </cc:License>
    </rdf:RDF>
  </metadata>
</svg>