<?xml version="1.0" encoding="UTF-8" standalone="no"?>
<!DOCTYPE svg PUBLIC "-//W3C//DTD SVG 1.1//EN" "http://www.w3.org/Graphics/SVG/1.1/DTD/svg11.dtd">
<svg xmlns="http://www.w3.org/2000/svg" width="100%" height="100%" viewBox="0 0 64 64" version="1.1" xml:space="preserve" style="fill-rule:evenodd;clip-rule:evenodd;stroke-linejoin:round;stroke-miterlimit:2;" xmlns:rdf="http://www.w3.org/1999/02/22-rdf-syntax-ns" xmlns:cc="http://creativecommons.org/ns" xmlns:dc="http://purl.org/dc/elements/1.1/">
  <g id="Emoji">
    <g id="Transportation">
      <g id="Scooter">
        <path d="M6,-6l-2,0l0,-4l2,0l0,-4l4,0l0,-2l2,0l0,4l-2,0l0,2l-2,0l0,4l2,0l0,2l6,0l0,-4l4,0l0,4l-2,0l0,2l-2,0l0,2l-6,0l0,-2l-4,0l0,-4Zm44,-4l-6,0l0,-2l2,0l0,-2l2,0l0,-2l8,0l0,2l2,0l0,2l2,0l0,8l-2,0l0,2l-2,0l0,2l-8,0l0,-2l-2,0l0,-2l-2,0l0,-2l6,0l0,2l4,0l0,-2l2,0l0,-4l-2,0l0,-2l-4,0l0,2Zm-32,-4l0,2l-2,0l0,-2l2,0Z" style="fill:#52575b;" />
      </g>
    </g>
    <g id="Space">
      <g id="Rocket">
        <g>
          <path d="M4,56l-2,0l0,-2l2,0l0,2Zm4,4l0,-2l4,0l0,2l-4,0Zm-2,0l2,0l0,2l-2,0l0,-2Zm-2,-6l0,-4l2,0l0,4l-2,0Zm0,2l2,0l0,4l-2,0l0,-4Zm12,2l0,2l-2,0l0,-2l2,0Z" style="fill:#fbe50f;" />
          <path d="M6,56l-2,0l0,-2l2,0l0,-6l2,0l0,8l10,0l0,2l-4,0l0,2l-2,0l0,-2l-4,0l0,2l-2,0l0,-4Zm2,-8l0,-2l4,0l0,2l-4,0Z" style="fill:#f3971b;" />
          <path d="M8,56l0,-8l4,0l0,2l-2,0l0,4l6,0l0,-2l4,0l0,4l-12,0Zm4,-8l0,-2l2,0l0,2l-2,0Z" style="fill:#ea680d;" />
          <path d="M16,54l-6,0l0,-4l2,0l0,-2l2,0l0,4l2,0l0,2Z" style="fill:#e6414a;" />
          <path d="M18,52l-4,0l0,-4l2,0l0,2l2,0l0,2Z" style="fill:#fff;" />
        </g>
        <g>
          <path d="M46,38l0,-2l2,0l0,2l-2,0Zm6,-8l0,-4l2,0l0,4l-2,0Zm-12,14l0,-2l2,0l0,2l-2,0Zm-4,4l0,-2l2,0l0,2l-2,0Zm18,-22l0,-4l2,0l0,4l-2,0Zm-16,20l0,-2l2,0l0,2l-2,0Zm10,-10l0,-2l2,0l0,2l-2,0Zm-22,18l-2,0l0,-2l4,0l0,-2l2,0l0,-2l6,0l0,2l-2,0l0,6l-2,0l0,2l-4,0l0,-2l-2,0l0,-2Zm30,-32l0,-4l-2,0l0,-2l-2,0l0,-2l-2,0l0,-2l2,0l0,-2l4,0l0,-2l4,0l0,10l-2,0l0,4l-2,0Zm-6,12l0,-4l2,0l0,4l-2,0Zm-8,8l0,-2l2,0l0,2l-2,0Zm2,-2l0,-2l2,0l0,2l-2,0Zm-34,0l0,-6l6,0l0,-2l2,0l0,4l-2,0l0,2l-2,0l0,4l-2,0l0,-2l-2,0Z" style="fill:#10498c;" />
          <path d="M22,26l0,-2l2,0l0,2l-2,0Zm14,-12l0,-2l4,0l0,2l-4,0Zm8,-4l0,-2l4,0l0,-2l10,0l0,2l-2,0l0,2l-4,0l0,2l-4,0l0,-2l-4,0Zm-16,10l0,-2l2,0l0,2l-2,0Zm-10,10l0,-2l2,0l0,2l-2,0Zm-8,4l0,4l-4,0l0,-4l2,0l0,-2l6,0l0,-2l4,0l0,2l-2,0l0,2l-6,0Zm20,-16l0,-2l2,0l0,2l-2,0Zm2,-2l0,-2l4,0l0,2l-4,0Zm-6,6l0,-2l2,0l0,2l-2,0Zm-6,6l0,-2l2,0l0,2l-2,0Zm4,-4l0,-2l2,0l0,2l-2,0Zm16,-12l0,-2l4,0l0,2l-4,0Z" style="fill:#8000ff;" />
          <path d="M14,46l-2,0l0,-4l2,0l0,2l2,0l0,2l2,0l0,2l2,0l0,2l2,0l0,2l2,0l0,2l-4,0l0,-2l-2,0l0,-2l-2,0l0,-2l-2,0l0,-2Z" style="fill:#550080;" />
        </g>
        <g>
          <path d="M16,44l-2,0l0,-4l4,0l0,-2l4,0l0,-2l8,0l0,10l-2,0l0,4l-2,0l0,2l-4,0l0,-2l-2,0l0,-2l-2,0l0,-2l-2,0l0,-2Z" style="fill:#16a6de;" />
          <path d="M28,50l0,2l-2,0l0,-2l2,0Zm0,0l0,-4l4,0l0,-2l2,0l0,-2l2,0l0,-2l2,0l0,-2l2,0l0,-2l2,0l0,-2l2,0l0,-2l2,0l0,-2l2,0l0,-2l2,0l0,-2l2,0l0,4l-2,0l0,4l-2,0l0,2l-2,0l0,2l-2,0l0,2l-2,0l0,2l-2,0l0,2l-2,0l0,2l-2,0l0,2l-6,0l0,2l-2,0Zm24,-24l0,-6l2,0l0,-2l2,0l0,4l-2,0l0,4l-2,0Z" style="fill:#09aa24;" />
          <path d="M18,40l-4,0l0,-2l2,0l0,-2l2,0l0,-6l2,0l0,-2l2,0l0,-2l2,0l0,-2l2,0l0,-2l2,0l0,-2l2,0l0,-2l2,0l0,-2l4,0l0,-2l4,0l0,-2l4,0l0,-2l4,0l0,2l2,0l0,2l2,0l0,2l2,0l0,4l-2,0l0,6l-2,0l0,2l-2,0l0,2l-2,0l0,2l-2,0l0,2l-2,0l0,2l-2,0l0,2l-2,0l0,2l-2,0l0,2l-2,0l0,2l-2,0l0,2l-2,0l0,-10l6,0l0,-2l2,0l0,-6l-6,0l0,2l-2,0l0,6l-8,0l0,2l-4,0l0,2Zm22,-22l0,2l-2,0l0,4l2,0l0,2l2,0l0,2l4,0l0,-2l2,0l0,-2l2,0l0,-4l-2,0l0,-2l-2,0l0,-2l-4,0l0,2l-2,0Z" style="fill:#00b48d;" />
        </g>
        <g>
          <path d="M42,24l-2,0l0,-4l2,0l0,-2l4,0l0,2l2,0l0,4l-2,0l0,2l-4,0l0,-2Zm-6,6l0,4l-4,0l0,-4l4,0Z" style="fill:#16a6de;" />
          <path d="M40,24l-2,0l0,-4l2,0l0,4Zm0,-4l0,-2l2,0l0,2l-2,0Zm2,-2l0,-2l4,0l0,2l-4,0Zm4,0l2,0l0,2l-2,0l0,-2Zm2,2l2,0l0,4l-2,0l0,-4Zm0,4l0,2l-2,0l0,-2l2,0Zm-2,2l0,2l-4,0l0,-2l4,0Zm-4,0l-2,0l0,-2l2,0l0,2Zm-6,8l0,2l-6,0l0,-6l2,0l0,4l4,0Zm-4,-4l0,-2l6,0l0,6l-2,0l0,-4l-4,0Z" style="fill:#550080;" />
        </g>
      </g>
    </g>
  </g>
  <metadata>
    <rdf:RDF>
      <cc:Work rdf:about="">
        <cc:License rdf:resource="http://creativecommons.org/licenses/by-sa/4.0/" />
        <dc:right>
          <cc:Agent>
            <dc:title>CC-BY-SA 4.0 Jugend Hackt</dc:title>
          </cc:Agent>
        </dc:right>
        <dc:title>
          <cc:Agent>
            <dc:title>Pixelhack</dc:title>
          </cc:Agent>
        </dc:title>
        <dc:contributor>
          <cc:Agent>
            <dc:title>Hanno Sternberg</dc:title>
          </cc:Agent>
        </dc:contributor>
        <dc:creator>
          <cc:Agent>
            <dc:title>Jugend Hackt</dc:title>
          </cc:Agent>
        </dc:creator>
        <dc:date>
          <cc:Agent>
            <dc:title>2013</dc:title>
          </cc:Agent>
        </dc:date>
      </cc:Work>
      <cc:License rdf:about="http://creativecommons.org/licenses/by-sa/4.0/">
        <cc:permits rdf:resource="http://creativecommons.org/ns#DerivativeWorks" />
        <cc:requires rdf:resource="http://creativecommons.org/ns#ShareAlike" />
      </cc:License>
    </rdf:RDF>
  </metadata>
</svg>