<?xml version="1.0" encoding="UTF-8" standalone="no"?>
<!DOCTYPE svg PUBLIC "-//W3C//DTD SVG 1.1//EN" "http://www.w3.org/Graphics/SVG/1.1/DTD/svg11.dtd">
<svg xmlns="http://www.w3.org/2000/svg" width="100%" height="100%" viewBox="0 0 64 64" version="1.1" xml:space="preserve" style="fill-rule:evenodd;clip-rule:evenodd;stroke-linejoin:round;stroke-miterlimit:2;" xmlns:rdf="http://www.w3.org/1999/02/22-rdf-syntax-ns" xmlns:cc="http://creativecommons.org/ns" xmlns:dc="http://purl.org/dc/elements/1.1/">
  <g id="Writing">
    <g id="Paper">
      <g>
        <path d="M12,56l-2,0l0,-48l2,0l0,46l2,0l0,2l34,0l0,-2l2,0l0,-34l-12,0l0,-12l-26,0l0,-2l28,0l0,2l2,0l0,2l2,0l0,2l2,0l0,2l2,0l0,2l2,0l0,2l2,0l0,38l-2,0l0,2l-38,0l0,-2Z" style="fill:#d1d6da;" />
        <path d="M12,54l0,-46l26,0l0,12l12,0l0,34l-2,0l0,2l-34,0l0,-2l-2,0Z" style="fill:#fff;" />
        <path d="M18,28l0,-4l26,0l0,4l-26,0Zm26,2l0,2l-26,0l0,-2l26,0Zm0,4l0,2l-26,0l0,-2l26,0Zm0,4l0,2l-26,0l0,-2l26,0Zm0,4l0,2l-26,0l0,-2l26,0Z" style="fill:#d1d6da;" />
      </g>
    </g>
  </g>
  <g>
    <g>
      <path d="M2,126l0,2l-2,0l0,-64l2,0l0,2l2,0l0,2l2,0l0,56l-2,0l0,2l-2,0Zm58,-4l-2,0l0,-52l2,0l0,-2l2,0l0,-2l2,0l0,60l-2,0l0,-2l-2,0l0,-2Z" style="fill:#d3883e;" />
      <path d="M4,66l-2,0l0,-2l62,0l0,2l-2,0l0,2l-2,0l0,2l-54,0l0,-2l-2,0l0,-2Z" style="fill:#f3ad61;" />
    </g>
  </g>
  <metadata>
    <rdf:RDF>
      <cc:Work rdf:about="">
        <cc:License rdf:resource="http://creativecommons.org/licenses/by-sa/4.0/" />
        <dc:right>
          <cc:Agent>
            <dc:title>CC-BY-SA 4.0 Jugend Hackt</dc:title>
          </cc:Agent>
        </dc:right>
        <dc:title>
          <cc:Agent>
            <dc:title>Pixelhack</dc:title>
          </cc:Agent>
        </dc:title>
        <dc:contributor>
          <cc:Agent>
            <dc:title>Hanno Sternberg</dc:title>
          </cc:Agent>
        </dc:contributor>
        <dc:creator>
          <cc:Agent>
            <dc:title>Jugend Hackt</dc:title>
          </cc:Agent>
        </dc:creator>
        <dc:date>
          <cc:Agent>
            <dc:title>2013</dc:title>
          </cc:Agent>
        </dc:date>
      </cc:Work>
      <cc:License rdf:about="http://creativecommons.org/licenses/by-sa/4.0/">
        <cc:permits rdf:resource="http://creativecommons.org/ns#DerivativeWorks" />
        <cc:requires rdf:resource="http://creativecommons.org/ns#ShareAlike" />
      </cc:License>
    </rdf:RDF>
  </metadata>
</svg>