<?xml version="1.0" encoding="UTF-8" standalone="no"?>
<!DOCTYPE svg PUBLIC "-//W3C//DTD SVG 1.1//EN" "http://www.w3.org/Graphics/SVG/1.1/DTD/svg11.dtd">
<svg xmlns="http://www.w3.org/2000/svg" width="100%" height="100%" viewBox="0 0 64 64" version="1.1" xml:space="preserve" style="fill-rule:evenodd;clip-rule:evenodd;stroke-linejoin:round;stroke-miterlimit:2;" xmlns:rdf="http://www.w3.org/1999/02/22-rdf-syntax-ns" xmlns:cc="http://creativecommons.org/ns" xmlns:dc="http://purl.org/dc/elements/1.1/">
  <g id="Emoji">
    <g id="Transportation">
      <g id="ICE">
        <path d="M6,48l0,-6l2,0l0,-2l2,0l0,-2l4,0l0,-2l2,0l0,-2l4,0l0,-2l2,0l0,-2l4,0l0,-2l4,0l0,-2l2,0l0,-2l4,0l0,-2l2,0l0,-2l4,0l0,-2l4,0l0,-2l6,0l0,-2l8,0l0,-2l4,0l0,42l-34,0l0,2l-8,0l0,-2l-6,0l0,-2l-6,0l0,-2l-2,0l0,-2l-2,0Z" style="fill:#fff;" />
        <path d="M40,30l0,-2l2,0l0,2l-2,0Zm-4,8l8,0l0,2l-8,0l0,-2Zm-2,-2l-2,0l0,-2l2,0l0,2Zm2,-4l0,-2l4,0l0,2l-4,0Zm18,-10l0,-2l6,0l0,2l-6,0Zm-8,4l0,-2l4,0l0,2l-4,0Zm-12,8l0,-2l2,0l0,2l-2,0Zm0,2l2,0l0,2l-2,0l0,-2Zm10,2l0,-2l20,0l0,2l-20,0Zm16,-18l0,-2l4,0l0,2l-4,0Zm-10,4l0,-2l4,0l0,2l-4,0Zm-8,4l0,-2l4,0l0,2l-4,0Z" style="fill:#550080;" />
        <path d="M36,36l-2,0l0,-2l2,0l0,-2l4,0l0,-2l2,0l0,-2l4,0l0,-2l4,0l0,-2l4,0l0,-2l6,0l0,-2l4,0l0,16l-20,0l0,2l-8,0l0,-2Z" style="fill:#10498c;" />
        <path d="M20,46l0,2l-14,0l0,-2l14,0Zm16,-2l0,-2l10,0l0,2l-10,0Zm10,-2l0,-2l18,0l0,2l-18,0Zm-26,4l0,-2l16,0l0,2l-16,0Z" style="fill:#e52320;" />
        <rect x="30" y="54" width="34" height="2" style="fill:#d1d6da;" />
        <rect x="58" y="56" width="6" height="4" />
        <rect x="0" y="60" width="64" height="2" style="fill:#52575b;" />
        <path d="M16,62l0,2l-8,0l0,-2l8,0Zm20,0l0,2l-8,0l0,-2l8,0Zm20,0l0,2l-8,0l0,-2l8,0Z" style="fill:#5d473d;" />
      </g>
    </g>
  </g>
  <metadata>
    <rdf:RDF>
      <cc:Work rdf:about="">
        <cc:License rdf:resource="http://creativecommons.org/licenses/by-sa/4.0/" />
        <dc:right>
          <cc:Agent>
            <dc:title>CC-BY-SA 4.0 Jugend Hackt</dc:title>
          </cc:Agent>
        </dc:right>
        <dc:title>
          <cc:Agent>
            <dc:title>Pixelhack</dc:title>
          </cc:Agent>
        </dc:title>
        <dc:contributor>
          <cc:Agent>
            <dc:title>Hanno Sternberg</dc:title>
          </cc:Agent>
        </dc:contributor>
        <dc:creator>
          <cc:Agent>
            <dc:title>Jugend Hackt</dc:title>
          </cc:Agent>
        </dc:creator>
        <dc:date>
          <cc:Agent>
            <dc:title>2013</dc:title>
          </cc:Agent>
        </dc:date>
      </cc:Work>
      <cc:License rdf:about="http://creativecommons.org/licenses/by-sa/4.0/">
        <cc:permits rdf:resource="http://creativecommons.org/ns#DerivativeWorks" />
        <cc:requires rdf:resource="http://creativecommons.org/ns#ShareAlike" />
      </cc:License>
    </rdf:RDF>
  </metadata>
</svg>