<?xml version="1.0" encoding="UTF-8" standalone="no"?>
<!DOCTYPE svg PUBLIC "-//W3C//DTD SVG 1.1//EN" "http://www.w3.org/Graphics/SVG/1.1/DTD/svg11.dtd">
<svg xmlns="http://www.w3.org/2000/svg" width="100%" height="100%" viewBox="0 0 64 64" version="1.1" xml:space="preserve" style="fill-rule:evenodd;clip-rule:evenodd;stroke-linejoin:round;stroke-miterlimit:2;" xmlns:rdf="http://www.w3.org/1999/02/22-rdf-syntax-ns" xmlns:cc="http://creativecommons.org/ns" xmlns:dc="http://purl.org/dc/elements/1.1/">
  <g id="Emoji">
    <g id="Plants">
      <g id="Sunflower">
        <path d="M12,34l-2,0l0,-2l2,0l0,2Zm0,-2l0,-2l4,0l0,2l-4,0Zm4,-2l0,-4l2,0l0,4l-2,0Zm0,-4l-2,0l0,-2l2,0l0,2Zm-2,-2l-2,0l0,-2l2,0l0,2Zm0,-2l0,-2l6,0l0,2l-6,0Zm6,-2l0,-8l6,0l0,2l-2,0l0,2l-2,0l0,4l-2,0Zm6,-6l2,0l0,2l-2,0l0,-2Zm2,0l0,-2l2,0l0,2l-2,0Zm2,-2l0,-2l2,0l0,2l-2,0Zm2,-2l0,-2l2,0l0,2l-2,0Zm2,0l2,0l0,4l-2,0l0,-4Zm2,4l2,0l0,2l-2,0l0,-2Zm2,0l0,-2l6,0l0,2l-6,0Zm6,0l2,0l0,2l-2,0l0,-2Zm0,2l0,4l-2,0l0,-4l2,0Zm0,4l8,0l0,4l-2,0l0,-2l-6,0l0,-2Zm6,4l0,6l-2,0l0,-6l2,0Zm0,6l4,0l0,4l-2,0l0,-2l-2,0l0,-2Zm2,4l0,2l-4,0l0,-2l4,0Zm-4,2l0,4l-2,0l0,-4l2,0Zm0,4l2,0l0,4l-2,0l0,2l-4,0l0,-2l2,0l0,-2l2,0l0,-2Zm-4,4l-2,0l0,-2l2,0l0,2Zm-2,0l0,4l-2,0l0,-4l2,0Zm-2,4l0,4l-4,0l0,-2l2,0l0,-2l2,0Zm-4,2l-2,0l0,-4l2,0l0,4Zm-2,-4l-2,0l0,-2l2,0l0,2Zm-2,0l0,4l-4,0l0,-2l2,0l0,-2l2,0Zm-4,4l0,2l-2,0l0,-2l2,0Zm-2,0l-2,0l0,-6l2,0l0,6Zm-2,-6l-2,0l0,-2l2,0l0,2Zm-2,0l0,2l-6,0l0,-10l2,0l0,6l2,0l0,2l2,0Zm-6,-8l-4,0l0,-2l4,0l0,2Z" style="fill:#fbe50f;" />
        <path d="M16,34l-4,0l0,-2l4,0l0,-2l2,0l0,-4l-2,0l0,-2l-2,0l0,-2l6,0l0,-2l2,0l0,-4l2,0l0,-2l2,0l0,2l2,0l0,-2l2,0l0,-2l2,0l0,-2l2,0l0,4l2,0l0,2l2,0l0,-2l6,0l0,2l-2,0l0,4l2,0l0,2l6,0l0,2l-2,0l0,6l2,0l0,2l2,0l0,2l-4,0l0,2l-2,0l0,4l2,0l0,2l-2,0l0,2l-2,0l0,-2l-2,0l0,2l-2,0l0,4l-2,0l0,2l-2,0l0,-4l-2,0l0,-2l-2,0l0,2l-2,0l0,2l-2,0l0,2l-2,0l0,-6l-2,0l0,-2l-2,0l0,2l-2,0l0,-2l-2,0l0,-6l-2,0l0,-2Zm4,-4l0,2l2,0l0,6l2,0l0,2l4,0l0,2l10,0l0,-2l2,0l0,-2l2,0l0,-2l2,0l0,-10l-2,0l0,-4l-4,0l0,-2l-12,0l0,2l-2,0l0,2l-2,0l0,6l-2,0Z" style="fill:#fcd009;" />
        <path d="M24,32l-4,0l0,-2l2,0l0,-2l2,0l0,4Zm0,-4l0,-2l-2,0l0,-2l6,0l0,4l2,0l0,-4l4,0l0,-2l-4,0l0,-2l8,0l0,4l4,0l0,4l2,0l0,4l-2,0l0,4l-4,0l0,2l2,0l0,2l-6,0l0,2l-4,0l0,-4l4,0l0,-2l-4,0l0,-4l-2,0l0,4l-4,0l0,2l-2,0l0,-4l2,0l0,-2l2,0l0,-4l-2,0Zm4,-4l0,-2l2,0l0,2l-2,0Zm2,14l-2,0l0,-2l2,0l0,2Zm8,-12l-4,0l0,2l-2,0l0,4l2,0l0,2l4,0l0,-2l2,0l0,-4l-2,0l0,-2Zm-4,2l4,0l0,4l-4,0l0,-4Zm-6,10l0,2l-2,0l0,-2l2,0Zm0,-16l-2,0l0,-2l2,0l0,2Z" style="fill:#a0673e;" />
        <path d="M28,24l-4,0l0,-2l4,0l0,2Zm0,-2l0,-2l2,0l0,2l-2,0Zm2,0l4,0l0,2l-4,0l0,-2Zm0,2l0,4l-2,0l0,-4l2,0Zm-6,8l0,2l-2,0l0,-2l2,0Zm0,-4l2,0l0,4l-2,0l0,-4Zm0,0l-2,0l0,-2l2,0l0,2Zm10,4l-2,0l0,-4l2,0l0,4Zm0,-4l0,-2l4,0l0,2l-4,0Zm4,0l2,0l0,4l-2,0l0,-4Zm0,4l0,2l-4,0l0,-2l4,0Zm-14,8l0,-4l4,0l0,2l-2,0l0,2l-2,0Zm4,-4l0,-4l2,0l0,4l-2,0Zm2,0l4,0l0,2l-4,0l0,-2Zm0,2l0,4l-2,0l0,-4l2,0Zm12,-2l0,2l-4,0l0,-2l4,0Zm0,0l0,-4l2,0l0,4l-2,0Zm0,-14l0,2l-4,0l0,-2l4,0Zm2,4l0,2l-2,0l0,-2l2,0Zm-6,14l0,2l-4,0l0,-2l4,0Z" style="fill:#bf8e67;" />
        <path d="M20,60l-2,0l0,-4l8,0l0,2l2,0l0,2l2,0l0,-10l2,0l0,-4l2,0l0,16l2,0l0,-2l2,0l0,-4l10,0l0,4l-2,0l0,2l-4,0l0,2l-20,0l0,-2l-2,0l0,-2Z" style="fill:#09aa24;" />
        <path d="M28,58l2,0l0,2l-2,0l0,-2Zm-2,-2l2,0l0,2l-2,0l0,-2Zm0,0l-10,0l0,-2l10,0l0,2Zm10,4l0,-4l2,0l0,4l-2,0Zm2,-4l0,-2l10,0l0,2l-10,0Zm-2,4l0,2l-2,0l0,-2l2,0Z" style="fill:#29e400;" />
      </g>
    </g>
  </g>
  <metadata>
    <rdf:RDF>
      <cc:Work rdf:about="">
        <cc:License rdf:resource="http://creativecommons.org/licenses/by-sa/4.0/" />
        <dc:right>
          <cc:Agent>
            <dc:title>CC-BY-SA 4.0 Jugend Hackt</dc:title>
          </cc:Agent>
        </dc:right>
        <dc:title>
          <cc:Agent>
            <dc:title>Pixelhack</dc:title>
          </cc:Agent>
        </dc:title>
        <dc:contributor>
          <cc:Agent>
            <dc:title>Hanno Sternberg</dc:title>
          </cc:Agent>
        </dc:contributor>
        <dc:creator>
          <cc:Agent>
            <dc:title>Jugend Hackt</dc:title>
          </cc:Agent>
        </dc:creator>
        <dc:date>
          <cc:Agent>
            <dc:title>2013</dc:title>
          </cc:Agent>
        </dc:date>
      </cc:Work>
      <cc:License rdf:about="http://creativecommons.org/licenses/by-sa/4.0/">
        <cc:permits rdf:resource="http://creativecommons.org/ns#DerivativeWorks" />
        <cc:requires rdf:resource="http://creativecommons.org/ns#ShareAlike" />
      </cc:License>
    </rdf:RDF>
  </metadata>
</svg>