<?xml version="1.0" encoding="UTF-8" standalone="no"?>
<!DOCTYPE svg PUBLIC "-//W3C//DTD SVG 1.1//EN" "http://www.w3.org/Graphics/SVG/1.1/DTD/svg11.dtd">
<svg xmlns="http://www.w3.org/2000/svg" xmlns:serif="http://www.serif.com/" width="100%" height="100%" viewBox="0 0 64 64" version="1.1" xml:space="preserve" style="fill-rule:evenodd;clip-rule:evenodd;stroke-linejoin:round;stroke-miterlimit:2;" xmlns:rdf="http://www.w3.org/1999/02/22-rdf-syntax-ns" xmlns:cc="http://creativecommons.org/ns" xmlns:dc="http://purl.org/dc/elements/1.1/">
  <g>
    <g>
      <path d="M2,-2l0,2l-2,0l0,-64l2,0l0,2l2,0l0,2l2,0l0,56l-2,0l0,2l-2,0Zm58,-4l-2,0l0,-52l2,0l0,-2l2,0l0,-2l2,0l0,60l-2,0l0,-2l-2,0l0,-2Z" style="fill:#d3883e;" />
      <path d="M64,0l-62,0l0,-2l2,0l0,-2l2,0l0,-2l54,0l0,2l2,0l0,2l2,0l0,2Z" style="fill:#b97028;" />
    </g>
  </g>
  <g id="Emoji">
    <g id="Crystal-Ball" serif:id="Crystal Ball">
      <path d="M46,62l-34,0l0,-6l2,0l0,-4l32,0l0,10Z" style="fill:#d1d6da;" />
      <path d="M48,56l0,8l-36,0l0,-2l34,0l0,-6l2,0Z" style="fill:#52575b;" />
      <path d="M8,40l-2,0l0,-10l2,0l0,-4l2,0l0,-4l2,0l0,-4l2,0l0,-2l4,0l0,-2l4,0l0,-2l4,0l0,-2l10,0l0,2l4,0l0,2l4,0l0,2l2,0l0,2l2,0l0,2l2,0l0,4l2,0l0,4l2,0l0,14l-2,0l0,4l-2,0l0,4l-2,0l0,2l-34,0l0,-2l-2,0l0,-4l-2,0l0,-2l-2,0l0,-4Z" style="fill:#550080;" />
      <path d="M12,46l2,0l0,2l2,0l0,4l-2,0l0,-2l-2,0l0,-4Zm-4,-6l-2,0l0,-10l2,0l0,-4l2,0l0,-4l2,0l0,-4l2,0l0,-2l4,0l0,-2l4,0l0,-2l4,0l0,-2l10,0l0,2l4,0l0,2l-10,0l0,2l-4,0l0,4l-6,0l0,2l-2,0l0,4l-2,0l0,2l-2,0l0,4l-2,0l0,14l-2,0l0,-2l-2,0l0,-4Z" style="fill:#8000ff;" />
      <path d="M14,38l-4,0l0,-2l4,0l-0,-2l4,0l0,-4l2,0l0,-4l2,0l-0,4l2,0l0,4l4,0l0,2l4,0l0,2l-4,0l0,2l-4,0l0,4l-2,0l-0,4l-2,0l0,-4l-2,0l0,-4l-4,0l-0,-2Zm10,-20l-2,0l-0,-2l2,0l0,-2l2,0l0,2l2,0l0,2l-2,0l0,2l-2,0l0,-2Zm18,10l-2,0l0,-2l2,0l0,-2l2,0l-0,-2l2,0l0,4l2,0l0,2l-2,0l0,4l-2,0l-0,-2l-2,0l0,-2Z" style="fill:#fbe50f;" />
      <path d="M20,38l-4,0l0,-2l4,0l0,-4l2,0l0,4l4,0l0,2l-4,0l0,4l-2,0l0,-4Z" style="fill:#fcd009;" />
    </g>
  </g>
  <metadata>
    <rdf:RDF>
      <cc:Work rdf:about="">
        <cc:License rdf:resource="http://creativecommons.org/licenses/by-sa/4.0/" />
        <dc:right>
          <cc:Agent>
            <dc:title>CC-BY-SA 4.0 Jugend Hackt</dc:title>
          </cc:Agent>
        </dc:right>
        <dc:title>
          <cc:Agent>
            <dc:title>Pixelhack</dc:title>
          </cc:Agent>
        </dc:title>
        <dc:contributor>
          <cc:Agent>
            <dc:title>Hanno Sternberg</dc:title>
          </cc:Agent>
        </dc:contributor>
        <dc:creator>
          <cc:Agent>
            <dc:title>Jugend Hackt</dc:title>
          </cc:Agent>
        </dc:creator>
        <dc:date>
          <cc:Agent>
            <dc:title>2013</dc:title>
          </cc:Agent>
        </dc:date>
      </cc:Work>
      <cc:License rdf:about="http://creativecommons.org/licenses/by-sa/4.0/">
        <cc:permits rdf:resource="http://creativecommons.org/ns#DerivativeWorks" />
        <cc:requires rdf:resource="http://creativecommons.org/ns#ShareAlike" />
      </cc:License>
    </rdf:RDF>
  </metadata>
</svg>