<?xml version="1.0" encoding="UTF-8" standalone="no"?>
<!DOCTYPE svg PUBLIC "-//W3C//DTD SVG 1.1//EN" "http://www.w3.org/Graphics/SVG/1.1/DTD/svg11.dtd">
<svg xmlns="http://www.w3.org/2000/svg" xmlns:serif="http://www.serif.com/" width="100%" height="100%" viewBox="0 0 64 64" version="1.1" xml:space="preserve" style="fill-rule:evenodd;clip-rule:evenodd;stroke-linejoin:round;stroke-miterlimit:2;" xmlns:rdf="http://www.w3.org/1999/02/22-rdf-syntax-ns" xmlns:cc="http://creativecommons.org/ns" xmlns:dc="http://purl.org/dc/elements/1.1/">
  <g id="Emoji">
    <g id="Ring-Buoy" serif:id="Ring Buoy">
      <path d="M42,12l2,0l0,2l-2,0l0,-2Zm-12,-6l0,-2l4,0l0,2l-4,0Zm-8,6l0,-2l2,0l0,-2l2,0l0,-2l4,0l0,2l-2,0l0,2l-2,0l0,2l-4,0Zm18,-2l2,0l0,2l-2,0l0,-2Zm-2,-2l2,0l0,2l-2,0l0,-2Zm-4,-2l4,0l0,2l-4,0l0,-2Zm-12,6l0,2l-2,0l0,-2l2,0Zm-12,14l0,-4l2,0l0,4l-2,0Zm-2,8l2,0l0,4l2,0l0,4l-2,0l0,-2l-2,0l0,-6Zm4,-12l0,-2l2,0l0,2l-2,0Zm2,-2l0,-2l2,0l0,2l-2,0Zm-6,14l-2,0l0,-4l2,0l0,4Zm0,-4l0,-4l2,0l0,4l-2,0Zm4,12l2,0l0,2l-2,0l0,-2Zm40,2l0,2l-2,0l0,-2l2,0Zm2,-20l2,0l0,4l-2,0l0,-4Zm-2,-2l2,0l0,2l-2,0l0,-2Zm2,20l0,2l-2,0l0,-2l2,0Zm-2,-20l-2,0l0,-4l2,0l0,4Zm4,6l2,0l0,10l-2,0l0,-10Zm0,10l0,4l-2,0l0,-4l2,0Zm-20,20l0,-2l2,0l0,2l-2,0Zm-14,-6l-2,0l0,-2l2,0l0,2Zm16,4l0,-2l2,0l0,2l-2,0Zm2,-2l0,-2l2,0l0,-2l2,0l0,4l-4,0Zm-18,-2l2,0l0,2l-2,0l0,-2Zm4,4l4,0l0,2l6,0l0,2l-8,0l0,-2l-2,0l0,-2Zm-2,-2l2,0l0,2l-2,0l0,-2Z" style="fill:#bf8e67;" />
      <path d="M24,16l-2,0l0,-4l6,0l0,-2l8,0l0,2l6,0l0,4l-2,0l0,2l-2,0l0,2l-12,0l0,-2l-2,0l0,-2Zm-12,18l-2,0l0,-4l2,0l0,-8l2,0l0,-2l4,0l0,2l2,0l0,2l2,0l0,4l-2,0l0,8l2,0l0,4l-2,0l0,2l-2,0l0,2l-2,0l0,2l-2,0l0,-4l-2,0l0,-8Zm34,6l-2,0l0,-16l2,0l0,-2l2,0l0,-2l2,0l0,2l2,0l0,6l2,0l0,10l-2,0l0,6l-4,0l0,-2l-2,0l0,-2Zm-20,12l-4,0l0,-4l2,0l0,-2l2,0l0,-2l12,0l0,2l2,0l0,2l2,0l0,4l-4,0l0,2l-12,0l0,-2Z" style="fill:#e6414a;" />
      <path d="M16,18l-2,0l0,-4l2,0l0,-2l4,0l0,2l2,0l0,2l2,0l0,2l2,0l0,2l2,0l0,2l-4,0l0,2l-4,0l0,-2l-2,0l0,-2l-2,0l0,-2Zm24,4l-2,0l0,-4l2,0l0,-2l2,0l0,-2l2,0l0,-2l4,0l0,2l2,0l0,2l2,0l0,2l-2,0l0,2l-2,0l0,2l-2,0l0,2l-2,0l0,2l-2,0l0,-2l-2,0l0,-2Zm0,24l-2,0l0,-4l2,0l0,-2l2,0l0,-2l2,0l0,2l2,0l0,2l2,0l0,2l2,0l0,6l-2,0l0,2l-4,0l0,-2l-2,0l0,-2l-2,0l0,-2Zm-24,4l-2,0l0,-4l2,0l0,-2l2,0l0,-2l2,0l0,-2l4,0l0,2l2,0l0,4l-2,0l0,2l-2,0l0,2l-2,0l0,2l-4,0l0,-2Z" style="fill:#fff;" />
    </g>
  </g>
  <metadata>
    <rdf:RDF>
      <cc:Work rdf:about="">
        <cc:License rdf:resource="http://creativecommons.org/licenses/by-sa/4.0/" />
        <dc:right>
          <cc:Agent>
            <dc:title>CC-BY-SA 4.0 Jugend Hackt</dc:title>
          </cc:Agent>
        </dc:right>
        <dc:title>
          <cc:Agent>
            <dc:title>Pixelhack</dc:title>
          </cc:Agent>
        </dc:title>
        <dc:contributor>
          <cc:Agent>
            <dc:title>Hanno Sternberg</dc:title>
          </cc:Agent>
        </dc:contributor>
        <dc:creator>
          <cc:Agent>
            <dc:title>Jugend Hackt</dc:title>
          </cc:Agent>
        </dc:creator>
        <dc:date>
          <cc:Agent>
            <dc:title>2013</dc:title>
          </cc:Agent>
        </dc:date>
      </cc:Work>
      <cc:License rdf:about="http://creativecommons.org/licenses/by-sa/4.0/">
        <cc:permits rdf:resource="http://creativecommons.org/ns#DerivativeWorks" />
        <cc:requires rdf:resource="http://creativecommons.org/ns#ShareAlike" />
      </cc:License>
    </rdf:RDF>
  </metadata>
</svg>