<?xml version="1.0" encoding="UTF-8" standalone="no"?>
<!DOCTYPE svg PUBLIC "-//W3C//DTD SVG 1.1//EN" "http://www.w3.org/Graphics/SVG/1.1/DTD/svg11.dtd">
<svg xmlns="http://www.w3.org/2000/svg" width="100%" height="100%" viewBox="0 0 64 64" version="1.1" xml:space="preserve" style="fill-rule:evenodd;clip-rule:evenodd;stroke-linejoin:round;stroke-miterlimit:2;" xmlns:rdf="http://www.w3.org/1999/02/22-rdf-syntax-ns" xmlns:cc="http://creativecommons.org/ns" xmlns:dc="http://purl.org/dc/elements/1.1/">
  <g id="Emoji">
    <g id="Map">
      <g>
        <path d="M46,46l0,-38l2,0l0,2l8,0l0,2l2,0l0,36l-8,0l0,-2l-4,0Z" style="fill:#10498c;" />
        <path d="M48,8l-2,0l0,-4l2,0l0,2l6,0l0,2l6,0l0,46l-4,0l0,-2l-6,0l0,-2l-4,0l0,-4l4,0l0,2l8,0l0,-36l-2,0l0,-2l-8,0l0,-2Z" style="fill:#d1d6da;" />
      </g>
      <g>
        <path d="M38,10l0,2l-6,0l0,-4l6,0l0,-2l6,0l0,-2l2,0l0,4l-2,0l0,2l-6,0Zm-2,42l0,2l-4,0l0,-4l4,0l0,-2l6,0l0,-2l4,0l0,4l-4,0l0,2l-6,0Z" style="fill:#fff;" />
        <path d="M46,8l0,38l-4,0l0,2l-6,0l0,2l-4,0l0,-38l6,0l0,-2l6,0l0,-2l2,0Z" style="fill:#16a6de;" />
      </g>
      <g>
        <path d="M20,8l-2,0l0,-4l2,0l0,2l8,0l0,2l4,0l0,4l-4,0l0,-2l-8,0l0,-2Zm2,42l-4,0l0,-4l4,0l0,2l8,0l0,2l2,0l0,4l-2,0l0,-2l-8,0l0,-2Z" style="fill:#d1d6da;" />
        <path d="M18,46l0,-38l2,0l0,2l8,0l0,2l4,0l0,38l-2,0l0,-2l-8,0l0,-2l-4,0Z" style="fill:#10498c;" />
      </g>
      <g>
        <path d="M4,54l0,-46l6,0l0,-2l8,0l0,2l-2,0l0,2l-6,0l0,2l-2,0l0,36l8,0l0,-2l2,0l0,4l-2,0l0,2l-8,0l0,2l-4,0Z" style="fill:#fff;" />
        <path d="M18,8l0,38l-2,0l0,2l-8,0l0,-36l2,0l0,-2l6,0l0,-2l2,0Z" style="fill:#16a6de;" />
      </g>
      <path d="M10,22l0,-6l4,0l0,2l4,0l0,-2l2,0l0,-2l8,0l0,6l-2,0l0,2l-2,0l0,-6l-2,0l0,2l-2,0l0,2l-2,0l0,2l2,0l0,-2l2,0l0,2l2,0l0,4l-4,0l0,2l-2,0l0,-2l-2,0l0,2l-4,0l0,-6l2,0l0,-2l-2,0l0,2l-2,0Zm8,6l0,2l-2,0l0,-2l2,0Zm-8,-6l0,2l-2,0l0,-2l2,0Zm8,8l2,0l0,2l4,0l0,2l2,0l0,2l-2,0l0,2l-2,0l0,4l-2,0l0,-6l-2,0l0,-6Zm12,2l-2,0l0,-2l2,0l0,-2l2,0l0,-2l-2,0l0,-4l2,0l0,-2l6,0l0,-2l2,0l0,-4l4,0l0,2l4,0l0,-2l2,0l0,2l2,0l0,6l-2,0l0,-2l-2,0l0,4l2,0l0,2l-2,0l0,4l-4,0l0,-2l-2,0l0,2l-2,0l0,-2l-2,0l0,4l-2,0l0,8l-4,0l0,-6l-2,0l0,-2Zm18,4l-4,0l0,-4l2,0l0,2l2,0l0,2Zm0,-2l0,-2l4,0l0,4l-2,0l0,-2l-2,0Zm4,4l0,4l-6,0l0,-4l6,0Z" style="fill:#09aa24;" />
    </g>
  </g>
  <metadata>
    <rdf:RDF>
      <cc:Work rdf:about="">
        <cc:License rdf:resource="http://creativecommons.org/licenses/by-sa/4.0/" />
        <dc:right>
          <cc:Agent>
            <dc:title>CC-BY-SA 4.0 Jugend Hackt</dc:title>
          </cc:Agent>
        </dc:right>
        <dc:title>
          <cc:Agent>
            <dc:title>Pixelhack</dc:title>
          </cc:Agent>
        </dc:title>
        <dc:contributor>
          <cc:Agent>
            <dc:title>Hanno Sternberg</dc:title>
          </cc:Agent>
        </dc:contributor>
        <dc:creator>
          <cc:Agent>
            <dc:title>Jugend Hackt</dc:title>
          </cc:Agent>
        </dc:creator>
        <dc:date>
          <cc:Agent>
            <dc:title>2013</dc:title>
          </cc:Agent>
        </dc:date>
      </cc:Work>
      <cc:License rdf:about="http://creativecommons.org/licenses/by-sa/4.0/">
        <cc:permits rdf:resource="http://creativecommons.org/ns#DerivativeWorks" />
        <cc:requires rdf:resource="http://creativecommons.org/ns#ShareAlike" />
      </cc:License>
    </rdf:RDF>
  </metadata>
</svg>