<?xml version="1.0" encoding="UTF-8" standalone="no"?>
<!DOCTYPE svg PUBLIC "-//W3C//DTD SVG 1.1//EN" "http://www.w3.org/Graphics/SVG/1.1/DTD/svg11.dtd">
<svg xmlns="http://www.w3.org/2000/svg" width="100%" height="100%" viewBox="0 0 64 64" version="1.1" xml:space="preserve" style="fill-rule:evenodd;clip-rule:evenodd;stroke-linejoin:round;stroke-miterlimit:2;" xmlns:rdf="http://www.w3.org/1999/02/22-rdf-syntax-ns" xmlns:cc="http://creativecommons.org/ns" xmlns:dc="http://purl.org/dc/elements/1.1/">
  <g id="Emoji">
    <g id="Transportation">
      <g id="Train">
        <path d="M18,-42l-2,0l0,-10l2,0l0,-2l2,0l0,-2l2,0l0,-2l2,0l0,-2l2,0l0,-2l12,0l0,2l2,0l0,2l2,0l0,2l2,0l0,2l2,0l0,2l2,0l0,10l-2,0l0,-6l-2,0l0,-2l-2,0l0,-2l-20,0l0,2l-2,0l0,2l-2,0l0,6Zm28,0l0,8l-2,0l0,-8l2,0Zm-2,8l0,10l-2,0l0,8l-2,0l0,2l-16,0l0,-2l-2,0l0,-8l-2,0l0,-10l2,0l0,8l6,0l0,2l2,0l0,2l4,0l0,-2l2,0l0,-2l6,0l0,-8l2,0Zm-24,0l-2,0l0,-8l2,0l0,8Zm14,-24l-4,0l0,4l4,0l0,-4Zm6,36l-4,0l0,2l4,0l0,-2Zm-12,2l0,-2l-4,0l0,2l4,0Zm16,20l-24,0l0,-4l6,0l0,-2l12,0l0,2l6,0l0,4Z" style="fill:#52575b;" />
        <path d="M30,-24l-2,0l0,-2l4,0l0,2l2,0l0,2l-4,0l0,-2Zm4,0l0,-2l2,0l0,2l-2,0Zm-8,-28l0,4l-2,0l0,-4l2,0Zm-6,48l0,4l-2,0l0,-4l2,0Zm26,0l0,4l-2,0l0,-4l2,0Z" style="fill:#5d473d;" />
      </g>
    </g>
    <g id="Space">
      <g id="Teleskop">
        <path d="M8,14l-2,0l0,-4l2,0l0,-2l2,0l0,2l2,0l0,-2l-2,0l0,-2l4,0l0,2l2,0l0,4l-2,0l0,4l-2,0l0,2l-2,0l0,-2l-2,0l0,-2Z" style="fill:#16a6de;" />
        <rect x="10" y="8" width="2" height="2" style="fill:#fff;" />
        <path d="M22,10l-6,0l0,-2l6,0l0,2Zm0,0l2,0l0,2l-2,0l0,-2Zm34,16l-4,0l0,-4l2,0l0,2l4,0l0,4l-2,0l0,-2Zm-42,24l0,-2l2,0l0,2l-2,0Zm-4,6l0,-4l2,0l0,-2l2,0l0,4l-2,0l0,2l-2,0Zm18,-24l0,-2l2,0l0,-4l2,0l0,6l-4,0Zm-2,2l0,-2l2,0l0,2l-2,0Zm-4,6l0,-2l2,0l0,2l-2,0Zm-2,2l0,-2l2,0l0,2l-2,0Zm4,-4l0,-4l2,0l0,4l-2,0Zm-14,18l0,2l-2,0l0,-2l2,0Zm8,-10l0,-4l2,0l0,4l-2,0Zm-2,2l0,-2l2,0l0,2l-2,0Zm16,-10l0,20l-2,0l0,-20l2,0Z" style="fill:#8000ff;" />
        <path d="M18,20l-6,0l0,-4l2,0l0,-4l2,0l0,-2l6,0l0,6l-2,0l0,6l-2,0l0,-2Zm-4,34l0,-4l2,0l0,-2l2,0l0,-2l2,0l0,-4l2,0l0,-2l2,0l0,-2l2,0l0,-4l2,0l0,-2l4,0l0,-6l2,0l0,8l2,0l0,2l2,0l0,2l2,0l0,2l2,0l0,2l2,0l0,4l2,0l0,2l2,0l0,2l2,0l0,4l2,0l0,4l-4,0l0,-4l-2,0l0,-2l-2,0l0,-2l-2,0l0,-4l-2,0l0,-2l-2,0l0,-2l-2,0l0,-4l-2,0l0,20l-2,0l0,-20l-4,0l0,2l-2,0l0,2l-2,0l0,2l-2,0l0,4l-2,0l0,2l-2,0l0,2l-2,0l0,2l-2,0Zm-2,2l0,2l-2,0l0,-2l2,0Zm0,0l0,-2l2,0l0,2l-2,0Zm44,-30l0,6l-6,0l0,-6l6,0Z" style="fill:#550080;" />
        <path d="M26,12l6,0l0,2l-6,0l0,-2Zm6,2l6,0l0,2l-6,0l0,-2Zm-6,-2l-2,0l0,-2l2,0l0,2Zm12,4l4,0l0,2l-4,0l0,-2Zm4,2l2,0l0,2l-2,0l0,-2Z" style="fill:#e6414a;" />
        <path d="M26,22l-6,0l0,-6l2,0l0,-4l4,0l0,2l6,0l0,2l6,0l0,2l4,0l0,2l2,0l0,2l-2,0l0,4l-2,0l0,2l-6,0l0,-2l-6,0l0,-2l-2,0l0,-2Z" style="fill:#ca006a;" />
        <path d="M44,16l0,2l-2,0l0,-2l2,0Zm-2,10l0,2l-2,0l0,-2l2,0Z" style="fill:#d1d6da;" />
        <path d="M48,22l-4,0l0,-2l4,0l0,2Zm0,0l4,0l0,2l-4,0l0,-2Z" style="fill:#f3971b;" />
        <path d="M46,28l-4,0l0,-6l6,0l0,2l4,0l0,2l-2,0l0,4l-4,0l0,-2Z" style="fill:#ea680d;" />
        <path d="M12,58l0,2l-4,0l0,-2l4,0Zm2,-2l0,-2l2,0l0,-2l14,0l0,4l-16,0Zm-2,2l0,-2l2,0l0,2l-2,0Zm22,0l0,-6l12,0l0,2l2,0l0,2l-12,0l0,2l-2,0Zm0,0l0,2l-4,0l0,-2l4,0Zm18,0l0,-2l2,0l0,2l-2,0Zm0,0l0,2l-4,0l0,-2l4,0Z" style="fill:#52575b;" />
      </g>
    </g>
  </g>
  <metadata>
    <rdf:RDF>
      <cc:Work rdf:about="">
        <cc:License rdf:resource="http://creativecommons.org/licenses/by-sa/4.0/" />
        <dc:right>
          <cc:Agent>
            <dc:title>CC-BY-SA 4.0 Jugend Hackt</dc:title>
          </cc:Agent>
        </dc:right>
        <dc:title>
          <cc:Agent>
            <dc:title>Pixelhack</dc:title>
          </cc:Agent>
        </dc:title>
        <dc:contributor>
          <cc:Agent>
            <dc:title>Hanno Sternberg</dc:title>
          </cc:Agent>
        </dc:contributor>
        <dc:creator>
          <cc:Agent>
            <dc:title>Jugend Hackt</dc:title>
          </cc:Agent>
        </dc:creator>
        <dc:date>
          <cc:Agent>
            <dc:title>2013</dc:title>
          </cc:Agent>
        </dc:date>
      </cc:Work>
      <cc:License rdf:about="http://creativecommons.org/licenses/by-sa/4.0/">
        <cc:permits rdf:resource="http://creativecommons.org/ns#DerivativeWorks" />
        <cc:requires rdf:resource="http://creativecommons.org/ns#ShareAlike" />
      </cc:License>
    </rdf:RDF>
  </metadata>
</svg>