<?xml version="1.0" encoding="UTF-8" standalone="no"?>
<!DOCTYPE svg PUBLIC "-//W3C//DTD SVG 1.1//EN" "http://www.w3.org/Graphics/SVG/1.1/DTD/svg11.dtd">
<svg xmlns="http://www.w3.org/2000/svg" xmlns:serif="http://www.serif.com/" width="100%" height="100%" viewBox="0 0 64 64" version="1.1" xml:space="preserve" style="fill-rule:evenodd;clip-rule:evenodd;stroke-linejoin:round;stroke-miterlimit:2;" xmlns:rdf="http://www.w3.org/1999/02/22-rdf-syntax-ns" xmlns:cc="http://creativecommons.org/ns" xmlns:dc="http://purl.org/dc/elements/1.1/">
  <g id="Emoji">
    <g id="Suitcase">
      <path d="M66,-4l-2,0l0,-36l2,0l0,-2l2,0l0,-2l6,0l0,4l-6,0l0,36l6,0l0,4l-6,0l0,-2l-2,0l0,-2Zm58,-36l-6,0l0,-4l6,0l0,2l2,0l0,2l2,0l0,36l-2,0l0,2l-2,0l0,2l-6,0l0,-4l6,0l0,-36Zm-10,-4l0,4l-36,0l0,-4l36,0Zm0,40l0,4l-36,0l0,-4l36,0Z" style="fill:#ea680d;" />
    </g>
    <g id="Plants">
      <g id="Cherry-Blossom" serif:id="Cherry Blossom">
        <path d="M4,30l0,-4l4,0l0,2l-2,0l0,2l-2,0Zm4,-4l0,-2l2,0l0,2l-2,0Zm0,-2l-2,0l0,-4l2,0l0,4Zm0,-4l0,-2l4,0l0,2l-4,0Zm4,-2l0,-2l6,0l0,2l-6,0Zm6,0l4,0l0,2l-4,0l0,-2Zm4,0l0,-8l2,0l0,8l-2,0Zm2,-8l0,-2l2,0l0,2l-2,0Zm2,-2l0,-2l2,0l0,2l-2,0Zm2,-2l0,-2l2,0l0,2l-2,0Zm2,0l4,0l0,2l-4,0l0,-2Zm4,0l0,-2l2,0l0,2l-2,0Zm2,0l4,0l0,2l-4,0l0,-2Zm4,2l2,0l0,4l-2,0l0,-4Zm2,4l2,0l0,6l-2,0l0,-6Zm2,6l2,0l0,2l-2,0l0,-2Zm2,0l0,-2l6,0l0,2l-6,0Zm6,0l4,0l0,2l-4,0l0,-2Zm4,2l2,0l0,4l-2,0l0,-4Zm0,4l0,2l-2,0l0,-2l2,0Zm0,2l4,0l0,6l-2,0l0,-4l-2,0l0,-2Zm2,6l0,2l-2,0l0,-2l2,0Zm-2,2l0,2l-2,0l0,-2l2,0Zm-2,2l0,2l-4,0l0,-2l4,0Zm-4,2l0,2l-2,0l0,-2l2,0Zm0,2l2,0l0,4l-2,0l0,-4Zm2,4l2,0l0,6l-2,0l0,-6Zm0,6l0,4l-4,0l0,-2l2,0l0,-2l2,0Zm-4,4l0,4l-10,0l0,-2l8,0l0,-2l2,0Zm-10,2l-2,0l0,-2l2,0l0,2Zm-2,-2l-2,0l0,-2l2,0l0,2Zm-2,-2l-2,0l0,-2l2,0l0,2Zm-2,0l0,2l-2,0l0,-2l2,0Zm-2,2l0,2l-4,0l0,-2l4,0Zm-4,2l0,2l-8,0l0,-4l2,0l0,2l6,0Zm-8,-2l-4,0l0,-2l4,0l0,2Zm-4,-2l-2,0l0,-10l2,0l0,10Zm0,-10l0,-4l2,0l0,4l-2,0Zm0,-4l-4,0l0,-2l4,0l0,2Zm-4,-2l-2,0l0,-2l2,0l0,2Zm-2,-2l-2,0l0,-4l2,0l0,4Z" style="fill:#e6414a;" />
        <path d="M8,30l-2,0l0,-2l2,0l0,-2l2,0l0,-2l-2,0l0,-4l4,0l0,-2l6,0l0,2l4,0l0,-2l2,0l0,-8l2,0l0,-2l2,0l0,-2l2,0l0,2l4,0l0,-2l2,0l0,2l4,0l0,4l2,0l0,6l2,0l0,2l2,0l0,-2l6,0l0,2l4,0l0,4l-2,0l0,2l2,0l0,2l2,0l0,4l-2,0l0,2l-2,0l0,2l-4,0l0,2l-2,0l0,2l2,0l0,4l2,0l0,6l-2,0l0,2l-2,0l0,2l-2,0l0,2l-8,0l0,-2l-2,0l0,-2l-2,0l0,-2l-2,0l0,2l-2,0l0,2l-4,0l0,2l-6,0l0,-2l-2,0l0,-2l-4,0l0,-10l2,0l0,-4l-2,0l0,-2l-4,0l0,-2l-2,0l0,-4Zm8,-8l-2,0l0,2l2,0l0,-2Zm4,2l-2,0l0,2l2,0l0,8l6,0l0,2l-2,0l0,8l-2,0l0,2l-2,0l0,2l2,0l0,-2l2,0l0,-2l6,0l0,-2l2,0l0,-2l2,0l0,4l6,0l0,2l2,0l0,2l2,0l0,-2l-2,0l0,-2l-2,0l0,-2l2,0l0,-6l-2,0l0,-2l4,0l0,-8l2,0l0,-2l2,0l0,-2l-2,0l0,2l-2,0l0,2l-8,0l0,-6l-2,0l0,-4l-2,0l0,4l-4,0l0,6l-8,0l0,-2Zm14,-12l-2,0l0,2l2,0l0,-2Z" style="fill:#ff3b8d;" />
        <path d="M20,26l-2,0l0,-2l2,0l0,2Zm26,-2l0,-2l2,0l0,2l-2,0Zm-2,2l0,-2l2,0l0,2l-2,0Zm-22,20l0,2l-2,0l0,-2l2,0Zm20,0l2,0l0,2l-2,0l0,-2Zm-2,-2l2,0l0,2l-2,0l0,-2Zm-16,0l0,2l-2,0l0,-2l2,0Zm-4,-18l8,0l0,-6l4,0l0,-4l2,0l0,4l2,0l0,6l8,0l0,8l-4,0l0,2l2,0l0,6l-2,0l0,2l-6,0l0,-4l-2,0l0,2l-2,0l0,2l-6,0l0,-8l2,0l0,-2l-6,0l0,-8Zm6,2l-4,0l0,4l2,0l0,-2l2,0l0,2l2,0l0,6l-2,0l0,4l2,0l0,-2l2,0l0,-4l4,0l0,2l2,0l0,4l2,0l0,-2l2,0l0,-2l-2,0l0,-2l-2,0l0,-2l2,0l0,-2l4,0l0,-4l-4,0l0,2l-2,0l0,-2l-2,0l0,-6l-4,0l0,2l2,0l0,4l-4,0l0,2l-2,0l0,-2Zm8,-16l0,2l-2,0l0,-2l2,0Zm-18,10l0,2l-2,0l0,-2l2,0Z" style="fill:#ca006a;" />
        <path d="M26,30l2,0l0,-2l4,0l0,-4l-2,0l0,-2l4,0l0,6l2,0l0,2l2,0l0,-2l4,0l0,4l-4,0l0,2l-2,0l0,2l2,0l0,2l2,0l0,2l-2,0l0,2l-2,0l0,-4l-2,0l0,-2l-4,0l0,4l-2,0l0,2l-2,0l0,-4l2,0l0,-6l-2,0l0,-2Zm-4,2l0,-4l4,0l0,2l-2,0l0,2l-2,0Z" style="fill:#fff;" />
      </g>
    </g>
  </g>
  <metadata>
    <rdf:RDF>
      <cc:Work rdf:about="">
        <cc:License rdf:resource="http://creativecommons.org/licenses/by-sa/4.0/" />
        <dc:right>
          <cc:Agent>
            <dc:title>CC-BY-SA 4.0 Jugend Hackt</dc:title>
          </cc:Agent>
        </dc:right>
        <dc:title>
          <cc:Agent>
            <dc:title>Pixelhack</dc:title>
          </cc:Agent>
        </dc:title>
        <dc:contributor>
          <cc:Agent>
            <dc:title>Hanno Sternberg</dc:title>
          </cc:Agent>
        </dc:contributor>
        <dc:creator>
          <cc:Agent>
            <dc:title>Jugend Hackt</dc:title>
          </cc:Agent>
        </dc:creator>
        <dc:date>
          <cc:Agent>
            <dc:title>2013</dc:title>
          </cc:Agent>
        </dc:date>
      </cc:Work>
      <cc:License rdf:about="http://creativecommons.org/licenses/by-sa/4.0/">
        <cc:permits rdf:resource="http://creativecommons.org/ns#DerivativeWorks" />
        <cc:requires rdf:resource="http://creativecommons.org/ns#ShareAlike" />
      </cc:License>
    </rdf:RDF>
  </metadata>
</svg>