<?xml version="1.0" encoding="UTF-8" standalone="no"?>
<!DOCTYPE svg PUBLIC "-//W3C//DTD SVG 1.1//EN" "http://www.w3.org/Graphics/SVG/1.1/DTD/svg11.dtd">
<svg xmlns="http://www.w3.org/2000/svg" width="100%" height="100%" viewBox="0 0 64 64" version="1.1" xml:space="preserve" style="fill-rule:evenodd;clip-rule:evenodd;stroke-linejoin:round;stroke-miterlimit:2;" xmlns:rdf="http://www.w3.org/1999/02/22-rdf-syntax-ns" xmlns:cc="http://creativecommons.org/ns" xmlns:dc="http://purl.org/dc/elements/1.1/">
  <g id="Emoji">
    <g id="Transportation">
      <g id="Bike">
        <path d="M20,28l-2,0l0,-4l2,0l0,2l2,0l0,2l6,0l0,2l-2,0l0,2l-2,0l0,-2l-4,0l0,-2Zm2,-6l0,-2l2,0l0,2l-2,0Zm-2,2l0,-2l2,0l0,2l-2,0Zm26,34l6,0l0,2l-6,0l0,-2Zm0,0l-4,0l0,-4l2,0l0,2l2,0l0,2Zm6,0l0,-2l2,0l0,-2l2,0l0,-6l-2,0l0,-2l-2,0l0,-2l4,0l0,2l2,0l0,10l-2,0l0,2l-4,0Zm0,-14l-6,0l0,-2l6,0l0,2Zm-32,14l0,-2l2,0l0,2l-2,0Zm-10,-12l0,-2l2,0l0,2l-2,0Zm-2,6l2,0l0,4l-2,0l0,-4Zm0,0l-2,0l0,-2l2,0l0,2Zm14,-6l-2,0l0,-2l2,0l0,2Zm0,10l0,-10l2,0l0,10l-2,0Zm-14,-6l0,-4l2,0l0,4l-2,0Zm2,6l2,0l0,2l-2,0l0,-2Zm2,-12l0,-2l6,0l0,2l-6,0Zm0,14l8,0l0,2l-8,0l0,-2Zm30,-28l0,2l-2,0l0,-2l2,0Zm2,14l0,4l-2,0l0,-4l2,0Zm-6,4l0,4l-4,0l0,-4l4,0Z" style="fill:#d1d6da;" />
        <rect x="24" y="20" width="6" height="2" style="fill:#550080;" />
        <path d="M38,28l-2,0l0,-2l8,0l0,4l-6,0l0,-2Z" style="fill:#bf8e67;" />
        <path d="M16,50l0,2l-2,0l0,-2l2,0Zm8,-10l2,0l0,2l-2,0l0,-2Zm-6,6l0,-6l2,0l0,-4l2,0l0,-4l2,0l0,8l-2,0l0,2l-2,0l0,4l-2,0Zm-2,4l0,-4l2,0l0,4l-2,0Zm10,-8l4,0l0,2l2,0l0,2l2,0l0,2l-4,0l0,-2l-2,0l0,-2l-2,0l0,-2Zm12,0l0,4l-2,0l0,-6l2,0l0,-8l2,0l0,2l2,0l0,4l-2,0l0,4l-2,0Zm4,-4l2,0l0,2l2,0l0,4l2,0l0,4l-2,0l0,-2l-2,0l0,-4l-2,0l0,-4Z" style="fill:#e52320;" />
        <path d="M58,46l-2,0l0,-2l2,0l0,2Zm-16,12l4,0l0,2l-4,0l0,-2Zm14,-14l-4,0l0,-2l-6,0l0,-2l8,0l0,2l2,0l0,2Zm-10,16l6,0l0,-2l4,0l0,2l-2,0l0,2l-8,0l0,-2Zm12,-4l0,-10l2,0l0,10l-2,0Zm-16,2l-2,0l0,-4l2,0l0,4Zm14,0l0,-2l2,0l0,2l-2,0Zm-34,-14l-2,0l0,-2l2,0l0,2Zm-10,-2l0,-2l6,0l0,2l-6,0Zm-6,8l0,-6l2,0l0,-2l4,0l0,2l-2,0l0,2l-2,0l0,4l-2,0Zm0,2l-2,0l0,-2l2,0l0,2Zm0,0l2,0l0,4l2,0l0,2l2,0l0,2l-4,0l0,-2l-2,0l0,-6Zm18,4l0,-10l2,0l0,10l-2,0Zm0,-10l-2,0l0,-2l2,0l0,2Zm-2,12l0,-2l2,0l0,2l-2,0Zm-2,2l0,-2l2,0l0,2l-2,0Zm-8,0l8,0l0,2l-8,0l0,-2Zm30,-16l0,-2l2,0l0,2l-2,0Zm0,0l0,2l-2,0l0,-2l2,0Z" style="fill:#52575b;" />
        <path d="M34,52l-2,0l0,-4l2,0l0,4Zm0,-4l0,-2l8,0l0,2l8,0l0,2l2,0l0,2l-2,0l0,2l-16,0l0,-2l4,0l0,-4l-4,0Z" style="fill:#ea680d;" />
      </g>
    </g>
  </g>
  <metadata>
    <rdf:RDF>
      <cc:Work rdf:about="">
        <cc:License rdf:resource="http://creativecommons.org/licenses/by-sa/4.0/" />
        <dc:right>
          <cc:Agent>
            <dc:title>CC-BY-SA 4.0 Jugend Hackt</dc:title>
          </cc:Agent>
        </dc:right>
        <dc:title>
          <cc:Agent>
            <dc:title>Pixelhack</dc:title>
          </cc:Agent>
        </dc:title>
        <dc:contributor>
          <cc:Agent>
            <dc:title>Hanno Sternberg</dc:title>
          </cc:Agent>
        </dc:contributor>
        <dc:creator>
          <cc:Agent>
            <dc:title>Jugend Hackt</dc:title>
          </cc:Agent>
        </dc:creator>
        <dc:date>
          <cc:Agent>
            <dc:title>2013</dc:title>
          </cc:Agent>
        </dc:date>
      </cc:Work>
      <cc:License rdf:about="http://creativecommons.org/licenses/by-sa/4.0/">
        <cc:permits rdf:resource="http://creativecommons.org/ns#DerivativeWorks" />
        <cc:requires rdf:resource="http://creativecommons.org/ns#ShareAlike" />
      </cc:License>
    </rdf:RDF>
  </metadata>
</svg>