<?xml version="1.0" encoding="UTF-8" standalone="no"?>
<!DOCTYPE svg PUBLIC "-//W3C//DTD SVG 1.1//EN" "http://www.w3.org/Graphics/SVG/1.1/DTD/svg11.dtd">
<svg xmlns="http://www.w3.org/2000/svg" xmlns:serif="http://www.serif.com/" width="100%" height="100%" viewBox="0 0 64 64" version="1.1" xml:space="preserve" style="fill-rule:evenodd;clip-rule:evenodd;stroke-linejoin:round;stroke-miterlimit:2;" xmlns:rdf="http://www.w3.org/1999/02/22-rdf-syntax-ns" xmlns:cc="http://creativecommons.org/ns" xmlns:dc="http://purl.org/dc/elements/1.1/">
  <g id="Emoji">
    <g id="Foods">
      <g id="Coffee">
        <path d="M4,-8l0,-34l2,0l0,-2l4,0l0,-2l6,0l0,-2l20,0l0,2l6,0l0,2l4,0l0,2l2,0l0,34l-2,0l0,2l-2,0l0,2l-2,0l0,2l-6,0l0,2l-20,0l0,-2l-6,0l0,-2l-2,0l0,-2l-2,0l0,-2l-2,0Z" style="fill:#d1d6da;" />
        <path d="M36,-2l0,2l-2,0l0,-18l2,0l0,-18l6,0l0,-2l4,0l0,-4l2,0l0,34l-2,0l0,2l-2,0l0,2l-2,0l0,2l-6,0Z" style="fill:#8b98a2;" />
      </g>
      <g id="Mate1" serif:id="Mate">
        <g>
          <path d="M27,46.5l-2,0l0,-18l2,0l0,2l10,0l0,-2l2,0l0,18l-2,0l0,3l-10,0l0,-3Z" style="fill:#fcd009;" />
          <path d="M27,28.5l-2,0l0,-4l2,0l0,2l10,0l0,-2l2,0l0,4l-2,0l0,2l-10,0l0,-2Z" style="fill:#fbe50f;" />
          <path d="M35,18.5l2,0l0,8l-10,0l0,-8l2,0l0,-2l6,0l0,2Z" style="fill:#16a6de;" />
          <rect x="29" y="14.5" width="6" height="2" style="fill:#550080;" />
        </g>
        <g>
          <path d="M27,38.5l-2,0l0,-8l2,0l0,4l10,0l0,-4l2,0l0,8l-2,0l0,2l-10,0l0,-2Z" style="fill:#52575b;" />
          <rect x="27" y="36.5" width="10" height="2" style="fill:#e52320;" />
        </g>
      </g>
    </g>
  </g>
  <metadata>
    <rdf:RDF>
      <cc:Work rdf:about="">
        <cc:License rdf:resource="http://creativecommons.org/licenses/by-sa/4.0/" />
        <dc:right>
          <cc:Agent>
            <dc:title>CC-BY-SA 4.0 Jugend Hackt</dc:title>
          </cc:Agent>
        </dc:right>
        <dc:title>
          <cc:Agent>
            <dc:title>Pixelhack</dc:title>
          </cc:Agent>
        </dc:title>
        <dc:contributor>
          <cc:Agent>
            <dc:title>Hanno Sternberg</dc:title>
          </cc:Agent>
        </dc:contributor>
        <dc:creator>
          <cc:Agent>
            <dc:title>Jugend Hackt</dc:title>
          </cc:Agent>
        </dc:creator>
        <dc:date>
          <cc:Agent>
            <dc:title>2013</dc:title>
          </cc:Agent>
        </dc:date>
      </cc:Work>
      <cc:License rdf:about="http://creativecommons.org/licenses/by-sa/4.0/">
        <cc:permits rdf:resource="http://creativecommons.org/ns#DerivativeWorks" />
        <cc:requires rdf:resource="http://creativecommons.org/ns#ShareAlike" />
      </cc:License>
    </rdf:RDF>
  </metadata>
</svg>