<?xml version="1.0" encoding="UTF-8" standalone="no"?>
<!DOCTYPE svg PUBLIC "-//W3C//DTD SVG 1.1//EN" "http://www.w3.org/Graphics/SVG/1.1/DTD/svg11.dtd">
<svg xmlns="http://www.w3.org/2000/svg" width="100%" height="100%" viewBox="0 0 64 64" version="1.1" xml:space="preserve" style="fill-rule:evenodd;clip-rule:evenodd;stroke-linejoin:round;stroke-miterlimit:2;" xmlns:rdf="http://www.w3.org/1999/02/22-rdf-syntax-ns" xmlns:cc="http://creativecommons.org/ns" xmlns:dc="http://purl.org/dc/elements/1.1/">
  <g id="Emoji">
    <g id="Volcano">
      <path d="M30,4l0,-4l10,0l0,2l-4,0l0,2l-6,0Z" style="fill:#52575b;" />
      <path d="M16,16l-2,0l0,-6l2,0l0,-2l6,0l0,-4l2,0l0,-2l4,0l0,2l-2,0l0,2l-2,0l0,12l-8,0l0,-2Zm24,2l0,2l-2,0l0,-2l2,0Zm0,0l0,-8l4,0l0,-2l6,0l0,2l2,0l0,4l-2,0l0,2l-2,0l0,2l-8,0Z" style="fill:#d1d6da;" />
      <path d="M26,6l0,-2l2,0l0,2l-2,0Zm0,0l0,2l-2,0l0,-2l2,0Zm2,-2l0,-2l2,0l0,2l-2,0Zm10,14l0,2l-2,0l0,-4l2,0l0,-8l6,0l0,2l-4,0l0,8l-2,0Zm-10,2l-4,0l0,-4l2,0l0,2l2,0l0,2Z" style="fill:#f9dbb9;" />
      <path d="M38,6l-2,0l0,-4l6,0l0,2l2,0l0,4l-6,0l0,-2Z" style="fill:#e1bb95;" />
      <path d="M26,16l-2,0l0,-8l2,0l0,-2l2,0l0,-2l8,0l0,2l2,0l0,10l-2,0l0,2l-10,0l0,-2Z" style="fill:#fff;" />
      <rect x="28" y="18" width="8" height="2" style="fill:#a0673e;" />
      <path d="M18,34l-2,0l0,-4l2,0l0,-6l2,0l0,-4l4,0l0,4l-2,0l0,8l2,0l0,2l16,0l0,-2l2,0l0,-6l-2,0l0,-4l-2,0l0,-2l4,0l0,2l2,0l0,6l2,0l0,10l-4,0l0,-2l-6,0l0,8l-4,0l0,-6l-6,0l0,14l-4,0l0,-16l-4,0l0,-2Z" style="fill:#f3971b;" />
      <path d="M24,24l0,-4l2,0l0,4l-2,0Zm0,8l-2,0l0,-8l2,0l0,4l2,0l0,2l2,0l0,2l8,0l0,-2l2,0l0,-6l-2,0l0,-2l-2,0l0,-2l4,0l0,2l2,0l0,4l2,0l0,6l-2,0l0,2l-16,0l0,-2Z" style="fill:#ea680d;" />
      <path d="M26,28l-2,0l0,-4l2,0l0,-4l8,0l0,2l2,0l0,2l2,0l0,6l-2,0l0,2l-8,0l0,-2l-2,0l0,-2Z" style="fill:#e52320;" />
      <path d="M38,42l-2,0l0,-6l6,0l0,4l4,0l0,-8l2,0l0,4l2,0l0,4l2,0l0,4l2,0l0,4l2,0l0,6l2,0l0,4l2,0l0,4l2,0l0,2l-10,0l0,-4l-2,0l0,-6l-2,0l0,-4l-2,0l0,-2l-6,0l0,-2l-2,0l0,-4Z" style="fill:#8000ff;" />
      <path d="M52,64l-50,0l0,-4l2,0l0,-6l2,0l0,-4l2,0l0,-4l2,0l0,-4l2,0l0,-4l2,0l0,-4l4,0l0,2l4,0l0,24l4,0l0,-22l6,0l0,8l4,0l0,-4l2,0l0,4l2,0l0,2l6,0l0,2l2,0l0,4l2,0l0,6l2,0l0,4Z" style="fill:#550080;" />
      <path d="M46,38l0,2l-4,0l0,-2l4,0Zm-10,6l0,2l-4,0l0,-2l4,0Zm-10,8l0,8l-4,0l0,-8l4,0Z" style="fill:#bf8e67;" />
    </g>
  </g>
  <metadata>
    <rdf:RDF>
      <cc:Work rdf:about="">
        <cc:License rdf:resource="http://creativecommons.org/licenses/by-sa/4.0/" />
        <dc:right>
          <cc:Agent>
            <dc:title>CC-BY-SA 4.0 Jugend Hackt</dc:title>
          </cc:Agent>
        </dc:right>
        <dc:title>
          <cc:Agent>
            <dc:title>Pixelhack</dc:title>
          </cc:Agent>
        </dc:title>
        <dc:contributor>
          <cc:Agent>
            <dc:title>Hanno Sternberg</dc:title>
          </cc:Agent>
        </dc:contributor>
        <dc:creator>
          <cc:Agent>
            <dc:title>Jugend Hackt</dc:title>
          </cc:Agent>
        </dc:creator>
        <dc:date>
          <cc:Agent>
            <dc:title>2013</dc:title>
          </cc:Agent>
        </dc:date>
      </cc:Work>
      <cc:License rdf:about="http://creativecommons.org/licenses/by-sa/4.0/">
        <cc:permits rdf:resource="http://creativecommons.org/ns#DerivativeWorks" />
        <cc:requires rdf:resource="http://creativecommons.org/ns#ShareAlike" />
      </cc:License>
    </rdf:RDF>
  </metadata>
</svg>