<?xml version="1.0" encoding="UTF-8" standalone="no"?>
<!DOCTYPE svg PUBLIC "-//W3C//DTD SVG 1.1//EN" "http://www.w3.org/Graphics/SVG/1.1/DTD/svg11.dtd">
<svg xmlns="http://www.w3.org/2000/svg" width="100%" height="100%" viewBox="0 0 64 64" version="1.1" xml:space="preserve" style="fill-rule:evenodd;clip-rule:evenodd;stroke-linejoin:round;stroke-miterlimit:2;" xmlns:rdf="http://www.w3.org/1999/02/22-rdf-syntax-ns" xmlns:cc="http://creativecommons.org/ns" xmlns:dc="http://purl.org/dc/elements/1.1/">
  <g id="Emoji">
    <g id="Bed">
      <path d="M4,58l-2,0l0,-32l2,0l0,-2l4,0l0,24l20,0l0,2l2,0l0,2l6,0l0,-2l22,0l0,-2l2,0l0,-2l2,0l0,12l-4,0l0,2l-54,0l0,-2Zm56,-12l-2,0l0,-2l2,0l0,2Z" style="fill:#a0673e;" />
      <path d="M10,38l-2,0l0,-4l2,0l0,-2l6,0l0,2l6,0l0,2l2,0l0,4l-14,0l0,-2Z" style="fill:#e6414a;" />
      <path d="M30,48l-2,0l0,-10l2,0l0,-2l24,0l0,2l2,0l0,2l2,0l0,8l-22,0l0,2l-6,0l0,-2Z" style="fill:#e52320;" />
      <rect x="8" y="40" width="20" height="6" style="fill:#d1d6da;" />
      <rect x="8" y="46" width="18" height="2" style="fill:#bf8e67;" />
      <path d="M36,50l0,-2l22,0l0,2l-22,0Zm-8,-2l-2,0l0,-2l2,0l0,2Zm0,0l2,0l0,2l-2,0l0,-2Zm2,2l6,0l0,2l-6,0l0,-2Zm28,-2l0,-2l2,0l0,2l-2,0Z" style="fill:#5d473d;" />
      <path d="M12,60l0,4l-6,0l0,-4l6,0Zm42,0l0,4l-6,0l0,-4l6,0Z" style="fill:#52575b;" />
    </g>
  </g>
  <metadata>
    <rdf:RDF>
      <cc:Work rdf:about="">
        <cc:License rdf:resource="http://creativecommons.org/licenses/by-sa/4.0/" />
        <dc:right>
          <cc:Agent>
            <dc:title>CC-BY-SA 4.0 Jugend Hackt</dc:title>
          </cc:Agent>
        </dc:right>
        <dc:title>
          <cc:Agent>
            <dc:title>Pixelhack</dc:title>
          </cc:Agent>
        </dc:title>
        <dc:contributor>
          <cc:Agent>
            <dc:title>Hanno Sternberg</dc:title>
          </cc:Agent>
        </dc:contributor>
        <dc:creator>
          <cc:Agent>
            <dc:title>Jugend Hackt</dc:title>
          </cc:Agent>
        </dc:creator>
        <dc:date>
          <cc:Agent>
            <dc:title>2013</dc:title>
          </cc:Agent>
        </dc:date>
      </cc:Work>
      <cc:License rdf:about="http://creativecommons.org/licenses/by-sa/4.0/">
        <cc:permits rdf:resource="http://creativecommons.org/ns#DerivativeWorks" />
        <cc:requires rdf:resource="http://creativecommons.org/ns#ShareAlike" />
      </cc:License>
    </rdf:RDF>
  </metadata>
</svg>