<?xml version="1.0" encoding="UTF-8" standalone="no"?>
<!DOCTYPE svg PUBLIC "-//W3C//DTD SVG 1.1//EN" "http://www.w3.org/Graphics/SVG/1.1/DTD/svg11.dtd">
<svg xmlns="http://www.w3.org/2000/svg" xmlns:serif="http://www.serif.com/" width="100%" height="100%" viewBox="0 0 64 64" version="1.1" xml:space="preserve" style="fill-rule:evenodd;clip-rule:evenodd;stroke-linejoin:round;stroke-miterlimit:2;" xmlns:rdf="http://www.w3.org/1999/02/22-rdf-syntax-ns" xmlns:cc="http://creativecommons.org/ns" xmlns:dc="http://purl.org/dc/elements/1.1/">
  <g id="Emoji">
    <g id="Foods">
      <g id="Cake-is-a-Lie" serif:id="Cake is a Lie">
        <path d="M14,52l-2,0l0,-2l2,0l0,2Zm2,2l6,0l0,2l-6,0l0,-2Zm6,2l20,0l0,2l-20,0l0,-2Zm-8,-4l2,0l0,2l-2,0l0,-2Zm36,0l0,-2l2,0l0,2l-2,0Zm-8,4l0,-2l6,0l0,2l-6,0Zm6,-2l0,-2l2,0l0,2l-2,0Z" style="fill:#fff;" />
        <path d="M42,54l0,-2l6,0l0,2l-6,0Zm-26,-2l-2,0l0,-4l2,0l0,4Zm32,0l0,-4l2,0l0,4l-2,0Zm-32,0l6,0l0,2l-6,0l0,-2Zm6,2l20,0l0,2l-20,0l0,-2Z" style="fill:#5d473d;" />
        <path d="M16,48l-2,0l0,-8l2,0l0,2l6,0l0,2l20,0l0,-2l6,0l0,-2l2,0l0,8l-2,0l0,4l-6,0l0,2l-20,0l0,-2l-6,0l0,-4Z" style="fill:#a0673e;" />
        <path d="M18,44l-2,0l0,-2l2,0l0,2Zm0,0l2,0l0,2l-2,0l0,-2Zm14,4l6,0l0,-4l2,0l0,6l-2,0l0,2l-2,0l0,-2l-4,0l0,-2Zm0,0l-2,0l0,-2l2,0l0,2Zm18,-4l0,2l-2,0l0,-2l2,0Zm-26,4l0,2l-4,0l0,-2l4,0Zm20,0l0,4l-2,0l0,-4l2,0Zm-12,4l0,2l-2,0l0,-2l2,0Z" style="fill:#bf8e67;" />
        <path d="M18,38l-2,0l0,-2l8,0l0,-2l4,0l0,2l2,0l0,2l4,0l0,-2l2,0l0,-2l4,0l0,2l8,0l0,2l-2,0l0,2l-6,0l0,2l-4,0l0,-2l-2,0l0,2l-4,0l0,-2l-2,0l0,2l-4,0l0,-2l-6,0l0,-2Z" style="fill:#bf8e67;" />
        <g>
          <path d="M16,36l0,2l-2,0l0,-2l2,0Zm6,-2l0,-2l2,0l0,2l-2,0Zm-6,2l0,-2l6,0l0,2l-6,0Z" style="fill:#e1bb95;" />
          <path d="M16,40l-2,0l0,-2l2,0l0,2Zm26,2l0,-2l6,0l0,2l-6,0Zm0,-8l-8,0l0,-2l8,0l0,2Zm6,2l-6,0l0,-2l6,0l0,2Zm0,4l0,-4l2,0l0,4l-2,0Zm-26,2l20,0l0,2l-20,0l0,-2Zm-6,-2l6,0l0,2l-6,0l0,-2Zm14,-8l0,2l-6,0l0,-2l6,0Z" style="fill:#5d473d;" />
        </g>
        <path d="M24,34l0,2l-2,0l0,-2l2,0Zm6,0l0,2l-2,0l0,-2l2,0Zm6,0l0,2l-2,0l0,-2l2,0Zm6,0l0,2l-2,0l0,-2l2,0Zm-24,4l0,2l-2,0l0,-2l2,0Zm30,0l0,2l-2,0l0,-2l2,0Zm-24,2l0,2l-2,0l0,-2l2,0Zm6,0l0,2l-2,0l0,-2l2,0Zm6,0l0,2l-2,0l0,-2l2,0Zm6,0l0,2l-2,0l0,-2l2,0Z" style="fill:#e6414a;" />
        <g>
          <path d="M34,22l2,0l0,4l-2,0l0,-4Zm-2,-2l2,0l0,2l-2,0l0,-2Zm-2,0l0,8l-2,0l0,-8l2,0Zm4,6l0,2l-2,0l0,-2l2,0Zm-4,-6l0,-2l2,0l0,2l-2,0Z" style="fill:#f3971b;" />
          <path d="M32,24l-2,0l0,-4l2,0l0,2l2,0l0,4l-2,0l0,-2Z" style="fill:#fbe50f;" />
          <rect x="30" y="24" width="2" height="2" style="fill:#e6414a;" />
          <rect x="30" y="26" width="2" height="2" />
          <rect x="30" y="28" width="4" height="10" style="fill:#fff;" />
        </g>
      </g>
    </g>
  </g>
  <metadata>
    <rdf:RDF>
      <cc:Work rdf:about="">
        <cc:License rdf:resource="http://creativecommons.org/licenses/by-sa/4.0/" />
        <dc:right>
          <cc:Agent>
            <dc:title>CC-BY-SA 4.0 Jugend Hackt</dc:title>
          </cc:Agent>
        </dc:right>
        <dc:title>
          <cc:Agent>
            <dc:title>Pixelhack</dc:title>
          </cc:Agent>
        </dc:title>
        <dc:contributor>
          <cc:Agent>
            <dc:title>Hanno Sternberg</dc:title>
          </cc:Agent>
        </dc:contributor>
        <dc:creator>
          <cc:Agent>
            <dc:title>Jugend Hackt</dc:title>
          </cc:Agent>
        </dc:creator>
        <dc:date>
          <cc:Agent>
            <dc:title>2013</dc:title>
          </cc:Agent>
        </dc:date>
      </cc:Work>
      <cc:License rdf:about="http://creativecommons.org/licenses/by-sa/4.0/">
        <cc:permits rdf:resource="http://creativecommons.org/ns#DerivativeWorks" />
        <cc:requires rdf:resource="http://creativecommons.org/ns#ShareAlike" />
      </cc:License>
    </rdf:RDF>
  </metadata>
</svg>