<?xml version="1.0" encoding="UTF-8" standalone="no"?>
<!DOCTYPE svg PUBLIC "-//W3C//DTD SVG 1.1//EN" "http://www.w3.org/Graphics/SVG/1.1/DTD/svg11.dtd">
<svg xmlns="http://www.w3.org/2000/svg" xmlns:serif="http://www.serif.com/" width="100%" height="100%" viewBox="0 0 64 64" version="1.1" xml:space="preserve" style="fill-rule:evenodd;clip-rule:evenodd;stroke-linejoin:round;stroke-miterlimit:2;" xmlns:rdf="http://www.w3.org/1999/02/22-rdf-syntax-ns" xmlns:cc="http://creativecommons.org/ns" xmlns:dc="http://purl.org/dc/elements/1.1/">
  <g id="Emoji">
    <g id="Foods">
      <g id="Birthday-Cake" serif:id="Birthday Cake">
        <path d="M6,-24l0,22l2,0l0,2l50,0l0,-24l-6,0l0,2l-8,0l0,-2l-8,0l0,2l-8,0l0,-2l-8,0l0,2l-6,0l0,-2l-8,0Z" style="fill:#a0673e;" />
      </g>
      <g id="Dumpling">
        <path d="M8,40l-2,0l0,-2l2,0l0,-4l10,0l0,-2l-2,0l0,-2l-6,0l0,-8l2,0l0,-2l6,0l0,2l2,0l0,2l4,0l0,-4l-2,0l0,-2l-2,0l0,-6l2,0l0,-2l8,0l0,6l2,0l0,2l2,0l0,-10l4,0l0,-2l2,0l0,2l4,0l0,10l4,0l0,-8l6,0l0,2l2,0l0,2l2,0l0,2l2,0l0,2l2,0l0,10l-2,0l0,2l-2,0l0,2l-2,0l0,-2l-2,0l0,-2l-2,0l0,-2l-2,0l0,-2l-2,0l0,-2l-6,0l0,-2l-4,0l0,2l-6,0l0,2l-4,0l0,2l-2,0l0,2l-2,0l0,4l-2,0l0,12l2,0l0,4l2,0l0,2l2,0l0,2l2,0l0,2l2,0l0,4l-2,0l0,2l-4,0l0,2l-8,0l0,-2l-2,0l0,-2l-2,0l0,-2l-2,0l0,-2l-2,0l0,-6l8,0l0,-4l-10,0l0,-4Z" style="fill:#e1bb95;" />
        <path d="M32,16l-2,0l0,-6l4,0l0,8l-2,0l0,-2Zm-14,4l-2,0l0,-2l2,0l0,-2l2,0l0,2l2,0l0,2l2,0l0,4l-4,0l0,-2l-2,0l0,-2Zm0,14l-8,0l0,-4l6,0l0,2l2,0l0,2Zm30,-24l0,8l-4,0l0,-8l4,0Zm-30,34l0,4l-8,0l0,-4l8,0Z" style="fill:#bf8e67;" />
        <path d="M24,44l-2,0l0,-12l2,0l0,-4l2,0l0,-2l2,0l0,-2l4,0l0,-2l6,0l0,-2l4,0l0,2l6,0l0,2l2,0l0,2l2,0l0,2l2,0l0,2l2,0l0,4l-2,0l0,2l-2,0l0,2l-2,0l0,2l-2,0l0,2l-2,0l0,2l-2,0l0,2l-2,0l0,2l-2,0l0,2l-2,0l0,2l-2,0l0,2l-2,0l0,2l-2,0l0,-2l-2,0l0,-2l-2,0l0,-2l-2,0l0,-2l-2,0l0,-4Z" style="fill:#f9dbb9;" />
      </g>
    </g>
  </g>
  <metadata>
    <rdf:RDF>
      <cc:Work rdf:about="">
        <cc:License rdf:resource="http://creativecommons.org/licenses/by-sa/4.0/" />
        <dc:right>
          <cc:Agent>
            <dc:title>CC-BY-SA 4.0 Jugend Hackt</dc:title>
          </cc:Agent>
        </dc:right>
        <dc:title>
          <cc:Agent>
            <dc:title>Pixelhack</dc:title>
          </cc:Agent>
        </dc:title>
        <dc:contributor>
          <cc:Agent>
            <dc:title>Hanno Sternberg</dc:title>
          </cc:Agent>
        </dc:contributor>
        <dc:creator>
          <cc:Agent>
            <dc:title>Jugend Hackt</dc:title>
          </cc:Agent>
        </dc:creator>
        <dc:date>
          <cc:Agent>
            <dc:title>2013</dc:title>
          </cc:Agent>
        </dc:date>
      </cc:Work>
      <cc:License rdf:about="http://creativecommons.org/licenses/by-sa/4.0/">
        <cc:permits rdf:resource="http://creativecommons.org/ns#DerivativeWorks" />
        <cc:requires rdf:resource="http://creativecommons.org/ns#ShareAlike" />
      </cc:License>
    </rdf:RDF>
  </metadata>
</svg>