<?xml version="1.0" encoding="UTF-8" standalone="no"?>
<!DOCTYPE svg PUBLIC "-//W3C//DTD SVG 1.1//EN" "http://www.w3.org/Graphics/SVG/1.1/DTD/svg11.dtd">
<svg xmlns="http://www.w3.org/2000/svg" width="100%" height="100%" viewBox="0 0 64 64" version="1.1" xml:space="preserve" style="fill-rule:evenodd;clip-rule:evenodd;stroke-linejoin:round;stroke-miterlimit:2;" xmlns:rdf="http://www.w3.org/1999/02/22-rdf-syntax-ns" xmlns:cc="http://creativecommons.org/ns" xmlns:dc="http://purl.org/dc/elements/1.1/">
  <g id="Writing">
    <g id="Pen">
      <path d="M50,8l-2,0l0,-2l8,0l0,4l2,0l0,2l-2,0l0,2l-2,0l0,-2l-2,0l0,-2l-2,0l0,-2Zm-20,20l-2,0l0,-2l2,0l0,-2l2,0l0,-2l2,0l0,-2l2,0l0,-2l4,0l0,-2l2,0l0,-2l2,0l0,-2l6,0l0,2l2,0l0,2l2,0l0,2l-2,0l0,2l-2,0l0,2l-2,0l0,2l-2,0l0,2l-2,0l0,2l-2,0l0,4l-2,0l0,2l-2,0l0,2l-2,0l0,-2l-2,0l0,-2l-2,0l0,-2l-2,0l0,-2Zm-20,26l-2,0l0,-4l2,0l0,-2l2,0l0,-4l2,0l0,-2l2,0l0,-2l2,0l0,-2l2,0l0,-4l2,0l0,-2l4,0l0,2l2,0l0,2l2,0l0,2l2,0l0,6l-2,0l0,2l-4,0l0,2l-2,0l0,2l-2,0l0,2l-4,0l0,2l-2,0l0,2l-2,0l0,2l-2,0l0,-2l-2,0l0,-2Z" style="fill:#10498c;" />
      <path d="M24,28l0,-2l2,0l0,2l-2,0Zm0,0l0,2l-2,0l0,-2l2,0Zm24,-20l0,2l-2,0l0,-2l2,0Zm-42,42l0,6l-2,0l0,-6l2,0Z" style="fill:#fbe50f;" />
      <path d="M48,30l-4,0l0,-2l2,0l0,-2l2,0l0,-2l2,0l0,-2l2,0l0,-2l2,0l0,-4l-2,0l0,-2l-2,0l0,-2l-2,0l0,-4l2,0l0,2l2,0l0,2l2,0l0,2l2,0l0,4l2,0l0,2l-2,0l0,2l-2,0l0,2l-2,0l0,2l-2,0l0,2l-2,0l0,2Zm-22,2l-2,0l0,-4l2,0l0,-2l2,0l0,2l2,0l0,2l2,0l0,2l2,0l0,2l2,0l0,2l2,0l0,4l-2,0l0,2l-2,0l0,-2l-2,0l0,-2l-2,0l0,-2l-2,0l0,-2l-2,0l0,-2Zm-18,26l-2,0l0,-6l2,0l0,2l2,0l0,2l2,0l0,2l2,0l0,2l-6,0l0,-2Z" style="fill:#fcd009;" />
      <path d="M30,24l0,2l-4,0l0,-2l2,0l0,-2l2,0l0,-2l2,0l0,-2l2,0l0,-2l4,0l0,-2l2,0l0,-2l2,0l0,-2l6,0l0,2l-4,0l0,2l-2,0l0,2l-2,0l0,2l-4,0l0,2l-2,0l0,2l-2,0l0,2l-2,0Zm-22,26l0,2l-2,0l0,-4l2,0l0,-2l2,0l0,-4l2,0l0,-2l2,0l0,-2l2,0l0,-4l2,0l0,-2l2,0l0,-2l4,0l0,2l-2,0l0,2l-2,0l0,4l-2,0l0,2l-2,0l0,2l-2,0l0,2l-2,0l0,4l-2,0l0,2l-2,0Z" style="fill:#8000ff;" />
      <path d="M48,24l0,-2l2,0l0,2l-2,0Zm-4,4l0,2l-2,0l0,-2l2,0Zm2,-2l0,-2l2,0l0,2l-2,0Zm4,-4l0,-2l2,0l0,2l-2,0Zm2,-2l0,-2l2,0l0,2l-2,0Zm-8,8l0,-2l2,0l0,2l-2,0Z" style="fill:#52575b;" />
      <path d="M40,34l0,-2l2,0l0,2l-2,0Zm2,-2l0,-2l2,0l0,2l-2,0Zm-2,2l0,2l-2,0l0,-2l2,0Zm-22,20l0,-2l4,0l0,2l-4,0Zm14,-10l0,-4l2,0l0,4l-2,0Zm-8,6l0,-2l2,0l0,2l-2,0Zm2,-2l0,-2l4,0l0,2l-4,0Zm-10,8l0,2l-2,0l0,-2l2,0Zm6,-4l0,-2l2,0l0,2l-2,0Zm-6,4l0,-2l2,0l0,2l-2,0Zm14,-10l0,-2l2,0l0,2l-2,0Z" style="fill:#550080;" />
      <path d="M8,60l-4,0l0,-4l2,0l0,2l2,0l0,2Z" />
    </g>
  </g>
  <metadata>
    <rdf:RDF>
      <cc:Work rdf:about="">
        <cc:License rdf:resource="http://creativecommons.org/licenses/by-sa/4.0/" />
        <dc:right>
          <cc:Agent>
            <dc:title>CC-BY-SA 4.0 Jugend Hackt</dc:title>
          </cc:Agent>
        </dc:right>
        <dc:title>
          <cc:Agent>
            <dc:title>Pixelhack</dc:title>
          </cc:Agent>
        </dc:title>
        <dc:contributor>
          <cc:Agent>
            <dc:title>Hanno Sternberg</dc:title>
          </cc:Agent>
        </dc:contributor>
        <dc:creator>
          <cc:Agent>
            <dc:title>Jugend Hackt</dc:title>
          </cc:Agent>
        </dc:creator>
        <dc:date>
          <cc:Agent>
            <dc:title>2013</dc:title>
          </cc:Agent>
        </dc:date>
      </cc:Work>
      <cc:License rdf:about="http://creativecommons.org/licenses/by-sa/4.0/">
        <cc:permits rdf:resource="http://creativecommons.org/ns#DerivativeWorks" />
        <cc:requires rdf:resource="http://creativecommons.org/ns#ShareAlike" />
      </cc:License>
    </rdf:RDF>
  </metadata>
</svg>