<?xml version="1.0" encoding="UTF-8" standalone="no"?>
<!DOCTYPE svg PUBLIC "-//W3C//DTD SVG 1.1//EN" "http://www.w3.org/Graphics/SVG/1.1/DTD/svg11.dtd">
<svg xmlns="http://www.w3.org/2000/svg" width="100%" height="100%" viewBox="0 0 64 128" version="1.1" xml:space="preserve" style="fill-rule:evenodd;clip-rule:evenodd;stroke-linejoin:round;stroke-miterlimit:2;" xmlns:rdf="http://www.w3.org/1999/02/22-rdf-syntax-ns" xmlns:cc="http://creativecommons.org/ns" xmlns:dc="http://purl.org/dc/elements/1.1/">
  <g>
    <path d="M46,122l0,2l-26,0l0,-2l24,0l0,-2l8,0l0,-2l4,0l0,-2l2,0l0,-2l2,0l0,-4l2,0l0,6l-2,0l0,2l-2,0l0,2l-4,0l0,2l-8,0Z" style="fill:#52575b;" />
    <path d="M6,114l-2,0l0,-18l2,0l0,-8l2,0l0,-4l2,0l0,-6l2,0l0,-2l2,0l0,-2l2,0l0,-2l2,0l0,-2l2,0l0,-10l2,0l0,-12l-2,0l0,-6l-2,0l0,-8l2,0l0,-2l2,0l0,-2l4,0l0,-2l12,0l0,2l4,0l0,2l2,0l0,2l2,0l0,8l-2,0l0,6l-2,0l0,12l2,0l0,10l2,0l0,2l2,0l0,2l2,0l0,2l2,0l0,2l2,0l0,6l2,0l0,4l2,0l0,8l2,0l0,18l-2,0l0,2l-2,0l0,2l-4,0l0,2l-8,0l0,2l-24,0l0,-2l-8,0l0,-2l-4,0l0,-2l-2,0l0,-2Zm2,-18l0,18l4,0l0,2l8,0l0,2l24,0l0,-2l8,0l0,-2l4,0l0,-18l-2,0l0,-8l-2,0l0,-8l-2,0l0,-2l-2,0l0,-2l-2,0l0,-2l-2,0l0,-2l-2,0l0,-2l-2,0l0,-10l-2,0l0,-12l2,0l0,-6l-2,0l0,2l-12,0l0,-2l-2,0l0,6l2,0l0,12l-2,0l0,10l-2,0l0,2l-2,0l0,2l-2,0l0,2l-2,0l0,2l-2,0l0,2l-2,0l0,8l-2,0l0,8l-2,0Zm14,-62l0,4l4,0l0,2l12,0l0,-2l4,0l0,-4l-4,0l0,-2l-12,0l0,2l-4,0Z" style="fill:#d1d6da;" />
    <g>
      <path d="M14,82l0,2l-2,0l0,-4l2,0l0,-2l2,0l0,-2l6,0l0,-2l8,0l0,2l2,0l0,-2l10,0l0,2l6,0l0,2l2,0l0,2l2,0l0,4l-2,0l0,-2l-2,0l0,-2l-6,0l0,-2l-2,0l0,-2l-2,0l0,2l-16,0l0,2l-6,0l0,2l-2,0Z" style="fill:#10498c;" />
      <path d="M12,106l-4,0l0,-10l2,0l0,-8l2,0l0,-2l2,0l0,2l6,0l0,2l6,0l0,2l12,0l0,2l2,0l0,-2l-2,0l0,-2l6,0l0,-2l6,0l0,-2l2,0l0,2l2,0l0,8l2,0l0,10l-4,0l0,-2l-8,0l0,-2l-24,0l0,2l-4,0l0,-2l-2,0l0,2l-2,0l0,2Zm2,-20l0,-4l2,0l0,-2l4,0l0,2l2,0l0,-4l20,0l0,2l6,0l0,2l-2,0l0,2l2,0l0,-2l2,0l0,4l-6,0l0,2l-6,0l0,2l-12,0l0,-2l-6,0l0,-4l-2,0l0,2l-4,0Zm0,10l0,2l2,0l0,2l2,0l0,-2l2,0l0,-2l-2,0l0,-2l-2,0l0,2l-2,0Zm12,-16l0,2l2,0l0,-2l-2,0Zm12,0l-2,0l0,2l-2,0l0,2l2,0l0,2l2,0l0,-2l2,0l0,-2l-2,0l0,-2Zm14,14l-2,0l0,-2l-2,0l0,2l-2,0l0,2l2,0l0,2l2,0l0,-2l2,0l0,-2Zm-14,6l0,-2l-2,0l0,2l2,0Zm-10,0l0,-2l-2,0l0,2l2,0Zm2,-2l2,0l0,-2l-2,0l0,2Zm-14,0l0,-2l2,0l0,2l-2,0Zm14,-14l-2,0l0,2l2,0l0,-2Zm6,-2l2,0l0,2l-2,0l0,-2Zm-2,32l-20,0l0,-4l6,0l0,-2l2,0l0,2l2,0l0,2l2,0l0,-2l2,0l0,-2l8,0l0,2l2,0l0,-2l6,0l0,2l6,0l0,4l-4,0l0,-2l-2,0l0,2l-8,0l0,-2l-2,0l0,2Zm-10,-4l0,-2l2,0l0,2l-2,0Z" style="fill:#16a6de;" />
      <path d="M50,86l0,-2l2,0l0,2l-2,0Zm-12,4l0,-2l6,0l0,2l-6,0Zm-24,-4l-2,0l0,-2l2,0l0,2Zm12,4l12,0l0,2l-12,0l0,-2Zm18,-2l0,-2l6,0l0,2l-6,0Zm-30,-2l6,0l0,2l-6,0l0,-2Zm6,2l6,0l0,2l-6,0l0,-2Zm0,20l0,-2l4,0l0,2l-4,0Zm-8,6l-4,0l0,-4l4,0l0,-2l8,0l0,2l-6,0l0,4l36,0l0,-4l-6,0l0,-2l8,0l0,2l4,0l0,4l-4,0l0,2l-8,0l0,2l-24,0l0,-2l-8,0l0,-2Zm32,-6l-4,0l0,-2l4,0l0,2Zm-10,-2l0,2l-8,0l0,-2l8,0Z" style="fill:#8000ff;" />
      <path d="M8,110l0,-4l4,0l0,-2l8,0l0,-2l24,0l0,2l8,0l0,2l4,0l0,4l-4,0l0,-2l-8,0l0,-2l-6,0l0,-2l-2,0l0,2l-16,0l0,2l-8,0l0,2l-4,0Z" style="fill:#550080;" />
    </g>
    <g>
      <path d="M30,8l0,2l-2,0l0,-2l2,0Zm6,0l0,2l-2,0l0,-2l2,0Zm-12,6l0,2l-2,0l0,-2l2,0Zm24,0l0,2l-2,0l0,-2l2,0Zm-20,8l0,2l-2,0l0,-2l2,0Zm-12,8l0,2l-2,0l0,-2l2,0Zm18,22l0,2l-2,0l0,-2l2,0Z" style="fill:#ea680d;" />
      <path d="M30,10l0,2l-2,0l0,-2l2,0Zm18,6l0,2l-2,0l0,-2l2,0Zm-2,6l0,2l-2,0l0,-2l2,0Zm-18,2l0,2l-2,0l0,-2l2,0Zm-4,2l0,2l-2,0l0,-2l2,0Zm-6,6l0,2l-2,0l0,-2l2,0Zm16,2l0,2l-2,0l0,-2l2,0Zm-4,2l0,2l-2,0l0,-2l2,0Zm8,0l0,2l-2,0l0,-2l2,0Zm0,10l0,2l-2,0l0,-2l2,0Zm-8,2l0,2l-2,0l0,-2l2,0Zm4,6l0,2l-2,0l0,-2l2,0Z" style="fill:#f3971b;" />
    </g>
    <g>
      <path d="M38,16l0,2l-2,0l0,-2l2,0Zm-6,2l0,2l-2,0l0,-2l2,0Zm-14,2l0,2l-2,0l0,-2l2,0Zm6,0l0,2l-2,0l0,-2l2,0Zm30,2l0,2l-2,0l0,-2l2,0Zm-38,2l0,2l-2,0l0,-2l2,0Zm18,0l0,2l-2,0l0,-2l2,0Zm8,2l0,2l-2,0l0,-2l2,0Zm8,2l0,2l-2,0l0,-2l2,0Zm4,0l0,2l-2,0l0,-2l2,0Zm-28,8l0,2l-2,0l0,-2l2,0Zm6,2l0,2l-2,0l0,-2l2,0Zm2,10l0,2l-2,0l0,-2l2,0Zm-2,12l0,2l-2,0l0,-2l2,0Zm2,6l0,2l-2,0l0,-2l2,0Zm-6,2l0,2l-2,0l0,-2l2,0Zm4,6l0,2l-2,0l0,-2l2,0Zm8,2l0,2l-2,0l0,-2l2,0Zm-12,4l0,2l-2,0l0,-2l2,0Zm20,2l0,2l-2,0l0,-2l2,0Zm2,12l0,2l-2,0l0,-2l2,0Zm-18,2l0,2l-2,0l0,-2l2,0Zm6,10l0,2l-2,0l0,-2l2,0Z" style="fill:#fcd009;" />
      <path d="M32,64l2,0l0,2l-2,0l0,-2Zm2,2l2,0l0,2l-2,0l0,-2Zm0,2l0,2l-2,0l0,-2l2,0Zm-2,0l-2,0l0,-2l2,0l0,2Zm0,-4l-2,0l0,-2l2,0l0,2Zm4,20l-2,0l0,-2l2,0l0,2Zm0,-2l0,-2l2,0l0,2l-2,0Zm2,0l2,0l0,2l-2,0l0,-2Zm0,2l0,2l-2,0l0,-2l2,0Zm10,12l-2,0l0,-2l2,0l0,2Zm0,-2l0,-2l2,0l0,2l-2,0Zm2,0l2,0l0,2l-2,0l0,-2Zm0,2l0,2l-2,0l0,-2l2,0Zm-34,2l-2,0l0,-2l2,0l0,2Zm0,-2l0,-2l2,0l0,2l-2,0Zm2,0l2,0l0,2l-2,0l0,-2Zm0,2l0,2l-2,0l0,-2l2,0Zm18,10l-2,0l0,-2l2,0l0,2Zm0,-2l0,-2l2,0l0,2l-2,0Zm2,0l2,0l0,2l-2,0l0,-2Zm0,2l0,2l-2,0l0,-2l2,0Zm-14,2l-2,0l0,-2l2,0l0,2Zm0,-2l0,-2l2,0l0,2l-2,0Zm2,0l2,0l0,2l-2,0l0,-2Zm0,2l0,2l-2,0l0,-2l2,0Zm8,-84l0,2l-2,0l0,-2l2,0Zm8,2l0,2l-2,0l0,-2l2,0Zm8,2l0,2l-2,0l0,-2l2,0Zm-22,40l0,2l-2,0l0,-2l2,0Zm10,0l0,2l-2,0l0,-2l2,0Zm-16,10l0,2l-2,0l0,-2l2,0Zm-2,4l0,2l-2,0l0,-2l2,0Zm10,0l0,2l-2,0l0,-2l2,0Zm10,8l0,2l-2,0l0,-2l2,0Zm-12,6l0,2l-2,0l0,-2l2,0Zm10,0l0,2l-2,0l0,-2l2,0Zm-22,4l0,2l-2,0l0,-2l2,0Zm20,10l0,2l-2,0l0,-2l2,0Zm10,0l0,2l-2,0l0,-2l2,0Z" style="fill:#fbe50f;" />
    </g>
  </g>
  <metadata>
    <rdf:RDF>
      <cc:Work rdf:about="">
        <cc:License rdf:resource="http://creativecommons.org/licenses/by-sa/4.0/" />
        <dc:right>
          <cc:Agent>
            <dc:title>CC-BY-SA 4.0 Jugend Hackt</dc:title>
          </cc:Agent>
        </dc:right>
        <dc:title>
          <cc:Agent>
            <dc:title>Pixelhack</dc:title>
          </cc:Agent>
        </dc:title>
        <dc:contributor>
          <cc:Agent>
            <dc:title>Hanno Sternberg</dc:title>
          </cc:Agent>
        </dc:contributor>
        <dc:creator>
          <cc:Agent>
            <dc:title>Jugend Hackt</dc:title>
          </cc:Agent>
        </dc:creator>
        <dc:date>
          <cc:Agent>
            <dc:title>2013</dc:title>
          </cc:Agent>
        </dc:date>
      </cc:Work>
      <cc:License rdf:about="http://creativecommons.org/licenses/by-sa/4.0/">
        <cc:permits rdf:resource="http://creativecommons.org/ns#DerivativeWorks" />
        <cc:requires rdf:resource="http://creativecommons.org/ns#ShareAlike" />
      </cc:License>
    </rdf:RDF>
  </metadata>
</svg>