<?xml version="1.0" encoding="UTF-8" standalone="no"?>
<!DOCTYPE svg PUBLIC "-//W3C//DTD SVG 1.1//EN" "http://www.w3.org/Graphics/SVG/1.1/DTD/svg11.dtd">
<svg xmlns="http://www.w3.org/2000/svg" xmlns:serif="http://www.serif.com/" width="100%" height="100%" viewBox="0 0 64 64" version="1.1" xml:space="preserve" style="fill-rule:evenodd;clip-rule:evenodd;stroke-linejoin:round;stroke-miterlimit:2;" xmlns:rdf="http://www.w3.org/1999/02/22-rdf-syntax-ns" xmlns:cc="http://creativecommons.org/ns" xmlns:dc="http://purl.org/dc/elements/1.1/">
  <g id="Colorful-Objekts" serif:id="Colorful Objekts">
    <g id="Light-Bulbs" serif:id="Light Bulbs">
      <g>
        <path d="M-50,26l-4,0l0,-12l4,0l0,12Zm0,-12l0,-8l4,0l0,8l-4,0Zm36,0l4,0l0,12l-4,0l0,-12Zm-4,-8l4,0l0,8l-4,0l0,-8Zm0,28l0,4l-4,0l0,-4l4,0Zm4,-8l0,8l-4,0l0,-8l4,0Zm-32,-20l0,-4l28,0l0,4l-28,0Zm24,32l0,8l-4,0l0,-8l4,0Zm-20,0l4,0l0,8l-4,0l0,-8Zm-4,-4l4,0l0,4l-4,0l0,-4Zm-4,-8l4,0l0,8l-4,0l0,-8Zm-8,-18l-4,0l0,-4l4,0l0,4Zm0,0l4,0l0,4l-4,0l0,-4Zm52,0l0,-4l4,0l0,4l-4,0Zm0,0l0,4l-4,0l0,-4l4,0Zm-52,24l0,-4l4,0l0,4l-4,0Zm0,0l0,4l-4,0l0,-4l4,0Zm52,0l4,0l0,4l-4,0l0,-4Zm0,0l-4,0l0,-4l4,0l0,4Zm-52,14l0,-4l4,0l0,4l-4,0Zm4,-4l0,-4l4,0l0,4l-4,0Zm-4,4l0,4l-4,0l0,-4l4,0Zm48,-4l-4,0l0,-4l4,0l0,4Zm0,0l4,0l0,4l-4,0l0,-4Zm4,4l4,0l0,4l-4,0l0,-4Zm-44,-46l0,4l-4,0l0,-4l4,0Zm40,0l0,4l-4,0l0,-4l4,0Zm-46,18l0,4l-8,0l0,-4l8,0Zm56,0l0,4l-8,0l0,-4l8,0Z" style="fill:#fcd009;" />
      </g>
      <g>
        <path d="M18,34l4,0l0,4l-4,0l0,-4Zm0,-28l0,-4l28,0l0,4l-28,0Zm28,28l0,4l-4,0l0,-4l4,0Zm-24,4l4,0l0,8l-4,0l0,-8Zm-8,-12l4,0l0,8l-4,0l0,-8Zm28,12l0,8l-4,0l0,-8l4,0Zm8,-12l0,8l-4,0l0,-8l4,0Zm0,-12l4,0l0,12l-4,0l0,-12Zm-36,0l0,-8l4,0l0,8l-4,0Zm0,12l-4,0l0,-12l4,0l0,12Zm32,-20l4,0l0,8l-4,0l0,-8Zm-40,2l-4,0l0,-4l4,0l0,4Zm0,0l4,0l0,4l-4,0l0,-4Zm52,0l0,4l-4,0l0,-4l4,0Zm0,0l0,-4l4,0l0,4l-4,0Zm-52,24l0,4l-4,0l0,-4l4,0Zm0,0l0,-4l4,0l0,4l-4,0Zm52,0l-4,0l0,-4l4,0l0,4Zm0,0l4,0l0,4l-4,0l0,-4Zm-48,10l0,-4l4,0l0,4l-4,0Zm-4,4l0,4l-4,0l0,-4l4,0Zm0,0l0,-4l4,0l0,4l-4,0Zm48,-4l-4,0l0,-4l4,0l0,4Zm0,0l4,0l0,4l-4,0l0,-4Zm4,4l4,0l0,4l-4,0l0,-4Zm-46,-46l0,4l-4,0l0,-4l4,0Zm42,0l0,4l-4,0l0,-4l4,0Zm-46,18l0,4l-8,0l0,-4l8,0Zm56,0l0,4l-8,0l0,-4l8,0Z" style="fill:#09aa24;" />
        <path d="M18,26l-4,0l0,-12l4,0l0,-8l28,0l0,8l4,0l0,12l-4,0l0,8l-4,0l0,4l-4,0l0,-8l-4,0l0,8l-4,0l0,-8l-4,0l0,8l-4,0l0,-4l-4,0l0,-8Zm20,12l0,8l-4,0l0,-8l4,0Zm-8,0l0,8l-4,0l0,-8l4,0Z" style="fill:#29e400;" />
        <path d="M34,38l0,-8l4,0l0,8l-4,0Zm-4,0l-4,0l0,-8l4,0l0,8Zm0,0l4,0l0,8l-4,0l0,-8Z" style="fill:#fff;" />
        <path d="M26,50l12,0l0,4l-12,0l0,-4Zm12,4l4,0l0,4l-4,0l0,-4Zm0,4l0,4l-12,0l0,-4l12,0Zm-12,0l-4,0l0,-4l4,0l0,4Zm12,-8l0,-4l4,0l0,4l-4,0Zm-12,0l-4,0l0,-4l4,0l0,4Z" />
        <path d="M38,46l0,4l-12,0l0,-4l12,0Zm0,8l0,4l-12,0l0,-4l12,0Z" style="fill:#52575b;" />
      </g>
      <g>
        <path d="M82,34l4,0l0,4l-4,0l0,-4Zm0,-28l0,-4l28,0l0,4l-28,0Zm28,28l0,4l-4,0l0,-4l4,0Zm-24,4l4,0l0,8l-4,0l0,-8Zm-8,-12l4,0l0,8l-4,0l0,-8Zm28,12l0,8l-4,0l0,-8l4,0Zm8,-12l0,8l-4,0l0,-8l4,0Zm0,-12l4,0l0,12l-4,0l0,-12Zm-36,0l0,-8l4,0l0,8l-4,0Zm0,12l-4,0l0,-12l4,0l0,12Zm32,-20l4,0l0,8l-4,0l0,-8Zm-40,2l-4,0l0,-4l4,0l0,4Zm0,0l4,0l0,4l-4,0l0,-4Zm52,0l0,4l-4,0l0,-4l4,0Zm0,0l0,-4l4,0l0,4l-4,0Zm-52,24l0,4l-4,0l0,-4l4,0Zm0,0l0,-4l4,0l0,4l-4,0Zm52,0l-4,0l0,-4l4,0l0,4Zm0,0l4,0l0,4l-4,0l0,-4Zm-48,10l0,-4l4,0l0,4l-4,0Zm-4,4l0,4l-4,0l0,-4l4,0Zm0,0l0,-4l4,0l0,4l-4,0Zm48,-4l-4,0l0,-4l4,0l0,4Zm0,0l4,0l0,4l-4,0l0,-4Zm4,4l4,0l0,4l-4,0l0,-4Zm-46,-46l0,4l-4,0l0,-4l4,0Zm42,0l0,4l-4,0l0,-4l4,0Zm-46,18l0,4l-8,0l0,-4l8,0Zm56,0l0,4l-8,0l0,-4l8,0Z" style="fill:#006661;" />
      </g>
    </g>
  </g>
  <metadata>
    <rdf:RDF>
      <cc:Work rdf:about="">
        <cc:License rdf:resource="http://creativecommons.org/licenses/by-sa/4.0/" />
        <dc:right>
          <cc:Agent>
            <dc:title>CC-BY-SA 4.0 Jugend Hackt</dc:title>
          </cc:Agent>
        </dc:right>
        <dc:title>
          <cc:Agent>
            <dc:title>Pixelhack</dc:title>
          </cc:Agent>
        </dc:title>
        <dc:contributor>
          <cc:Agent>
            <dc:title>Hanno Sternberg</dc:title>
          </cc:Agent>
        </dc:contributor>
        <dc:creator>
          <cc:Agent>
            <dc:title>Jugend Hackt</dc:title>
          </cc:Agent>
        </dc:creator>
        <dc:date>
          <cc:Agent>
            <dc:title>2013</dc:title>
          </cc:Agent>
        </dc:date>
      </cc:Work>
      <cc:License rdf:about="http://creativecommons.org/licenses/by-sa/4.0/">
        <cc:permits rdf:resource="http://creativecommons.org/ns#DerivativeWorks" />
        <cc:requires rdf:resource="http://creativecommons.org/ns#ShareAlike" />
      </cc:License>
    </rdf:RDF>
  </metadata>
</svg>