<?xml version="1.0" encoding="UTF-8" standalone="no"?>
<!DOCTYPE svg PUBLIC "-//W3C//DTD SVG 1.1//EN" "http://www.w3.org/Graphics/SVG/1.1/DTD/svg11.dtd">
<svg xmlns="http://www.w3.org/2000/svg" xmlns:serif="http://www.serif.com/" width="100%" height="100%" viewBox="0 0 64 64" version="1.1" xml:space="preserve" style="fill-rule:evenodd;clip-rule:evenodd;stroke-linejoin:round;stroke-miterlimit:2;" xmlns:rdf="http://www.w3.org/1999/02/22-rdf-syntax-ns" xmlns:cc="http://creativecommons.org/ns" xmlns:dc="http://purl.org/dc/elements/1.1/">
  <g id="Colorful-Objekts" serif:id="Colorful Objekts">
    <g id="Laptops">
      <g id="Laptop6" serif:id="Laptop">
        <path d="M56,44l-44,0l0,-4l2,0l0,2l40,0l0,-6l2,0l0,8Zm-42,-4l0,-4l2,0l0,4l-2,0Zm2,-4l0,-4l2,0l0,4l-2,0Zm2,-4l0,-18l2,0l0,16l30,0l0,-16l2,0l0,18l-34,0Zm2,-18l0,-2l30,0l0,2l-30,0Zm32,18l2,0l0,4l-2,0l0,-4Z" style="fill:#010001;" />
        <path d="M54,42l-40,0l0,-2l2,0l0,-4l2,0l0,-4l34,0l0,4l2,0l0,6Z" style="fill:#e6414a;" />
        <path d="M22,34l0,2l-2,0l0,-2l2,0Zm4,0l0,2l-2,0l0,-2l2,0Zm4,0l0,2l-2,0l0,-2l2,0Zm4,0l0,2l-2,0l0,-2l2,0Zm4,0l0,2l-2,0l0,-2l2,0Zm4,0l0,2l-2,0l0,-2l2,0Zm4,0l0,2l-2,0l0,-2l2,0Zm4,0l0,2l-2,0l0,-2l2,0Zm-30,4l0,2l-2,0l0,-2l2,0Zm4,0l0,2l-2,0l0,-2l2,0Zm20,0l0,2l-18,0l0,-2l18,0Zm4,0l0,2l-2,0l0,-2l2,0Zm4,0l0,2l-2,0l0,-2l2,0Z" style="fill:#010001;" />
        <rect x="20" y="14" width="30" height="16" style="fill:#16a6de;" />
      </g>
    </g>
  </g>
  <g id="Disk--reflection-" serif:id="Disk (reflection)">
    <g>
      <path d="M-62,102l-2,0l0,-12l2,0l0,12Zm0,-12l0,-6l2,0l0,6l-2,0Zm2,-6l0,-4l2,0l0,4l-2,0Zm2,-4l0,-2l2,0l0,2l-2,0Zm2,-2l0,-4l2,0l0,4l-2,0Zm2,-4l0,-2l4,0l0,2l-4,0Zm4,-2l0,-2l2,0l0,2l-2,0Zm2,-2l0,-2l4,0l0,2l-4,0Zm4,-2l0,-2l6,0l0,2l-6,0Zm6,-2l0,-2l12,0l0,2l-12,0Zm12,0l6,0l0,2l-6,0l0,-2Zm6,2l4,0l0,2l-4,0l0,-2Zm4,2l2,0l0,2l-2,0l0,-2Zm2,2l4,0l0,2l-4,0l0,-2Zm4,2l2,0l0,4l-2,0l0,-4Zm2,4l2,0l0,2l-2,0l0,-2Zm2,2l2,0l0,4l-2,0l0,-4Zm2,4l2,0l0,6l-2,0l0,-6Zm2,6l2,0l0,12l-2,0l0,-12Zm0,12l0,6l-2,0l0,-6l2,0Zm-2,6l0,4l-2,0l0,-4l2,0Zm-2,4l0,2l-2,0l0,-2l2,0Zm-2,2l0,4l-2,0l0,-4l2,0Zm-2,4l0,2l-4,0l0,-2l4,0Zm-4,2l0,2l-2,0l0,-2l2,0Zm-2,2l0,2l-4,0l0,-2l4,0Zm-4,2l0,2l-6,0l0,-2l6,0Zm-6,2l0,2l-12,0l0,-2l12,0Zm-12,0l-6,0l0,-2l6,0l0,2Zm-6,-2l-4,0l0,-2l4,0l0,2Zm-4,-2l-2,0l0,-2l2,0l0,2Zm-2,-2l-4,0l0,-2l4,0l0,2Zm-4,-2l-2,0l0,-4l2,0l0,4Zm-2,-4l-2,0l0,-2l2,0l0,2Zm-2,-2l-2,0l0,-4l2,0l0,4Zm-2,-4l-2,0l0,-6l2,0l0,6Zm24,-10l-2,0l0,-4l2,0l0,4Zm0,-4l0,-2l2,0l0,2l-2,0Zm2,-2l0,-2l4,0l0,2l-4,0Zm4,0l2,0l0,2l-2,0l0,-2Zm2,2l2,0l0,4l-2,0l0,-4Zm0,4l0,2l-2,0l0,-2l2,0Zm-2,2l0,2l-4,0l0,-2l4,0Zm-4,0l-2,0l0,-2l2,0l0,2Z" style="fill:#52575b;" />
    </g>
  </g>
  <metadata>
    <rdf:RDF>
      <cc:Work rdf:about="">
        <cc:License rdf:resource="http://creativecommons.org/licenses/by-sa/4.0/" />
        <dc:right>
          <cc:Agent>
            <dc:title>CC-BY-SA 4.0 Jugend Hackt</dc:title>
          </cc:Agent>
        </dc:right>
        <dc:title>
          <cc:Agent>
            <dc:title>Pixelhack</dc:title>
          </cc:Agent>
        </dc:title>
        <dc:contributor>
          <cc:Agent>
            <dc:title>Hanno Sternberg</dc:title>
          </cc:Agent>
        </dc:contributor>
        <dc:creator>
          <cc:Agent>
            <dc:title>Jugend Hackt</dc:title>
          </cc:Agent>
        </dc:creator>
        <dc:date>
          <cc:Agent>
            <dc:title>2013</dc:title>
          </cc:Agent>
        </dc:date>
      </cc:Work>
      <cc:License rdf:about="http://creativecommons.org/licenses/by-sa/4.0/">
        <cc:permits rdf:resource="http://creativecommons.org/ns#DerivativeWorks" />
        <cc:requires rdf:resource="http://creativecommons.org/ns#ShareAlike" />
      </cc:License>
    </rdf:RDF>
  </metadata>
</svg>