<?xml version="1.0" encoding="UTF-8" standalone="no"?>
<!DOCTYPE svg PUBLIC "-//W3C//DTD SVG 1.1//EN" "http://www.w3.org/Graphics/SVG/1.1/DTD/svg11.dtd">
<svg xmlns="http://www.w3.org/2000/svg" width="100%" height="100%" viewBox="0 0 64 64" version="1.1" xml:space="preserve" style="fill-rule:evenodd;clip-rule:evenodd;stroke-linejoin:round;stroke-miterlimit:2;" xmlns:rdf="http://www.w3.org/1999/02/22-rdf-syntax-ns" xmlns:cc="http://creativecommons.org/ns" xmlns:dc="http://purl.org/dc/elements/1.1/">
  <g>
    <g>
      <path d="M20,30l-4,0l0,-12l2,0l0,-8l2,0l0,-2l6,0l0,2l2,0l0,6l2,0l0,4l4,0l0,-4l2,0l0,-6l2,0l0,-2l6,0l0,2l2,0l0,8l2,0l0,6l-2,0l0,2l-2,0l0,2l-2,0l0,-4l-4,0l0,6l2,0l0,2l2,0l0,2l-20,0l0,-2l2,0l0,-2l2,0l0,-6l-4,0l0,4l-2,0l0,-2l-2,0l0,2l2,0l0,2Zm24,-2l2,0l0,2l-2,0l0,-2Zm0,2l0,2l-2,0l0,-2l2,0Zm-22,2l-2,0l0,-2l2,0l0,2Zm4,-20l-4,0l0,8l4,0l0,-8Zm4,16l0,4l4,0l0,-4l-4,0Zm8,-16l0,8l4,0l0,-8l-4,0Zm-16,16l2,0l0,2l-2,0l0,-2Zm18,2l0,-2l2,0l0,2l-2,0Zm-14,10l-4,0l0,-4l4,0l0,2l2,0l0,2l2,0l0,2l4,0l0,-2l2,0l0,-2l2,0l0,-2l4,0l0,4l-4,0l0,8l-12,0l0,-8Z" style="fill:#fff;" />
      <path d="M26,12l0,8l-4,0l0,-8l4,0Zm16,0l0,8l-4,0l0,-8l4,0Zm0,22l0,2l-20,0l0,-2l20,0Z" style="fill:#e6414a;" />
      <path d="M26,24l0,4l-4,0l0,-4l4,0Zm16,0l0,4l-4,0l0,-4l4,0Z" />
      <path d="M50,24l0,4l-4,0l0,-4l4,0Zm-16,4l0,4l-4,0l0,-4l4,0Z" style="fill:#ff3b8d;" />
      <path d="M40,30l2,0l0,2l-2,0l0,-2Zm2,0l0,-2l2,0l0,2l-2,0Zm2,0l2,0l0,2l-2,0l0,-2Zm0,2l0,2l-2,0l0,-2l2,0Zm0,-4l0,-2l2,0l0,2l-2,0Zm-4,2l-2,0l0,-2l2,0l0,2Zm4,4l2,0l0,2l-2,0l0,-2Zm-24,-6l-2,0l0,-2l2,0l0,2Zm0,6l0,2l-2,0l0,-2l2,0Zm4,-4l0,-2l2,0l0,2l-2,0Zm-4,-2l2,0l0,2l-2,0l0,-2Zm2,2l2,0l0,2l-2,0l0,-2Zm0,2l0,2l-2,0l0,-2l2,0Zm-2,0l-2,0l0,-2l2,0l0,2Z" style="fill:#52575b;" />
      <rect x="46" y="28" width="4" height="8" style="fill:#d1d6da;" />
      <path d="M30,40l4,0l0,2l-4,0l0,-2Zm4,0l0,-4l4,0l0,2l-2,0l0,2l-2,0Zm-6,-2l-2,0l0,-2l4,0l0,4l-2,0l0,-2Z" style="fill:#00b48d;" />
      <rect x="30" y="36" width="4" height="4" style="fill:#f3971b;" />
      <path d="M26,40l0,8l-4,0l0,-8l4,0Zm16,0l0,8l-4,0l0,-8l4,0Z" style="fill:#16a6de;" />
    </g>
  </g>
  <metadata>
    <rdf:RDF>
      <cc:Work rdf:about="">
        <cc:License rdf:resource="http://creativecommons.org/licenses/by-sa/4.0/" />
        <dc:right>
          <cc:Agent>
            <dc:title>CC-BY-SA 4.0 Jugend Hackt</dc:title>
          </cc:Agent>
        </dc:right>
        <dc:title>
          <cc:Agent>
            <dc:title>Pixelhack</dc:title>
          </cc:Agent>
        </dc:title>
        <dc:contributor>
          <cc:Agent>
            <dc:title>Hanno Sternberg</dc:title>
          </cc:Agent>
        </dc:contributor>
        <dc:creator>
          <cc:Agent>
            <dc:title>Jugend Hackt</dc:title>
          </cc:Agent>
        </dc:creator>
        <dc:date>
          <cc:Agent>
            <dc:title>2013</dc:title>
          </cc:Agent>
        </dc:date>
      </cc:Work>
      <cc:License rdf:about="http://creativecommons.org/licenses/by-sa/4.0/">
        <cc:permits rdf:resource="http://creativecommons.org/ns#DerivativeWorks" />
        <cc:requires rdf:resource="http://creativecommons.org/ns#ShareAlike" />
      </cc:License>
    </rdf:RDF>
  </metadata>
</svg>