<?xml version="1.0" encoding="UTF-8" standalone="no"?>
<!DOCTYPE svg PUBLIC "-//W3C//DTD SVG 1.1//EN" "http://www.w3.org/Graphics/SVG/1.1/DTD/svg11.dtd">
<svg xmlns="http://www.w3.org/2000/svg" xmlns:serif="http://www.serif.com/" width="100%" height="100%" viewBox="0 0 64 128" version="1.1" xml:space="preserve" style="fill-rule:evenodd;clip-rule:evenodd;stroke-linejoin:round;stroke-miterlimit:2;" xmlns:rdf="http://www.w3.org/1999/02/22-rdf-syntax-ns" xmlns:cc="http://creativecommons.org/ns" xmlns:dc="http://purl.org/dc/elements/1.1/">
  <g id="Creatures">
    <g id="Monsters--Two-Mouths-" serif:id="Monsters (Two Mouths)">
      <g>
        <g>
          <path d="M-48,116l-12,0l0,-100l12,0l0,-8l38,0l0,8l10,0l0,100l-10,0l0,8l-38,0l0,-8Z" style="fill:#010001;" />
          <path d="M-44,116l-12,0l0,-100l12,0l0,-8l34,0l0,8l10,0l0,100l-10,0l0,8l-34,-0l0,-8Z" style="fill:#fbe50f;" />
        </g>
      </g>
      <g>
        <g>
          <path d="M14,116l-12,0l0,-100l12,0l0,-8l38,0l0,8l10,0l0,100l-10,0l0,8l-38,0l0,-8Z" style="fill:#010001;" />
          <path d="M18,116l-12,0l0,-100l12,0l0,-8l34,0l0,8l10,0l0,100l-10,0l0,8l-34,-0l0,-8Z" style="fill:#29e400;" />
        </g>
        <g>
          <g>
            <path d="M28,56l-4,0l0,-34l4,0l0,-4l14,0l0,4l4,0l0,34l-4,0l0,4l-14,0l0,-4Z" style="fill:#010001;" />
            <path d="M30,54l-4,0l0,-30l4,0l0,-4l10,0l0,4l4,0l0,30l-4,0l0,4l-10,0l0,-4Z" style="fill:#fefffe;" />
          </g>
          <g>
            <rect x="32" y="26" width="6" height="10" style="fill:#16a6de;" />
            <g>
              <rect x="32" y="36" width="6" height="6" style="fill:#010001;" />
              <rect x="34" y="36" width="2" height="2" style="fill:#fefffe;" />
            </g>
            <rect x="32" y="42" width="6" height="8" style="fill:#16a6de;" />
          </g>
        </g>
        <g>
          <path d="M16,80l-4,0l0,-10l4,0l0,-4l38,0l0,4l4,0l0,10l-4,0l0,4l-38,0l0,-4Z" style="fill:#fcd009;" />
          <rect x="16" y="70" width="38" height="10" style="fill:#010001;" />
          <path d="M22,70l0,2l-4,0l0,-2l4,0Zm6,0l0,2l-4,0l0,-2l4,0Zm6,0l0,2l-4,0l0,-2l4,0Zm6,0l0,2l-4,0l0,-2l4,0Zm6,0l0,2l-4,0l0,-2l4,0Zm6,0l0,2l-4,0l0,-2l4,0Zm-30,8l0,2l-4,0l0,-2l4,0Zm6,0l0,2l-4,0l0,-2l4,0Zm6,0l0,2l-4,0l0,-2l4,0Zm6,0l0,2l-4,0l0,-2l4,0Zm6,0l0,2l-4,0l0,-2l4,0Zm6,0l0,2l-4,0l0,-2l4,0Z" style="fill:#fefffe;" />
        </g>
        <g>
          <path d="M16,106l-4,0l0,-10l4,0l0,-4l38,0l0,4l4,0l0,10l-4,0l0,4l-38,0l0,-4Z" style="fill:#fcd009;" />
          <rect x="16" y="96" width="38" height="10" style="fill:#010001;" />
          <path d="M22,96l0,2l-4,0l0,-2l4,0Zm6,0l0,2l-4,0l0,-2l4,0Zm6,0l0,2l-4,0l0,-2l4,0Zm6,0l0,2l-4,0l0,-2l4,0Zm6,0l0,2l-4,0l0,-2l4,0Zm6,0l0,2l-4,0l0,-2l4,0Zm-30,8l0,2l-4,0l0,-2l4,0Zm6,0l0,2l-4,0l0,-2l4,0Zm6,0l0,2l-4,0l0,-2l4,0Zm6,0l0,2l-4,0l0,-2l4,0Zm6,0l0,2l-4,0l0,-2l4,0Zm6,0l0,2l-4,0l0,-2l4,0Z" style="fill:#fefffe;" />
        </g>
      </g>
    </g>
  </g>
  <metadata>
    <rdf:RDF>
      <cc:Work rdf:about="">
        <cc:License rdf:resource="http://creativecommons.org/licenses/by-sa/4.0/" />
        <dc:right>
          <cc:Agent>
            <dc:title>CC-BY-SA 4.0 Jugend Hackt</dc:title>
          </cc:Agent>
        </dc:right>
        <dc:title>
          <cc:Agent>
            <dc:title>Pixelhack</dc:title>
          </cc:Agent>
        </dc:title>
        <dc:contributor>
          <cc:Agent>
            <dc:title>Hanno Sternberg</dc:title>
          </cc:Agent>
        </dc:contributor>
        <dc:creator>
          <cc:Agent>
            <dc:title>Jugend Hackt</dc:title>
          </cc:Agent>
        </dc:creator>
        <dc:date>
          <cc:Agent>
            <dc:title>2013</dc:title>
          </cc:Agent>
        </dc:date>
      </cc:Work>
      <cc:License rdf:about="http://creativecommons.org/licenses/by-sa/4.0/">
        <cc:permits rdf:resource="http://creativecommons.org/ns#DerivativeWorks" />
        <cc:requires rdf:resource="http://creativecommons.org/ns#ShareAlike" />
      </cc:License>
    </rdf:RDF>
  </metadata>
</svg>