<?xml version="1.0" encoding="UTF-8" standalone="no"?>
<!DOCTYPE svg PUBLIC "-//W3C//DTD SVG 1.1//EN" "http://www.w3.org/Graphics/SVG/1.1/DTD/svg11.dtd">
<svg xmlns="http://www.w3.org/2000/svg" xmlns:serif="http://www.serif.com/" width="100%" height="100%" viewBox="0 0 64 128" version="1.1" xml:space="preserve" style="fill-rule:evenodd;clip-rule:evenodd;stroke-linejoin:round;stroke-miterlimit:2;" xmlns:rdf="http://www.w3.org/1999/02/22-rdf-syntax-ns" xmlns:cc="http://creativecommons.org/ns" xmlns:dc="http://purl.org/dc/elements/1.1/">
  <g id="Creatures">
    <g id="Monsters--Three-Eyes-" serif:id="Monsters (Three Eyes)">
      <g>
        <g>
          <path d="M15.935,116l-12,0l0,-102l12,0l0,-8l34,0l0,8l12,0l0,102l-12,0l0,8l-34,0l0,-8Z" style="fill:#010001;" />
          <path d="M19.935,116l-12,0l0,-102l12,0l0,-8l30,-0l0,8l12,0l0,102l-12,0l0,8l-30,-0l0,-8Z" style="fill:#ca006a;" />
        </g>
        <g>
          <path d="M13.935,104l-2,0l0,-80l2,0l0,-2l10,0l0,2l2,0l0,80l-2,0l0,2l-10,0l0,-2Z" style="fill:#ff3b8d;" />
          <rect x="13.935" y="24" width="10" height="80" style="fill:#010001;" />
          <path d="M15.935,26l0,4l-2,0l0,-4l2,0Zm8,0l0,4l-2,0l0,-4l2,0Zm-8,6l0,4l-2,0l0,-4l2,0Zm8,0l0,4l-2,0l0,-4l2,0Zm0,6l0,4l-2,0l0,-4l2,0Zm-8,0l0,4l-2,0l0,-4l2,0Zm0,6l0,4l-2,0l0,-4l2,0Zm8,0l0,4l-2,0l0,-4l2,0Zm-8,6l0,4l-2,0l0,-4l2,0Zm8,0l0,4l-2,0l0,-4l2,0Zm-8,6l0,4l-2,0l0,-4l2,0Zm8,0l0,4l-2,0l0,-4l2,0Zm-8,6l0,4l-2,0l0,-4l2,0Zm8,0l0,4l-2,0l0,-4l2,0Zm-8,6l0,4l-2,0l0,-4l2,0Zm8,0l0,4l-2,0l0,-4l2,0Zm-8,6l0,4l-2,0l0,-4l2,0Zm8,0l0,4l-2,0l0,-4l2,0Zm-8,6l0,4l-2,0l0,-4l2,0Zm8,0l0,4l-2,0l0,-4l2,0Zm-8,6l0,4l-2,0l0,-4l2,0Zm8,0l0,4l-2,0l0,-4l2,0Zm-8,6l0,4l-2,0l0,-4l2,0Zm8,0l0,4l-2,0l0,-4l2,0Zm-8,6l0,4l-2,0l0,-4l2,0Zm8,0l0,4l-2,0l0,-4l2,0Z" style="fill:#fefffe;" />
        </g>
        <g>
          <g>
            <g>
              <path d="M39.935,44l-4,0l0,-22l4,0l0,-2l10,0l0,2l4,0l0,22l-4,0l0,2l-10,0l0,-2Z" style="fill:#010001;" />
              <path d="M41.935,42l-4,0l0,-18l4,0l0,-2l6,0l0,2l4,0l0,18l-4,0l0,2l-6,0l0,-2Z" style="fill:#fefffe;" />
              <rect x="35.935" y="24" width="2" height="18" style="fill:#10498c;" />
            </g>
            <g>
              <rect x="41.935" y="26" width="6" height="14" style="fill:#10498c;" />
              <rect x="41.935" y="34" width="6" height="6" style="fill:#010001;" />
              <rect x="43.935" y="36" width="2" height="2" style="fill:#fefffe;" />
            </g>
          </g>
          <g>
            <g>
              <path d="M39.935,76l-4,0l0,-22l4,0l0,-2l10,0l0,2l4,0l0,22l-4,0l0,2l-10,0l0,-2Z" style="fill:#010001;" />
              <path d="M41.935,74l-4,0l0,-18l4,0l0,-2l6,0l0,2l4,0l0,18l-4,0l0,2l-6,0l0,-2Z" style="fill:#fefffe;" />
              <rect x="35.935" y="56" width="2" height="18" style="fill:#10498c;" />
            </g>
            <g>
              <rect x="41.935" y="58" width="6" height="14" style="fill:#10498c;" />
              <rect x="41.935" y="61" width="6" height="6" style="fill:#010001;" />
              <rect x="43.935" y="63" width="2" height="2" style="fill:#fefffe;" />
            </g>
          </g>
          <g>
            <g>
              <path d="M39.935,108l-4,0l0,-22l4,0l0,-2l10,0l0,2l4,0l0,22l-4,0l0,2l-10,0l0,-2Z" style="fill:#010001;" />
              <path d="M41.935,106l-4,0l0,-18l4,0l0,-2l6,0l0,2l4,0l0,18l-4,0l0,2l-6,0l0,-2Z" style="fill:#fefffe;" />
              <rect x="35.935" y="88" width="2" height="18" style="fill:#10498c;" />
            </g>
            <g>
              <rect x="41.935" y="90" width="6" height="14" style="fill:#10498c;" />
              <rect x="41.935" y="90" width="6" height="6" style="fill:#010001;" />
              <rect x="43.935" y="92" width="2" height="2" style="fill:#fefffe;" />
            </g>
          </g>
        </g>
      </g>
    </g>
  </g>
  <g id="Disk--reflection-" serif:id="Disk (reflection)">
    <g>
      <path d="M66,38l-2,0l0,-12l2,0l0,12Zm0,-12l0,-6l2,0l0,6l-2,0Zm2,-6l0,-4l2,0l0,4l-2,0Zm2,-4l0,-2l2,0l0,2l-2,0Zm2,-2l0,-4l2,0l0,4l-2,0Zm2,-4l0,-2l4,0l0,2l-4,0Zm4,-2l0,-2l2,0l0,2l-2,0Zm2,-2l0,-2l4,0l0,2l-4,0Zm4,-2l0,-2l6,0l0,2l-6,0Zm6,-2l0,-2l12,0l0,2l-12,0Zm12,0l6,0l0,2l-6,0l0,-2Zm6,2l4,0l0,2l-4,0l0,-2Zm4,2l2,0l0,2l-2,0l0,-2Zm2,2l4,0l0,2l-4,0l0,-2Zm4,2l2,0l0,4l-2,0l0,-4Zm2,4l2,0l0,2l-2,0l0,-2Zm2,2l2,0l0,4l-2,0l0,-4Zm2,4l2,0l0,6l-2,0l0,-6Zm2,6l2,0l0,12l-2,0l0,-12Zm0,12l0,6l-2,0l0,-6l2,0Zm-2,6l0,4l-2,0l0,-4l2,0Zm-2,4l0,2l-2,0l0,-2l2,0Zm-2,2l0,4l-2,0l0,-4l2,0Zm-2,4l0,2l-4,0l0,-2l4,0Zm-4,2l0,2l-2,0l0,-2l2,0Zm-2,2l0,2l-4,0l0,-2l4,0Zm-4,2l0,2l-6,0l0,-2l6,0Zm-6,2l0,2l-12,0l0,-2l12,0Zm-12,0l-6,0l0,-2l6,0l0,2Zm-6,-2l-4,0l0,-2l4,0l0,2Zm-4,-2l-2,0l0,-2l2,0l0,2Zm-2,-2l-4,0l0,-2l4,0l0,2Zm-4,-2l-2,0l0,-4l2,0l0,4Zm-2,-4l-2,0l0,-2l2,0l0,2Zm-2,-2l-2,0l0,-4l2,0l0,4Zm-2,-4l-2,0l0,-6l2,0l0,6Zm24,-10l-2,0l0,-4l2,0l0,4Zm0,-4l0,-2l2,0l0,2l-2,0Zm2,-2l0,-2l4,0l0,2l-4,0Zm4,0l2,0l0,2l-2,0l0,-2Zm2,2l2,0l0,4l-2,0l0,-4Zm0,4l0,2l-2,0l0,-2l2,0Zm-2,2l0,2l-4,0l0,-2l4,0Zm-4,0l-2,0l0,-2l2,0l0,2Z" style="fill:#52575b;" />
    </g>
  </g>
  <g id="Disk">
    <path d="M66,102l-2,0l0,-12l2,0l0,12Zm0,-12l0,-6l2,0l0,6l-2,0Zm2,-6l0,-4l2,0l0,4l-2,0Zm2,-4l0,-2l2,0l0,2l-2,0Zm2,-2l0,-4l2,0l0,4l-2,0Zm2,-4l0,-2l4,0l0,2l-4,0Zm4,-2l0,-2l2,0l0,2l-2,0Zm2,-2l0,-2l4,0l0,2l-4,0Zm4,-2l0,-2l6,0l0,2l-6,0Zm6,-2l0,-2l12,0l0,2l-12,0Zm12,0l6,0l0,2l-6,0l0,-2Zm6,2l4,0l0,2l-4,0l0,-2Zm4,2l2,0l0,2l-2,0l0,-2Zm2,2l4,0l0,2l-4,0l0,-2Zm4,2l2,0l0,4l-2,0l0,-4Zm2,4l2,0l0,2l-2,0l0,-2Zm2,2l2,0l0,4l-2,0l0,-4Zm2,4l2,0l0,6l-2,0l0,-6Zm2,6l2,0l0,12l-2,0l0,-12Zm0,12l0,6l-2,0l0,-6l2,0Zm-2,6l0,4l-2,0l0,-4l2,0Zm-2,4l0,2l-2,0l0,-2l2,0Zm-2,2l0,4l-2,0l0,-4l2,0Zm-2,4l0,2l-4,0l0,-2l4,0Zm-4,2l0,2l-2,0l0,-2l2,0Zm-2,2l0,2l-4,0l0,-2l4,0Zm-4,2l0,2l-6,0l0,-2l6,0Zm-6,2l0,2l-12,0l0,-2l12,0Zm-12,0l-6,0l0,-2l6,0l0,2Zm-6,-2l-4,0l0,-2l4,0l0,2Zm-4,-2l-2,0l0,-2l2,0l0,2Zm-2,-2l-4,0l0,-2l4,0l0,2Zm-4,-2l-2,0l0,-4l2,0l0,4Zm-2,-4l-2,0l0,-2l2,0l0,2Zm-2,-2l-2,0l0,-4l2,0l0,4Zm-2,-4l-2,0l0,-6l2,0l0,6Zm20,-10l-2,0l0,-4l2,0l0,4Zm0,-4l0,-2l2,0l0,2l-2,0Zm2,-2l0,-2l2,0l0,2l-2,0Zm2,-2l0,-2l2,0l0,2l-2,0Zm2,-2l0,-2l4,0l0,2l-4,0Zm4,0l2,0l0,2l-2,0l0,-2Zm2,2l2,0l0,2l-2,0l0,-2Zm2,2l2,0l0,2l-2,0l0,-2Zm2,2l2,0l0,4l-2,0l0,-4Zm0,4l0,2l-2,0l0,-2l2,0Zm-2,2l0,2l-2,0l0,-2l2,0Zm-2,2l0,2l-2,0l0,-2l2,0Zm-2,2l0,2l-4,0l0,-2l4,0Zm-4,0l-2,0l0,-2l2,0l0,2Zm-2,-2l-2,0l0,-2l2,0l0,2Zm-2,-2l-2,0l0,-2l2,0l0,2Zm0,-2l0,-4l2,0l0,4l-2,0Zm2,-4l0,-2l2,0l0,2l-2,0Zm2,-2l0,-2l4,0l0,2l-4,0Zm4,0l2,0l0,2l-2,0l0,-2Zm2,2l2,0l0,4l-2,0l0,-4Zm0,4l0,2l-2,0l0,-2l2,0Zm-2,2l0,2l-4,0l0,-2l4,0Zm-4,0l-2,0l0,-2l2,0l0,2Z" style="fill:#52575b;" />
  </g>
  <metadata>
    <rdf:RDF>
      <cc:Work rdf:about="">
        <cc:License rdf:resource="http://creativecommons.org/licenses/by-sa/4.0/" />
        <dc:right>
          <cc:Agent>
            <dc:title>CC-BY-SA 4.0 Jugend Hackt</dc:title>
          </cc:Agent>
        </dc:right>
        <dc:title>
          <cc:Agent>
            <dc:title>Pixelhack</dc:title>
          </cc:Agent>
        </dc:title>
        <dc:contributor>
          <cc:Agent>
            <dc:title>Hanno Sternberg</dc:title>
          </cc:Agent>
        </dc:contributor>
        <dc:creator>
          <cc:Agent>
            <dc:title>Jugend Hackt</dc:title>
          </cc:Agent>
        </dc:creator>
        <dc:date>
          <cc:Agent>
            <dc:title>2013</dc:title>
          </cc:Agent>
        </dc:date>
      </cc:Work>
      <cc:License rdf:about="http://creativecommons.org/licenses/by-sa/4.0/">
        <cc:permits rdf:resource="http://creativecommons.org/ns#DerivativeWorks" />
        <cc:requires rdf:resource="http://creativecommons.org/ns#ShareAlike" />
      </cc:License>
    </rdf:RDF>
  </metadata>
</svg>