<?xml version="1.0" encoding="UTF-8" standalone="no"?>
<!DOCTYPE svg PUBLIC "-//W3C//DTD SVG 1.1//EN" "http://www.w3.org/Graphics/SVG/1.1/DTD/svg11.dtd">
<svg xmlns="http://www.w3.org/2000/svg" xmlns:serif="http://www.serif.com/" width="100%" height="100%" viewBox="0 0 64 64" version="1.1" xml:space="preserve" style="fill-rule:evenodd;clip-rule:evenodd;stroke-linejoin:round;stroke-miterlimit:2;" xmlns:rdf="http://www.w3.org/1999/02/22-rdf-syntax-ns" xmlns:cc="http://creativecommons.org/ns" xmlns:dc="http://purl.org/dc/elements/1.1/">
  <g id="Colorful-Objekts" serif:id="Colorful Objekts">
    <g id="Open-Eyes" serif:id="Open Eyes">
      <g id="Open-Eyes8" serif:id="Open Eyes">
        <path d="M8,39l-2,0l0,-20l2,0l0,-4l2,0l0,-2l4,0l0,-2l12,0l0,2l2,0l0,32l-2,0l0,2l-12,0l0,-2l-4,0l0,-2l-2,0l0,-4Zm26,2l-2,0l0,-26l4,0l0,-2l4,0l0,-2l12,0l0,2l2,0l0,2l2,0l0,28l-2,0l0,2l-2,0l0,2l-12,0l0,-2l-4,0l0,-2l-2,0l0,-2Z" style="fill:#fefffe;" />
        <path d="M6,41l-2,0l0,-24l2,0l0,-4l2,0l0,-2l2,0l0,-2l4,0l0,-2l12,0l0,2l2,0l0,2l2,0l0,2l-4,0l0,-2l-12,0l0,2l-4,0l0,2l-2,0l0,4l-2,0l0,20l2,0l0,4l2,0l0,2l4,0l0,2l12,0l0,-2l4,0l0,2l-2,0l0,2l-4,0l0,2l-10,0l0,-2l-4,0l0,-2l-2,0l0,-2l-2,0l0,-4Zm24,-28l4,0l0,-2l2,0l0,-2l4,0l0,-2l12,0l0,2l2,0l0,2l2,0l0,2l2,0l0,2l2,0l0,28l-2,0l0,2l-2,0l0,2l-2,0l0,2l-2,0l0,2l-12,0l0,-2l-4,0l0,-2l-2,0l0,-2l-4,0l0,-32Zm2,2l0,26l2,0l0,2l2,0l0,2l4,0l0,2l12,0l0,-2l2,0l0,-2l2,0l0,-28l-2,0l0,-2l-2,0l0,-2l-12,0l0,2l-4,0l0,2l-4,0Z" style="fill:#d1d6da;" />
        <path d="M4,41l-2,0l0,-24l2,0l0,24Zm0,-24l0,-4l2,0l0,4l-2,0Zm2,-4l0,-2l2,0l0,2l-2,0Zm2,-2l0,-2l2,0l0,2l-2,0Zm2,-2l0,-2l4,0l0,2l-4,0Zm4,-2l0,-2l12,0l0,2l-12,0Zm12,0l2,0l0,2l-2,0l0,-2Zm2,2l2,0l0,2l-2,0l0,-2Zm2,2l4,0l0,2l-4,0l0,-2Zm4,0l0,-2l2,0l0,2l-2,0Zm2,-2l0,-2l4,0l0,2l-4,0Zm4,-2l0,-2l12,0l0,2l-12,0Zm12,0l2,0l0,2l-2,0l0,-2Zm2,2l2,0l0,2l-2,0l0,-2Zm2,2l2,0l0,2l-2,0l0,-2Zm2,2l2,0l0,2l-2,0l0,-2Zm2,2l2,0l0,28l-2,0l0,-28Zm0,28l0,2l-2,0l0,-2l2,0Zm-2,2l0,2l-2,0l0,-2l2,0Zm-2,2l0,2l-2,0l0,-2l2,0Zm-2,2l0,2l-2,0l0,-2l2,0Zm-2,2l0,2l-12,0l0,-2l12,0Zm-12,0l-4,0l0,-2l4,0l0,2Zm-4,-2l-2,0l0,-2l2,0l0,2Zm-2,-2l-4,0l0,-2l4,0l0,2Zm-4,0l0,2l-2,0l0,-2l2,0Zm-2,2l0,2l-4,0l0,-2l4,0Zm-4,2l0,2l-10,0l0,-2l10,0Zm-10,0l-4,0l0,-2l4,0l0,2Zm-4,-2l-2,0l0,-2l2,0l0,2Zm-2,-2l-2,0l0,-2l2,0l0,2Zm-2,-2l-2,0l0,-4l2,0l0,4Zm24,0l-2,0l0,-32l2,0l0,32Z" style="fill:#52575b;" />
        <path d="M8,37l-2,0l0,-16l2,0l0,-2l2,0l0,-2l8,0l0,2l2,0l0,2l2,0l0,16l-2,0l0,2l-2,0l0,2l-8,0l0,-2l-2,0l0,-2Zm26,0l-2,0l0,-16l2,0l0,-2l2,0l0,-2l8,0l0,2l2,0l0,2l2,0l0,16l-2,0l0,2l-2,0l0,2l-8,0l0,-2l-2,0l0,-2Z" style="fill:#ca006a;" />
        <path d="M8,37l-2,0l0,-16l2,0l0,16Zm0,-16l0,-2l2,0l0,2l-2,0Zm2,-2l0,-2l8,0l0,2l-8,0Zm8,0l2,0l0,2l-2,0l0,-2Zm2,2l2,0l0,16l-2,0l0,-16Zm0,16l0,2l-2,0l0,-2l2,0Zm-2,2l0,2l-8,0l0,-2l8,0Zm-8,0l-2,0l0,-2l2,0l0,2Zm24,-2l-2,0l0,-16l2,0l0,16Zm0,-16l0,-2l2,0l0,2l-2,0Zm2,-2l0,-2l8,0l0,2l-8,0Zm8,0l2,0l0,2l-2,0l0,-2Zm2,2l2,0l0,16l-2,0l0,-16Zm0,16l0,2l-2,0l0,-2l2,0Zm-2,2l0,2l-8,0l0,-2l8,0Zm-8,0l-2,0l0,-2l2,0l0,2Z" style="fill:#ff3b8d;" />
        <path d="M18,21l0,4l-4,0l0,-4l4,0Zm26,0l0,4l-4,0l0,-4l4,0Z" style="fill:#d1d6da;" />
        <path d="M18,23l0,2l-2,0l0,-2l2,0Zm26,0l0,2l-2,0l0,-2l2,0Z" style="fill:#fefffe;" />
      </g>
    </g>
  </g>
  <metadata>
    <rdf:RDF>
      <cc:Work rdf:about="">
        <cc:License rdf:resource="http://creativecommons.org/licenses/by-sa/4.0/" />
        <dc:right>
          <cc:Agent>
            <dc:title>CC-BY-SA 4.0 Jugend Hackt</dc:title>
          </cc:Agent>
        </dc:right>
        <dc:title>
          <cc:Agent>
            <dc:title>Pixelhack</dc:title>
          </cc:Agent>
        </dc:title>
        <dc:contributor>
          <cc:Agent>
            <dc:title>Hanno Sternberg</dc:title>
          </cc:Agent>
        </dc:contributor>
        <dc:creator>
          <cc:Agent>
            <dc:title>Jugend Hackt</dc:title>
          </cc:Agent>
        </dc:creator>
        <dc:date>
          <cc:Agent>
            <dc:title>2013</dc:title>
          </cc:Agent>
        </dc:date>
      </cc:Work>
      <cc:License rdf:about="http://creativecommons.org/licenses/by-sa/4.0/">
        <cc:permits rdf:resource="http://creativecommons.org/ns#DerivativeWorks" />
        <cc:requires rdf:resource="http://creativecommons.org/ns#ShareAlike" />
      </cc:License>
    </rdf:RDF>
  </metadata>
</svg>