<?xml version="1.0" encoding="UTF-8" standalone="no"?>
<!DOCTYPE svg PUBLIC "-//W3C//DTD SVG 1.1//EN" "http://www.w3.org/Graphics/SVG/1.1/DTD/svg11.dtd">
<svg xmlns="http://www.w3.org/2000/svg" width="100%" height="100%" viewBox="0 0 192 64" version="1.1" xml:space="preserve" style="fill-rule:evenodd;clip-rule:evenodd;stroke-linejoin:round;stroke-miterlimit:2;" xmlns:rdf="http://www.w3.org/1999/02/22-rdf-syntax-ns" xmlns:cc="http://creativecommons.org/ns" xmlns:dc="http://purl.org/dc/elements/1.1/">
  <g>
    <g>
      <path d="M28,34l0,2l-14,0l0,-2l2,0l0,-4l2,0l0,4l6,0l0,-16l-6,0l0,-2l170,0l0,6l-6,0l0,2l-2,0l0,-6l-22,0l0,10l18,0l0,2l-144,0l0,-12l-6,0l0,16l2,0Zm152,-10l0,2l-2,0l0,-2l2,0Zm-2,2l0,2l-2,0l0,-2l2,0Zm-146,4l0,2l-2,0l0,-2l2,0Zm-2,2l0,2l-2,0l0,-2l2,0Zm-12,-14l0,6l-2,0l0,-6l2,0Zm46,0l-30,0l0,10l30,0l0,-10Zm92,0l-28,0l0,10l28,0l0,-10Zm-62,0l-28,0l0,10l28,0l0,-10Zm32,0l-30,0l0,10l30,0l0,-10Z" />
      <path d="M18,34l0,-16l6,0l0,10l-4,0l0,2l4,0l0,4l-6,0Zm8,0l0,-16l6,0l0,12l-2,0l0,2l-2,0l0,2l-2,0Zm132,-6l0,-10l22,0l0,6l-2,0l0,2l-2,0l0,2l-18,0Zm-142,-10l0,16l-2,0l0,-16l2,0Zm48,0l0,10l-30,0l0,-10l30,0Zm30,0l0,10l-28,0l0,-10l28,0Zm32,0l0,10l-30,0l0,-10l30,0Zm30,0l0,10l-28,0l0,-10l28,0Z" style="fill:#16a6de;" />
      <path d="M14,48l0,-12l14,0l0,-2l2,0l0,-2l2,0l0,-2l144,0l0,-2l2,0l0,-2l2,0l0,-2l2,0l0,-2l6,0l0,26l-174,0Z" style="fill:#00b48d;" />
      <rect x="16" y="24" width="2" height="6" style="fill:#fbe50f;" />
      <rect x="20" y="28" width="4" height="2" style="fill:#fbe50f;" />
      <rect x="18" y="48" width="168" height="2" style="fill:#fbe50f;" />
      <path d="M22,44l-8,0l0,-4l6,0l0,2l2,0l0,2Z" style="fill:#d1d6da;" />
      <path d="M18,18l-4,0l0,-2l2,0l0,-2l2,0l0,-2l34,0l0,2l134,0l0,2l-168,0l0,2Z" style="fill:#fff;" />
    </g>
    <g>
      <g>
        <path d="M32,52l0,-6l2,0l0,-2l2,0l0,-2l6,0l0,2l2,0l0,2l2,0l0,6l-2,0l0,2l-2,0l0,2l-6,0l0,-2l-2,0l0,-2l-2,0Z" />
        <path d="M36,46l0,2l-2,0l0,2l2,0l0,2l2,0l0,2l2,0l0,-2l2,0l0,-2l2,0l0,-2l-2,0l0,-2l-2,0l0,-2l-2,0l0,2l-2,0Z" />
        <path d="M36,50l-2,0l0,-2l2,0l0,-2l2,0l0,-2l2,0l0,2l2,0l0,2l2,0l0,2l-2,0l0,2l-2,0l0,2l-2,0l0,-2l-2,0l0,-2Z" style="fill:#fbe50f;" />
        <rect x="38" y="48" width="2" height="2" />
      </g>
      <g>
        <path d="M148,52l0,-6l2,0l0,-2l2,0l0,-2l6,0l0,2l2,0l0,2l2,0l0,6l-2,0l0,2l-2,0l0,2l-6,0l0,-2l-2,0l0,-2l-2,0Z" />
        <path d="M152,46l0,2l-2,0l0,2l2,0l0,2l2,0l0,2l2,0l0,-2l2,0l0,-2l2,0l0,-2l-2,0l0,-2l-2,0l0,-2l-2,0l0,2l-2,0Z" />
        <path d="M152,50l-2,0l0,-2l2,0l0,-2l2,0l0,-2l2,0l0,2l2,0l0,2l2,0l0,2l-2,0l0,2l-2,0l0,2l-2,0l0,-2l-2,0l0,-2Z" style="fill:#fbe50f;" />
        <rect x="154" y="48" width="2" height="2" />
      </g>
      <g>
        <path d="M166,52l0,-6l2,0l0,-2l2,0l0,-2l6,0l0,2l2,0l0,2l2,0l0,6l-2,0l0,2l-2,0l0,2l-6,0l0,-2l-2,0l0,-2l-2,0Z" />
        <path d="M170,46l0,2l-2,0l0,2l2,0l0,2l2,0l0,2l2,0l0,-2l2,0l0,-2l2,0l0,-2l-2,0l0,-2l-2,0l0,-2l-2,0l0,2l-2,0Z" />
        <path d="M170,50l-2,0l0,-2l2,0l0,-2l2,0l0,-2l2,0l0,2l2,0l0,2l2,0l0,2l-2,0l0,2l-2,0l0,2l-2,0l0,-2l-2,0l0,-2Z" style="fill:#fbe50f;" />
        <rect x="172" y="48" width="2" height="2" />
      </g>
    </g>
  </g>
  <metadata>
    <rdf:RDF>
      <cc:Work rdf:about="">
        <cc:License rdf:resource="http://creativecommons.org/licenses/by-sa/4.0/" />
        <dc:right>
          <cc:Agent>
            <dc:title>CC-BY-SA 4.0 Jugend Hackt</dc:title>
          </cc:Agent>
        </dc:right>
        <dc:title>
          <cc:Agent>
            <dc:title>Pixelhack</dc:title>
          </cc:Agent>
        </dc:title>
        <dc:contributor>
          <cc:Agent>
            <dc:title>Hanno Sternberg</dc:title>
          </cc:Agent>
        </dc:contributor>
        <dc:creator>
          <cc:Agent>
            <dc:title>Jugend Hackt</dc:title>
          </cc:Agent>
        </dc:creator>
        <dc:date>
          <cc:Agent>
            <dc:title>2013</dc:title>
          </cc:Agent>
        </dc:date>
      </cc:Work>
      <cc:License rdf:about="http://creativecommons.org/licenses/by-sa/4.0/">
        <cc:permits rdf:resource="http://creativecommons.org/ns#DerivativeWorks" />
        <cc:requires rdf:resource="http://creativecommons.org/ns#ShareAlike" />
      </cc:License>
    </rdf:RDF>
  </metadata>
</svg>