<?xml version="1.0" encoding="UTF-8" standalone="no"?>
<!DOCTYPE svg PUBLIC "-//W3C//DTD SVG 1.1//EN" "http://www.w3.org/Graphics/SVG/1.1/DTD/svg11.dtd">
<svg xmlns="http://www.w3.org/2000/svg" width="100%" height="100%" viewBox="0 0 64 64" version="1.1" xml:space="preserve" style="fill-rule:evenodd;clip-rule:evenodd;stroke-linejoin:round;stroke-miterlimit:2;" xmlns:rdf="http://www.w3.org/1999/02/22-rdf-syntax-ns" xmlns:cc="http://creativecommons.org/ns" xmlns:dc="http://purl.org/dc/elements/1.1/">
  <g>
    <path d="M14,34l-4,0l0,-10l4,0l0,-2l2,0l0,-2l2,0l0,-2l2,0l0,-2l2,0l0,-2l2,0l0,-4l6,0l0,4l-2,0l0,2l-2,0l0,2l-2,0l0,2l-2,0l0,2l2,0l0,-2l2,0l0,-2l2,0l0,-2l2,0l0,-2l4,0l0,2l2,0l0,2l2,0l0,2l2,0l0,2l2,0l0,-2l-2,0l0,-2l-2,0l0,-2l-2,0l0,-2l-2,0l0,-4l6,0l0,4l2,0l0,2l2,0l0,2l2,0l0,2l2,0l0,2l2,0l0,2l2,0l0,10l-2,0l0,2l-4,0l0,4l-2,0l0,2l-4,0l0,4l-2,0l0,-2l-2,0l0,2l-2,0l0,2l-4,0l0,-2l-2,0l0,-2l-2,0l0,2l-2,0l0,-4l-4,0l0,-2l-2,0l0,-4l-4,0l0,-2Zm24,12l0,2l-2,0l0,-2l2,0Zm0,2l2,0l0,2l-2,0l0,-2Zm0,2l0,2l-2,0l0,-2l2,0Zm0,2l2,0l0,2l-2,0l0,-2Zm2,2l2,0l0,2l-2,0l0,-2Zm2,2l2,0l0,2l-2,0l0,-2Zm0,2l0,2l-2,0l0,-2l2,0Zm-2,0l-2,0l0,-2l2,0l0,2Zm-2,0l0,2l-2,0l0,-2l2,0Zm-2,0l-2,0l0,-2l2,0l0,2Zm-2,0l0,2l-4,0l0,-2l4,0Zm-4,0l-2,0l0,-2l2,0l0,2Zm-2,0l0,2l-2,0l0,-2l2,0Zm-2,0l-2,0l0,-2l2,0l0,2Zm-2,0l0,2l-2,0l0,-2l2,0Zm-2,0l-2,0l0,-2l2,0l0,2Zm0,-2l0,-2l2,0l0,2l-2,0Zm2,-2l0,-2l2,0l0,2l-2,0Zm2,-2l0,-2l2,0l0,2l-2,0Zm0,-2l-2,0l0,-2l2,0l0,2Zm0,-2l0,-2l2,0l0,2l-2,0Zm-4,-22l-2,0l0,2l2,0l0,-2Zm12,12l-4,0l0,2l4,0l0,-2Zm10,-12l-2,0l0,2l2,0l0,-2Zm-2,8l0,-4l-6,0l0,4l6,0Zm-20,0l6,0l0,-4l-6,0l0,4Zm14,14l0,2l-2,0l0,-2l2,0Zm0,4l0,2l-2,0l0,-2l2,0Zm0,2l2,0l0,2l-2,0l0,-2Zm-2,-4l0,2l-4,0l0,-2l4,0Zm0,6l-4,0l0,-2l4,0l0,2Zm-6,0l-2,0l0,-2l2,0l0,2Zm2,-2l-2,0l0,-2l2,0l0,2Zm-2,-4l0,-2l2,0l0,2l-2,0Zm-10,4l-2,0l0,-2l2,0l0,2Zm30,-2l0,-2l2,0l0,2l-2,0Zm-2,2l0,-2l2,0l0,2l-2,0Zm-26,2l-2,0l0,-2l2,0l0,2Zm24,0l0,-2l2,0l0,2l-2,0Zm-28,-4l-2,0l0,-2l2,0l0,2Z" style="fill:#10498c;" />
    <path d="M28,16l0,-2l2,0l0,2l-2,0Zm10,2l2,0l0,2l-2,0l0,-2Zm-14,2l0,-2l2,0l0,2l-2,0Zm0,0l0,2l-2,0l0,-2l2,0Zm10,-6l2,0l0,2l-2,0l0,-2Zm-4,0l0,-4l4,0l0,4l-4,0Zm-4,4l0,-2l2,0l0,2l-2,0Zm10,-2l2,0l0,2l-2,0l0,-2Zm4,4l2,0l0,2l-2,0l0,-2Zm-24,34l2,0l0,2l-2,0l0,-2Zm0,0l-2,0l0,-2l2,0l0,2Zm4,4l2,0l0,2l-2,0l0,-2Zm-2,-2l2,0l0,2l-2,0l0,-2Zm4,2l0,-2l2,0l0,2l-2,0Zm2,-2l0,-2l2,0l0,2l-2,0Zm2,-2l0,-2l2,0l0,2l-2,0Zm0,-2l-2,0l0,-2l2,0l0,2Zm0,-2l0,-2l2,0l0,2l-2,0Zm0,-2l-2,0l0,-2l2,0l0,2Zm0,-2l0,-2l2,0l0,2l-2,0Zm2,0l2,0l0,2l-2,0l0,-2Zm2,2l4,0l0,2l-4,0l0,-2Zm4,0l0,-2l2,0l0,2l-2,0Zm2,-2l0,-2l2,0l0,2l-2,0Zm2,0l2,0l0,2l-2,0l0,-2Zm0,2l0,2l-2,0l0,-2l2,0Zm0,2l2,0l0,2l-2,0l0,-2Zm0,2l0,2l-2,0l0,-2l2,0Zm0,2l2,0l0,2l-2,0l0,-2Zm2,2l2,0l0,2l-2,0l0,-2Zm2,0l0,-2l2,0l0,2l-2,0Zm2,-2l0,-2l2,0l0,2l-2,0Zm2,-2l0,-2l2,0l0,2l-2,0Zm2,0l2,0l0,2l-2,0l0,-2Zm0,2l0,2l-2,0l0,-2l2,0Zm-2,2l0,2l-2,0l0,-2l2,0Zm-2,2l0,2l-2,0l0,-2l2,0Zm-4,0l0,2l-2,0l0,-2l2,0Zm-2,0l-2,0l0,-2l2,0l0,2Zm-2,0l0,2l-2,0l0,-2l2,0Zm-2,0l-4,0l0,-2l4,0l0,2Zm-4,0l0,2l-2,0l0,-2l2,0Zm-2,0l-2,0l0,-2l2,0l0,2Zm-2,0l0,2l-2,0l0,-2l2,0Zm2,-2l0,-2l2,0l0,2l-2,0Zm0,-4l0,-2l2,0l0,2l-2,0Zm2,2l0,-2l4,0l0,2l-4,0Zm4,-4l2,0l0,2l-2,0l0,-2Zm2,4l0,2l-2,0l0,-2l2,0Zm-2,-16l0,2l-4,0l0,-2l4,0Z" style="fill:#fff;" />
    <path d="M22,26l0,2l-2,0l0,-2l2,0Zm22,0l0,2l-2,0l0,-2l2,0Zm-16,4l0,4l-6,0l0,-4l6,0Zm14,0l0,4l-6,0l0,-4l6,0Z" />
  </g>
  <g>
    <g>
      <path d="M-36,40l-28,0l0,-4l4,0l0,-4l4,0l0,4l16,0l0,-4l4,0l0,8Zm-20,-8l0,-4l4,0l0,4l-4,0Zm4,-4l0,-4l4,0l0,4l-4,0Zm4,-4l0,-4l12,0l0,4l-12,0Zm12,0l28,0l0,4l-24,0l0,4l-4,0l0,-8Zm28,4l4,0l0,4l-4,0l0,-4Zm4,4l4,0l0,12l-4,0l0,-2l-4,0l0,2l-4,0l0,-2l-4,0l0,2l-4,0l0,-2l-4,0l0,2l-4,0l0,-2l-4,0l0,2l-4,0l0,-4l4,0l0,-2l4,0l0,2l4,0l0,-2l4,0l0,2l4,0l0,-2l4,0l0,2l4,0l0,-2l4,0l0,-6Zm-42,-2l0,4l-4,0l0,-4l4,0Z" />
    </g>
  </g>
  <metadata>
    <rdf:RDF>
      <cc:Work rdf:about="">
        <cc:License rdf:resource="http://creativecommons.org/licenses/by-sa/4.0/" />
        <dc:right>
          <cc:Agent>
            <dc:title>CC-BY-SA 4.0 Jugend Hackt</dc:title>
          </cc:Agent>
        </dc:right>
        <dc:title>
          <cc:Agent>
            <dc:title>Pixelhack</dc:title>
          </cc:Agent>
        </dc:title>
        <dc:contributor>
          <cc:Agent>
            <dc:title>Hanno Sternberg</dc:title>
          </cc:Agent>
        </dc:contributor>
        <dc:creator>
          <cc:Agent>
            <dc:title>Jugend Hackt</dc:title>
          </cc:Agent>
        </dc:creator>
        <dc:date>
          <cc:Agent>
            <dc:title>2013</dc:title>
          </cc:Agent>
        </dc:date>
      </cc:Work>
      <cc:License rdf:about="http://creativecommons.org/licenses/by-sa/4.0/">
        <cc:permits rdf:resource="http://creativecommons.org/ns#DerivativeWorks" />
        <cc:requires rdf:resource="http://creativecommons.org/ns#ShareAlike" />
      </cc:License>
    </rdf:RDF>
  </metadata>
</svg>