<?xml version="1.0" encoding="UTF-8" standalone="no"?>
<!DOCTYPE svg PUBLIC "-//W3C//DTD SVG 1.1//EN" "http://www.w3.org/Graphics/SVG/1.1/DTD/svg11.dtd">
<svg xmlns="http://www.w3.org/2000/svg" width="100%" height="100%" viewBox="0 0 64 96" version="1.1" xml:space="preserve" style="fill-rule:evenodd;clip-rule:evenodd;stroke-linejoin:round;stroke-miterlimit:2;" xmlns:rdf="http://www.w3.org/1999/02/22-rdf-syntax-ns" xmlns:cc="http://creativecommons.org/ns" xmlns:dc="http://purl.org/dc/elements/1.1/">
  <g>
    <path d="M4,60l0,-14l4,0l0,-6l2,0l0,12l-2,0l0,-4l-2,0l0,12l-2,0Zm6,-20l0,-4l2,0l0,4l-2,0Zm2,-4l0,-4l2,0l0,4l-2,0Zm2,-4l0,-18l2,0l0,16l30,0l0,-16l2,0l0,18l-34,0Zm2,-18l0,-2l30,0l0,2l-30,0Zm32,18l2,0l0,4l-2,0l0,-4Zm2,4l2,0l0,8l-30,0l0,12l2,0l0,2l-2,0l0,2l-2,0l0,-20l2,0l0,2l28,0l0,-6Zm-26,20l0,-2l2,0l0,2l-2,0Zm2,0l2,0l0,4l-2,0l0,-4Zm0,4l0,4l-2,0l0,-4l2,0Zm-2,4l0,4l-2,0l0,-4l2,0Zm-2,4l0,8l-14,0l0,-10l2,0l0,8l10,0l0,-6l2,0Zm-14,-2l-2,0l0,-6l2,0l0,6Zm12,-26l-2,0l0,-2l2,0l0,2Zm-2,0l0,12l-2,0l0,-12l2,0Zm-2,0l-2,0l0,-2l2,0l0,2Zm-2,0l0,12l-2,0l0,-12l2,0Zm8,0l0,-2l18,0l0,2l-18,0Zm12,-6l0,2l-2,0l0,-2l2,0Zm12,0l0,2l-2,0l0,-2l2,0Zm-2,4l0,2l-2,0l0,-2l2,0Zm-14,-4l0,2l-2,0l0,-2l2,0Zm-4,0l0,2l-2,0l0,-2l2,0Zm-4,0l0,2l-2,0l0,-2l2,0Zm26,4l0,2l-2,0l0,-2l2,0Zm-6,-4l0,2l-2,0l0,-2l2,0Zm-24,0l0,2l-2,0l0,-2l2,0Zm20,0l0,2l-2,0l0,-2l2,0Zm-6,30l-2,0l0,-4l2,0l0,4Zm0,-4l0,-2l2,0l0,2l-2,0Zm2,0l2,0l0,-8l2,0l0,12l-2,0l0,-2l-2,0l0,-2Zm2,-8l-2,0l0,-4l2,0l0,4Zm0,-4l0,-2l2,0l0,2l-2,0Zm2,0l2,0l0,2l-2,0l0,-2Zm2,2l2,0l0,2l10,0l0,2l-2,0l0,6l-2,0l0,-6l-2,0l0,6l-2,0l0,-6l-2,0l0,6l-2,0l0,-10Zm12,4l2,0l0,8l-2,0l0,-8Zm2,8l2,0l0,10l-2,0l0,-10Zm2,10l2,0l0,2l-2,0l0,-2Zm2,2l2,0l0,2l-2,0l0,-2Zm2,2l2,0l0,2l-2,0l0,-2Zm0,2l0,2l-2,0l0,-2l2,0Zm-2,2l0,2l-2,0l0,-2l2,0Zm-2,2l0,2l-2,0l0,-2l2,0Zm-2,2l0,2l-6,0l0,-2l6,0Zm-6,0l-2,0l0,-2l2,0l0,2Zm-2,-2l-2,0l0,-4l2,0l0,4Zm-2,-4l-2,0l0,-2l2,0l0,2Zm-2,-2l-4,0l0,-2l4,0l0,2Zm-4,-2l-4,0l0,-6l2,0l0,4l2,0l0,2Zm-4,-6l-2,0l0,-4l2,0l0,4Z" />
    <rect x="16" y="14" width="30" height="16" style="fill:#16a6de;" />
    <path d="M14,38l0,2l-2,0l0,-4l2,0l0,-4l34,0l0,4l2,0l0,6l-28,0l0,-2l18,0l0,-2l-18,0l0,2l-2,0l0,-2l-2,0l0,2l-2,0l0,-2l-2,0Zm2,-4l0,2l2,0l0,-2l-2,0Zm30,0l-2,0l0,2l2,0l0,-2Zm-4,0l-2,0l0,2l2,0l0,-2Zm-4,0l-2,0l0,2l2,0l0,-2Zm-4,0l-2,0l0,2l2,0l0,-2Zm-4,0l-2,0l0,2l2,0l0,-2Zm-4,0l-2,0l0,2l2,0l0,-2Zm-4,0l-2,0l0,2l2,0l0,-2Zm26,4l-2,0l0,2l2,0l0,-2Zm-4,2l0,-2l-2,0l0,2l2,0Z" style="fill:#fbe50f;" />
    <path d="M6,66l2,0l0,10l-2,0l0,-10Zm-2,-6l-2,0l0,-14l2,0l0,14Zm0,0l2,0l0,6l-2,0l0,-6Zm38,18l2,0l0,4l-2,0l0,-4Zm2,4l2,0l0,2l-2,0l0,-2Zm-10,-8l4,0l0,2l-4,0l0,-2Zm-2,-6l2,0l0,6l-2,0l0,-6Zm-2,-4l-2,0l0,-4l2,0l0,4Zm18,22l6,0l0,2l-6,0l0,-2Zm-2,-2l2,0l0,2l-2,0l0,-2Zm-8,-8l4,0l0,2l-4,0l0,-2Zm-8,-16l0,-2l2,0l0,2l-2,0Zm0,4l2,0l0,4l-2,0l0,-4Zm-22,-24l0,6l-2,0l0,-6l2,0Z" style="fill:#52575b;" />
    <path d="M8,60l-2,0l0,-12l2,0l0,4l2,0l0,-12l2,0l0,12l2,0l0,-12l2,0l0,12l2,0l0,-12l2,0l0,20l2,0l0,-2l2,0l0,-2l2,0l0,4l-2,0l0,4l-2,0l0,4l-2,0l0,6l-10,0l0,-8l-2,0l0,-6Zm26,4l-2,0l0,-4l2,0l0,2l2,0l0,2l2,0l0,-12l-2,0l0,-4l2,0l0,2l2,0l0,10l2,0l0,-6l2,0l0,6l2,0l0,-6l2,0l0,6l2,0l0,-6l2,0l0,8l2,0l0,10l2,0l0,2l2,0l0,2l2,0l0,2l-2,0l0,2l-2,0l0,2l-2,0l0,2l-6,0l0,-2l-2,0l0,-4l-2,0l0,-2l-2,0l0,-2l-4,0l0,-2l-2,0l0,-4l-2,0l0,-4Z" style="fill:#fff;" />
  </g>
  <metadata>
    <rdf:RDF>
      <cc:Work rdf:about="">
        <cc:License rdf:resource="http://creativecommons.org/licenses/by-sa/4.0/" />
        <dc:right>
          <cc:Agent>
            <dc:title>CC-BY-SA 4.0 Jugend Hackt</dc:title>
          </cc:Agent>
        </dc:right>
        <dc:title>
          <cc:Agent>
            <dc:title>Pixelhack</dc:title>
          </cc:Agent>
        </dc:title>
        <dc:contributor>
          <cc:Agent>
            <dc:title>Hanno Sternberg</dc:title>
          </cc:Agent>
        </dc:contributor>
        <dc:creator>
          <cc:Agent>
            <dc:title>Jugend Hackt</dc:title>
          </cc:Agent>
        </dc:creator>
        <dc:date>
          <cc:Agent>
            <dc:title>2013</dc:title>
          </cc:Agent>
        </dc:date>
      </cc:Work>
      <cc:License rdf:about="http://creativecommons.org/licenses/by-sa/4.0/">
        <cc:permits rdf:resource="http://creativecommons.org/ns#DerivativeWorks" />
        <cc:requires rdf:resource="http://creativecommons.org/ns#ShareAlike" />
      </cc:License>
    </rdf:RDF>
  </metadata>
</svg>