<?xml version="1.0" encoding="UTF-8" standalone="no"?>
<!DOCTYPE svg PUBLIC "-//W3C//DTD SVG 1.1//EN" "http://www.w3.org/Graphics/SVG/1.1/DTD/svg11.dtd">
<svg xmlns="http://www.w3.org/2000/svg" xmlns:serif="http://www.serif.com/" width="100%" height="100%" viewBox="0 0 64 64" version="1.1" xml:space="preserve" style="fill-rule:evenodd;clip-rule:evenodd;stroke-linejoin:round;stroke-miterlimit:2;" xmlns:rdf="http://www.w3.org/1999/02/22-rdf-syntax-ns" xmlns:cc="http://creativecommons.org/ns" xmlns:dc="http://purl.org/dc/elements/1.1/">
  <g id="Eyes--right-" serif:id="Eyes (right)">
    <path d="M4,32l0,-6l24,0l0,4l6,0l0,-4l24,0l0,6l-2,0l0,8l-2,0l0,2l-2,0l0,2l-14,0l0,-2l-2,0l0,-2l-2,0l0,-4l-2,0l0,-2l-2,0l0,2l-2,0l0,4l-2,0l0,2l-2,0l0,2l-14,0l0,-2l-2,0l0,-2l-2,0l0,-8l-2,0Zm22,-2l-18,0l0,8l2,0l0,2l2,0l0,2l10,0l0,-2l2,0l0,-2l2,0l0,-8Zm10,0l0,8l2,0l0,2l2,0l0,2l10,0l0,-2l2,0l0,-2l2,0l0,-8l-18,0Z" />
    <path d="M8,38l0,-8l18,0l0,8l-2,0l0,2l-2,0l0,2l-10,0l0,-2l-2,0l0,-2l-2,0Zm16,-6l-8,0l0,4l8,0l0,-4Zm12,6l0,-8l18,0l0,8l-2,0l0,2l-2,0l0,2l-10,0l0,-2l-2,0l0,-2l-2,0Zm16,-6l-8,0l0,4l8,0l0,-4Z" style="fill:#d1d6da;" />
    <path d="M20,32l0,4l-4,0l0,-4l4,0Zm28,0l0,4l-4,0l0,-4l4,0Z" style="fill:#fff;" />
    <path d="M24,32l0,4l-4,0l0,-4l4,0Zm28,0l0,4l-4,0l0,-4l4,0Z" style="fill:#16a6de;" />
  </g>
  <metadata>
    <rdf:RDF>
      <cc:Work rdf:about="">
        <cc:License rdf:resource="http://creativecommons.org/licenses/by-sa/4.0/" />
        <dc:right>
          <cc:Agent>
            <dc:title>CC-BY-SA 4.0 Jugend Hackt</dc:title>
          </cc:Agent>
        </dc:right>
        <dc:title>
          <cc:Agent>
            <dc:title>Pixelhack</dc:title>
          </cc:Agent>
        </dc:title>
        <dc:contributor>
          <cc:Agent>
            <dc:title>Hanno Sternberg</dc:title>
          </cc:Agent>
        </dc:contributor>
        <dc:creator>
          <cc:Agent>
            <dc:title>Jugend Hackt</dc:title>
          </cc:Agent>
        </dc:creator>
        <dc:date>
          <cc:Agent>
            <dc:title>2013</dc:title>
          </cc:Agent>
        </dc:date>
      </cc:Work>
      <cc:License rdf:about="http://creativecommons.org/licenses/by-sa/4.0/">
        <cc:permits rdf:resource="http://creativecommons.org/ns#DerivativeWorks" />
        <cc:requires rdf:resource="http://creativecommons.org/ns#ShareAlike" />
      </cc:License>
    </rdf:RDF>
  </metadata>
</svg>