<?xml version="1.0" encoding="UTF-8" standalone="no"?>
<!DOCTYPE svg PUBLIC "-//W3C//DTD SVG 1.1//EN" "http://www.w3.org/Graphics/SVG/1.1/DTD/svg11.dtd">
<svg xmlns="http://www.w3.org/2000/svg" width="100%" height="100%" viewBox="0 0 64 128" version="1.1" xml:space="preserve" style="fill-rule:evenodd;clip-rule:evenodd;stroke-linejoin:round;stroke-miterlimit:2;" xmlns:rdf="http://www.w3.org/1999/02/22-rdf-syntax-ns" xmlns:cc="http://creativecommons.org/ns" xmlns:dc="http://purl.org/dc/elements/1.1/">
  <g id="Monster">
    <g>
      <path d="M42,22l0,2l-6,0l0,-2l4,0l0,-2l10,0l0,2l4,0l0,22l-4,0l0,2l-10,0l0,-2l-4,0l0,-2l6,0l0,2l6,0l0,-2l4,0l0,-18l-4,0l0,-2l-6,0Z" />
      <rect x="36" y="24" width="2" height="18" style="fill:#10498c;" />
      <path d="M42,42l-4,0l0,-18l4,0l0,-2l6,0l0,2l4,0l0,18l-4,0l0,2l-6,0l0,-2Z" style="fill:#fff;" />
      <rect x="42" y="34" width="6" height="6" />
      <rect x="44" y="36" width="2" height="2" style="fill:#fff;" />
      <rect x="42" y="26" width="6" height="8" style="fill:#10498c;" />
    </g>
    <g>
      <path d="M16,26l-2,0l0,-2l10,0l0,2l-2,0l0,4l2,0l0,2l-2,0l0,4l2,0l0,2l-2,0l0,4l2,0l0,2l-2,0l0,4l2,0l0,2l-2,0l0,4l2,0l0,2l-2,0l0,4l2,0l0,2l-2,0l0,4l2,0l0,2l-2,0l0,4l2,0l0,2l-2,0l0,4l2,0l0,2l-2,0l0,4l2,0l0,2l-2,0l0,4l2,0l0,2l-2,0l0,4l2,0l0,2l-2,0l0,4l2,0l0,2l-10,0l0,-2l2,0l0,-4l-2,0l0,-2l2,0l0,-4l-2,0l0,-2l2,0l0,-4l-2,0l0,-2l2,0l0,-4l-2,0l0,-2l2,0l0,-4l-2,0l0,-2l2,0l0,-4l-2,0l0,-2l2,0l0,-4l-2,0l0,-2l2,0l0,-4l-2,0l0,-2l2,0l0,-4l-2,0l0,-2l2,0l0,-4l-2,0l0,-2l2,0l0,-4l-2,0l0,-2l2,0l0,-4l-2,0l0,-2l2,0l0,-4Z" />
      <path d="M14,104l-2,0l0,-80l2,0l0,80Zm0,-80l0,-2l10,0l0,2l-10,0Zm10,0l2,0l0,80l-2,0l0,-80Zm0,80l0,2l-10,0l0,-2l10,0Z" style="fill:#00b48d;" />
      <path d="M16,26l0,4l-2,0l0,-4l2,0Zm8,0l0,4l-2,0l0,-4l2,0Zm-8,6l0,4l-2,0l0,-4l2,0Zm8,0l0,4l-2,0l0,-4l2,0Zm-8,6l0,4l-2,0l0,-4l2,0Zm8,0l0,4l-2,0l0,-4l2,0Zm-8,6l0,4l-2,0l0,-4l2,0Zm8,0l0,4l-2,0l0,-4l2,0Zm-8,6l0,4l-2,0l0,-4l2,0Zm8,0l0,4l-2,0l0,-4l2,0Zm-8,6l0,4l-2,0l0,-4l2,0Zm8,0l0,4l-2,0l0,-4l2,0Zm-8,6l0,4l-2,0l0,-4l2,0Zm8,0l0,4l-2,0l0,-4l2,0Zm-8,6l0,4l-2,0l0,-4l2,0Zm8,0l0,4l-2,0l0,-4l2,0Zm-8,6l0,4l-2,0l0,-4l2,0Zm8,0l0,4l-2,0l0,-4l2,0Zm-8,6l0,4l-2,0l0,-4l2,0Zm8,0l0,4l-2,0l0,-4l2,0Zm-8,6l0,4l-2,0l0,-4l2,0Zm8,0l0,4l-2,0l0,-4l2,0Zm-8,6l0,4l-2,0l0,-4l2,0Zm8,0l0,4l-2,0l0,-4l2,0Zm-8,6l0,4l-2,0l0,-4l2,0Zm8,0l0,4l-2,0l0,-4l2,0Z" style="fill:#fff;" />
    </g>
    <g>
      <path d="M42,54l0,2l-6,0l0,-2l4,0l0,-2l10,0l0,2l4,0l0,22l-4,0l0,2l-10,0l0,-2l-4,0l0,-2l6,0l0,2l6,0l0,-2l4,0l0,-18l-4,0l0,-2l-6,0Z" />
      <path d="M42,74l-4,0l0,-18l4,0l0,-2l6,0l0,2l4,0l0,18l-4,0l0,2l-6,0l0,-2Z" style="fill:#fff;" />
      <rect x="42" y="62" width="6" height="6" />
      <rect x="44" y="64" width="2" height="2" style="fill:#fff;" />
      <rect x="36" y="56" width="2" height="18" style="fill:#10498c;" />
      <rect x="42" y="58" width="6" height="4" style="fill:#10498c;" />
      <rect x="42" y="68" width="6" height="4" style="fill:#10498c;" />
    </g>
    <g>
      <path d="M42,86l0,2l-6,0l0,-2l4,0l0,-2l10,0l0,2l4,0l0,22l-4,0l0,2l-10,0l0,-2l-4,0l0,-2l6,0l0,2l6,0l0,-2l4,0l0,-18l-4,0l0,-2l-6,0Z" />
      <rect x="36" y="88" width="2" height="18" style="fill:#10498c;" />
      <path d="M42,106l-4,0l0,-18l4,0l0,-2l6,0l0,2l4,0l0,18l-4,0l0,2l-6,0l0,-2Z" style="fill:#fff;" />
      <rect x="42" y="90" width="6" height="6" />
      <rect x="44" y="92" width="2" height="2" style="fill:#fff;" />
      <rect x="42" y="96" width="6" height="8" style="fill:#10498c;" />
    </g>
    <g>
      <path d="M20,6l0,8l-4,0l0,-8l4,0Zm-12,8l0,102l-4,0l0,-102l4,0Zm12,102l0,8l-4,0l0,-8l4,0Z" />
      <path d="M8,116l0,-102l12,0l0,-8l30,0l0,8l12,0l0,102l-12,0l0,8l-30,0l0,-8l-12,0Zm16,-94l-10,0l0,2l-2,0l0,80l2,0l0,2l10,0l0,-2l2,0l0,-80l-2,0l0,-2Zm26,-2l-10,0l0,2l-4,0l0,22l4,0l0,2l10,0l0,-2l4,0l0,-22l-4,0l0,-2Zm4,88l0,-22l-4,0l0,-2l-10,0l0,2l-4,0l0,22l4,0l0,2l10,0l0,-2l4,0Zm0,-32l0,-22l-4,0l0,-2l-10,0l0,2l-4,0l0,22l4,0l0,2l10,0l0,-2l4,0Z" style="fill:#16a6de;" />
    </g>
  </g>
  <g id="Wrestler">
    <path d="M68,86l-4,0l0,-60l4,0l0,-4l4,0l0,-4l4,0l0,-4l4,0l0,-4l32,0l0,4l4,0l0,4l4,0l0,4l4,0l0,4l4,0l0,60l-4,0l0,4l-4,0l0,4l-8,0l0,8l-4,0l0,4l-24,0l0,-4l-4,0l0,-8l-8,0l0,-4l-4,0l0,-4Zm0,-48l0,16l4,0l0,4l4,0l0,4l12,0l0,8l-8,0l0,16l32,0l0,-16l-8,0l0,-8l12,0l0,-4l4,0l0,-4l4,0l0,-16l-24,0l0,4l-8,0l0,-4l-24,0Zm32,24l0,4l-8,0l0,-4l8,0Z" style="fill:#16a6de;" />
  </g>
  <metadata>
    <rdf:RDF>
      <cc:Work rdf:about="">
        <cc:License rdf:resource="http://creativecommons.org/licenses/by-sa/4.0/" />
        <dc:right>
          <cc:Agent>
            <dc:title>CC-BY-SA 4.0 Jugend Hackt</dc:title>
          </cc:Agent>
        </dc:right>
        <dc:title>
          <cc:Agent>
            <dc:title>Pixelhack</dc:title>
          </cc:Agent>
        </dc:title>
        <dc:contributor>
          <cc:Agent>
            <dc:title>Hanno Sternberg</dc:title>
          </cc:Agent>
        </dc:contributor>
        <dc:creator>
          <cc:Agent>
            <dc:title>Jugend Hackt</dc:title>
          </cc:Agent>
        </dc:creator>
        <dc:date>
          <cc:Agent>
            <dc:title>2013</dc:title>
          </cc:Agent>
        </dc:date>
      </cc:Work>
      <cc:License rdf:about="http://creativecommons.org/licenses/by-sa/4.0/">
        <cc:permits rdf:resource="http://creativecommons.org/ns#DerivativeWorks" />
        <cc:requires rdf:resource="http://creativecommons.org/ns#ShareAlike" />
      </cc:License>
    </rdf:RDF>
  </metadata>
</svg>