<?xml version="1.0" encoding="UTF-8" standalone="no"?>
<!DOCTYPE svg PUBLIC "-//W3C//DTD SVG 1.1//EN" "http://www.w3.org/Graphics/SVG/1.1/DTD/svg11.dtd">
<svg xmlns="http://www.w3.org/2000/svg" width="100%" height="100%" viewBox="0 0 64 32" version="1.1" xml:space="preserve" style="fill-rule:evenodd;clip-rule:evenodd;stroke-linejoin:round;stroke-miterlimit:2;" xmlns:rdf="http://www.w3.org/1999/02/22-rdf-syntax-ns" xmlns:cc="http://creativecommons.org/ns" xmlns:dc="http://purl.org/dc/elements/1.1/">
  <g id="PCB">
    <g>
      <path d="M10,18l-2,0l0,-16l44,0l0,2l2,0l0,2l2,0l0,2l2,0l0,2l2,0l0,14l-46,0l0,-2l-2,0l0,-2l-2,0l0,-2Z" style="fill:#ff3b8d;" />
      <path d="M10,20l-2,0l0,-2l2,0l0,2Zm0,0l2,0l0,2l-2,0l0,-2Zm4,4l46,0l0,2l-46,0l0,-2Zm-2,-2l2,0l0,2l-2,0l0,-2Z" style="fill:#ca006a;" />
      <g>
        <rect x="18" y="24" width="2" height="2" style="fill:#f3971a;" />
        <path d="M16,20l-2,0l0,-6l2,0l0,-2l6,0l0,2l2,0l0,6l-2,0l0,2l-2,0l0,2l-2,0l0,-2l-2,0l0,-2Z" style="fill:#fcd009;" />
        <path d="M46,20l-2,0l0,-6l2,0l0,-2l6,0l0,2l2,0l0,2l6,0l0,2l-6,0l0,2l-2,0l0,2l-6,0l0,-2Z" style="fill:#fcd009;" />
        <path d="M18,6l0,4l-10,0l0,-2l8,0l0,-4l32,0l0,-2l2,0l0,4l-32,0Z" style="fill:#fcd009;" />
      </g>
    </g>
    <g>
      <path d="M18,18l-2,0l0,-2l2,0l0,-2l2,0l0,2l2,0l0,2l-2,0l0,2l-2,0l0,-2Zm30,0l-2,0l0,-2l2,0l0,-2l2,0l0,2l2,0l0,2l-2,0l0,2l-2,0l0,-2Z" style="fill:#010001;" />
      <path d="M20,12l0,6l-2,0l0,-6l2,0Zm30,0l0,6l-2,0l0,-6l2,0Z" style="fill:#52575b;" />
      <path d="M22,14l-2,0l0,-4l2,0l0,-2l24,0l0,2l2,0l0,4l-2,0l0,2l-24,0l0,-2Z" style="fill:#e1bb95;" />
      <g>
        <path d="M24,10l-2,0l0,-2l2,0l0,2Zm0,4l0,2l-2,0l0,-2l2,0Zm0,-4l2,0l0,4l-2,0l0,-4Z" style="fill:#e52320;" />
        <path d="M28,10l-2,0l0,-2l2,0l0,2Zm0,4l0,2l-2,0l0,-2l2,0Zm0,-4l2,0l0,4l-2,0l0,-4Z" style="fill:#ea680d;" />
        <path d="M32,10l-2,0l0,-2l2,0l0,2Zm0,4l0,2l-2,0l0,-2l2,0Zm0,-4l2,0l0,4l-2,0l0,-4Z" style="fill:#fbe50f;" />
        <path d="M36,10l-2,0l0,-2l2,0l0,2Zm0,4l0,2l-2,0l0,-2l2,0Zm0,-4l2,0l0,4l-2,0l0,-4Z" style="fill:#09aa24;" />
        <path d="M40,10l-2,0l0,-2l2,0l0,2Zm0,4l0,2l-2,0l0,-2l2,0Zm0,-4l2,0l0,4l-2,0l0,-4Z" style="fill:#10498c;" />
        <path d="M44,10l-2,0l0,-2l2,0l0,2Zm0,4l0,2l-2,0l0,-2l2,0Zm0,-4l2,0l0,4l-2,0l0,-4Z" style="fill:#550080;" />
      </g>
    </g>
  </g>
  <metadata>
    <rdf:RDF>
      <cc:Work rdf:about="">
        <cc:License rdf:resource="http://creativecommons.org/licenses/by-sa/4.0/" />
        <dc:right>
          <cc:Agent>
            <dc:title>CC-BY-SA 4.0 Jugend Hackt</dc:title>
          </cc:Agent>
        </dc:right>
        <dc:title>
          <cc:Agent>
            <dc:title>Pixelhack</dc:title>
          </cc:Agent>
        </dc:title>
        <dc:contributor>
          <cc:Agent>
            <dc:title>Hanno Sternberg</dc:title>
          </cc:Agent>
        </dc:contributor>
        <dc:creator>
          <cc:Agent>
            <dc:title>Jugend Hackt</dc:title>
          </cc:Agent>
        </dc:creator>
        <dc:date>
          <cc:Agent>
            <dc:title>2013</dc:title>
          </cc:Agent>
        </dc:date>
      </cc:Work>
      <cc:License rdf:about="http://creativecommons.org/licenses/by-sa/4.0/">
        <cc:permits rdf:resource="http://creativecommons.org/ns#DerivativeWorks" />
        <cc:requires rdf:resource="http://creativecommons.org/ns#ShareAlike" />
      </cc:License>
    </rdf:RDF>
  </metadata>
</svg>