<?xml version="1.0" encoding="UTF-8" standalone="no"?>
<!DOCTYPE svg PUBLIC "-//W3C//DTD SVG 1.1//EN" "http://www.w3.org/Graphics/SVG/1.1/DTD/svg11.dtd">
<svg xmlns="http://www.w3.org/2000/svg" width="100%" height="100%" viewBox="0 0 64 64" version="1.1" xml:space="preserve" style="fill-rule:evenodd;clip-rule:evenodd;stroke-linejoin:round;stroke-miterlimit:2;" xmlns:rdf="http://www.w3.org/1999/02/22-rdf-syntax-ns" xmlns:cc="http://creativecommons.org/ns" xmlns:dc="http://purl.org/dc/elements/1.1/">
  <g id="Devices">
    <g id="Phone">
      <path d="M30,6l0,2l-12,0l0,-2l12,0Zm16,0l0,2l-12,0l0,-2l12,0Zm2,2l0,42l-32,0l0,-42l32,0Z" style="fill:#10498c;" />
      <rect x="30" y="52" width="4" height="4" style="fill:#52575b;" />
      <path d="M16,58l-2,0l0,-50l2,0l0,42l32,0l0,-42l2,0l0,50l-2,0l0,2l-32,0l0,-2Zm0,-50l0,-2l2,0l0,2l-2,0Zm2,-2l0,-2l28,0l0,2l-12,0l0,2l-4,0l0,-2l-12,0Zm28,0l2,0l0,2l-2,0l0,-2Zm-12,50l0,-4l-4,0l0,4l4,0Z" style="fill:#010001;" />
      <g id="Apps">
        <rect x="18" y="10" width="4" height="4" style="fill:#00b48d;" />
        <rect x="24" y="10" width="4" height="4" style="fill:#09aa24;" />
        <rect x="30" y="10" width="4" height="4" style="fill:#10498c;" />
        <rect x="36" y="10" width="4" height="4" style="fill:#550080;" />
        <rect x="42" y="10" width="4" height="4" style="fill:#f3971a;" />
        <rect x="18" y="16" width="4" height="4" style="fill:#8000ff;" />
        <rect x="24" y="16" width="4" height="4" style="fill:#16a6de;" />
        <rect x="30" y="16" width="4" height="4" style="fill:#e52320;" />
        <rect x="36" y="16" width="4" height="4" style="fill:#e6414a;" />
        <rect x="42" y="16" width="4" height="4" style="fill:#ca006a;" />
        <rect x="18" y="22" width="4" height="4" style="fill:#d1d6da;" />
        <rect x="24" y="22" width="4" height="4" style="fill:#fcd009;" />
        <rect x="30" y="22" width="4" height="4" style="fill:#ea680d;" />
        <rect x="36" y="22" width="4" height="4" style="fill:#f3971a;" />
        <rect x="42" y="22" width="4" height="4" style="fill:#ff3b8d;" />
        <rect x="42" y="28" width="4" height="4" style="fill:#10498c;" />
        <rect x="18" y="28" width="4" height="4" style="fill:#09aa24;" />
        <rect x="24" y="28" width="4" height="4" style="fill:#550080;" />
        <rect x="30" y="28" width="4" height="4" style="fill:#8000ff;" />
        <rect x="36" y="28" width="4" height="4" style="fill:#fbe50f;" />
        <rect x="18" y="34" width="4" height="4" style="fill:#fbe50f;" />
        <rect x="24" y="34" width="4" height="4" style="fill:#ea680d;" />
        <rect x="30" y="34" width="4" height="4" style="fill:#fcd009;" />
        <rect x="36" y="34" width="4" height="4" style="fill:#ca006a;" />
        <rect x="42" y="34" width="4" height="4" style="fill:#00b48d;" />
      </g>
      <g id="quick">
        <rect x="18" y="44" width="4" height="4" style="fill:#e52320;" />
        <rect x="24" y="44" width="4" height="4" style="fill:#ea680d;" />
        <rect x="30" y="44" width="4" height="4" style="fill:#fcd009;" />
        <rect x="36" y="44" width="4" height="4" style="fill:#09aa24;" />
        <rect x="42" y="44" width="4" height="4" style="fill:#16a6de;" />
      </g>
    </g>
  </g>
  <metadata>
    <rdf:RDF>
      <cc:Work rdf:about="">
        <cc:License rdf:resource="http://creativecommons.org/licenses/by-sa/4.0/" />
        <dc:right>
          <cc:Agent>
            <dc:title>CC-BY-SA 4.0 Jugend Hackt</dc:title>
          </cc:Agent>
        </dc:right>
        <dc:title>
          <cc:Agent>
            <dc:title>Pixelhack</dc:title>
          </cc:Agent>
        </dc:title>
        <dc:contributor>
          <cc:Agent>
            <dc:title>Hanno Sternberg</dc:title>
          </cc:Agent>
        </dc:contributor>
        <dc:creator>
          <cc:Agent>
            <dc:title>Jugend Hackt</dc:title>
          </cc:Agent>
        </dc:creator>
        <dc:date>
          <cc:Agent>
            <dc:title>2013</dc:title>
          </cc:Agent>
        </dc:date>
      </cc:Work>
      <cc:License rdf:about="http://creativecommons.org/licenses/by-sa/4.0/">
        <cc:permits rdf:resource="http://creativecommons.org/ns#DerivativeWorks" />
        <cc:requires rdf:resource="http://creativecommons.org/ns#ShareAlike" />
      </cc:License>
    </rdf:RDF>
  </metadata>
</svg>