<?xml version="1.0" encoding="UTF-8" standalone="no"?>
<!DOCTYPE svg PUBLIC "-//W3C//DTD SVG 1.1//EN" "http://www.w3.org/Graphics/SVG/1.1/DTD/svg11.dtd">
<svg xmlns="http://www.w3.org/2000/svg" width="100%" height="100%" viewBox="0 0 32 32" version="1.1" xml:space="preserve" style="fill-rule:evenodd;clip-rule:evenodd;stroke-linejoin:round;stroke-miterlimit:2;" xmlns:rdf="http://www.w3.org/1999/02/22-rdf-syntax-ns" xmlns:cc="http://creativecommons.org/ns" xmlns:dc="http://purl.org/dc/elements/1.1/">
  <g>
    <path d="M16,30l0,2l-2,0l0,-2l2,0Zm-2,0l-2,0l0,-4l2,0l0,4Zm4,-4l0,4l-2,0l0,-4l2,0Zm4,-6l0,4l-2,0l0,-4l2,0Zm-10,6l-2,0l0,-2l2,0l0,2Zm8,-2l0,2l-2,0l0,-2l2,0Zm4,-8l0,4l-2,0l0,-4l2,0Zm2,-4l0,4l-2,0l0,-4l2,0Zm-20,-4l0,4l-2,0l0,-8l2,0l0,2l4,0l0,2l-4,0Zm0,-4l0,-2l4,0l0,2l-4,0Zm4,-2l0,-2l12,0l0,2l-12,0Zm12,0l4,0l0,2l-4,0l0,-2Zm4,2l2,0l0,8l-2,0l0,-2l-2,0l0,-2l-4,0l0,-2l6,0l0,-2Zm-6,2l-4,0l0,-2l4,0l0,2Zm-4,0l0,2l-2,0l0,-2l2,0Zm-2,2l0,2l-4,0l0,-2l4,0Zm-6,8l2,0l0,4l-2,0l0,-4Zm0,0l-2,0l0,-2l2,0l0,2Z" />
    <path d="M10,6l-4,0l0,-2l4,0l0,-2l12,0l0,2l4,0l0,2l-6,0l0,-2l-4,0l0,2l-2,0l0,2l-4,0l0,-2Z" style="fill:#f3971b;" />
    <path d="M14,12l2,0l0,2l2,0l0,2l-2,0l0,4l-2,0l0,-2l-2,0l0,-4l2,0l0,-2Zm2,-4l0,-2l2,0l0,2l-2,0Zm-2,4l-2,0l0,-2l2,0l0,2Zm0,-2l0,-2l2,0l0,2l-2,0Zm10,6l-4,0l0,-2l2,0l0,-2l2,0l0,4Zm0,-4l0,-2l2,0l0,2l-2,0Zm0,-2l-2,0l0,-2l2,0l0,2Zm-10,16l-2,0l0,-2l2,0l0,-2l4,0l0,4l-2,0l0,4l-2,0l0,-4Zm-6,-18l0,2l-2,0l0,-2l2,0Z" style="fill:#fbe50f;" />
    <path d="M8,10l0,2l-2,0l0,-2l2,0Zm0,0l0,-2l2,0l0,2l-2,0Zm6,2l0,2l-2,0l0,-2l2,0Zm0,0l0,-2l2,0l0,2l-2,0Zm4,4l0,-2l2,0l0,2l-2,0Zm0,0l0,2l-2,0l0,-2l2,0Zm-4,6l0,2l-2,0l0,-2l2,0Zm0,0l0,-2l2,0l0,2l-2,0Zm6,-16l0,2l-2,0l0,-2l2,0Zm4,4l0,2l-2,0l0,-2l2,0Zm-12,6l0,2l-2,0l0,-2l2,0Zm8,6l0,2l-2,0l0,-2l2,0Z" style="fill:#fcd009;" />
    <path d="M18,8l0,2l-2,0l0,-2l2,0Zm4,0l0,2l-2,0l0,-2l2,0Zm-10,2l0,2l-2,0l0,-2l2,0Zm6,2l0,2l-2,0l0,-2l2,0Zm4,0l0,2l-2,0l0,-2l2,0Zm-10,2l0,2l-2,0l0,-2l2,0Zm10,2l0,2l-2,0l0,-2l2,0Zm-8,2l0,2l-2,0l0,-2l2,0Zm4,2l0,2l-2,0l0,-2l2,0Z" style="fill:#e6414a;" />
    <path d="M18,12l-2,0l0,-2l2,0l0,-2l2,0l0,2l2,0l0,2l-2,0l0,2l-2,0l0,-2Zm-10,2l-2,0l0,-2l2,0l0,-2l2,0l0,2l2,0l0,2l-2,0l0,2l-2,0l0,-2Zm10,6l-2,0l0,-2l2,0l0,-2l2,0l0,2l2,0l0,2l-2,0l0,2l-2,0l0,-2Zm-8,2l-2,0l0,-2l2,0l0,-2l2,0l0,2l2,0l0,2l-2,0l0,2l-2,0l0,-2Z" style="fill:#e52320;" />
  </g>
  <metadata>
    <rdf:RDF>
      <cc:Work rdf:about="">
        <cc:License rdf:resource="http://creativecommons.org/licenses/by-sa/4.0/" />
        <dc:right>
          <cc:Agent>
            <dc:title>CC-BY-SA 4.0 Jugend Hackt</dc:title>
          </cc:Agent>
        </dc:right>
        <dc:title>
          <cc:Agent>
            <dc:title>Pixelhack</dc:title>
          </cc:Agent>
        </dc:title>
        <dc:contributor>
          <cc:Agent>
            <dc:title>Hanno Sternberg</dc:title>
          </cc:Agent>
        </dc:contributor>
        <dc:creator>
          <cc:Agent>
            <dc:title>Jugend Hackt</dc:title>
          </cc:Agent>
        </dc:creator>
        <dc:date>
          <cc:Agent>
            <dc:title>2013</dc:title>
          </cc:Agent>
        </dc:date>
      </cc:Work>
      <cc:License rdf:about="http://creativecommons.org/licenses/by-sa/4.0/">
        <cc:permits rdf:resource="http://creativecommons.org/ns#DerivativeWorks" />
        <cc:requires rdf:resource="http://creativecommons.org/ns#ShareAlike" />
      </cc:License>
    </rdf:RDF>
  </metadata>
</svg>