<?xml version="1.0" encoding="UTF-8" standalone="no"?>
<!DOCTYPE svg PUBLIC "-//W3C//DTD SVG 1.1//EN" "http://www.w3.org/Graphics/SVG/1.1/DTD/svg11.dtd">
<svg xmlns="http://www.w3.org/2000/svg" xmlns:serif="http://www.serif.com/" width="100%" height="100%" viewBox="0 0 64 64" version="1.1" xml:space="preserve" style="fill-rule:evenodd;clip-rule:evenodd;stroke-linejoin:round;stroke-miterlimit:2;" xmlns:rdf="http://www.w3.org/1999/02/22-rdf-syntax-ns" xmlns:cc="http://creativecommons.org/ns" xmlns:dc="http://purl.org/dc/elements/1.1/">
  <g id="Colorful-Objekts" serif:id="Colorful Objekts">
    <g id="Safety-Vest" serif:id="Safety Vest">
      <g>
        <g>
          <path d="M6,32l0,2l-2,0l0,-12l2,0l0,-4l2,0l0,-4l2,0l0,-4l2,0l0,-6l2,0l0,-2l2,0l0,22l-2,0l0,2l-2,0l0,2l-2,0l0,2l-2,0l0,2l-2,0Zm16,-16l0,2l-2,0l0,-16l2,0l0,4l2,0l0,10l-2,0Z" style="fill:#e52320;" />
          <path d="M40,12l0,-6l2,0l0,-4l2,0l0,8l-2,0l0,2l-2,0Zm0,0l0,2l-2,0l0,-2l2,0Zm-18,20l0,2l-2,0l0,-16l2,0l0,-2l2,0l0,-4l2,0l0,6l2,0l0,4l2,0l0,4l-2,0l0,2l-2,0l0,2l-2,0l0,2l-2,0Zm-6,10l-12,0l0,-8l2,0l0,-2l2,0l0,-2l2,0l0,-2l2,0l0,-2l2,0l0,-2l2,0l0,18Zm-12,10l0,-6l6,0l0,2l-2,0l0,2l-2,0l0,2l-2,0Zm46,-50l0,2l-2,0l0,-2l2,0Z" style="fill:#ea680d;" />
          <path d="M48,16l0,-12l4,0l0,10l-2,0l0,2l-2,0Zm-12,14l0,2l-2,0l0,-10l2,0l0,-4l2,0l0,-4l2,0l0,-2l2,0l0,-2l2,0l0,14l-2,0l0,2l-2,0l0,2l-2,0l0,2l-2,0Zm-8,12l-8,0l0,-8l2,0l0,-2l2,0l0,-2l2,0l0,-2l2,0l0,-2l2,0l0,14l-2,0l0,2Zm-22,12l-2,0l0,-2l2,0l0,-2l2,0l0,-2l2,0l0,-2l14,0l0,2l-2,0l0,2l-2,0l0,2l-2,0l0,2l-2,0l0,4l-8,0l0,-2l-2,0l0,-2Z" style="fill:#fcd009;" />
          <path d="M50,32l0,2l-2,0l0,-18l2,0l0,-2l2,0l0,-4l2,0l0,4l2,0l0,4l2,0l0,6l-2,0l0,4l-2,0l0,2l-2,0l0,2l-2,0Zm-6,10l-10,0l0,-10l2,0l0,-2l2,0l0,-2l2,0l0,-2l2,0l0,-2l2,0l0,18Zm-16,16l-12,0l0,-4l2,0l0,-2l2,0l0,-2l2,0l0,-2l2,0l0,-2l6,0l0,10l-2,0l0,2Zm6,-6l0,-6l6,0l0,2l-2,0l0,2l-2,0l0,2l-2,0Zm-4,-12l0,2l-2,0l0,-2l2,0Z" style="fill:#09aa24;" />
          <path d="M58,42l-10,0l0,-8l2,0l0,-2l2,0l0,-2l2,0l0,-2l2,0l0,-4l2,0l0,-2l2,0l0,18l-2,0l0,2Zm-22,14l-2,0l0,-4l2,0l0,-2l2,0l0,-2l2,0l0,-2l12,0l0,4l-2,0l0,2l-2,0l0,2l-2,0l0,2l-2,0l0,2l-8,0l0,-2Z" style="fill:#10498c;" />
          <path d="M56,58l-12,0l0,-2l2,0l0,-2l2,0l0,-2l2,0l0,-2l2,0l0,-4l8,0l0,8l-2,0l0,2l-2,0l0,2Zm4,-18l0,2l-2,0l0,-2l2,0Z" style="fill:#550080;" />
        </g>
        <path d="M30,46l-26,0l0,-4l12,0l0,-40l4,0l0,40l10,0l0,4Zm30,0l-26,0l0,-4l10,0l0,-40l4,0l0,40l12,0l0,4Z" style="fill:#d1d6da;" />
        <path d="M24,6l-2,0l0,-4l20,0l0,4l-2,0l0,6l-2,0l0,6l-2,0l0,4l-2,0l0,34l-4,0l0,-34l-2,0l0,-4l-2,0l0,-6l-2,0l0,-6Z" style="fill:#5d473d;" />
      </g>
    </g>
  </g>
  <metadata>
    <rdf:RDF>
      <cc:Work rdf:about="">
        <cc:License rdf:resource="http://creativecommons.org/licenses/by-sa/4.0/" />
        <dc:right>
          <cc:Agent>
            <dc:title>CC-BY-SA 4.0 Jugend Hackt</dc:title>
          </cc:Agent>
        </dc:right>
        <dc:title>
          <cc:Agent>
            <dc:title>Pixelhack</dc:title>
          </cc:Agent>
        </dc:title>
        <dc:contributor>
          <cc:Agent>
            <dc:title>Hanno Sternberg</dc:title>
          </cc:Agent>
        </dc:contributor>
        <dc:creator>
          <cc:Agent>
            <dc:title>Jugend Hackt</dc:title>
          </cc:Agent>
        </dc:creator>
        <dc:date>
          <cc:Agent>
            <dc:title>2013</dc:title>
          </cc:Agent>
        </dc:date>
      </cc:Work>
      <cc:License rdf:about="http://creativecommons.org/licenses/by-sa/4.0/">
        <cc:permits rdf:resource="http://creativecommons.org/ns#DerivativeWorks" />
        <cc:requires rdf:resource="http://creativecommons.org/ns#ShareAlike" />
      </cc:License>
    </rdf:RDF>
  </metadata>
</svg>