<?xml version="1.0" encoding="UTF-8" standalone="no"?>
<!DOCTYPE svg PUBLIC "-//W3C//DTD SVG 1.1//EN" "http://www.w3.org/Graphics/SVG/1.1/DTD/svg11.dtd">
<svg xmlns="http://www.w3.org/2000/svg" width="100%" height="100%" viewBox="0 0 64 64" version="1.1" xml:space="preserve" style="fill-rule:evenodd;clip-rule:evenodd;stroke-linejoin:round;stroke-miterlimit:2;" xmlns:rdf="http://www.w3.org/1999/02/22-rdf-syntax-ns" xmlns:cc="http://creativecommons.org/ns" xmlns:dc="http://purl.org/dc/elements/1.1/">
  <g>
    <g>
      <rect x="30" y="46" width="4" height="18" style="fill:#a0673e;" />
      <rect x="30" y="30" width="4" height="16" style="fill:#5d473d;" />
    </g>
    <rect x="30" y="26" width="4" height="4" />
    <g>
      <path d="M38,12l-6,0l0,-10l4,0l0,2l2,0l0,2l2,0l0,2l2,0l0,2l-4,0l0,2Z" style="fill:#09aa24;" />
      <path d="M32,18l0,-6l6,0l0,-2l4,0l0,2l-2,0l0,2l-2,0l0,2l-2,0l0,2l-4,0Z" style="fill:#8000ff;" />
      <path d="M34,26l-2,0l0,-8l4,0l0,-2l2,0l0,-2l2,0l0,-2l2,0l0,-2l2,0l0,16l-2,0l0,2l-8,0l0,-2Z" style="fill:#00b48d;" />
    </g>
    <g>
      <path d="M16,18l-2,0l0,-2l16,0l0,2l2,0l0,8l-2,0l0,2l-8,0l0,-4l-2,0l0,-2l-2,0l0,-2l-2,0l0,-2Z" style="fill:#e6414a;" />
      <path d="M16,28l-12,0l0,-2l2,0l0,-2l2,0l0,-2l2,0l0,-2l2,0l0,-2l2,0l0,4l2,0l0,6Z" style="fill:#e52320;" />
      <path d="M16,22l-2,0l0,-4l2,0l0,2l2,0l0,2l2,0l0,2l2,0l0,4l-6,0l0,-6Z" style="fill:#ca006a;" />
    </g>
    <g>
      <path d="M48,34l0,-6l12,0l0,2l-2,0l0,2l-2,0l0,2l-2,0l0,2l-2,0l0,2l-2,0l0,-4l-2,0Z" style="fill:#ca006a;" />
      <path d="M34,38l-2,0l0,-8l2,0l0,-2l8,0l0,4l2,0l0,2l2,0l0,2l2,0l0,2l2,0l0,2l-16,0l0,-2Z" style="fill:#ff3b8d;" />
      <path d="M44,32l-2,0l0,-4l6,0l0,6l2,0l0,4l-2,0l0,-2l-2,0l0,-2l-2,0l0,-2Z" style="fill:#5d473d;" />
    </g>
    <g>
      <path d="M22,44l0,2l-2,0l0,-16l2,0l0,-2l8,0l0,2l2,0l0,8l-4,0l0,2l-2,0l0,2l-2,0l0,2l-2,0Z" style="fill:#16a6de;" />
      <path d="M26,46l-4,0l0,-2l2,0l0,-2l2,0l0,-2l2,0l0,-2l4,0l0,6l-6,0l0,2Z" style="fill:#550080;" />
      <path d="M24,48l-2,0l0,-2l4,0l0,-2l6,0l0,12l-2,0l0,-2l-2,0l0,-2l-2,0l0,-2l-2,0l0,-2Z" style="fill:#10498c;" />
    </g>
  </g>
  <metadata>
    <rdf:RDF>
      <cc:Work rdf:about="">
        <cc:License rdf:resource="http://creativecommons.org/licenses/by-sa/4.0/" />
        <dc:right>
          <cc:Agent>
            <dc:title>CC-BY-SA 4.0 Jugend Hackt</dc:title>
          </cc:Agent>
        </dc:right>
        <dc:title>
          <cc:Agent>
            <dc:title>Pixelhack</dc:title>
          </cc:Agent>
        </dc:title>
        <dc:contributor>
          <cc:Agent>
            <dc:title>Hanno Sternberg</dc:title>
          </cc:Agent>
        </dc:contributor>
        <dc:creator>
          <cc:Agent>
            <dc:title>Jugend Hackt</dc:title>
          </cc:Agent>
        </dc:creator>
        <dc:date>
          <cc:Agent>
            <dc:title>2013</dc:title>
          </cc:Agent>
        </dc:date>
      </cc:Work>
      <cc:License rdf:about="http://creativecommons.org/licenses/by-sa/4.0/">
        <cc:permits rdf:resource="http://creativecommons.org/ns#DerivativeWorks" />
        <cc:requires rdf:resource="http://creativecommons.org/ns#ShareAlike" />
      </cc:License>
    </rdf:RDF>
  </metadata>
</svg>