<?xml version="1.0" encoding="UTF-8" standalone="no"?>
<!DOCTYPE svg PUBLIC "-//W3C//DTD SVG 1.1//EN" "http://www.w3.org/Graphics/SVG/1.1/DTD/svg11.dtd">
<svg xmlns="http://www.w3.org/2000/svg" width="100%" height="100%" viewBox="0 0 64 128" version="1.1" xml:space="preserve" style="fill-rule:evenodd;clip-rule:evenodd;stroke-linejoin:round;stroke-miterlimit:2;" xmlns:rdf="http://www.w3.org/1999/02/22-rdf-syntax-ns" xmlns:cc="http://creativecommons.org/ns" xmlns:dc="http://purl.org/dc/elements/1.1/">
  <g id="Creatures">
    <g id="Wrestlers">
      <g>
        <path d="M-60,88l-4,0l0,-60l4,0l0,-4l4,0l0,-4l4,0l0,-4l4,0l0,-4l32,0l0,4l4,0l0,4l4,0l0,4l4,0l0,4l4,0l0,60l-4,0l0,4l-4,0l0,4l-8,0l0,8l-4,0l0,4l-24,0l0,-4l-4,0l0,-8l-8,0l0,-4l-4,0l0,-4Zm0,-48l0,16l4,0l0,4l4,0l0,4l12,0l0,8l-8,0l0,16l32,0l0,-16l-8,0l0,-8l12,0l0,-4l4,0l0,-4l4,0l0,-16l-24,0l0,4l-8,0l0,-4l-24,0Zm32,24l0,4l-8,0l0,-4l8,0Z" style="fill:#f3971b;" />
      </g>
      <g>
        <path d="M4,88l-4,0l0,-60l4,0l0,-4l4,0l0,-4l4,0l0,-4l4,0l0,-4l32,0l0,4l4,0l0,4l4,0l0,4l4,0l0,4l4,0l0,60l-4,0l0,4l-4,0l0,4l-8,0l0,8l-4,0l0,4l-24,0l0,-4l-4,0l0,-8l-8,0l0,-4l-4,0l0,-4Zm0,-48l0,16l4,0l0,4l4,0l0,4l12,0l0,8l-8,0l0,16l32,0l0,-16l-8,0l0,-8l12,0l0,-4l4,0l0,-4l4,0l0,-16l-24,0l0,4l-8,0l0,-4l-24,0Zm32,24l0,4l-8,0l0,-4l8,0Z" style="fill:#fbe50f;" />
        <path d="M4,56l0,-16l24,0l0,4l8,0l0,-4l24,0l0,16l-4,0l0,4l-4,0l0,4l-12,0l0,8l8,0l0,16l-32,0l0,-16l8,0l0,-8l-12,0l0,-4l-4,0l0,-4l-4,0Zm18,-8l-14,0l0,2l2,0l0,2l2,0l0,2l2,0l0,2l10,0l0,-2l2,0l0,-4l-4,0l0,-2Zm14,16l-8,0l0,4l8,0l0,-4Zm20,-16l-14,0l0,2l-4,0l0,4l2,0l0,2l10,0l0,-2l2,0l0,-2l2,0l0,-2l2,0l0,-2Zm-18,36l0,-4l-2,0l0,-2l-8,0l0,2l-2,0l0,4l2,0l0,2l8,0l0,-2l2,0Z" style="fill:#fff;" />
        <path d="M10,50l-2,0l0,-2l14,0l0,2l4,0l0,4l-2,0l0,2l-10,0l0,-2l-2,0l0,-2l-2,0l0,-2Zm28,4l0,-4l4,0l0,-2l14,0l0,2l-2,0l0,2l-2,0l0,2l-2,0l0,2l-10,0l0,-2l-2,0Zm-10,30l-2,0l0,-4l2,0l0,-2l8,0l0,2l2,0l0,4l-2,0l0,2l-8,0l0,-2Z" />
      </g>
      <g>
        <path d="M68,88l-4,0l0,-60l4,0l0,-4l4,0l0,-4l4,0l0,-4l4,0l0,-4l32,0l0,4l4,0l0,4l4,0l0,4l4,0l0,4l4,0l0,60l-4,0l0,4l-4,0l0,4l-8,0l0,8l-4,0l0,4l-24,0l0,-4l-4,0l0,-8l-8,0l0,-4l-4,0l0,-4Zm0,-48l0,16l4,0l0,4l4,0l0,4l12,0l0,8l-8,0l0,16l32,0l0,-16l-8,0l0,-8l12,0l0,-4l4,0l0,-4l4,0l0,-16l-24,0l0,4l-8,0l0,-4l-24,0Zm32,24l0,4l-8,0l0,-4l8,0Z" style="fill:#29e400;" />
      </g>
    </g>
  </g>
  <metadata>
    <rdf:RDF>
      <cc:Work rdf:about="">
        <cc:License rdf:resource="http://creativecommons.org/licenses/by-sa/4.0/" />
        <dc:right>
          <cc:Agent>
            <dc:title>CC-BY-SA 4.0 Jugend Hackt</dc:title>
          </cc:Agent>
        </dc:right>
        <dc:title>
          <cc:Agent>
            <dc:title>Pixelhack</dc:title>
          </cc:Agent>
        </dc:title>
        <dc:contributor>
          <cc:Agent>
            <dc:title>Hanno Sternberg</dc:title>
          </cc:Agent>
        </dc:contributor>
        <dc:creator>
          <cc:Agent>
            <dc:title>Jugend Hackt</dc:title>
          </cc:Agent>
        </dc:creator>
        <dc:date>
          <cc:Agent>
            <dc:title>2013</dc:title>
          </cc:Agent>
        </dc:date>
      </cc:Work>
      <cc:License rdf:about="http://creativecommons.org/licenses/by-sa/4.0/">
        <cc:permits rdf:resource="http://creativecommons.org/ns#DerivativeWorks" />
        <cc:requires rdf:resource="http://creativecommons.org/ns#ShareAlike" />
      </cc:License>
    </rdf:RDF>
  </metadata>
</svg>